<?xml version="1.0" encoding="UTF-8"?>
<svg id="b" data-name="Layer 2" xmlns="http://www.w3.org/2000/svg" viewBox="0 0 956.05 955.55">
  <defs>
    <style>
      .d, .e {
        fill: #fff;
      }

      .e {
        stroke: #000;
        stroke-miterlimit: 10;
      }
    </style>
  </defs>
  <g id="c" data-name="Layer 1">
    <g>
      <path class="e" d="M142.88,131.94C-21.76,292.66-44.56,550.77,79.4,743.03c177.12,274.71,597.7,284.62,786.78,17.2,133.35-188.59,115.59-444.62-40.64-613.54-175.56-189.81-498.15-194.87-682.66-14.75Z"/>
      <path d="M763.9,223.51h-78.67s1.54,81.69,1.54,81.69c.54.75,1.93-1.51,2.25-1.51h74.88v-80.18ZM246.53,225.02h-77.15l1.51,80.18c25.47-2.83,51.46-1.03,77.16-1.51l-1.52-78.67ZM492.13,557.3c21.4,20.64,43.21,41.09,65.58,60.72,38.67-4.78,79.12,2.68,117.68-1.21,24.87-2.51,41.25-23.84,43.11-47.65,3.54-45.32-2.63-94.92.05-140.7-1.32-10.97-14.66-20.92-23.15-26.77-147.25-4.38-294.91,2.34-442.13-1.12-13.47-.32-12.97-6-24.16,5.97-21.03,22.5-14.22,57.68-14.43,87.06-.16,22.97-2.67,58.11.2,79.99,2.21,16.87,20.91,39.76,38.44,41.73,9.79,1.1,21.67-.47,31.84-.07,28.05,1.12,56.35,2.47,84.62,1.54,27.32-17.7,48.07-47.85,72.61-68.08,1.81-1.49,4.94-4.52,6.91-5.19s26.03-2.52,27.59-2.06c4.1,1.23,11.83,12.56,15.23,15.83ZM248.03,675.83l-78.65,1.51,1.53,77.15h75.63s1.5-78.66,1.5-78.66Z"/>
      <path d="M492.13,557.3c-3.4-3.28-11.13-14.61-15.23-15.83-1.55-.46-25.62,1.4-27.59,2.06s-5.1,3.7-6.91,5.19c-24.54,20.23-45.3,50.38-72.61,68.08-28.27.92-56.58-.42-84.62-1.54-10.17-.41-22.05,1.17-31.84.07-17.53-1.97-36.23-24.87-38.44-41.73-2.87-21.88-.36-57.02-.2-79.99.21-29.38-6.6-64.56,14.43-87.06,11.19-11.97,10.69-6.29,24.16-5.97,147.22,3.46,294.87-3.26,442.13,1.12,8.49,5.86,21.83,15.81,23.15,26.77-2.69,45.78,3.49,95.39-.05,140.7-1.86,23.81-18.25,45.14-43.11,47.65-38.56,3.89-79.01-3.57-117.68,1.21-22.37-19.63-44.17-40.08-65.58-60.72ZM332,424.73c-33.91,29.08-65.21,60.77-95.86,93.2-5.96,9.58,4.23,13.31,10.42,19.44,2.4,2.37,5.08,7.98,7.54,9.21,6.08,3.05,84.35-87.27,98.15-94.1l1.01-5.04-21.25-22.71ZM425.01,429.25c-2.29-.62-2.51.61-3.78,1.49-15.36,10.56-36.69,35.42-50.7,49.21-20.41,20.11-60.21,54.42-75.59,75.62-1.74,2.39-5.09,7.35-4.34,10.27,1.31,5.09,17.12,14.12,21.74,17.77,31.73-23.25,56.81-54.22,84.67-81.79,11.14-11.02,36.63-30.44,44.65-41.58.97-1.35,3.19-3.44,2.35-5.3-7.22-7.29-15.47-16.08-18.99-25.69ZM632.29,494.29h40.09c4.1,0,.76-10.22.69-12.8-.3-10.33.38-20.75.05-31.07-.54-.75-1.93,1.51-2.25,1.51h-38.58v42.36Z"/>
      <path class="d" d="M425.01,429.25c3.52,9.61,11.77,18.4,18.99,25.69.84,1.86-1.38,3.96-2.35,5.3-8.02,11.14-33.51,30.56-44.65,41.58-27.87,27.57-52.95,58.54-84.67,81.79-4.62-3.65-20.43-12.68-21.74-17.77-.75-2.92,2.61-7.88,4.34-10.27,15.39-21.2,55.18-55.51,75.59-75.62,14.01-13.8,35.33-38.66,50.7-49.21,1.28-.88,1.49-2.11,3.78-1.49Z"/>
      <path class="d" d="M332,424.73l21.25,22.71-1.01,5.04c-13.8,6.83-92.07,97.15-98.15,94.1-2.45-1.23-5.14-6.83-7.54-9.21-6.2-6.13-16.39-9.86-10.42-19.44,30.65-32.43,61.95-64.12,95.86-93.2Z"/>
      <path class="d" d="M632.29,494.29v-42.36h38.58c.32,0,1.71-2.26,2.25-1.51.32,10.32-.36,20.74-.05,31.07.08,2.58,3.41,12.8-.69,12.8h-40.09Z"/>
    </g>
  </g>
</svg>