<?xml version="1.0" encoding="UTF-8"?>
<svg id="b" data-name="Layer 2" xmlns="http://www.w3.org/2000/svg" viewBox="0 0 956.05 955.55">
  <defs>
    <style>
      .d, .e {
        fill: #fff;
      }

      .e {
        stroke: #000;
        stroke-miterlimit: 10;
      }
    </style>
  </defs>
  <g id="c" data-name="Layer 1">
    <g>
      <path class="e" d="M142.88,131.94C-21.76,292.66-44.56,550.77,79.4,743.03c177.12,274.71,597.7,284.62,786.78,17.2,133.35-188.59,115.59-444.62-40.64-613.54-175.56-189.81-498.15-194.87-682.66-14.75Z"/>
      <path d="M840.59,641.94c-8.86,8.25-28.13,14.21-34.76,20.5-1.99,1.89.05,5.52-5.68,3.05.46,5.33-3.81,3.87-6.19,5.12-10.99,5.82-21.95,11.57-33.06,17.94-4.25,2.44-11.33,5.07-15.22,8.08-1.91,1.48-.4,2.76-.55,2.86-.41.27-1.85-.78-3.02-.4-15.45,5.05-43.25,24.15-59.09,32.8-48.18,26.31-96.4,53.69-145.87,80.13-8.22,4.39-33.93,18.76-41.5,19.52-14.94,1.49-33.65-8.59-47.54-13.51-13.93-4.94-34.75-10.13-46.94-16.06-27.39-13.33-56.67-23.83-83.9-39.1-21.79-12.21-43.45-23.42-65.83-34.17-16.95-8.14-33.97-19.33-50.61-28.39-11.62-6.33-18.86-12.13-29.36-18.64-7.62-4.72-19.39-7.66-25.87-14.13-1.73-1.73-7.32-10.4-7.45-12.61-.27-4.64,5.24-5.45,2.98-9.42l5,.99-.82-2.88,1.81-.13-3.33-5.14c-3.12-82.14-1.54-164.99-1.61-247.39-.04-48.2.42-96.62,0-144.99-.16-17.54-4.65-31.27,12.03-43.89,96.03-53.18,192.09-106.39,289.96-156.04,10.81-5.49,36.33-21.52,47.47-21.6,14.09-.1,47.24,21.34,61.46,28.62,85.35,43.71,169.86,86.47,253.37,133.63,20.95,11.83,41.65,13.32,43.66,41.34,2.89,40.17-.11,87.24-.04,127.95.15,88.36-.04,176.72.1,265.09-.69,9.78-2.4,14.2-9.59,20.9ZM487.13,37.51c-3.89-.67-6.64-4.42-10.8-2.34l-44.19,22.32,5.75,1.83,49.24-21.81ZM551.13,56.51l-43-21.6c-1.82-1.07-7.33,1.7-7.99,3.1-.82,1.72,1.19,1.54,1.97,1.97,5.32,2.91,38.14,19.65,41.29,19.32l7.73-2.79ZM539.13,62.51l-47.5-21.94c-4.11,1.14-7.59,3.85-11.5,5.42-2.75,1.11-8.7,1.8-11.33,3.48-1.14.73-.32,2.24-1.3,3.09-3.21,2.78-14.74,6.24-19.07,8.73-1.11.64-2.53,1.1-2.31,2.69.04,2.73,41.12,19.02,45.5,24.23,15.75-8.61,33.13-14.86,47.51-25.71ZM378.14,84.51c.46,1.68,9.76,4.94,10.35,4.82.74-.14,10.24-7.05,12.63-8.36,10.71-5.84,21.99-10.74,33-15.98,0-1.76-10.23-4.57-11.98-3.49-.09.05.84,1.37.44,2.01l-44.44,20.99ZM605.14,84.51l-43.22-22.37c-3.62-.91-10.63,1.78-13.77,3.86,6.55,1.05,12.27,2.85,18.35,5.64,7.42,3.4,22.83,15,28.64,16.44,2.17.54,6.25-.88,8.53-1.56,1.42-.43,1.76.62,1.47-2.01ZM591.13,93.49l-.97-2.52-47.54-24.12-45.49,23.66,49.5,25.98,44.5-23.01ZM389.14,91.51c14.07,10.83,31.85,15.32,46.55,25.04,16.88-7.75,33.48-16.03,49.43-25.55l-45.5-23.58-43.74,23.32-6.74.77ZM432.14,68.51l-36.04,17.44-2.95,2.54c13.75-4.74,27.36-11.21,39-19.98ZM581.14,83.49c-8.11-6.97-18.15-11.12-28-14.98,8.16,6.4,18.45,10.81,28,14.98ZM380.14,95.49c-1.6-2.52-8.57-5.26-11.24-4.83l-45.75,23.82,10.29,2.86c6.8-4.07,14.14-9.36,21.04-13.02,3.57-1.89,16.71-8.7,19.67-9.42,2.43-.59,3.73.62,5.99.58ZM659.13,112.51c-11.83-6.04-23.85-11.78-35.69-17.82-1.89-.96-3.33-3.12-5.25-3.75-5.43-1.77-10.9,1.48-16.06,2.57-1.98,2.55,29.92,16.89,32.72,17.78.8.25,3.37.62,1.77-.79-10.74-3.95-20.69-9.18-30.48-15.02-.15-1.51-.4-2.35,1.5-2.01,2.23.41,10.79,6.3,14.13,7.88,6.14,2.92,24.47,12.35,29.58,13.49,2.79.62,6.19.62,7.77-2.34ZM540.13,118.51l-49.42-24c-10.01,4.17-18.94,10.64-28.53,15.53-5.72,2.92-12.15,4.95-18.02,8.03-1.1.58-2.49-.23-2.03,1.92l49.33,25.36c2.43-3.6,50.38-24.59,48.68-26.83ZM647.13,120.49c1.05-1.53-15.48-7.5-17.18-8.3-10.91-5.13-21.21-11.52-32.31-16.25l-45.51,23.08,8.99,6.01,38.68,19.26,47.33-23.79ZM339.14,121.51c-1.92,2.47,39.99,21.21,42.5,23.98l49.48-25.49-46.48-23.43c-16.28,6.26-29.46,18.19-45.5,24.94ZM374.14,98.51c-10.49,4.4-21.01,9.82-30.67,15.82-.79.49-9.01,4.73-7.32,6.17,1.88.4,2.98-.29,4.55-.94,6.19-2.59,24.99-14.06,30.77-18.23,1.01-.73,2.41-1.48,2.68-2.81ZM673.85,118.8c-3.81-3.16-11.13,1.55-15.71,1.71.94,3.37,3.72,4.43,6.33,6.16,11.43,7.58,25.72,14.05,38.18,19.82,1.98-1.57.21-1.59-.8-2.23-12.86-8.09-29.79-13.06-41.71-22.75,12.02,4.62,23.58,10.55,35.02,16.47,7.71,3.99,10.01,9.21,19.98,4.51.46-2.6-.37-1.54-1.42-2.08-11.4-5.83-26.37-11.13-36.95-18.05-1.87-1.22-2.04-2.83-2.92-3.56ZM326.14,123.49l-9.02-4.42c-16.02,8.14-31.03,19.01-47.98,24.93l10.23,3.32c11.44-6.97,23.69-12.38,35.49-18.54,1.22-.64,1.3-1.89,2.54-2.56,2.69-1.44,5.59-2.96,8.73-2.73ZM594.14,146.51l-48.5-23.93-49.51,25.42,49.52,26.18c15.21-9.14,32.32-15.78,47.2-25.44.97-.63,1.79.11,1.29-2.23ZM387.14,149.48l49.52,25.01,48.46-26.49-49.41-24.5c-14.23,9.06-33.44,14.81-47.28,23.76-.97.63-1.79-.11-1.28,2.22ZM701.13,147.51c-17.94-4.5-32.43-17.67-49.52-24.09-14.57,7.52-28.67,15.58-43.48,22.63-1.17.56-2.44-.14-2.01,1.94l47.59,25.53c10.95-4.69,21.88-9.87,32.29-15.64,3.52-1.95,10.72-5.46,13.46-7.54,1.13-.86,2.05-1.05,1.66-2.83ZM300.14,142.5c5.39-3.75,10.83-7.92,16-11.99-7.77,2.81-14.24,8.35-21.64,11.85-4.41,2.09-10.48,2.41-13.36,6.13,2.53,1.83,15.82-4.45,19-5.99-4.86,3.38-9.4,6.94-14.98,9.5l41.58,22.52,49.4-25.03-1.28-2.22-43.23-21.65c-11.29,4.11-20.86,11.76-31.48,16.89ZM769.13,170.51l-43.98-23.57c-4.88-1.55-9.28,2.07-14.01,2.57l11.27,3.21c9.3,4.38,18.5,9.23,27.07,14.93,1.02.68,3.12,2.02.18,1.83-6.95-4.49-14.91-7.11-22.27-10.69-1.2-.58-1.21-1.91-2.51-2.57-1.22-.62-8.09-3.86-8.73-1.73,10.82,5.14,21.06,12.05,32.43,16.07,3.89,1.38,7.67.65,11.21,3.74l9.35-3.79ZM276.13,153.51l-12.77-3.8-47.22,23.78c3.12.18,6.97,3.23,10.01,2.58,3.54-.75,12.89-7.97,16.97-10.08,7.31-3.79,15.18-6.5,22.29-10.71l10.72-1.77ZM431.13,176.52l-49.51-24.61c-16.5,7.96-33.23,16.07-48.47,26.09l47.31,26.36c15.2-10.26,33.74-16.41,49.24-25.77.88-.53,1.99.52,1.43-2.08ZM540.13,176.51l-49.5-24.94-48.5,24.94c14.83,11.47,33.56,16.61,48.49,27.74l49.51-27.74ZM649.13,176.51c-17.06-7.1-32.53-18.03-49.51-25.09l-48.46,25.58,48.3,26.28,49.67-26.77ZM660.14,178.48l46.47,25.01,47.51-25.49c-.75-.94-1.66-1.65-2.65-2.33-7.95-5.51-27.06-15.21-36.31-19.69-2.75-1.33-5.45-2.9-8.54-3.37-13.56,7.94-28.65,13.78-42.15,21.73-1.15.68-5.76,2.61-4.33,4.15ZM274.13,155.51c-7.33.57-14.46,5.16-21.02,8.47s-16.58,8.22-22.68,12.32c-1.29.87-2.74,1.12-2.29,3.2l45.99-23.99ZM322.13,177.51l-43.49-21.94-16.19,7.73-31.3,18.68c13.13,8.88,28.59,14.19,41.48,23.33l49.5-27.8ZM817.13,197.51l-37.96-21.55c-5.01-2.17-8.27,2.33-13.03,2.55.15,1.55,1.52,1.52,2.56,1.93,14.05,5.47,26.86,11.11,39.43,19.63,1.08.54,2.09.45,3.24.26.77-.13,5.44-1.73,5.76-2.81ZM222.14,181.51l-16.02-2.56-39.98,22.54c4.66-.85,1.69,1.62,2.92,2.49,3.84,1.39,7.05,3.44,11.34,2.28,2.76-.75,14.22-8.81,18.07-10.93,7.35-4.06,14.77-7.91,22.25-11.74,1.04-.53,1.89.53,1.42-2.08ZM595.13,205.51l-50.51-25.73c-12.75,10.59-31.77,15.67-45.18,24.52-1.05.69-2.56,1.05-2.31,2.69l48.52,26.19c2.82-3.1,51.2-25.41,49.49-27.67ZM486.13,205.51l-49.67-24.83-48.35,24.33-1.98,1.97,49.68,26.33c2.81-3.19,52.07-25.51,50.32-27.8ZM702.13,205.51l-48.5-25.01-48.5,25.98c9.62,2.54,42.13,25.48,49.44,24.98,2.37-.16,15.04-7.13,18.23-8.8,9.89-5.16,20.15-11.08,29.33-17.16ZM376.13,206.52l-49.5-24.95c-16.39,7.71-32.45,16.29-47.47,26.43l48.32,25.28,47.38-24.54,1.28-2.22ZM802.13,203.5c.35-2.33-2.45-3.41-4.11-4.38-6.38-3.71-15.32-6.59-22.24-9.76-5.72-2.62-10.66-7.05-17.1-7.85-13.15,9.22-31.16,14.28-44.26,22.75-.96.62-1.8-.11-1.28,2.22l40.52,22.01c4.99-4.71,10.51-6.55,16.15-9.82,10.02-5.81,20.37-14.18,32.32-15.18ZM269.13,207.51l-44.51-22.66c-14.01,7.4-28.49,13.93-41.47,23.15.02,1.69,15.28,9.59,17.96,11.02,4.56,2.44,21.7,11.72,25.5,11.55,5.39-.23,23.64-12.94,29.85-16.24,1.4-.74,13.64-5.53,12.67-6.82ZM832.13,206.51c-6.81-5.41-20.96-4.27-9.57,4.97l9.57-4.97ZM806.13,204.51c-.09-.13-2.45-.64-3.09-.51-2.56.53-12.78,6.29-15.93,7.97-7.52,4.01-14.48,9.18-22.28,12.72l-7.69,5.79,10.69-1.8,37.69-21.12c1.01-.19.77-2.83.62-3.06ZM169.05,209.59c-8.07-4.13-15.3-3.87-17.91,5.9l2.98-1.01c-.22,6.55,10.25,6.21,13.12,1.55.85-1.38-.17-2.28-.02-2.89.19-.81,3.08-.75,1.83-3.56ZM818.13,214.49c1.59-2.13-6.19-6.22-8.1-5.48-10.08,4.92-19.45,11.28-29.23,16.66-1.51.83-16.89,7.04-15.67,8.81,3.81.58,4.97,4.59,9,3.61,4.89-1.19,16.53-10.08,21.98-13.12,7.01-3.9,14.63-7.36,22.02-10.49ZM648.13,234.51l-48.5-24.61-48.49,26.58,48.51,25.66,45.82-24.81,2.66-2.82ZM660.14,236.49c14.48,4.36,26.74,14.29,40.32,20.85l46.66-27.34-40.33-20.23c-13.16,7.67-27.06,14.1-40.32,21.56-1.47.83-3.75,2.06-5.02,2.95-.87.6-1.85-.17-1.31,2.22ZM430.13,237.49l-1.65-2.83-46.83-24.11-48.52,25.47c-.43,1.6,3.11,2.95,4.34,3.65,14.48,8.28,30,14.65,44.16,23.51l48.5-25.68ZM540.13,236.49c.5-.66-1.68-1.8-2.3-2.18-6.17-3.85-15.36-8.49-22.02-11.98-3.62-1.9-21.97-11.79-24.17-11.92-3.58-.22-13.68,5.6-17.52,7.57-11.08,5.67-21.97,12.14-32.96,18.02l49.65,26.27,49.33-25.79ZM838.14,217.5c.8-1.39,2.86-.64,1.85-3.31-3.66-6.6-8.54-2.73-13.69-.53l.78,8.2,3.06.65c.18,1.7-2.25.85-2.87,2.61-.89,2.51.36,7.47-.12,10.38,7.72-.87,11.89-10.25,5-14.49,1.57-1.85,3.51-3.28,6-3.5-2.58,4.47-2.24,6.78-1.99,12,9.88,1.34,10.86-12.8,1.99-12ZM323.13,237.49l-48.65-25.7c-15.28,4.67-28.05,14.89-42.35,21.73l3.29,3.2,46.22,23.43c13.2-8.65,26.74-16.91,41.49-22.65ZM180.64,212.87c-1.28,0-2.65,1.18-3.48,2.13.05,2.3,36.22,17.91,40.9,21.02l4.06-2.03c-.01-2.33-39.15-21.13-41.48-21.13ZM217.13,241.48l-1.65-2.83c-6.44-2.44-39.71-21.77-43.58-20.96-1.1.23-2.26,1.95-3.75,1.83,3.51,8.58,14.89,10.34,22.37,14.1,3.68,1.85,19.22,11.48,21.91,10.74,1.42-.39,2.63-3.03,4.71-2.88ZM823.07,217.56c-1.34-1.21-23.26,8.52-26.26,10.11-2.4,1.28-19.64,12.74-20.23,13.82s-.68,1.97,0,3.01c5.73,6.06,11.48-2.96,16.21-5.84s29.6-14,30.9-16.17l-.62-4.93ZM157.07,223.58l-7.41-3.08c-6.07,6.39,8.11,13.83,7.41,3.08ZM165.13,226.5c-6.81-.44-7.86,5.48-1.49,7.98,2.48-1.91,1.31-5.28,1.49-7.98ZM824.13,226.5c-.97-1-11.36,6.11-13.32,7.17-5.67,3.06-12.02,5.45-17.55,8.45-8.72,4.74-17.36,7.48-13.64,19.39,1.3,1.79,1.45.15,2.59-.44,6.71-3.45,14.47-7.37,20.95-11.06,3.55-2.02,18.28-10,19.97-12.03.51-.61,1.04-1.1,1.01-1.99v-9.5ZM209.13,256.5l.06-8.5-42.04-20.5c-.48,2.44-2.18,5.44-.03,7.53l42.01,21.47ZM844.14,289v-58l-2-1.01c-7.1,3.01-5.18,21.21-5.05,28.06.05,2.85,1.01,5.27,1.09,7.91.26,8.83-.29,17.72-.03,26.54l5.99-3.5ZM153.93,233.7l-5.78-3.2c-.43,6.54-.93,12.7,6.99,13.99l-1.2-10.79ZM754.13,235.49c.78-.99-5.01-4.29-6.7-2.25l-32.22,18.84-11.07,8.41c3.11.15,5.69.24,8.73-.76,9.48-3.1,28.28-17.3,37.94-23.07,1.02-.61,2.11-1.15,3.32-1.18ZM766.13,242.49c.83-1.06-7.37-5.93-9.09-5.54l-43.89,26.06c2.72,2.59,3.68,5.43,8.02,4.08,3.41-1.06,12.26-7.54,16.29-9.76,2.67-1.47,5.98-2.34,8.98-4.02,6.25-3.5,12.19-9.29,19.7-10.81ZM162.98,238.66l-3.84-1.15c0,4.58-1.37,8.57,3.98,9.99l-.15-8.84ZM276.13,260.51l-44.23-22.38c-2.77-1.44-3.99,1.15-5.77,2.87l45.25,22.55.76,1.93,3.98-4.98ZM827.14,242v56.5c1.44.18,6.86-3,7.02-3.7.43-1.88.87-8.33,1.02-10.76.94-15.58-1.72-30.99-1.05-46.54l-6.99,4.5ZM693.14,258.52l-39.52-19.97-46.82,25.12-1.67,2.83c13.15,4.03,25.72,11.92,37.6,18.9l4.82,1.12c3.27-2.34,47.22-25.69,45.58-27.99ZM486.14,264.51l-50.33-24.8c-15.67,7.83-31.51,15.56-46.69,24.3-1.08.62-2.43-.1-1.98,1.98l49.33,26.36,49.68-27.83ZM594.13,265.49l-48.48-25.95c-15.59,8-32.39,15.79-47.54,24.47-1.08.62-2.43-.1-1.98,1.98,13.83,7.78,28.64,14,42.68,21.34,2.58,1.35,4.72,3.26,6.97,5.06l48.35-26.9ZM208.13,270.5c-.57-3.89,2.58-6.89-.44-10.05-1.37-1.44-18.42-10.89-21.52-12.47-5.88-3-11.74-5.45-18.01-7.48l.98,10.51,39,19.49ZM377.13,265.51l-49.5-25.07c-14.52,5.04-27.23,13.95-40.5,21.07-.31,1.44.14,1.62,1.04,2.44,1.75,1.61,8.66,5.21,11.29,6.71,8.43,4.84,21.37,12.33,30,16,1.87.8,4.16,1.88,6.19,1.86,3.33-.03,34.14-17.7,39.18-20.84.57-.36,2.81-1.52,2.3-2.19ZM271.14,268.49l-45.97-24.56c-3.62-1.61-7.44,1.85-6.99,5.52l47.46,24.03,5.5-5ZM807.14,253v56.5c3.94-3.99,16.41-6.04,17.06-11.44,1.31-10.89.79-34.72-.02-46.1-.2-2.85-1.31-5.55-1.05-8.45l-15.99,9.5ZM771.89,246.76l-3.33-1.22-46.25,24.13,1.32,7.84,49.52-26.04-1.25-4.71ZM148.14,246.5v56l5.99,3c-1.39-13.76-1.43-28.61-1.04-42.55.21-7.53,4.71-13.31-4.95-16.45ZM158.14,251.5v55.5c0,.73,5.18,4.38,5.99,3.5.79-18.89-1.57-37.51-.93-56.37l-5.06-2.62ZM264.01,276.66l-45.4-22.24c-3.73-.3-4.02,2.86-3.32,5.93l47.34,25.14,1.37-8.84ZM774.13,254.5c-11.08,3.3-20.36,10.57-30.32,16.17s-24.53,6.88-19.67,21.83l49.01-26.49.98-11.51ZM804.14,254.5c-8.82,3.26-17.56,7.78-25,13.5v55.5l25-12.5v-56.5ZM168.14,258c1.27,16.87,0,36.76,0,54,0,3.09,14.35,8.85,16.99,11.5,0-2.12-.13-4.25.13-6.38.18-1.46.51-6.06,1.87-6.62l-.59,14.03,25.59,11.97c-.19-8.49.27-17.05.06-25.55-.07-2.85-.98-5.25-1.09-7.91-.25-6.14,1.52-21.87-1.92-26.08-2.07-2.52-18.58-10.14-22.73-12.27-1.72-.88-2.87-2.54-4.6-3.4-4.5-2.23-9.79-3.28-14.21-5.79-1.57.66.49,2.23.51,2.49ZM701.14,263.52c-1.5.18-2.67-1.63-3.77-1.85-2.39-.48-15.48,9.67-18.91,11.66-6.4,3.71-20.49,9.17-25.26,13.74-1.51,1.45-2.53,1.9-2.06,4.43,4.94.7,51.63-25.6,49.99-27.98ZM330.14,294.5c3.04-2.46-3.29-6.28-5.08-7.41-7.88-5.01-29.9-17.08-38.21-19.82-3.34-1.1-5.17-.93-7.71,1.74,6.42,1.87,48.78,27.28,50.99,25.49ZM713.14,269.51l-9.06-2.59-45.92,26.08c2.56,1.53,4.92,5.35,7.98,4.09,15.59-9.31,32.93-15.86,47-27.58ZM263.13,298.49c-.46-3.48,1.42-8.55-1.6-10.89-5.44-4.22-19.57-9.21-26.44-12.56-4.38-2.13-8.91-5.46-13.47-7.53l-.47,1.98h-5c-.05,2.14-.58,4.69,1.6,5.9l45.39,23.1ZM641.13,288.51l-42.42-20-46.56,25.49,40.49,22.43,48.48-27.92ZM431.14,296.49c.31-1.39-.21-1.65-.97-2.52-2.11-2.43-33.47-18.04-38.67-20.33-3.24-1.43-6.57-2.75-9.86-4.07l-40.49,21.94,19.97,11.51,30.52,14.54c13.62-5.59,25.36-16.55,39.5-21.07ZM541.13,293.52l-50.5-23.88-49.5,23.88,50.57,28.02,48.14-25.79,1.28-2.22ZM272.18,277.45l50.96,25.62,2.56-5.54-48.55-25.64c-2.24-1.2-6.15,3.83-4.96,5.56ZM750.14,282.5v58l24.38-11.9-.39-57.11c-2.44-2.4-20.15,10.14-24,11ZM667.15,306.52l1.49,1.97c4-3.78,9.86-5.4,14.8-8.18,11.35-6.36,21.95-14.5,33.68-20.32l.55-3.49-2.84-1.79-48.69,25.82c-.87,2.49,2.77,2.55,3.03,3.49v2s-2.02.51-2.02.51ZM319.13,314.5c1.17-6.32,1.64-7.11-3.85-10.64-12.3-7.9-29.69-13.18-42.12-21.92-4.52-1.81-4.54,3.32-3.85,6.4l49.83,26.15ZM265.14,364.5v-59.5c-5.23-3.46-45.9-24.12-48-22.49,3.11,4.13.74,8.43.96,13.53.1,2.37,1.02,4.56,1.08,6.92.33,12.88-.76,25.77,1.46,38.54l44.49,23.01ZM669.14,323.49c.92,1.01,20.84-12.71,23.32-14.17,5.35-3.13,25.06-11.77,26.47-16.53.52-1.76.59-6.76-.28-8.31l-17.19,7.85c-5.32,3.31-10.21,7.22-15.66,10.34-10.58,6.06-18.82,4.25-16.67,20.82ZM723.14,298v57.5c4.3-1.58,23.83-10.46,24.81-13.69.91-19.21-1.33-38.13.19-57.3l-24.99,13.5ZM596.14,320.49c18.61-3.68,33.4-17.02,49.98-25.49-1.56-2.02-3.38-3.4-5.92-1.98-14.23,9.33-32.39,15.01-44.06,27.47ZM844.14,351.5v-57l-5.98,5.52-1.03,52.97,7.02-1.49ZM318.97,318.66l-40.91-21.58c-6.24-1.8-9.15-.69-7.76,6.27,15.84,8.75,34.64,14.32,48.34,26.15l.33-10.84ZM385.02,318.61c-12.7-5.47-25.12-14.66-37.9-19.59-3.84-1.48-9.1-4.49-11.98-.01l47.6,23.41c2.01.31,2.94-2.25,2.27-3.81ZM486.13,325.48c.39-1.77-.52-1.98-1.65-2.83-5.4-4.07-17.85-10.32-24.33-13.67-7.51-3.9-15.54-6.61-22.67-11.27l-39.34,21.81c-1.22,1.78,5.76,5.25,7.32,6.15,13.22,7.6,28.08,15.22,42.19,20.72l38.48-20.91ZM652.85,297.84c-1.96-.88-3.76-.44-5.67.22-7.23,2.52-19.01,11.45-26.38,15.61-2.8,1.58-15.82,6.81-15.57,9.16l2.99,5.61,49.91-26.95c-.56-2.16-2.95-1.65-4.66-2.37-.32-.13-.37-1.17-.62-1.28ZM497.14,324.49c8.94,4.6,18.08,8.86,27.01,13.49,3.96,2.06,10.16,7.57,14.48,7.58,4.78,0,28.17-16.44,34.2-19.86,4.37-2.48,9.32-3.53,13.28-6.7.04-3.46-32.34-16.94-36.73-20.27-5.81-1.54-12.83,4.56-18.29,6.23l-33.95,19.53ZM719.14,300.5l-23.84,11.14.85,58.86,22.99-11v-59ZM376.12,331.5c.13-3.47,2.54-4.66,5-6.5l-46.23-22.86c-2.37-1.74-9.13,3.6-6.08,5.36l47.32,24ZM835.13,301.5c-.76-.8-8.29,2.04-8,4.49v54.5c.22.28,5.69-3.13,6-3.51.91-1.09,1.91-11.36,2.05-13.95.73-13.6-.63-27.88-.05-41.54ZM660.84,304.66l-46.72,25.34c-1.9,1.6-.58,3.85.54,5.55,1.25,1.41,7.9-1.73,9.52-2.51,12.55-6.03,25.43-15.49,37.89-22.11l1.92-2.75-3.15-3.53ZM823.13,306.5l-15.84,8.65c-.57,12.94.18,25.93-.12,38.88-.06,2.55-2.96,17.27.45,17.43,3.93-3.36,15.13-5.46,16.29-10.69l-.79-54.28ZM148.14,308.5v58.5l4.99,2.5,1.07-58.39-6.06-2.61ZM270.14,326.5v30.5c0,1.14,2.83,4.91,3.49,6.51.88,2.13.75,5.05,2.08,6.92.99,1.4,12.32,7.92,14.76,9.24,9.47,5.14,19.87,8.36,29.18,13.82,3.29-4.49.54-9.77.45-14.45-.25-12.61,1.69-30.37.09-42.09-.17-1.28-.16-1.88-.98-3.02-1.58-2.2-23.97-14.05-28.02-15.98-2.33-1.11-16.48-7.44-17.6-7.44-3.89,0-.71,7.58-.47,10.5.18,2.15-.04,4.34,0,6.48l-2.99-1ZM374.1,334.55c-12.76-5.25-24.37-13.92-37.29-19.22-4.89-2.01-13.76-6.5-10.68,2.67l47,23.51.97-6.96ZM615.14,350.5l47.99-24.5.52-11.51-46.03,24c-4.01,2.75-2.13,7.85-2.48,12.01ZM163.14,373.5v-56.5c0-.45-3.85-2.69-3.99-2.5-1.12,19.27-1.7,39.04-.42,58.11l4.41.89ZM669.14,327.5v58c4.77-1.91,22.23-9.9,23.56-13.94,1.57-4.74.51-23.23.48-29.61-.03-5.43-1.8-10.92.04-16.97l-1.56-10.47-22.52,12.99ZM779.14,386.5c4.07-1.37,23.99-10.98,24.81-13.69.64-13.6-.17-27.25.15-40.85.06-2.46,2.93-16.29-.45-16.43l-24.51,15.48v55.5ZM168.14,319.5v56.5l15.99,8.5c-1.01-4.81,1.09-10.16,1.09-14.5,0-2.37-1.12-4.57-1.12-6.96-.03-11.64.22-23.28-.09-34.91l-15.87-8.63ZM593.13,324.51c-2.63-.28-4.33-3.46-7.01-2.61l-42.98,26.59,7.7.27,42.29-24.25ZM373.13,355.5l-.98-10.51-46-22.49-1.01,9.99c1.65-.13,3.18.15,4.72.78,14.39,5.92,29.21,15.31,43.28,22.22ZM441.13,347.52l-45.61-22.98c-1.32-.41-4.08.16-4.38,1.48-.57,2.51,41.07,20.82,44.97,25.09,1.96,1.61,6.1-2.05,5.02-3.58ZM604.13,331.49c-1.72-2.17-6.39-5.44-9.01-4.6l-43.95,24.1,6.01,6.1,46.96-25.6ZM453.14,350.48l41.51,22.63,37.48-25.1-40.33-20.28-38.05,20.71-.61,2.05ZM212.14,399.5v-52.5c0-.54,1.64-1.52.57-3.48-1.51-1.57-3.44-2.68-5.27-3.82-3.8-2.36-14.84-7.99-18.82-9.18-1.41-.42-1.76.11-1.5,1.48l.12,54.85,24.9,12.65ZM436.13,353.51l-43.97-22.54c-11.07-.97-9.4,3.06-1.7,7.7,12.23,7.36,27.25,13.18,39.9,20.17l2.76.22,3.01-5.54ZM641.14,400.5c4.38-.66,22.14-10.03,23.48-13.02l-.49-56.98-22.99,11.5v58.5ZM750.14,347v55.5l24.34-12.23c.74-16.33,1.27-32.97.71-49.32-.06-1.86-.21-4.64-.46-6.41-.15-1.07,1.11-1.47-1.09-1.06-1.88.35-12.68,6.39-15.17,7.84-1.61.93-7.99,4.49-8.33,5.67ZM608.87,336.73c-2.13-2.19-9.81,1.5-12.41,2.6-12.89,5.46-25.23,14.75-38.28,20.26l2.46,6.91,49.41-26.12-1.18-3.64ZM375.13,421.49l-2.48-61.01-45.51-21.98,2.45,59.99c13.64,10.19,30.34,15.51,45.54,23ZM430.13,362.54l-49.98-24.05-.99,5.95,46.97,23.57-.99,1.98,2.5,2.5,2.48-9.96ZM615.14,357v58.5l22.79-12.2c.55-5.75.05-11.57.17-17.34.11-5.16.03-9.8,0-14.92-.06-9.18.13-18.37.04-27.54l-22.99,13.49ZM561.15,380.5c7.1-4.05,48.2-23.42,49.79-28.71.45-1.5.56-4-.27-5.33-1.21-1.67-1.9-.64-3.24-.19-13.81,4.72-28.78,16.15-43.23,20.79l-2.86,3.14-.2,10.29ZM265.97,370.66l-48.84-24.15c-.13,2.18,3.94,4.07,4.06,4.69.31,1.55-1.05,4.58-1.11,6.76-.27,10.15-.87,21.06-.76,31.04.02,1.83.95,12.92,1.3,13.5,12.39,11.88,29.73,15.09,44.48,23l.85-54.84ZM748.13,347.51l-24.89,14.65c2.68,18.36-1.25,36.85-.1,55.34l23.84-12.65,1.15-57.34ZM426.93,374.7l-46.78-24.2c.33,2.9-1,7.29.98,9.51l45.52,24.48.28-9.79ZM539.14,354.48c-1.36-2.25-3.07-4.78-5.96-3.5-3.04,1.35-10.05,7.98-13.72,10.34-9.23,5.92-19.45,9.89-26.32,19.17,17.1-5.71,30.46-17.44,46-26.01ZM491.13,377.49c.2-2.53-2.95-3.69-4.69-4.8-11.3-7.2-24.63-13.67-36.83-19.18l-4.47,3.49c15.84,4.82,29.56,17.92,45.99,20.49ZM548.13,361.48c1.27-1.82-5.08-5.04-6.5-5.73-10.67,7.53-21.95,14.76-33.25,21.44-2.56,1.51-4.29,2.95-7.97,4.1-1.34.42-2.89.18-4.27.23l1,2.98c-5.71-2.29-9.27-.43-10.97,5.45,9.43,4.07,6.44,2.32,8.46,10.59.41,1.67,1.52,4.25,3.5,3.98,1.07,2.73-2.21,1.67-2.85,3.59-.68,2.03.13,5.16-.13,7.4,8.15.16,8.07-2.7,8.98-9.52.45-3.34-1.79-11.22,4.02-8.98l-1.01,12.49,9.07-3.66c-1.24-7.89-1.54-17.75-10.05-20.83l2-3.5c.48-.35,1.69,1.58,2.71,1.85,3.76,1,22.56-13.83,26.95-16.68,2.96-1.92,7.09-3.58,10.32-5.19ZM844.14,407v-50.5c-2.17,1.33-5.59,1.68-6,4.5,0,16.54.38,33.09-.99,49.5l6.99-3.5ZM486.14,380.51l-43.97-21.58-4.02,3.09,42.68,24.36,1.2.05,4.1-5.92ZM586.14,372v58.5l24.9-13.65c-1.17-15.05-1.46-30.7-.95-45.9.12-3.71,1.56-7.3,1.05-10.97-.19-1.39.54-1.74-1.49-1.48l-23.52,13.49ZM827.14,415.5c1.87-.11,6.32-2.07,6.84-3.66,1.17-3.56,0-16.91.12-21.88.06-2.64,1.07-5.05,1.08-7.91.04-6.72-1.33-12.88-1.05-19.55l-6.99,3v50ZM719.14,420.5v-57l-22.79,12.2c-2.33,18.78-.76,37.89-1.2,56.8l23.99-12ZM428.14,446c-1.29-16.83,0-36.78,0-54,0-.33,1.17-.82.14-2.02l-49.15-24.96c1.89,2.94-.08,5.45.11,7.88.28,3.52,1.71,7.38,1.94,11.07.46,7.37-3.06,35.36-.53,39.53,14.41,11.09,31.76,17.13,48,25,1.6-.7-.49-2.24-.51-2.49ZM513.14,386.49l7.24,2.84,32.71-19.37c1.34-.8,2.5-2.34,2.04-3.93-1.37-4.67-14.71,3.9-17.67,4.3l-24.32,16.16ZM480.13,389.51l-44.49-22.02-1.41,5.86,43.42,23.12,1.54-4.4-2.05-1.56,2.99-1ZM806.14,427.5c.68.76,17.43-8.47,17.83-9.65l-.85-49.34-16.03,8.67-.96,50.32ZM154.14,374.5l-6-2v25.5c0,2.39,2.78,4.23,4.52,5.49h1.48s0-28.99,0-28.99ZM520.15,404.5c4.34-2.74,8.24-6.19,12.68-8.8s22.59-9.92,23.31-13.69c.53-2.79-.36-6.55-.02-9.51l-35.74,18.25c-2.2,4.22-1.46,9.38-.24,13.75ZM560.14,444.5l22.01-11.49,1.04-2.96-1.07-56.56-21.99,13.5v57.5ZM320.93,399.7l-45.77-22.2c-3.04,4.73-.06,8.82-.13,13.39-.13,9.34-1.96,20.93-1.91,30.12,0,1.76,2.19,9.05,3.03,10.77.94,1.92,10.36,6.82,12.96,8.24,3.3,1.8,30.81,15.76,32.02,14.47l-.21-54.79ZM476.13,409.5l.88-9.43-43.86-22.57c-.3,9.08,3.11,10.53,9.97,14.52,10.73,6.24,23.33,9.36,33.01,17.48ZM669.14,391v56.5l22.84-12.16c-.03-19.33,1.81-38.47,1.16-57.84l-23.99,13.49ZM779.14,391.5v51l23.77-12.23c2.67-17.31.57-35.25,1.22-52.77-7.58,5.3-16.08,11.53-24.99,14ZM162.99,380.65l-4.85-1.15c-.66,3.95,1.12,7.69,1.09,11.49-.04,4.83-4.1,14.74,2.43,16.48,2.26.43,1.37-.99,1.48-2.47.2-2.77.56-23.21-.14-24.36ZM168.14,383.5v26.5c0,2.03,13.32,10.1,15.49,10.52,2.46.48,1.61-3.82,1.56-5.57-.23-7.84-1.8-16.17-1.21-24.29l-15.84-7.16ZM519.14,410v56.5l35.54-18.96c1.28-15.15-.11-30.42.42-45.58.14-3.98,1.65-7.55,1.04-11.98-.16-1.14.42-2.01-1.47-1.45-4.78,1.42-16.68,8.61-21.45,11.56-2.06,1.28-13.77,8.83-14.08,9.92ZM187.14,392.5v27.5c0,5.61,20.33,13.28,24.99,16.5,1.19-9.87-1.08-19.71,1.61-29.55l-26.6-14.45ZM493,394.64l-7.2-2.04-2.66,4.89,10,3-.13-5.86ZM665.14,393.5l-23.84,12.16c.06,18.96-.55,38.04-.67,56.83,3.84-2.16,24.51-10.68,24.51-14.49v-54.5ZM471.15,424.49c-.43-3.57.6-8.07-.04-11.47-1.23-6.55-25.85-12.67-31.26-17.74l-4.71-.79c-2.57,18.32.68,36.66-1,55l1.98-8.99,1.29,11.73c12.53,7.82,25.93,15.84,40.71,19.26l-.99-56.5-.93-2.07-4.07-.42c.98,1.86,1.11,3.35,1.03,5.44-.05,1.17-.61,6.15-2.02,6.55ZM775.14,395.5l-25,13.5v48.5c8.48-3.19,17.04-7.83,25-12.5v-49.5ZM491.99,405.64l-9.84-5.13-.89,9.87,11.89,4.11-1.15-8.85ZM155.13,462.49c-2.25-17.73-2.08-35.63-1.99-53.5l-5-4.49v51.48c.03,1.75,5.91,7.58,6.99,6.52ZM374.14,481.5v-54.5l-46-21.49c.46,1.26,1.42,1.7,1.72,3.24,1.67,8.43-2.03,21.18-1.77,30.3.12,4.19,1.1,17.1,3.02,20.01,1.54,2.32,10.23,7.46,13,8.96,9.54,5.14,20.08,9.16,30.02,13.48ZM615.14,477.5c7.54-5,16.22-8.36,23-14.5v-55.5l-23,13v57ZM266.14,463.5v-31.5l-48-22.49c.71,1.55,1.71,2.74,1.94,4.55.5,3.91.91,10.85,1.06,14.94.1,2.78-1.7,10.92-.11,13.06l45.1,21.44ZM747.14,460v-50.5l-22.51,12.99c-1.3,16.98-1.8,33.97-1.48,51.01l23.99-13.5ZM516.14,411.5c-2.79-.23-8.51,2.88-9.01,5.49l-.98,55.51,9.99-4v-57ZM844.14,462v-49.5c-2.17,1.33-5.59,1.68-6,4.5l-1.01,48.99c1.47,1.75,6.81-3.24,7.01-3.99ZM162.08,414.54c-3.22-1.99-3.71,3.73-3.93,6.48-.53,6.79,1.09,13.04,1.07,18.99-.02,4.03-3,23.11-.15,25.06,4.79,2.27,4.89-2.14,5.1-6.02.49-8.9.11-22.68.05-32.04-.01-1.59-1.61-12.13-2.14-12.47ZM491.03,418.6l-8.9-1.59v54.95c.68,3.67,5.44,4.59,8.49,5.56l.41-58.91ZM503.14,474v-55c0-.27,1.42-1.35,1-2.49l-7.9,2.09-1.09,59.9,7.99-4.5ZM185.14,426.5l-16.99-8c1.47,11.96,1.29,24.42,1.04,36.55-.09,4.1-2.72,11.7-.04,14.94l15.99,9.51v-53ZM835.13,418.5l-8.03,3.66.05,50.33,7.03-3.67.96-50.32ZM609.98,480.36l1.15-57.86-24.52,12.97-1.46,57.03,24.84-12.14ZM824.14,424.5c-2.48-.08-17.02,7.92-17.5,8.93l-.5,50.06c1.01,1.05,17.99-7.03,17.99-11.5v-47.5ZM719.14,425.5l-24,12v50c8.54-3.01,16.89-6.83,24-12.5v-49.5ZM188.14,428.5v52.5c2.21,3.22,23.82,13.69,24.99,12.5l-1.16-51.84-23.84-13.16ZM428.97,453.66l-45.32-21.16c-2.31,1.53-.22,3.73-.47,6.45-1.2,12.98-2.83,27.02-1.12,40.12.23,1.77,1.77,1.36,2.02,2.22.53,1.81,0,4.31,1.01,5.73,1.61,2.25,16.49,10.17,20.03,12.01,7.32,3.8,15.14,6.74,22.49,10.48,3.33-.64.56-12.8.48-15.45-.4-13.53,1.54-26.88.88-40.39ZM778.14,498.49c1.46,1.43,14.03-6.9,16.32-8.17s7.7-2.1,8.52-4.48l1.15-52.34-24.83,14.66-1.15,50.33ZM560.15,507.5l21.83-12.66,1.15-58.34-23.01,13.71c1.14,19.13-2.73,38.3.03,57.29ZM321.14,460.5l-44.99-21c-3.78,7.6-.41,18.02-3.03,25.3-.46,1.27-1.85.26-1.99,1.2l50.01,26.5v-32ZM669.14,502.5l23-12.5v-50.5l-23,13.5v49.5ZM265.14,522.5v-52.5l-43.99-21.5c-2.49,4.57,0,9.7-.11,13.61-.12,4.38-3.31,18.78-2.87,20.69.16.68,3.31,2.2,3.07,7.24-.17,3.75-5.91,3.77-2.11,8.99l46.01,23.48ZM750.14,464v50.5l23.84-12.16,1.18-51.33c-.05-1.05-1.28-.47-2.1-.11-7.34,3.22-15.43,9.53-22.91,13.09ZM519.14,471.5v58l36-19v-57.5c0-.29,1.22-.71,1-1.49-2.56-1.93-31.63,18.67-37,19.99ZM665.13,456.5c-1.83-1.8-20.71,9.75-23.86,11.63l-1.13,48.37,23.86-11.63,1.13-48.37ZM468.97,474.66l-33.84-17.15c2.98,4.53.97,8.22.95,12.45-.05,11.39-1.04,26.69.53,37.57.91,6.34,2.73,6.48,6.92,10.57l25.08,13.4c2.18-.43,1.81-10.4,2.05-12.99.16-1.72-.06-6.35,1.46-7,2.14,7.75-6.11,21.39,5,22.99l.05-56.33-6.04-1.66,1.06,4.43-1.05,9.55c-3.21-3.43-1.03-14.02-2.18-15.83ZM375.14,487.5l-48-22.99c4.05,3.61,1.68,9.07,1.96,14.53s3.2,12.43-.96,17.45c3.89-1.81,3.02.9,5.26,2.36,12.51,8.15,28.06,14.62,41.74,20.65v-32ZM747.14,516v-49c0-.17,2.45-3.82-.49-2.49-1.08.49-4.25,3.63-6.21,4.8-5.17,3.09-10.57,6.04-16.14,8.35l-1.16,50.84c1.08,1.14,23.59-11.08,23.99-12.5ZM154.14,518c-.83-16.47.62-33.47,0-50l-6-2.49c1.77,3.07.06,6.05-.05,9.44-.3,8.81-.43,19.34.01,28.09.11,2.19,1.17,13.83,1.55,14.45.13.21,3.71,2.87,4.01,2.99,2.96,1.2.49-2.32.48-2.49ZM615.14,483v48.5l21.51-11.99c.81-17.01,1.93-33.97,1.48-51.01l-22.99,14.49ZM844.14,469.5l-6.04,2.67c.66,16.86-.69,33.56-.95,50.33l6.99-4.5v-48.5ZM164.13,525.5l.03-49.52c-.18-2.64-3.15-2.49-5.01-3.48l-.05,50.33,5.03,2.67ZM320.14,550.5v-50.5c0-.28,1.07-1.02.91-1.89l-.89-1.1c-10.55-5.06-21.69-9.58-32.04-14.99-3.64-1.91-10.39-7.55-13.5-8.5-1.65-.5-1.52.21-1.52,1.5,0,3.37,1.73,5.79,2.04,8.98.69,7.17-1.35,17.77-1.05,26.05.11,2.86,1.18,16.41,1.98,17.76l44.06,22.7ZM516.14,531v-55c0-.15-1.18-2.6-1.49-2.49-2.37,2.1-6.83,3.11-7.49,6.51-.49,14.64.57,29.39.02,44.02-.13,3.35-1.54,6.34-1.05,9.97.19,1.38-.54,1.76,1.46,1.45l8.54-4.46ZM834.14,524v-49.5l-6.84,3.16-.23,1.3.08,48.54,6.99-3.5ZM185.14,537.5v-51.5c-2.57-2.94-13.92-11.09-15.8-4.79.66,13.66-1.57,29.45-.26,42.85.2,2.07.04,3.64,2,5l14.06,8.44ZM491.14,539c-.86-18.25.64-36.72,0-55l-9-3.49c.53,1.49,1.6,2.98,1.67,4.62.54,11.94-.18,28.64-.63,40.91-.14,3.68-1.89,7.49-.94,11.36,3.23-.22,6.01,2.34,8.41,3.09,2.89.89.48-1.41.48-1.49ZM503.14,480.5l-7.38,2.9-.61,58.1,7.99-4.5v-56.5ZM695.14,543.5c8.4-3.22,16.55-7.49,24-12.5v-50.5l-24,12v51ZM806.14,490v48.5c2.82.3,16.36-7.26,16.84-8.66l1.15-49.33-17.99,9.49ZM585.14,546.5c4-1.8,23.98-10.97,24.8-13.69,1.7-5.64.02-27.16.14-34.85.05-3.26,1-6.56.73-10.25-.1-1.32.75-2.04-1.18-3.19l-23.54,13.65-.95,48.33ZM213.14,552.5v-51.5l-23.99-12.5-.89,51.88,24.88,12.12ZM804.13,490.51l-23.39,12.1-1.44,1.56-1.15,50.34,24.83-13.15,1.16-50.84ZM429.14,549.5v-33.5l-43.48-22.5c-2.8,1.73-.44,3.94-.75,6.26-.27,2.08-1.48,4.18-1.67,6.35-.46,5.33.66,10.74-1.03,15.97-.06,1.49.97,2.09,1.97,2.88,4.44,3.54,18.92,12.09,24.27,14.72,6.93,3.41,14.38,4.64,20.68,9.82ZM692.14,494.5l-23,12v51l23-11.5v-51.5ZM559.14,514v46.5l22.84-11.66c.54-10.28-.14-20.6.12-30.88.13-5.25,1.47-10.1,1.04-15.97-.11-1.49.77-2.89-1.49-2.48l-22.51,14.49ZM373.97,524.66l-44.83-22.15c2.61,2.65.76,5.06.92,8.5.6,13.06-2.58,25.25.07,37.15.42,1.9-.2,4.32,0,6.33l-3.99-.5c5.09,3.12,46.11,26.44,47.99,24.5l-.16-53.83ZM264.97,527.66c-14.17-4.76-28.46-16.62-42.11-21.38-1.6-.56-2.98-1.06-4.72-.77-.42,1.65,1.68.41,2,1.66.42,1.65.96,6.85,1.06,8.8.5,9.78-1.26,21.91-.8,31.25.13,2.61,3.35,4.88-.25,9.22l44.98,23.06-.15-51.84ZM750.14,569.5l24-13.5v-49.5l-24,13v50ZM665.14,510.5l-23.84,11.16-1.16,50.84,22.35-11.13c.79-.54,2.64-2.72,2.64-3.36v-47.5ZM519.14,581.5l31.7-15.8,4.3-3.7v-48.5l-36,21v47ZM747.14,571.5v-51l-22.54,12.96-1.45,50.04,23.99-12ZM473.14,549c-1.39,4.88,1.02,15.85,0,21.5-2.29.12-1.79.37-2.01-1.48-1.19-10.12-1.75-20.44-2.42-30.61-.61-2.19-3.62-3.29-5.56-4.42-4.33-2.52-16.97-9.13-21.29-10.72-2.5-.92-4.11-1.55-4.71,1.75-1.29,7.03-.73,14.77-1.37,21.81-.08.85-1.4,1.7-1.44,3.02-.07,2.36,6.04,5.59,8.12,6.82,11.05,6.51,23.22,13.38,35.16,17.84l-1.5-28.01c-.8.16-2.87,2.08-2.99,2.5ZM155.13,573.49l-.99-45.5c-.43-2.83-3.85-3.17-5.99-4.5l.21,45.39,6.78,4.6ZM615.14,537v49.5l22.04-11.67c-.04-17.15-.45-34.31.96-51.33l-2.33.16-20.66,13.34ZM844.14,524.5c-2.59.1-5.48,1.93-5.98,4.52-1.15,5.94.21,17.24.02,24.02-.19,6.78-1.99,14.33-1.03,21.46l6.99-4.5v-45.5ZM827.14,532.5v47l7.04-3.67c.14-9.27-.29-18.6-.08-27.87.06-2.48,2.96-18.48-.46-18.44l-6.5,2.98ZM162.99,531.64l-3.85-1.14c-.86,10.55,1.21,21.03,1.04,31.55-.08,4.94-4.49,16.67,3.97,13.94l-1.16-44.35ZM429.13,607.5l-.49-53-45.5-23.99c-.52,7.14-2.32,11.88-2.05,19.54.23,6.64.23,17.95,1.09,23.91.32,2.21,2.89,6.97,3.06,9.94,13.43,9.27,28.91,16.83,43.89,23.6ZM320.14,608.5v-51.5l-47.52-25.48c-4.61.84,2.13,5.12,2.53,7.52.35,2.1.52,8.23.77,11.19.49,5.88.08,10.4.18,15.73.12,6.53-.16,13.1.62,19.56l43.42,22.98ZM185.14,542.5l-17-7.99c2.97,9.13,1.98,19.03.96,28.32,6.01,5.33,6.59,15.4,16.04,17.67v-38ZM806.14,543.5v47c5.01-4.27,17.77-6.82,18.07-14.52.09-2.28-1.06-4.53-1.11-6.94-.2-11.17.24-22.38.04-33.54l-16.99,8ZM719.14,536.5l-24,12v49l24-11v-50ZM516.13,537.5l-9.03,3.67-.95,45.33,9.06-2.61.93-46.38ZM611.13,538.5c-3.98,1.74-24.01,11.05-24.8,13.69-.98,3.25.05,9.87-.2,13.8-.13,1.97-.95,3.84-1.03,5.97-.39,10.14.36,20.4.05,30.54l24.83-13.66,1.15-50.34ZM491.12,544.52l-8.98-2.01c.31,7.22,1.15,14.26,1.04,21.54-.05,3.75-2.38,10.38-.54,13.45.84,1.41,6.95,4.05,8.48,6,.9-13.11-2.44-25.95,0-38.98ZM503.14,543.5l-6.84,3.66c1.16,11.23-2.28,24.03-1.22,34.9.2,2.02-.03,3.78,2.05,4.95l6.01.5v-44ZM213.14,592.5v-33.5l-24.51-13.49.52,45.99c2.99-.73,1.35-4.58,2.15-5.83,2.04-3.19,8.52,1.44,10.84,2.33,1.77.68,3.87.44,5.74,1.26,2,.87,2.83,3.47,5.26,3.24ZM803.14,591v-44c0-.22,1.49-1.12,1-1.49-.81-.1-1.48-.04-2.27.22-1.81.6-21.47,11.75-22.19,12.81-3.68,5.42-1.26,37.9-.05,45.95l23.51-13.49ZM692.14,550.5l-23,12.5v49.5l23-13.5v-48.5ZM559.14,565.5v50c4.38-1,21.37-8.29,22.56-11.94l1.48-48.54c.02-4.63-8.22,3.02-9.35,3.67-4.38,2.54-9.83,5.34-14.69,6.81ZM471.14,628.5v-25h1v25.5c0,.93,4.61,3.07,5.99,2.5l-1.94-46.55-3.05-.44c-.4.39,1.12,12.29-1.99,9l-2.31-15.7-28.21-17.29c-2.2-.34-1.16.36-1.5,1.46-3.56,11.65-1.71,19.82-2.08,30.93-.08,2.34-2.47,16.3-1.64,17.42,12.34,5.25,22.41,15.15,35.74,18.19ZM374.13,637.5l-.46-53.05-46.53-22.94c-.39,3.64,3.69,5.71,4.02,7.45,1.12,5.83-.89,14.9-.1,21.1.24,1.91,1.92.95,2.16,2.87.83,6.58-1.81,13.61-.07,19.56l-3.01.5,43.99,24.5ZM774.14,561.5l-24.08,12.53c-1.35.84.08,1.68.08,1.97v43.5l24-13.5v-44.5ZM265.13,617.5l.51-32.01-42.5-20.98,1.98,1.98c-.79-.11-1.56-.13-1.95.74-2.17,4.84-4.17,17.92-1.51,22.28.39.64,1.81.82,2.13,1.31,6.43,9.68,9.33,11.03,19.05,16.47,1.46.82,4.14.71,5.04,1.45s.83,3.45,2.22,4.29c1.75,1.06,5.05.17,7.32.68,3.14.71,4.26,4.42,7.7,3.79ZM665.14,564.51l-23.84,13.65c-.83,16.12-1.56,32.18-1.15,48.34l23.82-11.16,1.17-50.83ZM555.14,567.5l-36,19v49c6.36-2.31,11.8-6.9,17.62-9.88,4.31-2.2,18.38-5.7,18.38-10.62v-47.5ZM747.14,575.5l-24,12v46l24-12v-46ZM844.14,619.5v-44l-7,4.5v41.5l7-2ZM154.02,578.61l-5.9-1.59.97,42.82,6.04,1.66c-1.73-3.16-1.91-8.57-2.05-12.45-.37-10.23,1.44-20.23.94-30.43ZM638.13,578.51l-24.05,13.66.06,49.33c3.79-1.53,22.03-10.13,22.8-12.69l1.19-50.3ZM834.14,581.5c-3.29,1.18-6.58,1.67-7.06,5.44-.96,7.52-.52,24.15.02,32.09.21,2.98,2.51,5.03,1.04,8.47,3.03.44,6-5.44,6-7.49v-38.5ZM489.97,587.66l-7.84-3.15c1.5,11.92,1.4,25.34,1.05,37.54-.27,9.27-5,14.08,7.44,17.46l-.65-51.85ZM823.14,585.5l-17,9v36l16.77-8.24c1.44-1.4.23-2.46.23-3.26v-33.5ZM506.14,640.5c.52.55,9.45-2.09,9.01-4.48-.52-14.5,2.59-30.69,1.04-45.06-.16-1.5-.08-2.5-1.54-3.42-2.42,1.5-6.93,2.37-7.52,5.46l-.99,47.5ZM320.97,614.66l-49.83-26.16c.21,2.97,2.86,3.5,3.97,6.52,2.88,7.85,1.69,20.51,5.17,26.83.82,1.49,2.59,2.36,3.29,3.71,2.41,4.63,2.36,9.94,1.56,14.93h-4.99c4.52.06,12.43,7.57,15.68,7.85,1.78.15,2.57-2.55,4.85-2.88,5.93-.85,18.21,6.99,15.45,14l4,1.03.84-45.84ZM719.14,590.5l-24,11v45.5c0,.08-2.4,2.39.48,1.49,7.47-2.35,15.77-10.14,23.52-11.99v-46ZM429,612.64l-41.86-20.71-4.01.58c2.81,15.37.9,31.4-.53,46.95l45.53,25.04.87-51.86ZM503.14,591.5l-6.89.11c-1.95,1.65-2.08,48.81-.65,50.93,1.24,1.83,5.56,1.82,7.54.96v-52ZM610.14,643v-49.5l-24.92,14.13c2.18,5.39.03,10.08-.12,15.32-.33,11.49.34,23.06.06,34.55l24.99-14.5ZM803.14,596.5l-24.84,13.16-.24,1.3c-.98,11.24,2.83,22.42.08,33.53l25-12.49v-35.5ZM203.13,605.51l-13.98-7.01v11s7.22-1.27,7.22-1.27l6.76-2.72ZM669.14,617v46.5l22.84-12.14c-.11-15.53,1.13-31.35-.85-46.86l-21.99,12.5ZM559.14,669.5c8.01-2.07,16.33-6.61,23-11.5v-49.5l-22.97,12.08c.59,1.27-.03,2.48-.03,3.42v45.5ZM774.14,611.5l-23.32,11.93c-3.49,4.98-.56,10.45-.64,15.52-.1,7.23-1.58,14.29-1.04,21.55,8.59-3.75,17.66-7.67,24.99-13.49v-35.5ZM664.14,666.5v-45.5c0-.41,2.57-1.75-.48-1.49l-22.3,12.19-1.21,45.79,23.99-11ZM470.14,685.5v-46.5c0-.43-.68-3.71-.95-3.99l-26.54-14.5c-.82,0-3.69,1.63-4.2,2.27-1.27,1.56-2.23,13.1-2.35,16.16-.17,4.25-.31,9.9.04,14.06.42,4.94,4.06,9.91,1.08,15.39l32.93,17.1ZM374.13,688.5l-1.47-47.02-40.52-19.97c2.03,2.94-.15,5.46-.05,8.45.06,1.68.98,3.35,1.04,5.06.24,7.58-.88,15.37,2.55,22.45,1.33,2.74,13.28,10.25,14.99,14.07,1.15,2.56-.98,4.77-.12,6,.75,1.07,22.68,11.9,23.59,10.97ZM519.14,641v48.5l35.04-17.47c1.02-.99.92-7.81,1-9.97.47-13.48-.42-27.08-.04-40.56-5.21,1.96-35.01,16.12-35.99,19.5ZM844.13,623.51c-6.94-2.07-7.34,6.26-8.1,6.89s-6.75-.71-8.4,2.1c-1.78,3.01.69,7.7.52,11.01,6.91-5.06,15.82-10.39,15.99-19.99ZM723.14,637.5v37c7.87-2.67,16.2-7.61,23.49-12.01,2.19-3.64-.61-13.33-.58-17.49.03-3.08,2.4-17.99,1.08-19.49l-23.99,11.99ZM823.13,625.5c-6.54,3.38-19.62,5.56-17.98,15,2.87-2.47,16.16-7.42,17.74-9.26,1.13-1.32.65-4.14.24-5.73ZM156.13,639.5c-1.15-5.65.59-13.46-6.98-13,1.19,5.53.59,10.99,6.98,13ZM637.14,633.5l-21.99,12.53c-1.97,1.65-.03,4.42.04,6.93.33,13.16-.35,26.39-.04,39.54l21.99-12.49v-46.5ZM824.13,633.51l-43.53,24.96-1.45,8.04,41.92-22.57c4.1-2.33,3.08-6.35,3.06-10.43ZM804.13,635.51c-1.42-.27-2.47.29-3.72.77-2.33.88-17.19,8.86-18.78,10.22-3.25,2.79-2.63,4.95-2.48,9.01,6.32-3.34,12.2-7.47,18.3-11.19,4.57-2.78,7.96-.91,6.68-8.81ZM476.99,638.65l-4.85-1.14c4.25,8.81-3.16,43.93.92,49.56.7.97,3.22,2.32,4.57,2.43l-.64-50.86ZM514.97,692.34l.15-50.84-8.85,5.69c2.45,16.42-1.34,32.81-.14,49.31l8.83-4.15ZM719.14,641.5l-25,12.05c-.04.69,1,1.2,1,1.45v34c0,.17-2.55,3.43.48,2.49,6.91-2.15,16.54-10.25,23.52-13.49v-36.5ZM483.14,642.5v51l7.99,3.99c-.16-12.86-1.41-25.63-1.04-38.54.24-8.53,5.18-14.41-6.95-16.45ZM503.14,698.5v-51l-7.01,1c.42,17.06-1.74,33.91-1,51.01l8-1ZM428.14,669.5l-41.51-20.98c-2.99.17-1.02,19.18-.87,22.3.26,5.36.85,7.67,1.32,12.22.23,2.22-.06,12.87,1.03,13.91l36.98,19.11c1.01,1.02,3.04-.45,3.04-1.07v-45.5ZM610.14,648.5l-25,13.5v46.5l25-13v-47ZM779.15,672.5c10.65-6.32,21.92-11.83,32.98-17.51,4.74-2.43,3.25-5.3-.7-3.71-10.14,4.09-20.79,14.31-32.12,17.38l-.16,3.84ZM724.15,685.5c5.89-5.62,48.45-24.55,49.84-28.66.45-1.33.42-3.12-.33-4.36-1.17-1.63-1.59-.37-2.8.24-3.13,1.57-19.24,9.99-20.68,11.33-1.89,1.76-2.1,3.98-2.06,6.45l-2.47-3.98c-3.36,4.33-18.19,7.81-20.53,10.47-1.88,2.14-.74,5.78-.98,8.51ZM692.14,655.5l-23.01,12.48c-2.25,2.55-.04,5.88.05,8.97.29,9.49-.31,19.06-.03,28.54l22.99-12.5v-37.5ZM211.13,666.5c.39-3.11-.11-6.93-3.99-6.99l-.57,4.99,4.56,2ZM582.14,663.5l-23,11v48l23-12.5v-46.5ZM724.14,697.49l46.34-25.15c2.61-1.46,3.41-4.53,3.65-7.32l-2.04-1.1c-6.4,3.62-45.6,21.73-47.47,25.57-1.11,2.29-.29,5.51-.49,8ZM664.14,671.5l-22.84,11.16c1.33,11.84-2.67,25.99-1.17,37.36.18,1.39-.55,1.73,1.49,1.47l22.52-13.49v-36.5ZM555.14,675.5l-36,20.5v47.5c12.03-3.6,21.61-12.58,33.34-17.16l2.66-2.34v-48.5ZM727.49,701.9c11.93-8.4,25.84-13.61,37.95-21.59,1.75-1.16,4.9-2.22,4.69-4.8l-44.34,23.91-.65,4.08c2.49.84,1.77-1.19,2.35-1.6ZM468.84,691.79c-1.09-1.28-25.53-14.35-27.66-14.86-2.99-.72-2.16,8.1-2.02,10.06.25,3.51,1.52,7.45,1.97,11.03.69,5.51-1.71,13.71,5.26,16.73,9.73,4.22,12.73-4.89,20.3-8.2,2.27-2.2,4.31-12.24,2.15-14.76ZM265.13,683.49c-.62-5.25-6.22-4.61-9.99-4.99.75,1.49,4.12,3.24,5.6,3.88s2.69,1.41,4.38,1.11ZM669.14,713.5c.8.84,15.08-6.21,17.2-7.28,4.03-2.02,32.05-16.58,32.65-18.37,1.07-3.21.17-5.89-3.58-4.58-1.23.43-17.82,9.46-18.8,10.21-2.59,1.98-2.77,3.85-2.49,7.01l-.99-3c-1.57-1.69-22.66,10.31-23.5,12.01-.64,1.29-.58,2.62-.49,4ZM637.14,723v-38.5c-4.2,5.07-17.97,9.15-21.55,12.95-2.98,3.16-.48,5.9-.41,9.51.19,9.5-.23,19.04-.04,28.54l21.99-12.49ZM670.15,727.5l44.9-24.59c4.23-3.35,5.99-4.81,4.08-10.41l-48,24.49-.98,10.51ZM515.14,697.5l-8.04,3.67-.98,45.83c-.25,3.69,7.6-.94,9.02-2v-47.5ZM491.13,749.49l-.06-46.35-8.92-4.64.99,44.5c.44,3.08,4.13,3.11,6.31,4.48.93.59.16,2.38,1.68,2.01ZM610.14,738v-38.5l-24,13v35.5c0,.3-1.39,1.4-1,2.49l22.92-10.57,2.08-1.92ZM503.14,703.5l-6.36.14-1.5,1.5-.14,46.36,6.35-.16,1.65-1.34v-46.5ZM670.15,733.5c12.89-9.12,29.21-14.99,42.29-23.2,1.03-.65,7.21-4.2,5.69-5.8l-47.82,25.16-.16,3.84ZM664.13,712.5l-23.97,12.52c-2.14,2.12-1.39,4.86-1.02,7.47l24.78-14.2.21-5.79ZM582.14,752v-37.5c-6.17,6.17-22.81,8.77-23.05,18.54-.06,2.53,1.07,5.05,1.09,7.91.06,7.67.65,16.25-1.05,23.54,3.96-1.49,22.15-9.43,23-12.49ZM615.14,758.49l48.54-27.99c2.58-1.89-.15-5.12.45-8l-48.87,26.57-.12,9.43ZM637.13,727.5c-.78-.88-18.98,9.19-20.53,10.96-1.75,1.99-1.66,3.41-1.45,6.04l21.01-10.48.98-6.51ZM555.14,729.5l-35.84,19.16-1.18,38.34,1.5,1.49,35.52-21.49v-37.5ZM478.13,730.51c-5.15.27-3.68,6.38-5,9.96l5,1.03v-10.99ZM658.14,738.51c-15.4,3.23-27.63,15.09-41.78,21.68l-1.21,3.31,42.99-24.99ZM559.14,774.49l45.52-23.97c3.62-2.58,6.4-3.69,5.46-9.03l-25.3,13.94-1.7,5.06c-2.27.3.43-5.11-2.47-3.98-1.7.66-5.57,4-7.84,5.17-3.86,1.99-8.14,3.78-12.06,5.71l-1.61,7.1ZM372.14,749.49c-.87-2.8-12.37-8.25-13.99-6.98-.87,3.91,2.64.54,2.99.99.27.34-.67,2.33.65,3.06,1.94,1.07,7.82,1.86,10.36,2.94ZM515.14,785c-.07-11,0-22,0-33,0-.14-1.17-2.59-1.49-2.49l-6.55,3.66-.95,42.33,9.57-7.02c1.07-1.95-.57-2.93-.58-3.48ZM490.14,793c-.88-11.58,0-25.16,0-37,0-.25.79-.6.75-1.02l-7.74-3.48.96,40.32,6.55,3.66c1.6-.69-.49-2.24-.51-2.49ZM610.13,753.5c-6.56,1.85-49.05,23.36-49.86,26.68-.38,1.57,1.06,3.6.87,5.31l47.38-24.11c2.65-1.68,1.42-5.18,1.6-7.89ZM496.14,757v42.5l4.01.5c-3.55,1.01-4.54,1.4-4.01,5.49l6.96-1.04-1.96-5.46,2.09-1.91-.09-41.58-7,1.5ZM428.14,766.5c-5.7,1.28-7.6-4.54-12.68-5.86l-2.32,2.37,4.99.5-1.99,2.98,11.5,6.01.5-5.99ZM610.14,764.51l-48.35,23.9-.64,5.09,48.99-28.99ZM554.92,777.29l-.27-6.78-34.07,20.93c-2.09,1.75-1.41,4.64-1.43,7.06l35.77-21.21ZM555.13,782.5c-.58-.65-9.09,4.21-10.51,4.98-4.86,2.66-22.84,12.3-25.47,15.53-1.62,1.99-1,4.07-1.01,6.48,13.42-4.36,24.27-13.39,36.84-19.14l.15-7.85ZM518.14,816.5c4.52-2.23,9.28-4.33,13.67-6.82,4.96-2.82,11.62-6.62,16.25-9.75,1.2-.81,8.62-5.74,7.07-7.42-5.28,3.6-10.71,7.09-16.32,10.17-5.01,2.75-14.91,6.35-18.63,9.37-1.66,1.35-2.4,2.14-2.04,4.45ZM516.13,794.51c-2.01-1.76-12.12,4.73-9.99,8.99,5.83-.88,10.08-2.59,9.99-8.99ZM490.82,800.82c-1.49-1.75-6.32-2.98-8.68-3.31,1.64,3.65,5.9,4.32,8.52,6.98,2.57.9.41-3.38.16-3.67ZM515.13,805.5l-7.86,2.14-.13,8.86c5.69-3.2,9.5-3.03,7.98-11ZM491.03,808.6l-9.89-2.09c-1.13,8.01,5.51,5.71,9.5,9.99l.39-7.9ZM503.13,808.5l-7.55,1.94-.43,14.06,7.49-4,.49-12ZM516.13,815.51c-3.14-.38-5.97,1.4-8.58,2.88-1.47.83-2.58,1.89-1.41,3.11,1.28-.06,12.07-4.24,9.99-5.99Z"/>
      <path class="d" d="M270.14,326.5l2.99,1c-.04-2.15.17-4.33,0-6.48-.24-2.92-3.43-10.51.47-10.5,1.12,0,15.27,6.33,17.6,7.44,4.05,1.93,26.44,13.78,28.02,15.98.82,1.14.81,1.74.98,3.02,1.6,11.72-.34,29.48-.09,42.09.09,4.68,2.84,9.96-.45,14.45-9.31-5.46-19.71-8.68-29.18-13.82-2.44-1.32-13.77-7.84-14.76-9.24-1.33-1.88-1.19-4.8-2.08-6.92-.66-1.6-3.49-5.37-3.49-6.51v-30.5Z"/>
      <path class="d" d="M428.14,446c.02.26,2.11,1.8.51,2.49-16.23-7.87-33.59-13.91-48-25-2.53-4.17.99-32.16.53-39.53-.23-3.69-1.66-7.55-1.94-11.07-.19-2.42,1.78-4.94-.11-7.88l49.15,24.96c1.03,1.2-.14,1.69-.14,2.02,0,17.22-1.29,37.17,0,54Z"/>
      <path class="d" d="M265.14,364.5l-44.49-23.01c-2.22-12.77-1.13-25.65-1.46-38.54-.06-2.36-.98-4.55-1.08-6.92-.22-5.1,2.15-9.4-.96-13.53,2.1-1.63,42.77,19.03,48,22.49v59.5Z"/>
      <path class="d" d="M375.13,421.49c-15.21-7.49-31.9-12.81-45.54-23l-2.45-59.99,45.51,21.98,2.48,61.01Z"/>
      <path class="d" d="M540.13,236.49l-49.33,25.79-49.65-26.27c10.99-5.88,21.88-12.35,32.96-18.02,3.85-1.97,13.94-7.79,17.52-7.57,2.2.14,20.55,10.03,24.17,11.92,6.67,3.49,15.85,8.12,22.02,11.98.62.39,2.81,1.53,2.3,2.18Z"/>
      <polygon class="d" points="541.13 293.52 539.85 295.74 491.71 321.53 441.14 293.51 490.64 269.64 541.13 293.52"/>
      <path class="d" d="M486.13,205.51c1.74,2.29-47.52,24.61-50.32,27.8l-49.68-26.33,1.98-1.97,48.35-24.33,49.67,24.83Z"/>
      <path class="d" d="M486.14,264.51l-49.68,27.83-49.33-26.36c-.45-2.08.9-1.35,1.98-1.98,15.19-8.74,31.03-16.46,46.69-24.3l50.33,24.8Z"/>
      <path class="d" d="M431.13,176.52c.55,2.6-.55,1.55-1.43,2.08-15.5,9.36-34.03,15.51-49.24,25.77l-47.31-26.36c15.24-10.02,31.97-18.13,48.47-26.09l49.51,24.61Z"/>
      <path class="d" d="M430.13,237.49l-48.5,25.68c-14.16-8.86-29.68-15.23-44.16-23.51-1.23-.7-4.77-2.04-4.34-3.65l48.52-25.47,46.83,24.11,1.65,2.83Z"/>
      <path class="d" d="M595.13,205.51c1.72,2.26-46.67,24.57-49.49,27.67l-48.52-26.19c-.24-1.64,1.26-1.99,2.31-2.69,13.41-8.84,32.43-13.93,45.18-24.52l50.51,25.73Z"/>
      <path class="d" d="M376.13,206.52l-1.28,2.22-47.38,24.54-48.32-25.28c15.02-10.14,31.09-18.72,47.47-26.43l49.5,24.95Z"/>
      <path class="d" d="M540.13,176.51l-49.51,27.74c-14.92-11.13-33.66-16.27-48.49-27.74l48.5-24.94,49.5,24.94Z"/>
      <path class="d" d="M594.13,265.49l-48.35,26.9c-2.25-1.8-4.39-3.72-6.97-5.06-14.04-7.34-28.86-13.56-42.68-21.34-.45-2.08.9-1.35,1.98-1.98,15.14-8.69,31.95-16.47,47.54-24.47l48.48,25.95Z"/>
      <path class="d" d="M649.13,176.51l-49.67,26.77-48.3-26.28,48.46-25.58c16.98,7.06,32.45,17.99,49.51,25.09Z"/>
      <path class="d" d="M320.93,399.7l.21,54.79c-1.21,1.28-28.72-12.68-32.02-14.47-2.6-1.42-12.02-6.32-12.96-8.24-.84-1.72-3.02-9.01-3.03-10.77-.05-9.19,1.78-20.77,1.91-30.12.07-4.57-2.92-8.66.13-13.39l45.77,22.2Z"/>
      <path class="d" d="M428.97,453.66c.66,13.51-1.28,26.86-.88,40.39.08,2.65,2.85,14.81-.48,15.45-7.36-3.74-15.18-6.68-22.49-10.48-3.54-1.84-18.42-9.75-20.03-12.01-1.02-1.42-.48-3.92-1.01-5.73-.25-.86-1.79-.45-2.02-2.22-1.7-13.1-.08-27.13,1.12-40.12.25-2.72-1.84-4.92.47-6.45l45.32,21.16Z"/>
      <polygon class="d" points="648.13 234.51 645.47 237.33 599.65 262.15 551.14 236.49 599.63 209.9 648.13 234.51"/>
      <path class="d" d="M594.14,146.51c.5,2.34-.32,1.6-1.29,2.23-14.88,9.65-31.99,16.3-47.2,25.44l-49.52-26.18,49.51-25.42,48.5,23.93Z"/>
      <path class="d" d="M387.14,149.48c-.51-2.33.32-1.6,1.28-2.22,13.84-8.95,33.05-14.7,47.28-23.76l49.41,24.5-48.46,26.49-49.52-25.01Z"/>
      <path class="d" d="M168.14,258c-.02-.27-2.08-1.84-.51-2.49,4.41,2.52,9.7,3.57,14.21,5.79,1.73.86,2.89,2.51,4.6,3.4,4.15,2.13,20.66,9.74,22.73,12.27,3.45,4.2,1.67,19.94,1.92,26.08.11,2.67,1.02,5.06,1.09,7.91.21,8.5-.25,17.05-.06,25.55l-25.59-11.97.59-14.03c-1.36.56-1.69,5.16-1.87,6.62-.26,2.13-.13,4.25-.13,6.38-2.64-2.65-16.99-8.41-16.99-11.5,0-17.24,1.27-37.13,0-54Z"/>
      <path class="d" d="M265.97,370.66l-.85,54.84c-14.75-7.91-32.09-11.13-44.48-23-.35-.58-1.28-11.67-1.3-13.5-.12-9.98.49-20.89.76-31.04.06-2.19,1.42-5.22,1.11-6.76-.12-.62-4.19-2.51-4.06-4.69l48.84,24.15Z"/>
      <path class="d" d="M471.15,424.49c1.42-.4,1.98-5.38,2.02-6.55.08-2.09-.05-3.58-1.03-5.44l4.07.42.93,2.07.99,56.5c-14.79-3.42-28.18-11.44-40.71-19.26l-1.29-11.73-1.98,8.99c1.67-18.33-1.57-36.68,1-55l4.71.79c5.41,5.08,30.03,11.19,31.26,17.74.64,3.4-.4,7.9.04,11.47Z"/>
      <path class="d" d="M702.13,205.51c-9.17,6.08-19.44,12-29.33,17.16-3.19,1.67-15.86,8.63-18.23,8.8-7.31.5-39.82-22.44-49.44-24.98l48.5-25.98,48.5,25.01Z"/>
      <path class="d" d="M540.13,118.51c1.7,2.24-46.25,23.23-48.68,26.83l-49.33-25.36c-.45-2.14.94-1.34,2.03-1.92,5.87-3.08,12.29-5.11,18.02-8.03,9.59-4.89,18.52-11.36,28.53-15.53l49.42,24Z"/>
      <path class="d" d="M429.13,607.5c-14.97-6.77-30.45-14.33-43.89-23.6-.17-2.97-2.74-7.74-3.06-9.94-.87-5.96-.86-17.27-1.09-23.91-.27-7.65,1.53-12.4,2.05-19.54l45.5,23.99.49,53Z"/>
      <path class="d" d="M374.14,481.5c-9.94-4.32-20.48-8.34-30.02-13.48-2.78-1.49-11.47-6.63-13-8.96-1.92-2.91-2.9-15.82-3.02-20.01-.26-9.11,3.44-21.87,1.77-30.3-.31-1.54-1.26-1.98-1.72-3.24l46,21.49v54.5Z"/>
      <path class="d" d="M660.14,178.48c-1.43-1.54,3.18-3.47,4.33-4.15,13.5-7.95,28.59-13.79,42.15-21.73,3.09.47,5.79,2.04,8.54,3.37,9.25,4.48,28.36,14.18,36.31,19.69.99.68,1.89,1.39,2.65,2.33l-47.51,25.49-46.47-25.01Z"/>
      <path class="d" d="M701.13,147.51c.39,1.79-.53,1.97-1.66,2.83-2.74,2.08-9.94,5.58-13.46,7.54-10.41,5.78-21.34,10.95-32.29,15.64l-47.59-25.53c-.43-2.08.84-1.38,2.01-1.94,14.8-7.05,28.91-15.11,43.48-22.63,17.09,6.41,31.57,19.59,49.52,24.09Z"/>
      <path class="d" d="M320.14,550.5l-44.06-22.7c-.81-1.35-1.88-14.91-1.98-17.76-.3-8.28,1.74-18.88,1.05-26.05-.31-3.18-2.04-5.61-2.04-8.98,0-1.3-.13-2.01,1.52-1.5,3.11.95,9.86,6.6,13.5,8.5,10.35,5.41,21.49,9.93,32.04,14.99l.89,1.1c.16.87-.91,1.61-.91,1.89v50.5Z"/>
      <path class="d" d="M373.97,524.66l.16,53.83c-1.88,1.94-42.9-21.39-47.99-24.5l3.99.5c-.21-2.01.42-4.43,0-6.33-2.65-11.9.53-24.09-.07-37.15-.16-3.45,1.69-5.85-.92-8.5l44.83,22.15Z"/>
      <path class="d" d="M265.14,522.5l-46.01-23.48c-3.8-5.22,1.94-5.24,2.11-8.99.23-5.04-2.92-6.56-3.07-7.24-.44-1.9,2.75-16.31,2.87-20.69.11-3.91-2.38-9.04.11-13.61l43.99,21.5v52.5Z"/>
      <polygon class="d" points="591.13 93.49 546.64 116.49 497.14 90.51 542.63 66.85 590.17 90.97 591.13 93.49"/>
      <path class="d" d="M389.14,91.51l6.74-.77,43.74-23.32,45.5,23.58c-15.95,9.52-32.55,17.81-49.43,25.55-14.7-9.72-32.48-14.22-46.55-25.04Z"/>
      <path class="d" d="M647.13,120.49l-47.33,23.79-38.68-19.26-8.99-6.01,45.51-23.08c11.1,4.73,21.4,11.13,32.31,16.25,1.71.8,18.24,6.77,17.18,8.3Z"/>
      <path class="d" d="M320.14,608.5l-43.42-22.98c-.78-6.46-.5-13.03-.62-19.56-.1-5.33.31-9.85-.18-15.73-.24-2.96-.42-9.09-.77-11.19-.4-2.4-7.14-6.68-2.53-7.52l47.52,25.48v51.5Z"/>
      <path class="d" d="M377.13,265.51c.51.66-1.73,1.83-2.3,2.19-5.03,3.14-35.85,20.81-39.18,20.84-2.04.02-4.33-1.07-6.19-1.86-8.62-3.67-21.56-11.16-30-16-2.62-1.51-9.54-5.11-11.29-6.71-.9-.83-1.35-1-1.04-2.44,13.26-7.13,25.97-16.04,40.5-21.07l49.5,25.07Z"/>
      <path class="d" d="M300.14,142.5c10.62-5.13,20.19-12.78,31.48-16.89l43.23,21.65,1.28,2.22-49.4,25.03-41.58-22.52c5.58-2.56,10.12-6.12,14.98-9.5-3.18,1.54-16.47,7.82-19,5.99,2.87-3.72,8.94-4.05,13.36-6.13,7.4-3.5,13.87-9.04,21.64-11.85-5.17,4.07-10.61,8.24-16,11.99Z"/>
      <path class="d" d="M264.97,527.66l.15,51.84-44.98-23.06c3.6-4.34.38-6.62.25-9.22-.46-9.34,1.3-21.47.8-31.25-.1-1.95-.64-7.15-1.06-8.8-.32-1.25-2.42,0-2-1.66,1.74-.29,3.12.21,4.72.77,13.66,4.76,27.95,16.62,42.11,21.38Z"/>
      <path class="d" d="M339.14,121.51c16.03-6.74,29.22-18.68,45.5-24.94l46.48,23.43-49.48,25.49c-2.51-2.78-44.41-21.52-42.5-23.98Z"/>
      <path class="d" d="M429,612.64l-.87,51.86-45.53-25.04c1.44-15.55,3.34-31.58.53-46.95l4.01-.58,41.86,20.71Z"/>
      <path class="d" d="M539.13,62.51c-14.38,10.85-31.77,17.1-47.51,25.71-4.38-5.21-45.46-21.5-45.5-24.23-.22-1.59,1.2-2.06,2.31-2.69,4.33-2.49,15.86-5.95,19.07-8.73.98-.85.17-2.36,1.3-3.09,2.62-1.67,8.58-2.37,11.33-3.48,3.91-1.58,7.39-4.28,11.5-5.42l47.5,21.94Z"/>
      <path class="d" d="M486.13,325.48l-38.48,20.91c-14.11-5.5-28.97-13.12-42.19-20.72-1.57-.9-8.54-4.37-7.32-6.15l39.34-21.81c7.13,4.66,15.16,7.38,22.67,11.27,6.48,3.36,18.93,9.6,24.33,13.67,1.13.85,2.04,1.06,1.65,2.83Z"/>
      <path class="d" d="M468.97,474.66c1.15,1.81-1.03,12.41,2.18,15.83l1.05-9.55-1.06-4.43,6.04,1.66-.05,56.33c-11.12-1.6-2.86-15.24-5-22.99-1.52.65-1.3,5.29-1.46,7-.24,2.59.13,12.56-2.05,12.99l-25.08-13.4c-4.18-4.09-6.01-4.23-6.92-10.57-1.56-10.87-.57-26.18-.53-37.57.02-4.23,2.03-7.92-.95-12.45l33.84,17.15Z"/>
      <path class="d" d="M322.13,177.51l-49.5,27.8c-12.89-9.13-28.35-14.44-41.48-23.33l31.3-18.68,16.19-7.73,43.49,21.94Z"/>
      <path class="d" d="M431.14,296.49c-14.14,4.51-25.88,15.48-39.5,21.07l-30.52-14.54-19.97-11.51,40.49-21.94c3.29,1.32,6.62,2.64,9.86,4.07,5.21,2.29,36.56,17.9,38.67,20.33.76.88,1.28,1.13.97,2.52Z"/>
      <path class="d" d="M323.13,237.49c-14.75,5.74-28.29,14-41.49,22.65l-46.22-23.43-3.29-3.2c14.29-6.84,27.07-17.06,42.35-21.73l48.65,25.7Z"/>
      <path class="d" d="M693.14,258.52c1.64,2.3-42.31,25.65-45.58,27.99l-4.82-1.12c-11.87-6.97-24.45-14.87-37.6-18.9l1.67-2.83,46.82-25.12,39.52,19.97Z"/>
      <path class="d" d="M497.14,324.49l33.95-19.53c5.47-1.66,12.48-7.76,18.29-6.23,4.4,3.33,36.77,16.81,36.73,20.27-3.96,3.16-8.91,4.21-13.28,6.7-6.02,3.42-29.41,19.87-34.2,19.86-4.32,0-10.52-5.52-14.48-7.58-8.93-4.63-18.07-8.9-27.01-13.49Z"/>
      <path class="d" d="M374.13,637.5l-43.99-24.5,3.01-.5c-1.75-5.95.89-12.98.07-19.56-.24-1.91-1.92-.95-2.16-2.87-.78-6.2,1.22-15.27.1-21.1-.33-1.74-4.41-3.81-4.02-7.45l46.53,22.94.46,53.05Z"/>
      <polygon class="d" points="641.13 288.51 592.65 316.43 552.16 294 598.71 268.51 641.13 288.51"/>
      <path class="d" d="M519.14,410c.32-1.08,12.03-8.64,14.08-9.92,4.77-2.95,16.66-10.14,21.45-11.56,1.88-.56,1.31.32,1.47,1.45.61,4.43-.9,8-1.04,11.98-.53,15.16.86,30.43-.42,45.58l-35.54,18.96v-56.5Z"/>
      <path class="d" d="M519.14,471.5c5.37-1.32,34.44-21.92,37-19.99.22.78-1,1.2-1,1.49v57.5l-36,19v-58Z"/>
      <path class="d" d="M660.14,236.49c-.55-2.39.44-1.61,1.31-2.22,1.28-.89,3.55-2.12,5.02-2.95,13.27-7.46,27.16-13.89,40.32-21.56l40.33,20.23-46.66,27.34c-13.58-6.56-25.84-16.5-40.32-20.85Z"/>
      <path class="d" d="M802.13,203.5c-11.96.99-22.3,9.37-32.32,15.18-5.64,3.27-11.16,5.1-16.15,9.82l-40.52-22.01c-.52-2.33.31-1.6,1.28-2.22,13.1-8.47,31.1-13.54,44.26-22.75,6.44.8,11.38,5.23,17.1,7.85,6.92,3.17,15.86,6.05,22.24,9.76,1.66.97,4.46,2.06,4.11,4.38Z"/>
      <path class="d" d="M269.13,207.51c.97,1.29-11.27,6.08-12.67,6.82-6.21,3.31-24.46,16.01-29.85,16.24-3.8.16-20.94-9.11-25.5-11.55-2.68-1.43-17.94-9.33-17.96-11.02,12.99-9.21,27.47-15.74,41.47-23.15l44.51,22.66Z"/>
      <path class="d" d="M471.14,628.5c-13.33-3.04-23.4-12.94-35.74-18.19-.83-1.11,1.56-15.07,1.64-17.42.37-11.11-1.48-19.27,2.08-30.93.34-1.1-.7-1.79,1.5-1.46l28.21,17.29,2.31,15.7c3.12,3.3,1.59-8.6,1.99-9l3.05.44,1.94,46.55c-1.39.58-5.99-1.56-5.99-2.5v-25.5h-1v25Z"/>
      <path class="d" d="M428.14,669.5v45.5c0,.62-2.04,2.09-3.04,1.07l-36.98-19.11c-1.09-1.04-.8-11.69-1.03-13.91-.48-4.55-1.06-6.86-1.32-12.22-.15-3.13-2.12-22.13.87-22.3l41.51,20.98Z"/>
      <polygon class="d" points="453.14 350.48 453.75 348.43 491.8 327.73 532.14 348.01 494.65 373.11 453.14 350.48"/>
      <path class="d" d="M519.14,641c.99-3.37,30.78-17.53,35.99-19.5-.38,13.48.51,27.08.04,40.56-.07,2.15.02,8.98-1,9.97l-35.04,17.47v-48.5Z"/>
      <path class="d" d="M320.97,614.66l-.84,45.84-4-1.03c2.75-7-9.52-14.84-15.45-14-2.29.33-3.07,3.03-4.85,2.88-3.26-.28-11.16-7.78-15.68-7.86h4.99c.8-4.98.85-10.29-1.56-14.92-.7-1.35-2.47-2.22-3.29-3.71-3.47-6.32-2.29-18.98-5.17-26.83-1.11-3.02-3.75-3.55-3.97-6.52l49.83,26.16Z"/>
      <path class="d" d="M555.14,675.5v48.5l-2.66,2.34c-11.72,4.58-21.3,13.56-33.34,17.16v-47.5l36-20.5Z"/>
      <path class="d" d="M555.14,567.5v47.5c0,4.92-14.07,8.42-18.38,10.62-5.82,2.98-11.26,7.56-17.62,9.88v-49l36-19Z"/>
      <polygon class="d" points="519.14 581.5 519.14 534.5 555.14 513.5 555.14 562 550.83 565.7 519.14 581.5"/>
      <path class="d" d="M374.13,688.5c-.91.94-22.84-9.89-23.59-10.97-.86-1.23,1.27-3.44.12-6-1.71-3.82-13.66-11.33-14.99-14.07-3.43-7.08-2.3-14.87-2.55-22.45-.05-1.7-.98-3.38-1.04-5.06-.11-2.99,2.08-5.51.05-8.45l40.52,19.97,1.47,47.02Z"/>
      <path class="d" d="M470.14,685.5l-32.93-17.1c2.98-5.49-.66-10.46-1.08-15.39-.35-4.15-.21-9.81-.04-14.06.12-3.06,1.08-14.6,2.35-16.16.52-.64,3.38-2.27,4.2-2.27l26.54,14.5c.28.27.95,3.56.95,3.99v46.5Z"/>
      <path class="d" d="M429.14,549.5c-6.3-5.18-13.75-6.4-20.68-9.82-5.35-2.64-19.83-11.18-24.27-14.72-.99-.79-2.02-1.4-1.97-2.88,1.69-5.23.56-10.64,1.03-15.97.19-2.17,1.39-4.27,1.67-6.35.31-2.32-2.05-4.53.75-6.26l43.48,22.5v33.5Z"/>
      <path class="d" d="M266.14,463.5l-45.1-21.44c-1.59-2.14.21-10.28.11-13.06-.15-4.09-.56-11.03-1.06-14.94-.23-1.81-1.23-3-1.94-4.55l48,22.49v31.5Z"/>
      <path class="d" d="M723.14,298l24.99-13.5c-1.52,19.17.72,38.09-.19,57.3-.97,3.24-20.5,12.11-24.81,13.69v-57.5Z"/>
      <path class="d" d="M321.14,460.5v32l-50.01-26.5c.14-.94,1.53.07,1.99-1.2,2.62-7.28-.75-17.7,3.03-25.3l44.99,21Z"/>
      <path class="d" d="M779.14,386.5v-55.5l24.51-15.48c3.38.15.51,13.97.45,16.43-.32,13.6.49,27.25-.15,40.85-.82,2.71-20.73,12.32-24.81,13.69Z"/>
      <path class="d" d="M375.14,487.5v32c-13.68-6.03-29.23-12.5-41.74-20.65-2.23-1.45-1.36-4.17-5.26-2.36,4.16-5.02,1.25-11.77.96-17.45s2.09-10.93-1.96-14.53l48,22.99Z"/>
      <path class="d" d="M804.14,254.5v56.5l-25,12.5v-55.5c7.44-5.72,16.18-10.24,25-13.5Z"/>
      <path class="d" d="M586.14,372l23.52-13.49c2.03-.26,1.3.09,1.49,1.48.51,3.67-.93,7.26-1.05,10.97-.51,15.19-.22,30.84.95,45.9l-24.9,13.65v-58.5Z"/>
      <path class="d" d="M750.14,347c.34-1.18,6.72-4.74,8.33-5.67,2.49-1.45,13.29-7.48,15.17-7.84,2.2-.41.94-.01,1.09,1.06.25,1.77.4,4.55.46,6.41.56,16.35.03,32.99-.71,49.32l-24.34,12.23v-55.5Z"/>
      <path class="d" d="M265.13,617.5c-3.44.63-4.56-3.08-7.7-3.79-2.27-.51-5.57.38-7.32-.68-1.39-.84-1.32-3.55-2.22-4.29s-3.58-.64-5.04-1.45c-9.72-5.44-12.62-6.79-19.05-16.47-.32-.49-1.74-.67-2.13-1.31-2.67-4.35-.66-17.44,1.51-22.28.39-.87,1.16-.86,1.95-.74l-1.98-1.98,42.5,20.98-.51,32.01Z"/>
      <polygon class="d" points="609.98 480.36 585.14 492.49 586.6 435.47 611.13 422.5 609.98 480.36"/>
      <path class="d" d="M750.14,282.5c3.84-.86,21.55-13.41,24-11l.39,57.11-24.38,11.9v-58Z"/>
      <polygon class="d" points="719.14 300.5 719.14 359.5 696.15 370.5 695.29 311.64 719.14 300.5"/>
      <polygon class="d" points="555.14 729.5 555.14 767 519.62 788.49 518.12 787 519.3 748.66 555.14 729.5"/>
      <path class="d" d="M641.14,400.5v-58.5l22.99-11.5.49,56.98c-1.35,2.99-19.1,12.36-23.48,13.02Z"/>
      <path class="d" d="M669.14,327.5l22.52-12.99,1.56,10.47c-1.84,6.06-.07,11.54-.04,16.97.03,6.38,1.09,24.87-.48,29.61-1.34,4.03-18.8,12.02-23.56,13.94v-58Z"/>
      <path class="d" d="M212.14,399.5l-24.9-12.65-.12-54.85c-.26-1.37.08-1.91,1.5-1.48,3.98,1.19,15.03,6.82,18.82,9.18,1.83,1.14,3.76,2.25,5.27,3.82,1.06,1.96-.57,2.94-.57,3.48v52.5Z"/>
      <path class="d" d="M615.14,357l22.99-13.49c.1,9.16-.1,18.36-.04,27.54.03,5.12.11,9.76,0,14.92-.12,5.77.38,11.59-.17,17.34l-22.79,12.2v-58.5Z"/>
      <path class="d" d="M665.14,393.5v54.5c0,3.81-20.67,12.33-24.51,14.49.12-18.8.73-37.87.67-56.83l23.84-12.16Z"/>
      <path class="d" d="M719.14,420.5l-23.99,12c.44-18.91-1.14-38.02,1.2-56.8l22.79-12.2v57Z"/>
      <polygon class="d" points="560.14 444.5 560.14 387 582.13 373.5 583.19 430.06 582.15 433.01 560.14 444.5"/>
      <path class="d" d="M748.13,347.51l-1.15,57.34-23.84,12.65c-1.16-18.5,2.78-36.99.1-55.34l24.89-14.65Z"/>
      <path class="d" d="M669.14,391l23.99-13.49c.66,19.37-1.18,38.51-1.16,57.84l-22.84,12.16v-56.5Z"/>
      <path class="d" d="M560.15,507.5c-2.75-19,1.11-38.16-.03-57.29l23.01-13.71-1.15,58.34-21.83,12.66Z"/>
      <path class="d" d="M615.14,477.5v-57l23-13v55.5c-6.78,6.14-15.46,9.5-23,14.5Z"/>
      <path class="d" d="M611.13,538.5l-1.15,50.34-24.83,13.66c.31-10.14-.44-20.4-.05-30.54.08-2.13.9-4,1.03-5.97.25-3.93-.77-10.55.2-13.8.79-2.64,20.82-11.95,24.8-13.69Z"/>
      <path class="d" d="M188.14,428.5l23.84,13.16,1.16,51.84c-1.17,1.2-22.79-9.28-24.99-12.5v-52.5Z"/>
      <path class="d" d="M778.14,498.49l1.15-50.33,24.83-14.66-1.15,52.34c-.82,2.39-6.34,3.27-8.52,4.48s-14.86,9.6-16.32,8.17Z"/>
      <polygon class="d" points="213.14 552.5 188.25 540.38 189.15 488.5 213.14 501 213.14 552.5"/>
      <path class="d" d="M779.14,391.5c8.91-2.47,17.41-8.7,24.99-14-.64,17.51,1.45,35.46-1.22,52.77l-23.77,12.23v-51Z"/>
      <path class="d" d="M775.14,395.5v49.5c-7.96,4.67-16.52,9.31-25,12.5v-48.5l25-13.5Z"/>
      <path class="d" d="M610.14,643l-24.99,14.5c.28-11.49-.39-23.06-.06-34.55.15-5.24,2.3-9.92.12-15.32l24.92-14.13v49.5Z"/>
      <polygon class="d" points="804.13 490.51 802.97 541.34 778.14 554.49 779.3 504.16 780.74 502.6 804.13 490.51"/>
      <path class="d" d="M665.14,510.5v47.5c0,.64-1.85,2.82-2.64,3.36l-22.35,11.13,1.16-50.84,23.84-11.16Z"/>
      <path class="d" d="M750.14,464c7.48-3.56,15.57-9.87,22.91-13.09.83-.36,2.05-.95,2.1.11l-1.18,51.33-23.84,12.16v-50.5Z"/>
      <path class="d" d="M473.14,549c.12-.42,2.19-2.34,2.99-2.5l1.5,28.01c-11.94-4.46-24.11-11.33-35.16-17.84-2.09-1.23-8.2-4.46-8.12-6.82.04-1.32,1.37-2.17,1.44-3.02.64-7.05.08-14.78,1.37-21.81.6-3.3,2.21-2.67,4.71-1.75,4.32,1.59,16.96,8.2,21.29,10.72,1.94,1.13,4.94,2.23,5.56,4.42.67,10.18,1.23,20.49,2.42,30.61.22,1.85-.29,1.6,2.01,1.48,1.02-5.65-1.39-16.62,0-21.5Z"/>
      <path class="d" d="M695.14,543.5v-51l24-12v50.5c-7.45,5.01-15.6,9.28-24,12.5Z"/>
      <path class="d" d="M747.14,516c-.41,1.41-22.92,13.63-23.99,12.5l1.16-50.84c5.58-2.31,10.97-5.26,16.14-8.35,1.96-1.17,5.13-4.31,6.21-4.8,2.94-1.33.49,2.32.49,2.49v49Z"/>
      <path class="d" d="M719.14,425.5v49.5c-7.11,5.67-15.46,9.49-24,12.5v-50l24-12Z"/>
      <path class="d" d="M585.14,546.5l.95-48.33,23.54-13.65c1.93,1.15,1.09,1.87,1.18,3.19.27,3.69-.68,6.99-.73,10.25-.12,7.69,1.55,29.21-.14,34.85-.82,2.72-20.81,11.89-24.8,13.69Z"/>
      <path class="d" d="M747.14,460l-23.99,13.5c-.33-17.04.18-34.03,1.48-51.01l22.51-12.99v50.5Z"/>
      <path class="d" d="M665.13,456.5l-1.13,48.37-23.86,11.63,1.13-48.37c3.16-1.88,22.03-13.44,23.86-11.63Z"/>
      <polygon class="d" points="750.14 569.5 750.14 519.5 774.14 506.5 774.14 556 750.14 569.5"/>
      <polygon class="d" points="719.14 536.5 719.14 586.5 695.14 597.5 695.14 548.5 719.14 536.5"/>
      <polygon class="d" points="692.14 494.5 692.14 546 669.14 557.5 669.14 506.5 692.14 494.5"/>
      <path class="d" d="M665.14,564.51l-1.17,50.83-23.82,11.16c-.4-16.16.32-32.21,1.15-48.34l23.84-13.65Z"/>
      <path class="d" d="M559.14,565.5c4.86-1.47,10.31-4.27,14.69-6.81,1.13-.65,9.37-8.3,9.35-3.67l-1.48,48.54c-1.19,3.65-18.18,10.94-22.56,11.94v-50Z"/>
      <polygon class="d" points="610.14 648.5 610.14 695.5 585.14 708.5 585.14 662 610.14 648.5"/>
      <polygon class="d" points="747.14 571.5 723.15 583.5 724.6 533.46 747.14 520.5 747.14 571.5"/>
      <polygon class="d" points="669.14 502.5 669.14 453 692.14 439.5 692.14 490 669.14 502.5"/>
      <path class="d" d="M638.13,578.51l-1.19,50.3c-.77,2.56-19.01,11.15-22.8,12.69l-.06-49.33,24.05-13.66Z"/>
      <path class="d" d="M559.14,669.5v-45.5c0-.94.62-2.15.03-3.42l22.97-12.08v49.5c-6.67,4.89-14.99,9.43-23,11.5Z"/>
      <path class="d" d="M803.14,591l-23.51,13.49c-1.21-8.05-3.63-40.53.05-45.95.72-1.06,20.38-12.21,22.19-12.81.79-.26,1.46-.32,2.27-.22.49.37-1,1.27-1,1.49v44Z"/>
      <polygon class="d" points="692.14 550.5 692.14 599 669.14 612.5 669.14 563 692.14 550.5"/>
      <path class="d" d="M559.14,514l22.51-14.49c2.26-.42,1.38.99,1.49,2.48.42,5.88-.91,10.72-1.04,15.97-.26,10.28.42,20.6-.12,30.88l-22.84,11.66v-46.5Z"/>
      <path class="d" d="M615.14,537l20.66-13.34,2.33-.16c-1.4,17.02-1,34.18-.96,51.33l-22.04,11.67v-49.5Z"/>
      <path class="d" d="M615.14,483l22.99-14.49c.45,17.04-.67,34-1.48,51.01l-21.51,11.99v-48.5Z"/>
      <path class="d" d="M719.14,590.5v46c-7.75,1.85-16.05,9.64-23.52,11.99-2.88.91-.48-1.41-.48-1.49v-45.5l24-11Z"/>
      <path class="d" d="M664.14,666.5l-23.99,11,1.21-45.79,22.3-12.19c3.06-.26.48,1.08.48,1.49v45.5Z"/>
      <polygon class="d" points="747.14 575.5 747.14 621.5 723.14 633.5 723.14 587.5 747.14 575.5"/>
      <polygon class="d" points="582.14 663.5 582.14 710 559.14 722.5 559.14 674.5 582.14 663.5"/>
      <path class="d" d="M774.14,561.5v44.5l-24,13.5v-43.5c0-.29-1.43-1.13-.08-1.97l24.08-12.53Z"/>
      <path class="d" d="M669.14,617l21.99-12.5c1.99,15.5.74,31.32.85,46.86l-22.84,12.14v-46.5Z"/>
      <path class="d" d="M637.14,633.5v46.5l-21.99,12.49c-.3-13.15.37-26.38.04-39.54-.06-2.51-2.01-5.27-.04-6.93l21.99-12.53Z"/>
      <path class="d" d="M823.13,306.5l.79,54.28c-1.16,5.23-12.36,7.33-16.29,10.69-3.41-.16-.51-14.88-.45-17.43.3-12.95-.45-25.94.12-38.88l15.84-8.65Z"/>
      <path class="d" d="M807.14,253l15.99-9.5c-.26,2.9.84,5.6,1.05,8.45.81,11.38,1.33,35.21.02,46.1-.65,5.4-13.12,7.45-17.06,11.44v-56.5Z"/>
      <path class="d" d="M610.14,738l-2.08,1.92-22.92,10.57c-.39-1.1,1-2.19,1-2.49v-35.5l24-13v38.5Z"/>
      <path class="d" d="M168.14,319.5l15.87,8.63c.32,11.63.07,23.27.09,34.91,0,2.39,1.13,4.59,1.12,6.96,0,4.33-2.1,9.69-1.09,14.5l-15.99-8.5v-56.5Z"/>
      <path class="d" d="M719.14,641.5v36.5c-6.98,3.23-16.61,11.33-23.52,13.49-3.03.94-.48-2.32-.48-2.49v-34c0-.25-1.05-.76-1-1.45l25-12.05Z"/>
      <path class="d" d="M774.14,611.5v35.5c-7.34,5.83-16.41,9.75-24.99,13.49-.54-7.25.93-14.32,1.04-21.55.07-5.06-2.85-10.54.64-15.52l23.32-11.93Z"/>
      <path class="d" d="M824.14,424.5v47.5c0,4.47-16.98,12.54-17.99,11.5l.5-50.06c.48-1.02,15.02-9.01,17.5-8.93Z"/>
      <path class="d" d="M548.13,361.48c-3.22,1.61-7.36,3.28-10.32,5.19-4.39,2.84-23.19,17.68-26.95,16.68-1.02-.27-2.23-2.21-2.71-1.85l-2,3.5c8.52,3.09,8.82,12.94,10.05,20.83l-9.07,3.66,1.01-12.49c-5.82-2.24-3.58,5.64-4.02,8.98-.91,6.81-.84,9.67-8.98,9.52.26-2.24-.55-5.36.13-7.4.64-1.92,3.92-.86,2.85-3.59-1.98.26-3.09-2.32-3.5-3.98-2.02-8.28.97-6.52-8.46-10.59,1.7-5.87,5.26-7.74,10.97-5.45l-1-2.98c1.38-.05,2.93.19,4.27-.23,3.68-1.15,5.41-2.58,7.97-4.1,11.3-6.67,22.58-13.91,33.25-21.44,1.42.69,7.77,3.91,6.5,5.73Z"/>
      <path class="d" d="M664.14,671.5v36.5l-22.52,13.49c-2.03.26-1.3-.08-1.49-1.47-1.51-11.37,2.49-25.52,1.17-37.36l22.84-11.16Z"/>
      <path class="d" d="M803.14,596.5v35.5l-25,12.49c2.75-11.11-1.05-22.3-.08-33.53l.24-1.3,24.84-13.16Z"/>
      <path class="d" d="M723.14,637.5l23.99-11.99c1.32,1.5-1.05,16.42-1.08,19.49-.04,4.16,2.77,13.85.58,17.49-7.29,4.39-15.63,9.34-23.49,12.01v-37Z"/>
      <path class="d" d="M806.14,490l17.99-9.49-1.15,49.33c-.48,1.4-14.02,8.96-16.84,8.66v-48.5Z"/>
      <path class="d" d="M806.14,427.5l.96-50.32,16.03-8.67.85,49.34c-.41,1.18-17.15,10.41-17.83,9.65Z"/>
      <path class="d" d="M692.14,655.5v37.5l-22.99,12.5c-.28-9.48.33-19.05.03-28.54-.1-3.1-2.3-6.42-.05-8.97l23.01-12.48Z"/>
      <path class="d" d="M213.14,592.5c-2.43.23-3.26-2.37-5.26-3.24-1.87-.82-3.98-.58-5.74-1.26-2.32-.89-8.8-5.52-10.84-2.33-.8,1.25.84,5.1-2.15,5.83l-.52-45.99,24.51,13.49v33.5Z"/>
      <path class="d" d="M637.14,723l-21.99,12.49c-.19-9.49.23-19.04.04-28.54-.07-3.61-2.57-6.35.41-9.51,3.58-3.8,17.35-7.88,21.55-12.95v38.5Z"/>
      <path class="d" d="M185.14,426.5v53l-15.99-9.51c-2.69-3.24-.05-10.84.04-14.94.25-12.12.43-24.59-1.04-36.55l16.99,8Z"/>
      <path class="d" d="M582.14,752c-.85,3.06-19.04,11-23,12.49,1.7-7.29,1.1-15.87,1.05-23.54-.02-2.86-1.15-5.38-1.09-7.91.24-9.77,16.87-12.37,23.05-18.54v37.5Z"/>
      <path class="d" d="M185.14,537.5l-14.06-8.44c-1.96-1.36-1.8-2.93-2-5-1.31-13.4.93-29.19.26-42.85,1.88-6.3,13.23,1.86,15.8,4.79v51.5Z"/>
      <path class="d" d="M468.84,691.79c2.15,2.52.11,12.55-2.15,14.76-7.56,3.31-10.56,12.43-20.3,8.2-6.98-3.03-4.58-11.22-5.26-16.73-.45-3.59-1.72-7.53-1.97-11.03-.14-1.96-.97-10.77,2.02-10.06,2.13.51,26.57,13.58,27.66,14.86Z"/>
      <path class="d" d="M806.14,543.5l16.99-8c.2,11.16-.24,22.37-.04,33.54.04,2.41,1.2,4.66,1.11,6.94-.29,7.7-13.05,10.25-18.07,14.52v-47Z"/>
      <path class="d" d="M187.14,392.5l26.6,14.45c-2.68,9.84-.42,19.68-1.61,29.55-4.66-3.22-24.99-10.89-24.99-16.5v-27.5Z"/>
      <path class="d" d="M823.14,585.5v33.5c0,.8,1.2,1.86-.23,3.26l-16.77,8.24v-36l17-9Z"/>
      <path class="d" d="M774.13,254.5l-.98,11.51-49.01,26.49c-4.86-14.95,9.94-16.36,19.67-21.83s19.25-12.87,30.32-16.17Z"/>
      <path class="d" d="M669.14,323.49c-2.16-16.57,6.09-14.77,16.67-20.82,5.45-3.12,10.34-7.03,15.66-10.34l17.19-7.85c.87,1.56.8,6.55.28,8.31-1.41,4.76-21.12,13.4-26.47,16.53-2.48,1.46-22.4,15.18-23.32,14.17Z"/>
      <path class="d" d="M824.13,226.5v9.5c.04.89-.49,1.37-1,1.99-1.69,2.02-16.42,10.01-19.97,12.03-6.48,3.69-14.24,7.61-20.95,11.06-1.13.58-1.29,2.23-2.59.44-3.72-11.91,4.92-14.66,13.64-19.39,5.53-3,11.88-5.39,17.55-8.45,1.96-1.06,12.36-8.16,13.32-7.17Z"/>
      <path class="d" d="M615.14,350.5c.35-4.16-1.53-9.27,2.48-12.01l46.03-24-.52,11.51-47.99,24.5Z"/>
      <path class="d" d="M185.14,542.5v38c-9.45-2.27-10.03-12.34-16.04-17.67,1.02-9.29,2.01-19.19-.96-28.32l17,7.99Z"/>
      <path class="d" d="M516.14,531l-8.54,4.46c-2,.31-1.28-.08-1.46-1.45-.49-3.63.92-6.62,1.05-9.97.55-14.63-.51-29.38-.02-44.02.66-3.39,5.13-4.41,7.49-6.51.31-.11,1.49,2.35,1.49,2.49v55Z"/>
      <path class="d" d="M561.15,380.5l.2-10.29,2.86-3.14c14.44-4.64,29.41-16.07,43.23-20.79,1.33-.46,2.03-1.48,3.24.19.83,1.32.72,3.83.27,5.33-1.58,5.29-42.68,24.66-49.79,28.71Z"/>
      <path class="d" d="M516.14,411.5v57l-9.99,4,.98-55.51c.5-2.61,6.22-5.72,9.01-5.49Z"/>
      <path class="d" d="M168.14,383.5l15.84,7.16c-.59,8.12.98,16.45,1.21,24.29.05,1.75.9,6.04-1.56,5.57-2.17-.42-15.49-8.49-15.49-10.52v-26.5Z"/>
      <path class="d" d="M491.03,418.6l-.41,58.91c-3.06-.97-7.82-1.89-8.49-5.56v-54.95s8.9,1.59,8.9,1.59Z"/>
      <path class="d" d="M491.14,539c0,.08,2.41,2.38-.48,1.49-2.41-.75-5.18-3.31-8.41-3.09-.95-3.87.8-7.67.94-11.36.46-12.27,1.17-28.97.63-40.91-.07-1.65-1.15-3.13-1.67-4.62l9,3.49c.64,18.28-.86,36.75,0,55Z"/>
      <path class="d" d="M503.14,474l-7.99,4.5,1.09-59.9,7.9-2.09c.42,1.14-1,2.23-1,2.49v55Z"/>
      <polygon class="d" points="503.14 480.5 503.14 537 495.15 541.5 495.75 483.4 503.14 480.5"/>
      <path class="d" d="M318.97,318.66l-.33,10.84c-13.69-11.83-32.5-17.4-48.34-26.15-1.39-6.96,1.52-8.07,7.76-6.27l40.91,21.58Z"/>
      <path class="d" d="M514.97,692.34l-8.83,4.15c-1.2-16.5,2.59-32.89.14-49.31l8.85-5.69-.15,50.84Z"/>
      <path class="d" d="M373.13,355.5c-14.07-6.91-28.89-16.3-43.28-22.22-1.53-.63-3.06-.91-4.72-.78l1.01-9.99,46,22.49.98,10.51Z"/>
      <path class="d" d="M263.13,298.49l-45.39-23.1c-2.19-1.21-1.65-3.76-1.6-5.9h5s.47-1.98.47-1.98c4.56,2.07,9.1,5.4,13.47,7.53,6.87,3.35,21,8.34,26.44,12.56,3.02,2.34,1.14,7.41,1.6,10.89Z"/>
      <path class="d" d="M506.14,640.5l.99-47.5c.59-3.09,5.1-3.97,7.52-5.46,1.46.92,1.38,1.93,1.54,3.42,1.55,14.37-1.55,30.57-1.04,45.06.44,2.39-8.49,5.03-9.01,4.48Z"/>
      <path class="d" d="M426.93,374.7l-.28,9.79-45.52-24.48c-1.98-2.22-.65-6.61-.98-9.51l46.78,24.2Z"/>
      <polygon class="d" points="771.89 246.76 773.14 251.48 723.62 277.51 722.3 269.68 768.56 245.54 771.89 246.76"/>
      <path class="d" d="M827.14,242l6.99-4.5c-.67,15.55,1.99,30.96,1.05,46.54-.15,2.43-.59,8.88-1.02,10.76-.16.7-5.58,3.88-7.02,3.7v-56.5Z"/>
      <path class="d" d="M670.15,727.5l.98-10.51,48-24.49c1.92,5.6.15,7.07-4.08,10.41l-44.9,24.59Z"/>
      <path class="d" d="M222.14,181.51c.47,2.61-.38,1.55-1.42,2.08-7.48,3.83-14.9,7.68-22.25,11.74-3.84,2.12-15.31,10.19-18.07,10.93-4.29,1.16-7.5-.88-11.34-2.28-1.23-.88,1.74-3.34-2.92-2.49l39.98-22.54,16.02,2.56ZM216.14,181.51c-6.4,1.86-12.54,4.51-17.76,8.73l-27.24,12.25c9.4,1.55,17.08-4.69,25.3-8.19l19.7-12.79Z"/>
      <path class="d" d="M652.85,297.84c.25.11.3,1.15.62,1.28,1.71.71,4.09.2,4.66,2.37l-49.91,26.95-2.99-5.61c-.25-2.35,12.77-7.58,15.57-9.16,7.36-4.16,19.14-13.09,26.38-15.61,1.91-.67,3.71-1.1,5.67-.22Z"/>
      <path class="d" d="M673.85,118.8c.88.73,1.05,2.33,2.92,3.56,10.58,6.92,25.54,12.22,36.95,18.05,1.05.54,1.88-.52,1.42,2.08-9.97,4.71-12.27-.52-19.98-4.51-11.44-5.92-23-11.85-35.02-16.47,11.92,9.69,28.85,14.66,41.71,22.75,1.01.64,2.78.66.8,2.23-12.46-5.77-26.75-12.24-38.18-19.82-2.61-1.73-5.39-2.79-6.33-6.16,4.58-.15,11.91-4.86,15.71-1.71Z"/>
      <path class="d" d="M208.13,270.5l-39-19.49-.98-10.51c6.28,2.03,12.13,4.48,18.01,7.48,3.1,1.58,20.15,11.03,21.52,12.47,3.03,3.17-.13,6.16.44,10.05Z"/>
      <path class="d" d="M520.15,404.5c-1.22-4.37-1.96-9.53.24-13.75l35.74-18.25c-.34,2.95.55,6.72.02,9.51-.72,3.77-18.93,11.11-23.31,13.69s-8.34,6.06-12.68,8.8Z"/>
      <path class="d" d="M835.13,301.5c-.58,13.66.78,27.94.05,41.54-.14,2.59-1.14,12.86-2.05,13.95-.31.37-5.78,3.79-5.98,3.51v-54.5c-.3-2.45,7.23-5.29,7.98-4.49Z"/>
      <path class="d" d="M503.14,591.5v52c-1.98.85-6.3.87-7.54-.96-1.43-2.12-1.3-49.27.65-50.93l6.89-.11Z"/>
      <path class="d" d="M818.13,214.49c-7.39,3.14-15,6.59-22.02,10.49-5.45,3.03-17.09,11.93-21.98,13.12-4.02.98-5.19-3.03-9-3.61-1.22-1.77,14.16-7.98,15.67-8.81,9.78-5.39,19.15-11.75,29.23-16.66,1.91-.74,9.69,3.35,8.1,5.48Z"/>
      <path class="d" d="M272.18,277.45c-1.19-1.73,2.72-6.76,4.96-5.56l48.55,25.64-2.56,5.54-50.96-25.62Z"/>
      <path class="d" d="M766.13,242.49c-7.51,1.52-13.45,7.31-19.7,10.81-3,1.68-6.31,2.55-8.98,4.02-4.03,2.21-12.88,8.69-16.29,9.76-4.33,1.35-5.3-1.49-8.02-4.08l43.89-26.06c1.71-.39,9.92,4.49,9.09,5.54Z"/>
      <path class="d" d="M615.14,758.49l.12-9.43,48.87-26.57c-.6,2.89,2.13,6.12-.45,8l-48.54,27.99Z"/>
      <polygon class="d" points="516.13 537.5 515.2 583.89 506.14 586.5 507.1 541.17 516.13 537.5"/>
      <path class="d" d="M604.13,331.49l-46.96,25.6-6.01-6.1,43.95-24.1c2.63-.84,7.29,2.42,9.01,4.6Z"/>
      <path class="d" d="M713.14,269.51c-14.07,11.72-31.41,18.27-47,27.58-3.06,1.26-5.42-2.56-7.98-4.09l45.92-26.08,9.06,2.59Z"/>
      <path class="d" d="M724.14,697.49c.2-2.49-.63-5.71.49-8,1.87-3.84,41.07-21.95,47.47-25.57l2.04,1.1c-.24,2.79-1.04,5.86-3.65,7.32l-46.34,25.15Z"/>
      <path class="d" d="M376.12,331.5l-47.32-24c-3.04-1.76,3.72-7.1,6.08-5.36l46.23,22.86c-2.45,1.84-4.86,3.03-5,6.5Z"/>
      <path class="d" d="M660.84,304.66l3.15,3.53-1.92,2.75c-12.46,6.62-25.34,16.07-37.89,22.11-1.62.78-8.27,3.92-9.52,2.51-1.12-1.71-2.44-3.95-.54-5.55l46.72-25.34Z"/>
      <path class="d" d="M608.87,336.73l1.18,3.64-49.41,26.12-2.46-6.91c13.05-5.51,25.38-14.8,38.28-20.26,2.6-1.1,10.28-4.79,12.41-2.6Z"/>
      <path class="d" d="M436.13,353.51l-3.01,5.54-2.76-.22c-12.65-6.99-27.67-12.81-39.9-20.17-7.7-4.64-9.37-8.67,1.7-7.7l43.97,22.54Z"/>
      <path class="d" d="M610.13,753.5c-.18,2.71,1.05,6.2-1.6,7.89l-47.38,24.11c.19-1.72-1.25-3.74-.87-5.31.8-3.32,43.3-24.83,49.86-26.68Z"/>
      <path class="d" d="M667.15,306.52l2.02-.51v-2c-.25-.94-3.9-1-3.02-3.49l48.69-25.82,2.84,1.79-.55,3.49c-11.73,5.83-22.33,13.96-33.68,20.32-4.95,2.77-10.81,4.4-14.8,8.18l-1.49-1.97Z"/>
      <path class="d" d="M271.14,268.49l-5.5,5-47.46-24.03c-.45-3.67,3.37-7.14,6.99-5.52l45.97,24.56Z"/>
      <path class="d" d="M319.13,314.5l-49.83-26.15c-.68-3.09-.67-8.21,3.85-6.4,12.43,8.74,29.82,14.02,42.12,21.92,5.49,3.53,5.02,4.32,3.85,10.64Z"/>
      <path class="d" d="M515.14,697.5v47.5c-1.42,1.06-9.27,5.69-9.02,2l.98-45.83,8.04-3.67Z"/>
      <path class="d" d="M264.01,276.66l-1.37,8.84-47.34-25.14c-.7-3.06-.41-6.22,3.32-5.93l45.4,22.24Z"/>
      <path class="d" d="M503.14,698.5l-8,1c-.75-17.1,1.42-33.95,1-51.01l7.01-1v51Z"/>
      <path class="d" d="M844.14,289l-5.99,3.5c-.26-8.82.29-17.71.03-26.54-.08-2.65-1.03-5.06-1.09-7.91-.13-6.85-2.05-25.04,5.05-28.06l2,1.01v58Z"/>
      <polygon class="d" points="430.13 362.54 427.64 372.5 425.14 370 426.13 368.01 379.15 344.44 380.14 338.49 430.13 362.54"/>
      <path class="d" d="M483.14,642.5c12.13,2.04,7.19,7.92,6.95,16.45-.37,12.91.88,25.68,1.04,38.54l-7.99-3.99v-51Z"/>
      <path class="d" d="M659.13,112.51c-1.59,2.95-4.98,2.96-7.77,2.34-5.11-1.14-23.44-10.57-29.58-13.49-3.34-1.59-11.9-7.47-14.13-7.88-1.9-.35-1.66.5-1.5,2.01,9.79,5.84,19.74,11.07,30.48,15.02,1.6,1.41-.97,1.04-1.77.79-2.8-.89-34.7-15.22-32.72-17.78,5.16-1.09,10.63-4.33,16.06-2.57,1.92.63,3.36,2.79,5.25,3.75,11.84,6.04,23.86,11.78,35.69,17.82Z"/>
      <path class="d" d="M489.97,587.66l.65,51.85c-12.44-3.38-7.71-8.2-7.44-17.46.35-12.19.46-25.62-1.05-37.54l7.84,3.15Z"/>
      <polygon class="d" points="503.14 703.5 503.14 750 501.48 751.34 495.13 751.5 495.28 705.14 496.77 703.64 503.14 703.5"/>
      <path class="d" d="M823.07,217.56l.62,4.93c-1.3,2.17-26.19,13.3-30.9,16.17s-10.48,11.91-16.21,5.84c-.69-1.05-.59-1.94,0-3.01s17.83-12.54,20.23-13.82c3-1.6,24.93-11.33,26.26-10.11Z"/>
      <path class="d" d="M476.13,409.5c-9.68-8.12-22.28-11.24-33.01-17.48-6.86-3.99-10.27-5.44-9.97-14.52l43.86,22.57-.88,9.43Z"/>
      <path class="d" d="M824.13,633.51c.02,4.08,1.03,8.1-3.06,10.43l-41.92,22.57,1.45-8.04,43.53-24.96Z"/>
      <path class="d" d="M827.14,415.5v-50l6.99-3c-.27,6.67,1.1,12.83,1.05,19.55-.02,2.86-1.03,5.26-1.08,7.91-.11,4.97,1.06,18.33-.12,21.88-.53,1.59-4.97,3.55-6.84,3.66Z"/>
      <path class="d" d="M217.13,241.48c-2.08-.14-3.29,2.49-4.71,2.88-2.68.73-18.22-8.9-21.91-10.74-7.48-3.76-18.86-5.52-22.37-14.1,1.5.12,2.65-1.6,3.75-1.83,3.88-.81,37.15,18.52,43.58,20.96l1.65,2.83Z"/>
      <path class="d" d="M326.14,123.49c-3.14-.22-6.04,1.3-8.73,2.73-1.24.66-1.32,1.92-2.54,2.56-11.81,6.16-24.06,11.57-35.49,18.54l-10.23-3.32c16.94-5.92,31.96-16.79,47.98-24.93l9.02,4.42Z"/>
      <polygon class="d" points="835.13 418.5 834.18 468.83 827.15 472.5 827.1 422.17 835.13 418.5"/>
      <path class="d" d="M276.13,153.51l-10.72,1.77c-7.12,4.21-14.98,6.92-22.29,10.71-4.08,2.11-13.42,9.33-16.97,10.08-3.05.65-6.9-2.4-10.01-2.58l47.22-23.78,12.77,3.8Z"/>
      <path class="d" d="M374.1,334.55l-.97,6.96-47-23.51c-3.08-9.17,5.79-4.67,10.68-2.67,12.92,5.3,24.53,13.97,37.29,19.22Z"/>
      <path class="d" d="M515.14,785c0,.55,1.64,1.53.58,3.48l-9.57,7.02.95-42.33,6.55-3.66c.31-.1,1.49,2.34,1.49,2.49,0,11-.07,22,0,33Z"/>
      <path class="d" d="M769.13,170.51l-9.35,3.79c-3.54-3.09-7.31-2.37-11.21-3.74-11.38-4.02-21.61-10.93-32.43-16.07.65-2.13,7.51,1.11,8.73,1.73,1.3.66,1.31,1.99,2.51,2.57,7.36,3.58,15.32,6.2,22.27,10.69,2.95.19.85-1.15-.18-1.83-8.57-5.7-17.76-10.55-27.07-14.93l-11.27-3.21c4.73-.49,9.13-4.11,14.01-2.57l43.98,23.57Z"/>
      <path class="d" d="M378.14,84.51l44.44-20.99c.41-.64-.53-1.96-.44-2.01,1.74-1.08,11.97,1.73,11.98,3.49-11.01,5.23-22.29,10.14-33,15.98-2.39,1.3-11.88,8.21-12.63,8.36-.59.11-9.89-3.14-10.35-4.82Z"/>
      <path class="d" d="M605.14,84.51c.3,2.63-.04,1.58-1.47,2.01-2.29.68-6.37,2.1-8.53,1.56-5.81-1.44-21.22-13.04-28.64-16.44-6.08-2.79-11.8-4.59-18.35-5.64,3.14-2.09,10.15-4.78,13.77-3.86l43.22,22.37Z"/>
      <polygon class="d" points="480.13 389.51 477.14 390.51 479.19 392.07 477.64 396.48 434.23 373.36 435.63 367.49 480.13 389.51"/>
      <polygon class="d" points="486.14 380.51 482.03 386.43 480.83 386.38 438.15 362.02 442.17 358.93 486.14 380.51"/>
      <polygon class="d" points="844.14 351.5 837.12 352.99 838.16 300.02 844.14 294.5 844.14 351.5"/>
      <path class="d" d="M827.14,532.5l6.5-2.98c3.42-.04.51,15.96.46,18.44-.21,9.28.22,18.6.08,27.87l-7.04,3.67v-47Z"/>
      <path class="d" d="M491.13,749.49c-1.52.37-.75-1.42-1.68-2.01-2.18-1.37-5.87-1.4-6.31-4.48l-.99-44.5,8.92,4.64.06,46.35Z"/>
      <path class="d" d="M496.14,757l7-1.5.09,41.58-2.09,1.91,1.96,5.46-6.96,1.04c-.53-4.1.45-4.48,4.01-5.49l-4.01-.5v-42.5Z"/>
      <polygon class="d" points="834.14 524 827.14 527.5 827.07 478.96 827.3 477.66 834.14 474.5 834.14 524"/>
      <path class="d" d="M209.13,256.5l-42.01-21.47c-2.14-2.09-.45-5.09.03-7.53l42.04,20.5-.06,8.5Z"/>
      <path class="d" d="M551.13,56.51l-7.73,2.79c-3.15.33-35.98-16.41-41.29-19.32-.78-.43-2.78-.25-1.97-1.97.66-1.39,6.16-4.17,7.99-3.1l43,21.6Z"/>
      <path class="d" d="M724.15,685.5c.24-2.73-.91-6.37.98-8.51,2.34-2.66,17.17-6.15,20.53-10.47l2.47,3.98c-.04-2.47.17-4.69,2.06-6.45,1.44-1.34,17.54-9.76,20.68-11.33,1.21-.61,1.62-1.86,2.8-.24.75,1.24.78,3.04.33,4.36-1.39,4.11-43.95,23.04-49.84,28.66Z"/>
      <path class="d" d="M844.14,407l-6.99,3.5c1.37-16.41.98-32.96.99-49.5.41-2.82,3.84-3.17,6-4.5v50.5Z"/>
      <path class="d" d="M844.14,469.5v48.5l-6.99,4.5c.26-16.77,1.61-33.47.95-50.33l6.04-2.67Z"/>
      <path class="d" d="M503.14,543.5v44l-6.01-.5c-2.09-1.17-1.85-2.93-2.05-4.95-1.06-10.86,2.37-23.67,1.22-34.9l6.84-3.66Z"/>
      <path class="d" d="M158.14,251.5l5.06,2.62c-.63,18.86,1.72,37.49.93,56.37-.81.89-5.99-2.77-5.99-3.5v-55.5Z"/>
      <path class="d" d="M487.13,37.51l-49.24,21.81-5.75-1.83,44.19-22.32c4.16-2.08,6.91,1.67,10.8,2.34Z"/>
      <path class="d" d="M817.13,197.51c-.32,1.08-4.99,2.68-5.76,2.81-1.15.19-2.16.28-3.24-.26-12.57-8.52-25.38-14.16-39.43-19.63-1.04-.41-2.41-.38-2.56-1.93,4.76-.21,8.02-4.72,13.03-2.55l37.96,21.55Z"/>
      <polygon class="d" points="148.14 308.5 154.2 311.11 153.13 369.5 148.14 367 148.14 308.5"/>
      <path class="d" d="M669.14,713.5c-.09-1.38-.14-2.71.49-4,.84-1.7,21.93-13.69,23.5-12.01l.99,3c-.28-3.16-.1-5.03,2.49-7.01.98-.75,17.57-9.78,18.8-10.21,3.75-1.31,4.65,1.36,3.58,4.58-.59,1.78-28.62,16.34-32.65,18.37-2.13,1.07-16.4,8.13-17.2,7.28Z"/>
      <path class="d" d="M844.14,462c-.21.75-5.54,5.74-7.01,3.99l1.01-48.99c.41-2.82,3.84-3.17,6-4.5v49.5Z"/>
      <path class="d" d="M380.14,95.49c-2.26.05-3.57-1.17-5.99-.58-2.96.72-16.1,7.52-19.67,9.42-6.9,3.66-14.24,8.94-21.04,13.02l-10.29-2.86,45.75-23.82c2.67-.44,9.64,2.31,11.24,4.83Z"/>
      <path class="d" d="M559.14,774.49l1.61-7.1c3.92-1.93,8.2-3.72,12.06-5.71,2.26-1.17,6.14-4.51,7.84-5.17,2.9-1.13.2,4.28,2.47,3.98l1.7-5.06,25.3-13.94c.93,5.34-1.84,6.44-5.46,9.03l-45.52,23.97Z"/>
      <path class="d" d="M154.14,518c0,.17,2.48,3.69-.48,2.49-.3-.12-3.88-2.78-4.01-2.99-.38-.62-1.44-12.26-1.55-14.45-.45-8.75-.31-19.28-.01-28.09.12-3.39,1.82-6.38.05-9.44l6,2.49c.62,16.53-.83,33.53,0,50Z"/>
      <polygon class="d" points="844.14 619.5 837.14 621.5 837.14 580 844.14 575.5 844.14 619.5"/>
      <path class="d" d="M844.14,524.5v45.5l-6.99,4.5c-.96-7.13.84-14.68,1.03-21.46.19-6.79-1.17-18.08-.02-24.02.5-2.59,3.39-4.42,5.98-4.52Z"/>
      <path class="d" d="M491.12,544.52c-2.44,13.04.9,25.87,0,38.98-1.53-1.95-7.64-4.6-8.48-6-1.84-3.07.49-9.7.54-13.45.11-7.28-.73-14.32-1.04-21.54l8.98,2.01Z"/>
      <path class="d" d="M555.13,782.5l-.15,7.85c-12.57,5.75-23.42,14.78-36.84,19.14,0-2.41-.62-4.49,1.01-6.48,2.64-3.23,20.61-12.87,25.47-15.53,1.41-.77,9.93-5.63,10.51-4.98Z"/>
      <path class="d" d="M834.14,581.5v38.5c0,2.05-2.96,7.94-6,7.49,1.47-3.43-.83-5.49-1.04-8.47-.55-7.93-.98-24.57-.02-32.09.48-3.77,3.77-4.26,7.06-5.44Z"/>
      <path class="d" d="M513.14,386.49l24.32-16.16c2.96-.4,16.3-8.97,17.67-4.3.47,1.59-.7,3.13-2.04,3.93l-32.71,19.37-7.24-2.84Z"/>
      <path class="d" d="M148.14,246.5c9.67,3.14,5.16,8.92,4.95,16.45-.39,13.94-.35,28.79,1.04,42.55l-5.99-3v-56Z"/>
      <path class="d" d="M155.13,462.49c-1.08,1.06-6.95-4.76-6.97-6.52v-51.48s4.99,4.49,4.99,4.49c-.1,17.87-.27,35.78,1.99,53.5Z"/>
      <path class="d" d="M163.14,373.5l-4.41-.89c-1.28-19.07-.7-38.84.42-58.11.14-.19,3.99,2.05,3.99,2.5v56.5Z"/>
      <path class="d" d="M330.14,294.5c-2.22,1.79-44.57-23.62-50.99-25.49,2.53-2.67,4.36-2.84,7.71-1.74,8.31,2.73,30.33,14.8,38.21,19.82,1.79,1.14,8.12,4.96,5.08,7.41Z"/>
      <path class="d" d="M701.14,263.52c1.63,2.38-45.06,28.68-49.99,27.98-.47-2.53.55-2.98,2.06-4.43,4.77-4.57,18.86-10.03,25.26-13.74,3.43-1.99,16.52-12.14,18.91-11.66,1.1.22,2.27,2.04,3.77,1.85Z"/>
      <path class="d" d="M490.14,793c.02.26,2.1,1.8.51,2.49l-6.55-3.66-.96-40.32,7.74,3.48c.04.41-.75.77-.75,1.02,0,11.84-.88,25.42,0,37Z"/>
      <path class="d" d="M596.14,320.49c11.67-12.46,29.83-18.14,44.06-27.47,2.54-1.42,4.36-.04,5.92,1.98-16.58,8.47-31.37,21.81-49.98,25.49Z"/>
      <path class="d" d="M162.08,414.54c.54.33,2.13,10.87,2.14,12.47.06,9.36.44,23.14-.05,32.04-.21,3.89-.32,8.29-5.1,6.02-2.84-1.95.14-21.03.15-25.06.02-5.95-1.61-12.19-1.07-18.99.22-2.75.71-8.47,3.93-6.48Z"/>
      <path class="d" d="M754.13,235.49c-1.22.03-2.3.57-3.32,1.18-9.66,5.77-28.46,19.97-37.94,23.07-3.04.99-5.62.91-8.73.76l11.07-8.41,32.22-18.84c1.69-2.04,7.48,1.25,6.7,2.25Z"/>
      <path class="d" d="M593.13,324.51l-42.29,24.25-7.7-.27,42.98-26.59c2.69-.85,4.38,2.33,7.01,2.61Z"/>
      <path class="d" d="M441.13,347.52c1.08,1.53-3.06,5.2-5.02,3.58-3.91-4.27-45.54-22.57-44.97-25.09.3-1.32,3.06-1.89,4.38-1.48l45.61,22.98Z"/>
      <path class="d" d="M276.13,260.51l-3.98,4.98-.76-1.93-45.25-22.55c1.78-1.72,3-4.3,5.77-2.87l44.23,22.38Z"/>
      <path class="d" d="M476.99,638.65l.64,50.86c-1.35-.12-3.86-1.46-4.57-2.43-4.09-5.63,3.32-40.76-.92-49.56l4.85,1.14Z"/>
      <path class="d" d="M155.13,573.49l-6.78-4.6-.21-45.39c2.14,1.33,5.57,1.66,5.99,4.5l.99,45.5Z"/>
      <path class="d" d="M806.13,204.51c.15.23.39,2.87-.62,3.06l-37.69,21.12-10.69,1.8,7.69-5.79c7.81-3.54,14.76-8.71,22.28-12.72,3.15-1.68,13.37-7.44,15.93-7.97.64-.13,3,.38,3.09.51Z"/>
      <path class="d" d="M385.02,318.61c.66,1.56-.27,4.12-2.27,3.81l-47.6-23.41c2.87-4.48,8.14-1.47,11.98.01,12.77,4.94,25.2,14.12,37.9,19.59Z"/>
      <path class="d" d="M539.14,354.48c-15.54,8.57-28.89,20.29-46,26.01,6.87-9.28,17.1-13.25,26.32-19.17,3.67-2.35,10.68-8.99,13.72-10.34s4.6,1.25,5.96,3.5Z"/>
      <path class="d" d="M554.92,777.29l-35.77,21.21c.02-2.43-.66-5.32,1.43-7.06l34.07-20.93.27,6.78Z"/>
      <path class="d" d="M491.13,377.49c-16.43-2.57-30.15-15.67-45.99-20.49l4.47-3.49c12.2,5.51,25.53,11.98,36.83,19.18,1.75,1.11,4.9,2.27,4.69,4.8Z"/>
      <path class="d" d="M164.13,525.5l-5.03-2.67.05-50.33c1.86.99,4.82.84,5.01,3.48l-.03,49.52Z"/>
      <path class="d" d="M180.64,212.87c2.33,0,41.47,18.8,41.48,21.13l-4.06,2.03c-4.67-3.11-40.85-18.72-40.9-21.02.83-.95,2.2-2.12,3.48-2.13Z"/>
      <path class="d" d="M154.02,578.61c.5,10.2-1.31,20.2-.94,30.43.14,3.88.32,9.29,2.05,12.45l-6.04-1.66-.97-42.82,5.9,1.59Z"/>
      <path class="d" d="M804.13,635.51c1.28,7.9-2.11,6.02-6.68,8.81-6.1,3.71-11.98,7.84-18.3,11.19-.15-4.06-.77-6.22,2.48-9.01,1.59-1.36,16.45-9.34,18.78-10.22,1.25-.47,2.3-1.03,3.72-.77Z"/>
      <path class="d" d="M154.14,374.5v29h-1.48c-1.74-1.27-4.52-3.11-4.52-5.5v-25.5l6,2Z"/>
      <path class="d" d="M162.99,531.64l1.16,44.35c-8.46,2.73-4.05-9-3.97-13.94.17-10.52-1.9-20.99-1.04-31.55l3.85,1.14Z"/>
      <path class="d" d="M664.13,712.5l-.21,5.79-24.78,14.2c-.37-2.61-1.12-5.35,1.02-7.47l23.97-12.52Z"/>
      <path class="d" d="M169.05,209.59c1.26,2.81-1.64,2.75-1.83,3.56-.14.61.87,1.51.02,2.89-2.87,4.66-13.35,5-13.12-1.55l-2.98,1.01c2.61-9.78,9.84-10.03,17.91-5.9Z"/>
      <path class="d" d="M844.13,623.51c-.17,9.6-9.07,14.93-15.99,19.99.17-3.32-2.3-8-.52-11.01,1.66-2.8,7.64-1.47,8.4-2.1s1.16-8.96,8.1-6.89Z"/>
      <path class="d" d="M637.13,727.5l-.98,6.51-21.01,10.48c-.21-2.63-.3-4.05,1.45-6.04,1.55-1.77,19.75-11.84,20.53-10.96Z"/>
      <polygon class="d" points="610.14 764.51 561.15 793.5 561.79 788.41 610.14 764.51"/>
      <path class="d" d="M670.15,733.5l.16-3.84,47.82-25.16c1.52,1.6-4.66,5.15-5.69,5.8-13.09,8.21-29.41,14.08-42.29,23.2Z"/>
      <path class="d" d="M162.99,380.65c.7,1.15.35,21.59.14,24.36-.11,1.48.78,2.9-1.48,2.47-6.53-1.74-2.47-11.65-2.43-16.48.03-3.81-1.75-7.54-1.09-11.49l4.85,1.15Z"/>
      <path class="d" d="M658.14,738.51l-42.99,24.99,1.21-3.31c14.15-6.59,26.38-18.45,41.78-21.68Z"/>
      <path class="d" d="M727.49,701.9c-.58.41.14,2.44-2.35,1.6l.65-4.08,44.34-23.91c.22,2.58-2.93,3.65-4.69,4.8-12.11,7.99-26.02,13.19-37.95,21.59Z"/>
      <path class="d" d="M274.13,155.51l-45.99,23.99c-.45-2.08,1-2.33,2.29-3.2,6.09-4.1,15.9-8.91,22.68-12.32s13.68-7.9,21.02-8.47Z"/>
      <path class="d" d="M779.15,672.5l.16-3.84c11.33-3.07,21.97-13.29,32.12-17.38,3.95-1.59,5.44,1.28.7,3.71-11.07,5.68-22.33,11.18-32.98,17.51Z"/>
      <path class="d" d="M838.14,217.5c-2.49.22-4.43,1.65-6,3.5,6.89,4.24,2.72,13.62-5,14.49.48-2.91-.78-7.86.12-10.38.62-1.76,3.06-.91,2.87-2.61l-3.06-.65-.78-8.2c5.15-2.2,10.02-6.06,13.69.53,1.01,2.68-1.05,1.93-1.85,3.31,8.86-.8,7.89,13.34-1.99,12-.25-5.21-.59-7.53,1.99-12Z"/>
      <path class="d" d="M823.13,625.5c.4,1.59.89,4.41-.24,5.73-1.58,1.84-14.86,6.79-17.74,9.26-1.64-9.44,11.44-11.61,17.98-15Z"/>
      <path class="d" d="M518.14,816.5c-.36-2.32.37-3.1,2.04-4.45,3.72-3.02,13.62-6.62,18.63-9.37,5.61-3.08,11.04-6.57,16.32-10.17,1.55,1.68-5.87,6.61-7.07,7.42-4.63,3.13-11.29,6.93-16.25,9.75-4.38,2.49-9.15,4.59-13.67,6.82Z"/>
      <polygon class="d" points="503.13 808.5 502.64 820.5 495.15 824.5 495.58 810.44 503.13 808.5"/>
      <path class="d" d="M374.14,98.51c-.27,1.33-1.67,2.08-2.68,2.81-5.78,4.17-24.58,15.65-30.77,18.23-1.57.66-2.67,1.34-4.55.94-1.69-1.44,6.53-5.68,7.32-6.17,9.67-6,20.18-11.41,30.67-15.82Z"/>
      <polygon class="d" points="491.99 405.64 493.14 414.49 481.25 410.38 482.14 400.5 491.99 405.64"/>
      <polygon class="d" points="203.13 605.51 196.37 608.23 189.14 609.5 189.15 598.5 203.13 605.51"/>
      <path class="d" d="M832.13,206.51l-9.57,4.97c-11.39-9.24,2.76-10.38,9.57-4.97Z"/>
      <path class="d" d="M432.14,68.51c-11.64,8.77-25.25,15.24-39,19.98l2.95-2.54,36.04-17.44Z"/>
      <path class="d" d="M153.93,233.7l1.2,10.79c-7.92-1.29-7.42-7.45-6.99-13.99l5.78,3.2Z"/>
      <path class="d" d="M515.13,805.5c1.51,7.97-2.29,7.8-7.98,11l.13-8.86,7.86-2.14Z"/>
      <path class="d" d="M491.03,808.6l-.39,7.9c-3.99-4.28-10.63-1.98-9.5-9.99l9.89,2.09Z"/>
      <path class="d" d="M428.14,766.5l-.5,5.99-11.5-6.01,1.99-2.98-4.99-.5,2.32-2.37c5.08,1.33,6.98,7.14,12.68,5.86Z"/>
      <path class="d" d="M156.13,639.5c-6.39-2.01-5.79-7.47-6.98-13,7.57-.46,5.83,7.35,6.98,13Z"/>
      <path class="d" d="M157.07,223.58c.7,10.75-13.48,3.31-7.41-3.08l7.41,3.08Z"/>
      <path class="d" d="M581.14,83.49c-9.55-4.17-19.84-8.59-28-14.98,9.85,3.86,19.89,8.01,28,14.98Z"/>
      <path class="d" d="M516.13,794.51c.09,6.4-4.17,8.11-9.99,8.99-2.13-4.26,7.98-10.75,9.99-8.99Z"/>
      <polygon class="d" points="493 394.64 493.13 400.5 483.14 397.49 485.79 392.6 493 394.64"/>
      <path class="d" d="M478.13,730.51v10.99s-5-1.03-5-1.03c1.32-3.59-.15-9.69,5-9.96Z"/>
      <path class="d" d="M165.13,226.5c-.18,2.7.99,6.07-1.49,7.98-6.37-2.5-5.32-8.42,1.49-7.98Z"/>
      <path class="d" d="M162.98,238.66l.15,8.84c-5.35-1.43-3.98-5.42-3.98-9.99l3.84,1.15Z"/>
      <path class="d" d="M372.14,749.49c-2.54-1.08-8.42-1.87-10.36-2.94-1.32-.73-.38-2.71-.65-3.06-.35-.44-3.85,2.92-2.99-.99,1.62-1.27,13.12,4.18,13.99,6.98Z"/>
      <path class="d" d="M516.13,815.51c2.08,1.75-8.71,5.93-9.99,5.99-1.17-1.22-.06-2.28,1.41-3.11,2.61-1.47,5.44-3.26,8.58-2.88Z"/>
      <path class="d" d="M490.82,800.82c.24.29,2.4,4.57-.16,3.67-2.62-2.66-6.87-3.33-8.52-6.98,2.36.33,7.19,1.56,8.68,3.31Z"/>
      <path class="d" d="M211.13,666.5l-4.56-2,.57-4.99c3.87.07,4.38,3.88,3.99,6.99Z"/>
      <path class="d" d="M265.13,683.49c-1.7.3-2.93-.47-4.38-1.11s-4.86-2.4-5.6-3.88c3.77.38,9.37-.27,9.99,4.99Z"/>
      <path d="M216.14,181.51l-19.7,12.79c-8.22,3.5-15.9,9.73-25.3,8.19l27.24-12.25c5.21-4.23,11.36-6.87,17.76-8.73Z"/>
      <path d="M368.9,90.66l126.24,281.84s30-2.5,25,32,291.99,250.49,291.99,250.49l-316.48,176.54-349.52-185.04-7.99-424,16-20,214.76-111.84Z"/>
      <rect class="d" x="164.94" y="290.8" width="287.94" height="15.52" rx="7.76" ry="7.76" transform="translate(142.86 -97.66) rotate(23.24)"/>
      <rect class="d" x="352.94" y="602.8" width="287.94" height="15.52" rx="7.76" ry="7.76" transform="translate(-113.66 1107.47) rotate(-90)"/>
    </g>
  </g>
</svg>