<?xml version="1.0" encoding="UTF-8"?>
<svg id="b" data-name="Layer 2" xmlns="http://www.w3.org/2000/svg" viewBox="0 0 956.05 955.55">
  <defs>
    <style>
      .d, .e {
        fill: #fff;
      }

      .e {
        stroke: #000;
        stroke-miterlimit: 10;
      }
    </style>
  </defs>
  <g id="c" data-name="Layer 1">
    <g>
      <path class="e" d="M142.88,131.94C-21.76,292.66-44.56,550.77,79.4,743.03c177.12,274.71,597.7,284.62,786.78,17.2,133.35-188.59,115.59-444.62-40.64-613.54-175.56-189.81-498.15-194.87-682.66-14.75Z"/>
      <path d="M545.14,188.5c13.2.77,26.29,1.18,39.55,1.05,33.11-.33,70.08-3.51,102.99-1.09s57.57,28.35,60.51,60.49l-.15,440.94c-6.46,29.91-31.66,50.63-62.4,50.7-132.16.3-264.52.01-397.03-1.14-8.83-.08-16.1,1.15-25.24-1.67-51.5-15.93-43.11-67.79-43.26-110.82-.44-124.99.45-250.71,0-376,8.35-51.51,40.84-64.05,88.59-63.51,25.45.29,51.46,1.81,76.9,2.1,11.78.13,23.46.14,35.04-2.06,1.5.47-.49,2.22-.49,2.51v36.5h-120.5c-1.12,0-7.5,1.47-9.06,1.94-29.25,8.99-19.62,42.25-19.4,65.51.51,53.29-.12,106.96,0,160.01.06,29.55-2.35,64.23-.08,93.08.55,6.92,3.37,16.97,11,18.99,6.28,1.66,14.94-1.31,21.49-1.57,26.13-1.02,51.92,3.37,78.08,2.08,8.55-.42,17.49-2.62,25.92-3.08,38.33-2.1,79.47.13,118.08.08,24.97-.03,48.43,3.95,71.96,4.05,24.62.11,49.71-3.57,75.04-3.13,4.31.07,7.88,1.67,12.88.95,5.31-.76,10.32-4.87,12.11-9.88l.34-300.4c-.81-6.53-1.83-10.87-5.9-16.1-9.32-12-21.34-11.95-35.43-12.57-36.74-1.61-74.68,1.29-111.54.04v-38ZM601.96,597.77c-45.99,1.63-62.87,62.61-29.29,91.7,17.4,15.08,40.35,17.94,59.78,4.84,44.07-29.7,22.31-98.41-30.49-96.54ZM334.87,598.74c-22.21,6.51-23.79,21.94-24.78,42.22-1.14,23.45-2.9,60.87,28.51,63.58,26.84,2.32,59.46-.35,87.08-.08,18.5.18,37.34.83,56,1,3.93.04,7.29,1.35,11.95,1.02,10.59-.75,22.98-8.85,27.38-18.61,4.83-10.72,4.32-46.14,3.01-58.75-1.64-15.7-13.38-28.89-29.34-30.66l-159.8.28ZM695.9,614.68c-10.7,1.24-17.63,13.11-11.2,22.75,9.87,14.79,33.28,2.09,25.66-14.67-1.94-4.27-9.85-8.62-14.46-8.08ZM695.9,668.72c-2.84.42-8.41,3.57-10.31,5.73-11.62,13.25,10.71,34.84,23.54,17.54,8.02-10.81-.56-25.15-13.23-23.28Z"/>
      <path d="M319.84,501.71c36.94.47,73.88.46,110.83.75,51.62.41,103.22.89,155,.08,18.91-.3,40.09-3.3,58.98-1.06,9.79,1.16,8.36,13.62,7.48,21.52-1.53,13.68-17.9,7.6-27.45,7.45-95.32-1.43-191.84-.97-287.01,1.09-4.94.11-17.56,1.21-20.57-2.51s-4.19-25.07,2.74-27.32Z"/>
      <path d="M497.64,384.5l-1.35,1.65c-.56,12.99-6.13,28.85-22.26,21.75-.89-4.31-2.09-8.67-2.77-13.02-.6-3.86,1.58-8.42-3.07-9.93-9.33-3.03-26.4,1.77-36.5.48l-.55,3.07c-7.13-3.22-14.32,3.37-15.05-7.47-1.17-17.52,13.84-11.38,24.6-11.49,31.32-.34,70.31-4.05,101-1.1,13.8,1.33,8.92,14.02,9.41,24.59,1.11,24.04,2.45,49.88,1.09,74.01-.45,8.01-.76,24.34-10.53,25.47-31.19,3.62-68.3-3.58-99.97,1.03-18.98.37-31.89.4-24.61-23.61,8.75-1.4,16.5-4.4,18.72,6.61l30.68-.21c1.38-.47,6.18-8.9,7.19-10.81,1.18-2.25,3.26-9.5,3.65-9.85.29-.26,5.51-1.04,7.5-2,7.87-3.76,7.87-8.29,18.82-7.17,7.18.74,7.03,2.72,6.48,9.49-1.42,17.42-13.9,9.48-16.98,22.5,8.09-1.01,16.39-1.12,24.48-2.01,3.92-.43,7.87-2.72,11.5-.98l1.57-35.07c-1.71-2.45-26.14-.49-30.56,1.06,2.02-6.47-.74-12.33-.01-19l30.86.86c3.11-12.7,1.93-25.89,2.14-38.86h-35.5Z"/>
      <path d="M434.13,297.51l1.48-104.03c2.17-2.13,14.16.91,17.99,1.06,16.72.69,36.35.63,53.09,0,3.51-.13,20.07-2.65,21.52-1.62l2.46,104.63c-.88,1.53-27.73-3.84-31.98-4.1-10.92-.68-32.69-1.27-43.07.02-3.89.48-7.47,3.12-12.26,3.74-3.09.4-6.14.33-9.22.29ZM451.32,226.68c-2.32,3.94,4.18,9.36,8.3,9.84,8.92,1.06,39.41,1.24,47.96-.08,3.74-.58,5.67-3,6.3-6.62-2.55-9.74-11.6-6.35-18.2-6.28-11.26.11-26.45-1.37-37.07-.07-1.54.19-6.79,2.35-7.29,3.21ZM510.83,269.19c6.05-5.38,2.26-13.53-5.29-14.6-7.06-1-15.47.98-22.96.95-8.03-.03-31.96-5.63-32.41,7.56-.15,4.48,5.14,8.95,9.55,9.31,14.17-1.58,31.22.65,44.93-.88,1.86-.21,4.8-1.12,6.17-2.34Z"/>
      <polygon points="684.14 274.5 545.14 274.5 545.14 249.5 684.14 251 684.14 274.5"/>
      <path d="M420.14,274.5l-134.33-.96c-2.51-.59-2.5-23.5,0-24.08l134.33.54v24.5Z"/>
      <path d="M623.14,752.5c19.98-.73,40.63.96,60.54.04,4.72-.22,11.2-.65,15.84-1.16s11.23-3.93,14.62-1.38v27c0,.94-5.63,5.21-7.48,4.52-23.65-1.55-49.7,1.99-73.06.01-3.09-.26-10.46-1.54-10.46-5.54v-23.5Z"/>
      <path d="M255.15,747.5c14.34,4.52,29.65,3.63,44.53,3.96,8.68.19,17.27-.26,26,0,4.32.13,9.15,1.76,13.82,1.18,1.3.34,1.43,1.22,1.64,2.36.54,2.91.37,17.88-.45,20.55-.9,2.93-4.88,6-8.03,5.97-21.15-1.29-44.13,1.64-65.06.01-3.05-.24-8.88-.96-10.91-3.09-5.88-6.13-.11-22.91-1.54-30.95Z"/>
      <path d="M473.14,165c4.65-43.96,49.06-51.88,85.52-47.52,2.65.32,6.95,1.72,7.48,4.52s.12,10.01-1.54,12.46c-4.31,6.35-34.5,3.13-42.85,4.15-21.02,2.57-30.59,22.43-29.61,41.89h-19c.38-4.99-.52-10.6,0-15.5Z"/>
      <path d="M503.64,307.5c.7-.07,2.03-1.58,3.49-.99,1.61,1.67-11.55,22.28-13.19,25.3-2.62,4.8-5.52,19.2-14.37,13.77-5.06-3.1-15.37-28.95-19.99-35.02l1.07-3.04c13.78-1.03,29.47,1.39,43,0Z"/>
      <path d="M467.14,424.51l-1.05,14.94-44.43,2.03c-6.47-1.25-7.81-16.41-.83-17.74,6.28-1.2,14.34.35,20.85-.2,8.3-1.5,17.04.2,25.46.96Z"/>
      <path d="M623.14,544.5c-.01,1.92.52,10.53-1.67,11.05l-40.72.02-1.61-11.06h44Z"/>
      <path d="M384.14,544.5l-.51,12.02c-12.57-2.73-25.79-2.68-38.48-1.01v-11s39,0,39,0Z"/>
      <path d="M466.86,464.21c-1.36,1.13-21.91,3.11-22.72,2.3.18-4.09-1.14-12.06,3.24-14.27,3.66-1.85,21.19-3.22,23.3.25,1.27,2.08-2.15,10.33-3.82,11.72Z"/>
      <path d="M444.23,412.4c-.22-4.07-4.86-11.81.14-14.17,2.59-1.22,13.03-1.09,16.17-.65,8.3,1.17,9.15,7.4,6.65,14.47l-22.97.34Z"/>
      <path d="M504.89,418.26c-3.8,3.33-12.17.44-12.74-5.35-.23-2.35,4.81-15.18,6.22-17.68,3.24-5.75,8.01-.61,8.72,3.83.47,2.95-.3,17.55-2.19,19.2Z"/>
      <path d="M487.79,424.85c8.39,8.83-6.69,23.2-14.23,13.73-7.95-9.98,4.33-24.15,14.23-13.73Z"/>
      <path class="d" d="M334.87,598.74l159.8-.28c15.96,1.77,27.7,14.97,29.34,30.66,1.32,12.61,1.83,48.03-3.01,58.75-4.4,9.76-16.79,17.86-27.38,18.61-4.66.33-8.02-.98-11.95-1.02-18.66-.17-37.5-.82-56-1-27.62-.27-60.23,2.39-87.08.08-31.41-2.71-29.65-40.13-28.51-63.58.99-20.28,2.57-35.71,24.78-42.22ZM339.87,614.73c-6.12,1.94-11.97,8.8-12.75,15.25-1.02,8.33-.81,44.42,1.8,51.25.8,2.08,3.99,6.14,6.17,6.83l161.61.5c2.89-.12,9.25-6.54,10.01-8.99,2.41-7.82,2.39-40.53,1.33-49.45-.81-6.85-4.67-11.09-10.31-14.69l-157.85-.7Z"/>
      <path class="d" d="M601.96,597.77c52.79-1.87,74.55,66.84,30.49,96.54-19.43,13.1-42.38,10.24-59.78-4.84-33.57-29.1-16.69-90.07,29.29-91.7ZM602.92,613.77c-35.89,3.27-44.8,56.88-8.77,70.22,12.17,4.51,22.08,2.03,32-5.98,26.24-21.17,11.61-67.42-23.23-64.25Z"/>
      <path class="d" d="M695.9,668.72c12.68-1.87,21.25,12.46,13.23,23.28-12.83,17.3-35.16-4.29-23.54-17.54,1.9-2.16,7.47-5.31,10.31-5.73Z"/>
      <path class="d" d="M695.9,614.68c4.61-.53,12.52,3.81,14.46,8.08,7.62,16.75-15.79,29.45-25.66,14.67-6.43-9.64.5-21.51,11.2-22.75Z"/>
      <path class="d" d="M510.83,269.19c-1.37,1.22-4.31,2.13-6.17,2.34-13.71,1.53-30.76-.69-44.93.88-4.41-.36-9.7-4.83-9.55-9.31.45-13.19,24.38-7.58,32.41-7.56,7.48.02,15.9-1.95,22.96-.95,7.55,1.07,11.33,9.22,5.29,14.6Z"/>
      <path class="d" d="M451.32,226.68c.51-.86,5.76-3.02,7.29-3.21,10.62-1.3,25.81.17,37.07.07,6.61-.06,15.65-3.46,18.2,6.28-.63,3.62-2.57,6.04-6.3,6.62-8.56,1.32-39.04,1.14-47.96.08-4.12-.49-10.62-5.91-8.3-9.84Z"/>
      <path d="M339.87,614.73l157.85.7c5.64,3.6,9.5,7.83,10.31,14.69,1.06,8.92,1.08,41.63-1.33,49.45-.75,2.45-7.12,8.87-10.01,8.99l-161.61-.5c-2.18-.69-5.37-4.75-6.17-6.83-2.61-6.82-2.82-42.92-1.8-51.25.79-6.45,6.63-13.31,12.75-15.25ZM414.87,637.74c-17.57,3.01-11.98,22.31,3.73,21.8,16.47-.53,17.01-25.35-3.73-21.8ZM467.95,637.77c-20.76,1.28-18.18,25.32,5.45,20.5,12.27-2.5,11.92-21.57-5.45-20.5ZM361.88,638.74c-3.81.64-6.58,2.24-8.24,5.75-8.77,18.56,27.39,18.64,25.47,2.6-1.08-9.04-9.92-9.59-17.23-8.36Z"/>
      <path d="M602.92,613.77c34.84-3.17,49.47,43.08,23.23,64.25-9.92,8.01-19.83,10.48-32,5.98-36.03-13.34-27.12-66.96,8.77-70.22Z"/>
      <path class="d" d="M467.95,637.77c17.37-1.07,17.73,18,5.45,20.5-23.63,4.82-26.22-19.22-5.45-20.5Z"/>
      <path class="d" d="M414.87,637.74c20.75-3.55,20.2,21.27,3.73,21.8-15.72.51-21.31-18.79-3.73-21.8Z"/>
      <path class="d" d="M361.88,638.74c7.32-1.24,16.15-.69,17.23,8.36,1.92,16.04-34.25,15.96-25.47-2.6,1.66-3.52,4.43-5.11,8.24-5.75Z"/>
    </g>
  </g>
</svg>