<?xml version="1.0" encoding="UTF-8"?>
<svg id="b" data-name="Layer 2" xmlns="http://www.w3.org/2000/svg" viewBox="0 0 956.05 955.55">
  <defs>
    <style>
      .d, .e {
        fill: #fff;
      }

      .e {
        stroke: #000;
        stroke-miterlimit: 10;
      }
    </style>
  </defs>
  <g id="c" data-name="Layer 1">
    <g>
      <path class="e" d="M142.88,131.94C-21.76,292.66-44.56,550.77,79.4,743.03c177.12,274.71,597.7,284.62,786.78,17.2,133.35-188.59,115.59-444.62-40.64-613.54-175.56-189.81-498.15-194.87-682.66-14.75Z"/>
      <path d="M484.13,244.5c91.24,2.98,173.23,82.75,173,174.99,23.12-1.1,46.36-1.38,69.55-1.04,6.83.1,13.67,1.21,20.99,1.09,5.33-.09,9.42-3.32,14.46,1.46,3.06,2.9,5.33,8.12,3.05,12.06-4.55,7.85-13.9,5.18-21.59,5.4-26.84.79-55.05-1.96-82,0-1.85.13-3.65.33-5.32,1.18-.07,8.81-2.14,17.58-4.42,26.08-18.65,69.54-78.12,123.93-149.49,135.51-3.14.51-16.82,1.07-17.74,2.23l-.23,176.8c-4.86,7.18-15,8.26-19.49,0l-.75-177.75c-86.57-5.34-160.89-76.49-170.05-162.94-5.13-.34-10.36.24-15.49-.01-26-1.29-51.86-1.99-78-2.09-4.51-.02-5.73,2.3-10.51-1.41-7.02-5.44-2.5-14.88,4.61-17.48,32.84-.21,65.69-.26,98.39.88,3.89-92.09,79.19-168.73,171.05-173.94v-67.48c3.28-10.91,19.13-11.36,20.94.03,2.23,14.07-.26,39.08-.98,53.9-.2,4.16.23,8.39.04,12.55ZM357.72,527.92c92.35,98.86,245.55,53.65,274.55-76.79,18.47-83.09-46.74-168.94-128.77-182.5-146.8-24.25-250.74,146.93-145.78,259.28Z"/>
      <path d="M777,755.36c.5-9.77-.16-19.62.1-29.4.32-11.93,0-30.8,2.1-41.9,3.2-16.91,33.37-12.24,34.91-4.04l-.42,105.53c-2.03,4.17-4.52,5.58-9.01,5.99-33.67,3.1-71.05-3-105.07-1.02-19.19-2.31-13.2-31.47-2.76-33.81,7.53-1.69,23.13.07,31.83-.17,11.62-.32,23.21-1.37,35-1.08,4.39.11,8.79,2.52,13.32-.1Z"/>
      <path d="M703.93,170.79c33.54-2.81,70.46,1.12,104.26.15,3.44,1.66,5.51,4.11,5.97,8.03,2,17.03-.77,35.97-1.06,52.98-.25,14.83,1.7,33.97.06,48.06-1.44,12.4-28.89,13.02-33.57,1.53-.98-13.15-.96-26.36-1.46-39.54-.07-1.91-.95-3.84-1.03-5.97-.16-4.43.97-29.77-.9-31.12-9.82.58-19.74.82-29.6.62-15.07-.31-32.06.38-47.01-.99-11.22-1.03-17.27-17.63-11.46-26.55,4.26-6.54,8.67-6.6,15.8-7.2Z"/>
      <path d="M176.13,205.49l-1.09,73.41c-1.81,12.48-28.99,14.39-33.88,2.07l.45-103.51c1.41-3.42,3.09-6.29,7.09-6.91,7.35-1.15,19.01.07,26.98-.02,6.32-.07,12.62.01,18.92,0,18.85-.03,45.21-2.16,63.06-.06,14.68,1.72,12.59,28.13.77,32.81l-82.29,2.21Z"/>
      <path d="M176.14,755.49c16.48.36,33.05-.44,49.54-.03,2.36.06,4.55,1,6.92,1.08,6.31.21,20.96-1.29,25.84.16,10.02,2.98,10.78,28.31.69,33.28-29.35,1.34-59.05.02-88.52.48-9.63.15-23.29,5.13-29.01-5.91l.76-102.34c3.37-12.19,30.88-11.99,32.73-.15.74,19.64.43,39.35,1.02,58.98.14,4.81,2.38,9.32.04,14.45Z"/>
      <path class="d" d="M357.72,527.92c-104.96-112.35-1.01-283.54,145.78-259.28,82.02,13.55,147.24,99.41,128.77,182.5-29,130.44-182.19,175.65-274.55,76.79ZM510.14,361v100c0,4.32,2.61,9.91,7.56,10.44,20.56-1.35,43.74,1.99,63.98.09,5.86-.55,10.47-2.81,10.47-9.53,0-9.8-1.24-20-1.05-30.06.37-20.12,3.02-41.88,1.11-62.01-.45-4.76-4.76-9.59-9.62-10.38-14.1-2.29-38.46.3-53.99-.01-5.83-.12-13.53-3.53-18.46,1.46ZM492.14,359.5c-29.81.54-59.73-.68-89.55-.04-2.36.05-4.55,1.02-6.92,1.08-9.45.26-22.29-1.29-31.09-.09-5.46.75-9.03,5.31-9.5,10.5-2.68,29.19,2.12,62.44.02,92.07,2.49,11.86,7.15,8.58,15.48,8.43,15.29-.27,30.86-.82,46-1,25.17-.3,50.39.3,75.55.05v-111.01ZM511.99,487.64c-1.82-2.92-28.07.05-32.91.3-2.4,1.68.6,10.65.49,13.63l30.63.5,1.79-14.42ZM464.14,487.5h-43.5c-3.77,4.1.26,10.1-.5,15h42.5c3.11-3.76.84-10.26,1.5-15ZM559.14,514.5l-168.01.99c1.19,2.6-2.53,17.01.51,17.01h167c2.27-1.39.5-2.15.5-2.5v-15.5Z"/>
      <path d="M492.14,359.5v111.01c-25.16.26-50.37-.34-75.55-.05-15.14.18-30.71.73-46,1-8.33.15-12.99,3.43-15.48-8.43,2.09-29.63-2.71-62.88-.02-92.07.48-5.18,4.05-9.75,9.5-10.5,8.8-1.2,21.64.35,31.09.09,2.37-.07,4.55-1.03,6.92-1.08,29.82-.65,59.73.57,89.55.04ZM383.19,399.45l8.52.15c4.26-6.97-2.17-9.24-8.59-8.1l.06,7.95ZM417.35,392.72c-.44.25-1.2,2.66-2.03,3.29,4.78,5.59,16.44,5.18,9.88-4.04-2.02.64-6.59.02-7.84.74ZM445.03,400.39l-.88-7.42-2.52-1.11c-3.91,1.07-5.92,4.72-5.49,8.64l8.89-.1ZM393.09,420.44c3.18-12.28-1.77-16.36-13.75-12.75-3.67,12.05,2.95,14.08,13.75,12.75ZM422.9,408.73c-14.25-9.55-17.18,12.83-5.26,12.82,7.24,0,7.97-7.56,5.26-12.82ZM440.38,420.26c8.54,2.5,14.15.71,12.8-9.31-.61-4.51-3.34-5.02-7.58-4.51-6.34.76-7.38,9.02-5.22,13.82ZM440.96,432.68c-4.32-2.23-9.17-.93-13.61.03l-.78,9.86c9.34,2.73,17.57,1.79,14.39-9.89Z"/>
      <path d="M510.14,361c4.93-4.99,12.63-1.58,18.46-1.46,15.52.31,39.88-2.28,53.99.01,4.87.79,9.17,5.62,9.62,10.38,1.91,20.14-.75,41.9-1.11,62.01-.18,10.06,1.05,20.25,1.05,30.06,0,6.72-4.61,8.98-10.47,9.53-20.24,1.89-43.42-1.44-63.98-.09-4.95-.53-7.56-6.13-7.56-10.44v-100ZM544.86,375.73c-13.35,2.71-23.36,20.86-24.61,33.4-2.01,20.27,11.12,50.5,35.29,47.28,36.55-4.86,33.07-89.56-10.69-80.68Z"/>
      <path d="M559.14,514.5v15.5c0,.35,1.77,1.11-.5,2.5h-167c-3.03,0,.68-14.4-.51-17.01l168.01-.99Z"/>
      <path d="M464.14,487.5c-.66,4.74,1.61,11.24-1.5,15h-42.5c.76-4.9-3.27-10.9.5-15h43.5Z"/>
      <path d="M511.99,487.64l-1.79,14.42-30.63-.5c.11-2.98-2.89-11.95-.49-13.63,4.85-.25,31.09-3.21,32.91-.3Z"/>
      <path class="d" d="M393.09,420.44c-10.8,1.33-17.42-.71-13.75-12.75,11.98-3.61,16.93.48,13.75,12.75Z"/>
      <path class="d" d="M440.38,420.26c-2.16-4.8-1.12-13.07,5.22-13.82,4.24-.51,6.97,0,7.58,4.51,1.35,10.02-4.27,11.81-12.8,9.31Z"/>
      <path class="d" d="M422.9,408.73c2.71,5.26,1.98,12.81-5.26,12.82-11.92.01-8.99-22.37,5.26-12.82Z"/>
      <path class="d" d="M440.96,432.68c3.18,11.68-5.04,12.62-14.39,9.89l.78-9.86c4.44-.96,9.28-2.27,13.61-.03Z"/>
      <path class="d" d="M383.19,399.45l-.06-7.95c6.41-1.14,12.85,1.13,8.59,8.1l-8.52-.15Z"/>
      <path class="d" d="M417.35,392.72c1.26-.72,5.83-.11,7.84-.74,6.56,9.22-5.09,9.63-9.88,4.04.84-.63,1.59-3.04,2.03-3.29Z"/>
      <path class="d" d="M445.03,400.39l-8.89.1c-.43-3.92,1.58-7.56,5.49-8.64l2.52,1.11.88,7.42Z"/>
      <path class="d" d="M544.86,375.73c43.76-8.88,47.24,75.82,10.69,80.68-24.17,3.22-37.3-27.02-35.29-47.28,1.24-12.54,11.26-30.69,24.61-33.4ZM559.79,436.15c8.12-8.84,8.89-34.94-.62-43.18-13.47-11.68-25.02,10.81-24.82,23.03s11.7,35.12,25.44,20.16Z"/>
      <path d="M559.79,436.15c-13.74,14.96-25.23-7.35-25.44-20.16s11.35-34.71,24.82-23.03c9.51,8.25,8.74,34.34.62,43.18Z"/>
    </g>
  </g>
</svg>