<?xml version="1.0" encoding="UTF-8"?>
<svg id="b" data-name="Layer 2" xmlns="http://www.w3.org/2000/svg" viewBox="0 0 611.34 640.76">
  <defs>
    <style>
      .d {
        fill: #fff;
      }
    </style>
  </defs>
  <g id="c" data-name="Layer 1">
    <g>
      <path d="M611.34,453.57c.05,16.07-9.38,30.58-23.97,37.31-.08.04-.16.07-.23.11-23.61,10.93-48.95,25.83-72.14,38.34-22.43,12.1-46.41,23.51-66.38,38.5-6.54,4.91-4.55,2.48-11.78,5.08-4.32,1.55-7.17,5.81-9.2,7.08-.52.33-8.2.88-11.47,3.58-1.32,1.09-2.35,6.1-6.39,7.32-2.86.86-4.85.2-7.09.65-.53.1-7.84,6.57-8.36,6.71-4.63,1.23-11.18,1.32-15.8,4.19-13.16,8.17-27.98,14.52-41.9,22.46-9.46,5.4-9.64,6.95-20.4,11.16-11.13,4.36-7.87,7.42-20.32,1.14-25.39-12.8-50.24-27.47-75.48-40.63-22-11.47-43.9-21.89-65.01-34.19-40.07-23.34-86.18-49.96-128.15-69.12-.78-.36-1.58-.72-2.38-1.08-14.8-6.67-24.38-21.33-24.41-37.57L0,168.73c-.03-15.84,9.02-30.3,23.29-37.19L286.93,4.1c11.11-5.37,24.03-5.46,35.23-.31,88.86,40.87,176.49,84.35,264.83,126.32,14.33,6.81,23.47,21.24,23.52,37.11l.84,286.36Z"/>
      <path class="d" d="M219.48,263.63l78.44,37.86c1.49,3.1-.5,13.34-.57,17.79-.36,21.83.35,43.71.02,65.53l-77.89-34.62v-86.56Z"/>
      <path class="d" d="M389.35,467.05c2.05,10.93,2.32,21.93,2.22,33.05-.03,2.82-1.16,5.47-1.18,8.56-.1,14.28,1.78,28.41,1.02,42.69-4.72.57-8.77,2.85-12.9,4.95-21.61,11.02-42.27,24.04-63.81,35.19l-1.68-86.61c6.38-2.92,12.83-5.8,19-9.13,6.43-3.47,54.46-31.24,57.32-28.7Z"/>
      <path class="d" d="M297.38,591.48l-77.44-38.95-.45-84.4,77.14,36.72,1.29,2.13c.1.82-.54,1.44-.54,1.73v82.77Z"/>
      <polygon class="d" points="297.38 486.52 219.48 451.9 219.48 367.5 297.38 403.75 297.38 486.52"/>
      <path class="d" d="M391.51,263.63l-.46,85.55c-26.91,8.31-50.83,24.06-76.34,35.63-1.15-27.92,2.46-56.88-2.16-84.35l78.97-36.83Z"/>
      <path class="d" d="M390.43,366.42l.96,82.11c-27.11,9-51.02,24.8-76.69,36.91l-1.71-81.14,77.43-37.87Z"/>
      <path class="d" d="M131.83,221.43l72.14,35.09c-3.75,27.32-.93,55.28-1.82,82.85l-70.32-32.46v-85.48Z"/>
      <path class="d" d="M478.08,421.6v83.86c-24.56,10.16-47.74,23.43-70.32,37.33l-1.16-85.9,71.48-35.29Z"/>
      <path class="d" d="M478.08,219.26v81.69c0,.4,1.49,1.59,1.09,2.7-25.3,7.93-46.92,24.6-71.41,34.63l-1.17-81.73,71.49-37.28Z"/>
      <polygon class="d" points="203.24 541.7 133.09 506.91 132.92 423.77 203.79 459.46 203.24 541.7"/>
      <path class="d" d="M564.64,377.24l1.04,83.27c-24.84,6.27-48.07,21.09-70.27,33.59l-1.63-81.22,70.86-35.63Z"/>
      <path class="d" d="M564.64,179.23v78.45c0,.43,1.49,1.6,1.09,2.69l-70.33,33.55-1.99-81.59c.9-3.83,62.94-29.67,71.23-33.1Z"/>
      <path class="d" d="M45.27,181.93c-.04-.31-1.62-1.21-1.08-1.61l71.3,30.39-.97,83.2-69.24-31.91v-80.07Z"/>
      <path class="d" d="M478.08,322.06v81.15c-24.43,8.11-47.03,22.74-69.24,35.71l-2.25-80.65,71.49-36.2Z"/>
      <path class="d" d="M131.83,325.3l70.64,33.48c1.22.84,1.67,2.38,1.67,3.79,0,8.77-1.84,19.42-2.02,28.15-.34,15.68.35,31.43.04,47.11l-70.33-33v-79.53Z"/>
      <polygon class="d" points="564.64 278.78 565.22 357.82 495.4 392.39 493.71 313.38 564.64 278.78"/>
      <path class="d" d="M45.27,381.03c-.02-.49-2.78-1.88.52-1.61l68.09,33.62c2.82,2.02,1.88,14.12,1.76,17.81-.09,2.87-1.12,5.47-1.18,8.56-.33,17.53-.04,35.08,1.13,52.52l-70.32-30.29c-.94-26.62,1.26-54.08,0-80.61Z"/>
      <path class="d" d="M45.27,280.94l70.41,35.12-.08,77.4c-23.73-8.95-45.71-24.11-70.33-30.29v-82.23Z"/>
      <path class="d" d="M357.98,259.31l-51.48,25.95-49.16-24.35c-.26-1.77,1.37-2.15,2.5-2.91,12.82-8.47,33.31-11.67,45.83-22.29,16.93,8.83,34.39,17.22,52.31,23.6Z"/>
      <path class="d" d="M421.81,225.77l-1.39,2.41-44.68,22.45-50.23-23.8c14.78-10.2,33.9-13.35,48.14-24.68,14.84,10.1,31.95,16.21,48.16,23.62Z"/>
      <path class="d" d="M286.56,225.77l-48.29,25.69c-17.2-5.4-31.75-16.17-48-23.56-1.54-2.27,45.8-21.57,49.24-23.75,14.65,9.34,31.39,14.31,47.05,21.61Z"/>
      <polygon class="d" points="352.56 192.23 305.69 217.99 257.34 193.84 306.58 170.66 352.56 192.23"/>
      <path class="d" d="M486.73,194.39l-44.8,23.81-49.33-23.83c-1.24-1.65,27.85-13.39,30.32-14.56,5.61-2.66,10.98-6.32,16.57-9.05l47.24,23.64Z"/>
      <path class="d" d="M419.64,160.85l-45.98,23.71-48.14-23.73c-1.24-1.64,16.19-8.09,17.7-8.8,9.88-4.64,19.79-9.4,29.36-14.65,14.45,9.91,31.03,16.53,47.07,23.47Z"/>
      <polygon class="d" points="218.39 193.31 168.07 218.89 124.28 196 172.59 171.84 218.39 193.31"/>
      <path class="d" d="M285.47,159.77l-48.14,24.79-44.9-21.58c-.45-2.45.13-1.72,1.38-2.4,3.62-1.98,9.13-3.43,13.07-5.31,11.37-5.41,22.76-11.04,33.87-16.98,14.23,8.4,29.32,15.46,44.72,21.47Z"/>
      <path class="d" d="M351.48,127.31l-45.98,24.47-45.98-24.47c16.2-5.18,30.77-14.29,46.01-21.64,14.82,7.96,29.99,16,45.95,21.64Z"/>
      <path class="d" d="M547.32,165.18l-1.52,2.24-40.13,18.4-47.06-24.45,40.58-18.68c14.5,10.27,32.84,13.51,48.13,22.48Z"/>
      <path class="d" d="M151.3,161.93l-45.97,24.83-41.66-18.9,12.03-7.43c11.32-5.3,23.91-9.62,34.11-16.73l41.49,18.23Z"/>
      <path class="d" d="M219.48,127.3c.49,2.82-.39,1.68-1.54,2.26-15.11,7.65-30.19,15.36-45.53,22.54l-40.57-17.24c-.46-2.23,1.1-2.51,2.49-3.45,12.72-8.58,31.23-11.95,43.65-21.25,13.67,5.72,26.75,14.7,41.51,17.14Z"/>
      <path class="d" d="M433.56,110.11c.91,2.98,4.02,4.47,6.61,5.86s40.93,15.19,38.99,17.8l-38.67,18.23-16.54-6.83-31.36-17.86,40.96-17.19Z"/>
      <path class="d" d="M284.4,95.9l-43.88,22.75-39.43-17.34c-1.5-1.66,4.3-4.35,5.36-4.9,12.13-6.34,26.81-9.88,37.54-18.71,1.51-.29,13.09,6.4,15.88,7.58,2.35,1,25.6,9.04,24.53,10.62Z"/>
      <path class="d" d="M410.99,101.31l-39.41,17.31c-11.56-4.47-21.87-11.43-32.86-16.99-3.24-1.64-7.86-2.54-10.75-4.37-1.1-.7-1.89.06-1.38-2.43l38.44-17.07c12.58,12,32.4,12.9,45.96,23.54Z"/>
      <path class="d" d="M341.74,65.63c.54,2.52-.33,1.73-1.39,2.41-10.77,6.91-22.66,11.94-33.83,18.15l-39.43-17.34,36.32-18.42,38.33,15.2Z"/>
    </g>
  </g>
</svg>