<?xml version="1.0" encoding="UTF-8"?>
<svg id="b" data-name="Layer 2" xmlns="http://www.w3.org/2000/svg" viewBox="0 0 563.89 655.79">
  <defs>
    <style>
      .d {
        fill: #fff;
      }
    </style>
  </defs>
  <g id="c" data-name="Layer 1">
    <g>
      <polygon class="d" points="245.79 48.47 128.74 79.92 33.56 188.08 51.58 347.85 183.64 414.4 280.36 288.7 290.55 193.72 280.36 69.62 245.79 48.47"/>
      <path d="M367.29,25.07c-5.16,3.24-9.81,7.21-14.95,10.52-16.39,10.55-33.63,16.17-46.13,32.21-11.42,14.65-16.27,37.3-20.4,55.2l-6.7-13.26c-53.88-69.5-153.81-31.17-198.41,28.68-57.76,77.51-22.77,194.16,67.62,226.68,41.35,14.88,99.42.2,104.5-49.85,2.65-26.1-9.81-32.36-25.01-48.44-21.97-23.24-9.88-38.54,10.21-55.67,10.82-9.22,25.64-15.47,31.41-28.54.69-.51,3.2,1.06,4.85.63,6.41-1.66,12.72-26.38,12.33-32.79l3.9,13.72c4.47,11.34,10.2,22.33,19.42,30.53-2.06,2.81-2.53,6.45-3.35,9.8-5.31,21.64-8.47,43.33-12.36,65.2-11.48,64.58-24.55,133.91-29.53,199.22-2.85,37.31,3.85,74.13,9.39,110.84-53.7-6.12-107-24.97-151.44-55.76C24.1,455.72-22.18,336.45,10.29,219.21,51.44,70.59,200.4-8.85,349.29,19.19c5.73,1.08,13.74,1.83,18,5.88Z"/>
      <path d="M430.16,200.76c-.89.92-1.56,10.35-1.76,12.74-6.03,72.26-10.47,144.89-18.03,216.99-8.04,76.65-27.43,129.18-64.1,195.99-5.54,10.1-13.22,25.12-24.79,28.48-13.52,3.94-18.32-6.91-21.04-18.18-12.7-52.55-23.03-118.76-19.32-172.6,4.67-67.77,19.11-142.69,31.56-209.73,3.43-18.49,11.82-43.8,11.6-62.13-.04-3.31-6.05-8.91-8.23-12.2-17.88-26.92-18.08-61.56-4.27-90.3,11.99-24.95,28.69-26.58,49.65-40.44,20.32-13.43,26-23.64,35.62-45.08,5.9-13.14,18.55,7.55,22.75,12.53,19.6,23.25,39.06,45.65,45.82,76.4,8.91,40.53,1.25,84.15-35.45,107.53ZM406.45,29.79l-1.91.81c-13.14,23.11-36.24,33.81-56.76,48.22-34.07,23.91-38.21,70.63-9.09,100.61,3.66,3.76,6.9,4.92,12.15,5.47-11.36-16.56-12.32-44.49.13-60.57,5.57-7.19,8.16-7.93,17.1-5.22-2.12,5.06-5.8,9.44-7.66,14.66-6.25,17.55-3.75,37.36,4.45,53.76l26.27,3.66c3.03-.47,16.73-18.28,18.95-21.85,8.48-13.64,13.11-36.94,13.64-52.95.15-4.6-2.36-27.84-.81-29.41,8.99,5.97,11.73,19.2,12.51,29.39,2.25,29.31-8.99,57.5-30.54,77.15,8.21,1.52,15.5-5.31,21.16-10.56,40.82-37.81,24.79-97.47-5.52-136.3-4.35-5.57-10.65-10.71-14.09-16.86ZM409.6,213.1l-68.94-8.61-8.56,46.93,75.92,8.69,1.58-47ZM369.64,275.77l-41.48-4.67c-5.87,37.83-13.84,75.43-19.52,113.29-6.76,45.06-12.14,89-8.72,134.63,2.94,39.26,10.8,77.93,18.8,116.34,1.39,1.27,4.53-4.52,5.1-5.47,9.69-16.18,16.13-35.61,25.43-52.13.19-1.29.06-1.26-1.16-1.17-6.37.46-12.42,1.28-18.38,3.56-2.08,1.19-2.16,5.86-2.77,8.21-.14.54-.4,2.4-1.18,1.16l43.89-313.75Z"/>
      <path d="M493.09,479.91c-17.7,20.47-39.28,37.39-62.1,51.88l-30.8,16.2c25.21-68.47,27.04-143.26,33.7-215.43,3.76-40.78,8.57-81.27,10.99-122.19.67-2.23,7.48-6.24,9.74-8.28,15.57-14.05,25.57-35.42,28.5-56.1,2.55-17.96,2.29-35.81-1.45-53.55,31.66,35.65,59.01,78.8,71.84,125.18,25.89,93.56,2.4,189.62-60.43,262.28Z"/>
      <path d="M156.04,108.39c16.79-17.66,49.24,6.83,30.68,27.94-19.32,21.99-48.07-9.65-30.68-27.94Z"/>
      <path d="M187.7,290.08c29.28-3.99,31.83,38.91,3.67,39.77-24.24.74-29.03-36.31-3.67-39.77Z"/>
      <path d="M121.82,129.58c10.79-.02,21.76,9.05,21.13,20.34-.45,8.19-8.57,17.72-16.75,19.12-29.08,4.96-32.23-39.41-4.38-39.46Z"/>
      <path d="M126.58,276.74c22.01-3.74,35.77,19.9,18.23,34.68-14.29,12.04-33.64,0-32.12-18.02.59-6.92,6.87-15.47,13.89-16.66Z"/>
      <path d="M220.6,101.28c18.85-2.71,33.27,17.27,20.1,32.63-6.41,7.48-21.3,9.12-28.52,2.01-10.76-10.59-7.74-32.32,8.42-34.64Z"/>
      <path d="M101.54,230.56c7.63-.82,17.39,3.77,20.86,10.82,8.87,18.05-17.84,39.63-33.24,22.27-11.17-12.6-4.61-31.26,12.38-33.09Z"/>
      <path d="M96.82,178.05c13.07-1.88,26.18,9.81,23.34,23.34-1.47,7.02-9.43,14.6-16.56,15.56-25.59,3.42-29.15-35.68-6.78-38.9Z"/>
      <path class="d" d="M369.64,275.77l-43.89,313.75c.78,1.24,1.04-.62,1.18-1.16.62-2.35.69-7.01,2.77-8.21,5.96-2.29,12.01-3.11,18.38-3.56,1.22-.09,1.35-.12,1.16,1.17-9.3,16.52-15.74,35.95-25.43,52.13-.57.95-3.71,6.74-5.1,5.47-8-38.41-15.86-77.08-18.8-116.34-3.42-45.63,1.96-89.57,8.72-134.63,5.68-37.86,13.65-75.46,19.52-113.29l41.48,4.67Z"/>
      <path class="d" d="M406.45,29.79c3.44,6.16,9.74,11.29,14.09,16.86,30.31,38.84,46.33,98.49,5.52,136.3-5.66,5.24-12.96,12.08-21.16,10.56,21.55-19.64,32.79-47.84,30.54-77.15-.78-10.19-3.53-23.42-12.51-29.39-1.55,1.57.96,24.81.81,29.41-.53,16-5.16,39.31-13.64,52.95-2.22,3.57-15.92,21.38-18.95,21.85l-26.27-3.66c-8.2-16.4-10.7-36.22-4.45-53.76,1.86-5.23,5.54-9.61,7.66-14.66-8.94-2.71-11.54-1.97-17.1,5.22-12.45,16.08-11.49,44.01-.13,60.57-5.25-.55-8.5-1.7-12.15-5.47-29.12-29.98-24.98-76.7,9.09-100.61,20.52-14.41,43.62-25.1,56.76-48.22l1.91-.81Z"/>
      <path class="d" d="M409.6,213.1l-1.58,47-75.92-8.69,8.56-46.93,68.94,8.61ZM383.74,231.89c-.09-1.14-1.17-1.22-1.94-1.58-4.04-1.9-20.31-4.3-24.18-2.98-2.54.86-3.31,9.35-2.76,11.91.96,2.83,16.23,2.92,19.47,2.84l-2.34-1.55,3.15-.46c-.97-6.69,2.36-8.64,8.6-8.17Z"/>
      <path d="M383.74,231.89c-6.24-.47-9.57,1.48-8.6,8.17l-3.15.46,2.34,1.55c-3.24.08-18.51,0-19.47-2.84-.55-2.56.22-11.05,2.76-11.91,3.87-1.32,20.14,1.09,24.18,2.98.77.36,1.84.44,1.94,1.58Z"/>
    </g>
  </g>
</svg>