<?xml version="1.0" encoding="UTF-8"?>
<svg id="b" data-name="Layer 2" xmlns="http://www.w3.org/2000/svg" viewBox="0 0 589 555">
  <defs>
    <style>
      .d {
        fill: #fff;
      }

      .e {
        fill: none;
        stroke: #fff;
        stroke-miterlimit: 10;
        stroke-width: 30px;
      }
    </style>
  </defs>
  <g id="c" data-name="Layer 1">
    <g>
      <rect width="589" height="555" rx="75.55" ry="75.55"/>
      <rect class="e" x="46" y="102" width="497" height="329" rx="75.55" ry="75.55"/>
      <path class="d" d="M264.34,460.34c1.4-1.39,6.23-3.96,8.23-4.27,5.57-.88,23.1-.73,28.94-.06,22.15,2.53,9.92,37.11,12.53,51.53-.69,5.74-5.85,10.57-11.61,11.39-4.67.66-30.79.69-34.16-.67s-6.83-6.98-7.28-10.72c-.72-5.97-.86-37.9.48-42.56.25-.85,2.19-3.94,2.88-4.62Z"/>
      <path class="d" d="M79.74,456.24c4.93-.83,23.82-.97,28.53-.01,6,1.22,11.21,8.29,11.78,14.22.76,7.92.94,28.35-.14,35.96-.88,6.19-6.15,11.86-12.39,12.61-5.35.64-27.19.87-32-.05-4.54-.87-9.13-8.88-9.57-13.43-.63-6.58-1-32.26.26-37.84.97-4.28,9.1-10.73,13.53-11.47Z"/>
      <path class="d" d="M368.73,456.23c4.66-.95,25.79-.92,30.71-.16,5.77.89,11.09,6.67,11.61,12.39.78,8.49,1.12,32-.11,39.98-.93,6.05-6.69,9.91-12.43,10.57s-24.26.84-29.94-.06c-4.91-.78-10-7.57-10.58-12.42-.93-7.77-.96-31.3.11-38.93.69-4.92,5.85-10.39,10.64-11.36Z"/>
      <path class="d" d="M468.74,456.24c5.75-.96,28.29-.99,32.79,1.74,3.89,2.35,6.99,8.02,7.48,12.52.84,7.84.95,28.27-.09,35.91s-6.16,11.95-13.37,12.63c-6.23.58-23.14.83-28.98-.1s-10.09-8.04-10.61-13.39c-.65-6.76-1.03-33.09.26-38.84,1.17-5.21,7.44-9.62,12.53-10.47Z"/>
      <path class="d" d="M172.74,16.24c4.8-.8,26.14-1.01,30.55-.03s9.43,6.8,9.74,11.26c-1.87,10.89,2.24,25.81.88,35.94-.55,4.09-4.3,10.26-8.16,11.83-3.18,1.29-29.79,1.37-34.18.69-6.44-.99-10.9-7.24-11.57-13.43-.71-6.61-.98-29.83.23-35.77,1.11-5.47,7.3-9.62,12.51-10.49Z"/>
      <path class="d" d="M364.73,16.23c5.04-1.03,26.28-.9,31.68-.14,19.53,2.77,8.66,36.15,10.53,49.35-.85,5.36-7.3,9.2-12.44,9.56-13.74-1.79-38.26,8.46-40.51-12.5-.8-7.44-.9-26.65.09-33.91.73-5.39,5.21-11.25,10.64-12.36Z"/>
      <path class="d" d="M99.82,15.25c8.09-.19,14.09,4.7,15.73,12.69,1.37,6.65,1.16,27.37.48,34.6-.5,5.35-3.8,11.49-9.6,12.4-6.18.98-24.38.72-30.98.1-16.61-1.56-14.08-21.1-13.45-33.53.28-5.49,1.02-12.4,2.22-17.78,1.35-2.78,6.48-6.88,9.5-7.5,5.54-1.13,19.46-.83,26.09-.98Z"/>
      <path class="d" d="M462.74,16.24c5.32-.97,27.31-1.04,32.71-.18,4.84.77,9.01,6.72,9.58,11.42.86,7.13.79,25.83-.02,33.03-2.1,18.66-18.76,14.29-32.54,14.46-2.69.03-5.13,1.29-7.94,1.11-6.66-.42-11.81-7.3-12.52-13.57-.79-6.94-.96-28.29.07-34.94.74-4.77,5.95-10.47,10.67-11.33Z"/>
      <path class="d" d="M224.76,138.22c12.26-1.68,24.27,10.63,33.93,16.59,50.87,31.38,103.79,62.62,155.64,92.36,7.8,4.47,33.79,12.57,28.15,24.81-2.92,6.35-26.18,15.9-33.15,19.85-45.8,25.9-91.15,52.82-136.63,79.37-11.17,6.52-35.02,25.2-47.16,24.84-9.19-.27-12.57-10.8-12.57-18.49,0-67.61,4.76-136.19,2.08-204.09-.3-7.69-1.44-16.18-2.69-23.8.25-6.24,6.61-10.64,12.4-11.44Z"/>
    </g>
  </g>
</svg>