<?xml version="1.0" encoding="UTF-8"?>
<svg id="b" data-name="Layer 2" xmlns="http://www.w3.org/2000/svg" viewBox="0 0 575.4 566.44">
  <defs>
    <style>
      .d {
        fill: #fff;
      }
    </style>
  </defs>
  <g id="c" data-name="Layer 1">
    <g>
      <path d="M274.9.19c123.92-4.34,235.32,64.27,280.49,180.34,57.14,146.85-12.51,298.58-152.97,361.78-110.81,49.86-246.7,20.29-328.03-68.67C-89.5,294.38,35.25,8.59,274.9.19ZM95.67,118.69c-118.96,136.07-59.24,337.2,106.86,397.94,24.95,9.12,77.4,21.23,102.94,16.93,89.11-14.98,155.7-50.87,202.86-129.69,86.52-144.59-6.45-339.08-169.7-368.24-6.7-1.2-27.41-4.49-32.93-2.87-3.08.9-7.53,9.82-3.54,12,16.68,5.36,36.06,5.4,52.51,10.12,39.42,11.31,90.24,49.07,115.73,80.98,107.09,134.05,35.98,319.11-122.31,367.12-37.39,11.34-68.91,8.76-106.69,2.14-12.19-2.14-25.74-4.75-37.07-9.68C72.46,438.01,9.97,294.85,84.72,164.63c40.07-69.81,99.17-100.01,175.36-117.51,4.58-1.05,11.56-1.1,15.29-2.35,2.36-.79,1.57-4.08.81-5.81-4.26-9.65-24.84-5.61-33.04-4.37-57.73,8.71-109.66,40.85-147.47,84.09ZM273.31,59.92c-.9-.99-12.63,8.83-14.12,10.13-20.26,17.59-35.7,40.95-45.86,65.72,16.48,3.4,33.11,4.7,49.88,5.26,2.48.08,9.04,2.28,10.61.1l-.51-81.21ZM300.66,59.92v82.92c4.99-1.42,59.22-6.3,59.13-9.29-9.08-17.98-19.74-35.64-32.68-51.11-7.17-8.57-16.04-18.23-26.44-22.52ZM222.15,69.62c-24.32,12.96-48.5,27.35-67.9,47.19-.02,2.18,28.83,9.48,32.67,9.74l14.24-26.34,20.99-30.6ZM418.86,117.25c.31-1.55-.8-2.18-1.75-3.09-6.4-6.19-16.2-13.59-23.55-18.79-8.6-6.08-22.93-16.46-31.76-21.17-2.54-1.35-5.24-2.79-8.21-2.81l34.36,54.21c10.75-1.16,20.61-5.45,30.91-8.36ZM80.13,253.98h73.66c.9-.56,1.12-1.21,1.31-2.21,1.57-8.49,1.47-19.13,2.78-28.1,3.55-24.11,9.4-48.55,18.4-71.12l-45.41-15.03c-1.5,6-6.66,9.86-10.02,14.72-21.02,30.48-34.74,65.17-40.73,101.74ZM419.75,253.98h74.98c-5.44-43.5-25.92-81.88-51.66-116.48l-44.46,13.31c10.29,33.67,19.06,67.78,21.15,103.17ZM393.28,253.98c-3.06-25.45-7.42-50.22-14.76-74.77-1.28-4.28-3.95-14.88-5.73-18.08-.49-.89-.99-2.01-2.1-2.21l-70.04,10.38.89,84.69h91.74ZM273.32,169.3c-23.97-1.77-48.02-4.38-71.44-9.7-.96,8.67-5.09,17.13-7.5,25.58-5.34,18.73-9.89,40.25-11.8,59.65-.26,2.68-1.35,7.5.33,9.15h90.42v-84.68ZM154.23,279.57h-74.98c.59,33.74,9.62,66.99,24.83,96.9l1.18.22c13.88-3.91,28.16-6.45,42.1-10.04,2.83-.73,18.72-4.77,19.14-6.44-8.26-26.02-10.15-53.52-12.27-80.64ZM273.32,279.57h-91.74c.32,26.55,3.93,53.34,10.56,79.01l81.19-10.21v-68.8ZM300.66,279.57v67.48c0,.31.89,1.44,1.03,2.06l80.91,7.11c6-24.76,9.7-50.28,10.68-75.78l-92.63-.88ZM495.61,280.45h-75.86c-1.02,26.98-4.65,53.92-10.56,80.24l60.38,16.81c13.3-30.9,25.45-62.83,26.04-97.05ZM274.19,372.19l-73.22,10.15c10.37,32.22,29.39,68.88,56.05,90.38,2.95,2.37,12.52,9.72,15.84,9.74l1.33-110.27ZM373.85,381.92c-24-5.85-48.79-6.34-73.18-9.73v111.14c1.28.2,2.29-.07,3.48-.5,11.43-4.1,32.32-27.01,39.58-37.16,13.29-18.59,24.62-41.68,30.12-63.76ZM454.15,398.66l-52.04-12.36c-.68,6.58-4.02,14.03-6.63,20.28-6.78,16.24-15.53,32.44-25.29,47.04l-22.76,31.48c13.65-8.23,27.99-15.69,41.38-24.33,22.09-14.26,46.4-36.63,62.68-57.29.62-.79,3.35-4.19,2.67-4.82ZM226.56,484.21c.35-1.61-.5-2.44-1.18-3.66-3.24-5.81-10.46-13.12-14.53-18.99-15.73-22.73-28.54-47.67-37.16-73.99l-52.98,10.2c-1.75,1.55,9.72,11.74,11.03,13.21,26.74,30.07,45.25,42.1,78.86,63.16,1.9,1.19,15.06,11,15.95,10.07Z"/>
      <path class="d" d="M95.67,118.69c37.81-43.25,89.74-75.39,147.47-84.09,8.2-1.24,28.78-5.28,33.04,4.37.76,1.72,1.55,5.02-.81,5.81-3.74,1.25-10.71,1.3-15.29,2.35-76.19,17.49-135.29,47.7-175.36,117.51-74.75,130.23-12.26,273.38,119.61,330.8,11.33,4.93,24.88,7.54,37.07,9.68,37.78,6.62,69.3,9.2,106.69-2.14,158.29-48.01,229.4-233.07,122.31-367.12-25.5-31.91-76.31-69.67-115.73-80.98-16.46-4.72-35.83-4.76-52.51-10.12-3.99-2.18.47-11.1,3.54-12,5.52-1.61,26.23,1.68,32.93,2.87,163.25,29.16,256.23,223.65,169.7,368.24-47.17,78.82-113.75,114.71-202.86,129.69-25.53,4.29-77.99-7.81-102.94-16.93C36.44,455.88-23.29,254.75,95.67,118.69Z"/>
      <path class="d" d="M393.28,253.98h-91.74l-.89-84.69,70.04-10.38c1.11.2,1.6,1.33,2.1,2.21,1.78,3.2,4.45,13.8,5.73,18.08,7.35,24.56,11.7,49.32,14.76,74.77Z"/>
      <path class="d" d="M273.32,169.3v84.68h-90.42c-1.68-1.65-.6-6.47-.33-9.15,1.91-19.4,6.46-40.92,11.8-59.65,2.41-8.45,6.54-16.92,7.5-25.58,23.42,5.32,47.47,7.93,71.44,9.7Z"/>
      <path class="d" d="M419.75,253.98c-2.09-35.39-10.85-69.49-21.15-103.17l44.46-13.31c25.75,34.6,46.22,72.97,51.66,116.48h-74.98Z"/>
      <path class="d" d="M80.13,253.98c5.98-36.57,19.7-71.26,40.73-101.74,3.35-4.86,8.52-8.73,10.02-14.72l45.41,15.03c-9,22.57-14.85,47.01-18.4,71.12-1.32,8.96-1.21,19.6-2.78,28.1-.19,1-.41,1.65-1.31,2.21h-73.66Z"/>
      <path class="d" d="M154.23,279.57c2.13,27.13,4.01,54.62,12.27,80.64-.42,1.67-16.31,5.71-19.14,6.44-13.95,3.59-28.22,6.13-42.1,10.04l-1.18-.22c-15.2-29.92-24.24-63.16-24.83-96.9h74.98Z"/>
      <path class="d" d="M273.32,279.57v68.8l-81.19,10.21c-6.62-25.67-10.24-52.47-10.56-79.02h91.74Z"/>
      <path class="d" d="M300.66,279.57l92.63.88c-.98,25.5-4.68,51.02-10.68,75.78l-80.91-7.11c-.14-.63-1.03-1.75-1.03-2.06v-67.48Z"/>
      <path class="d" d="M495.61,280.45c-.59,34.22-12.74,66.15-26.04,97.05l-60.38-16.81c5.91-26.32,9.54-53.26,10.56-80.24h75.86Z"/>
      <path class="d" d="M373.85,381.92c-5.5,22.08-16.83,45.16-30.12,63.76-7.26,10.15-28.16,33.06-39.58,37.16-1.19.43-2.2.7-3.47.5v-111.14c24.39,3.39,49.18,3.88,73.18,9.73Z"/>
      <path class="d" d="M274.19,372.19l-1.33,110.27c-3.32-.02-12.89-7.37-15.84-9.74-26.67-21.49-45.68-58.15-56.05-90.38l73.22-10.15Z"/>
      <path class="d" d="M454.15,398.66c.68.63-2.04,4.03-2.67,4.82-16.28,20.66-40.59,43.03-62.68,57.29-13.39,8.64-27.73,16.1-41.38,24.33l22.76-31.48c9.76-14.6,18.51-30.81,25.29-47.04,2.61-6.26,5.95-13.7,6.63-20.28l52.04,12.36Z"/>
      <path class="d" d="M226.56,484.21c-.89.93-14.04-8.87-15.95-10.07-33.61-21.06-52.12-33.09-78.86-63.16-1.31-1.48-12.79-11.66-11.03-13.21l52.98-10.2c8.61,26.32,21.43,51.26,37.16,73.99,4.06,5.87,11.29,13.18,14.53,18.99.68,1.22,1.53,2.05,1.18,3.66Z"/>
      <path class="d" d="M273.31,59.92l.51,81.21c-1.57,2.19-8.13-.01-10.61-.1-16.77-.57-33.4-1.87-49.88-5.26,10.16-24.77,25.6-48.13,45.86-65.72,1.49-1.3,13.22-11.11,14.12-10.13Z"/>
      <path class="d" d="M300.66,59.92c10.41,4.29,19.27,13.94,26.44,22.52,12.94,15.47,23.61,33.13,32.68,51.11.09,2.99-54.13,7.87-59.13,9.29V59.92Z"/>
      <path class="d" d="M222.15,69.62l-20.99,30.6-14.24,26.34c-3.84-.27-32.69-7.57-32.67-9.74,19.39-19.84,43.57-34.23,67.9-47.19Z"/>
      <path class="d" d="M418.86,117.25c-10.3,2.9-20.16,7.19-30.91,8.36l-34.36-54.21c2.97.02,5.67,1.45,8.21,2.81,8.83,4.71,23.16,15.08,31.76,21.17,7.35,5.2,17.15,12.6,23.55,18.79.95.92,2.06,1.55,1.75,3.09Z"/>
    </g>
  </g>
</svg>