<?xml version="1.0" encoding="UTF-8"?>
<svg id="b" data-name="Layer 2" xmlns="http://www.w3.org/2000/svg" viewBox="0 0 756.47 751.92">
  <defs>
    <style>
      .d {
        fill: #fff;
        stroke: #000;
        stroke-miterlimit: 10;
      }
    </style>
  </defs>
  <g id="c" data-name="Layer 1">
    <g>
      <path class="d" d="M637.84,652.5c-110.11,103.46-286.09,127.71-422.3,63.56C-6.25,611.61-66.73,332.86,82.39,139.55,216.38-34.16,495.24-46.32,647.73,109.87c147.41,150.98,144.39,397.67-9.89,542.63Z"/>
      <g>
        <path d="M434.32,436.59c-11.34-6.74-27.68-9.22-40.89-10.35-48.32-4.13-101.47,9.78-145.34,29.73-4.2,1.91-23.99,13.42-26.11,12.78l-107.88-160.01c36.37-19.91,77.74-37.42,119.37-42.49,19.78-2.41,57.6,2.21,76.11,9.99,7.25,3.05,15.29,14.72,20.39,21.08,32.26,40.27,64.5,84.15,95.61,125.56,1.51,2.01,9.89,12.29,8.75,13.7ZM302.68,292.94c-1.72-1.43-3.88-1.36-5.96-1.53-36.96-3.12-87.93,11.58-121.21,27.49-3.05,1.46-15.51,6.63-15.19,9.8.24,2.41,6.02,10.32,9.35,9.83,3.07-.45,12.23-6.46,16.2-8.11,37.43-15.57,75.17-24.9,116.03-25.65,6.26-1.23,4.15-9.02.77-11.82ZM323.58,329.3c.84-7.03.29-11.3-7.43-12.4-21.32-3.02-53.36,3.79-74.19,9.68-8.77,2.48-60.12,20.46-62.82,25.92-1.93,3.9,3.29,12.95,7.8,12.49,31.15-14.89,63.83-27.53,98.41-31.88,12.98-1.63,25.95-.31,38.23-3.81ZM330.45,342.41c-42.77.18-83.42,10.51-121.74,29.26-12.03,5.88-18.81,8.66-4.7,19.51,31.81-14.57,65.72-28.64,100.86-32.78,10.19-1.2,25.73.27,34.16-1.55,4.16-.9,4.78-3.22,4.25-7.14-.93-6.88-7.09-7.32-12.84-7.3ZM360.44,382.29c2.29-4.45,1.94-9.99-2.66-12.57-6.16-3.46-41.47.04-50.58,1.37-19.75,2.9-40.09,9.01-58.62,16.25-5.25,2.05-33.28,13.9-34.91,17-1.52,2.88,3.93,11.97,7.82,11.33,15.02-5.23,29.01-13.12,44.06-18.27,30.26-10.36,62.91-15.35,94.89-15.12ZM232.97,436.35c1.52.87,3.92.17,5.56-.3,13.01-3.76,29.04-12.83,42.3-17.59,30.53-10.96,62.81-14.19,95.15-15.43,5.53-6.22-.52-9.3-6.88-10.07-31.88-3.84-83.44,9.94-112.96,22.7-6.12,2.64-17.67,7.16-22.65,10.75s-3.22,5.49-.53,9.94Z"/>
        <path d="M652.04,373.22c-2.63-.39-4.62-1.18-7.43-1.22-19.58-.26-42.54,3.32-61.69,7.56-43.81,9.69-86.65,27.72-118,60.55-.92.92-2.06,1.42-3.36,1.02s-12.94-18.61-15.25-21.7c-30.62-41.02-62.67-81.01-93.6-121.81-.91-1.48-1.75-3.71-1.39-5.39.55-2.57,34.65-23.7,39.62-26.32,26.05-13.77,69.86-26.94,99.22-28.65,14.85-.87,29.95,1.31,44.71-.92,26.17,25.79,48.6,55.24,72.29,83.3,15.01,17.79,31.56,34.44,44.89,53.58ZM533.08,270.41c3.31-3.33-2.39-12.04-6.05-12.37-2.48-.22-15.65,1.93-19.41,2.45-26.88,3.75-57.31,13.75-81.77,25.36-6.71,3.18-29.76,14.72-33.64,19.34s4.03,13.39,8.99,12.56c13.81-7.22,26.5-16.29,40.78-22.69,17.85-7.99,38.64-14.2,57.79-18.23,5.96-1.26,31.03-4,33.31-6.42ZM549.18,282.57c-1.12-.96-2.01-1.09-3.43-1.09-9.76-.02-28.98,4.48-39.09,6.85-24.61,5.78-49.72,15.14-71.96,27.11-4.16,2.24-25.76,14.02-25.42,18.07,2.6,2.46,6.06,10.31,10.07,9.33,26.58-16.84,54.49-30.22,84.99-38.39,8.08-2.16,44.7-8.23,47.94-10.57,2.54-1.83-1.27-9.74-3.1-11.31ZM563.14,304.36c-7.29.16-19.89,3.29-27.45,4.93-20.63,4.49-41.64,11.28-61,19.63-7.4,3.19-44.35,20.73-45.96,26.72-1.05,3.89,4.54,11.3,9.34,10.5,3.84-.64,18.77-11.52,23.88-14.24,26.67-14.17,55.62-23.56,85.05-30.14,5.21-1.17,21.94-2.22,23.84-6.12,2.32-4.75-3.4-11.38-7.7-11.29ZM578.11,328.63c-33.13,1.67-90.11,22.85-118.34,40.67-3.06,1.93-14.82,8.47-13.79,12.33.37,1.37,6.83,9.87,9.38,8.72,40.71-25.36,85.58-41.5,133.32-47.65,6.21-8.08-1.49-14.53-10.57-14.07Z"/>
        <path d="M412.42,490.73c-34.81,10.42-71.09,16.49-106.44,25.43-31.09,7.87-65.58,21.06-96.27,26.99-14.59,2.82-23.53,2.55-32.74-9.91-14.83-20.06-28.18-42.95-42.36-63.62-21.7-31.62-50.63-67.61-68.68-100.65-2.76-5.05-5.66-7.92-.18-12.4,2.59-2.12,12.51-7.13,14.95-3.53l116.87,174.37c48.62-14.66,96.89-31.65,146.68-42.09,18.22-3.82,41.32-8.82,59.55-10.71,12.61-1.31,14.53-3,23.63,6.29,12.25,12.51,19.64,20.7,39.44,17.61,20.92-3.27,20.93-18.2,31.35-30.85,8.02-9.73,41.54-17.58,54.73-21.29,17.2-4.84,36.72-10.13,54.11-13.85,32.34-6.94,65.62-9.71,97.96-16.67,2.97-3.26-17.39-25.27-20.06-28.89-22.08-29.93-41.65-52.6-65.78-80.52-12.64-14.63-24.11-30.3-37.42-44.37,9.1-2.95,17.08-3.57,24.24,3.41,14.21,13.84,29.77,33.64,43.16,48.99,23.69,27.15,54.93,60.58,75.41,89.32,5.16,7.23,8.61,11.41,2.33,19.55-4.05,5.25-9.66,6.76-15.64,8.55-33.81,10.1-71.81,15.64-106.47,23.7-30.11,7-59.77,15.8-90.19,21.54l-1.77,1.68c-10.23,42.2-80.83,49.89-100.42,11.92Z"/>
        <path d="M430.87,458.47c-1.56,1.4-16.81-2.09-20.17-2.28-18.63-1.08-40.08,1.51-58.4,4.93-50.79,9.49-99.08,28.6-148.35,43.43l-114.06-172.78,13.26-4.31,2.83,2.6,103.91,156.43c1.22,1.52,3.48,4.74,5.25,5.22,5.18,1.4,27.49-13.08,34.1-16.16,45.34-21.15,121.35-43.28,170.06-26.82,4.58,1.55,11.3,4.1,11.56,9.73Z"/>
        <path d="M675.08,402.02c-40.99,4.09-81.29,9.46-120.71,21.57-13.87,4.26-29.04,9.86-42.82,14.78-4.53,1.62-28.8,12.69-31.15,10.88,7.69-11.69,24.29-20.57,36.84-27.08,16.6-8.61,36.16-15.96,54.37-20.51,22.69-5.67,78.43-16.21,98.33-4.27,1.86,1.12,4.29,2.54,5.15,4.63Z"/>
      </g>
    </g>
  </g>
</svg>