<?xml version="1.0" encoding="UTF-8"?>
<svg id="b" data-name="Layer 2" xmlns="http://www.w3.org/2000/svg" viewBox="0 0 756.47 751.92">
  <defs>
    <style>
      .d {
        fill: #fff;
        stroke: #000;
        stroke-miterlimit: 10;
      }
    </style>
  </defs>
  <g id="c" data-name="Layer 1">
    <g>
      <path class="d" d="M637.84,652.5c-110.11,103.46-286.09,127.71-422.3,63.56C-6.25,611.61-66.73,332.86,82.39,139.55,216.38-34.16,495.24-46.32,647.73,109.87c147.41,150.98,144.39,397.67-9.89,542.63Z"/>
      <g>
        <path d="M516.74,355.15l-69.03.39c-3.39-5.12-9.22-8.01-13.31-12.57-19.46-21.69-20.26-47.53-18.84-75.27,2.47-48.38,26.35-104.47,70.06-129.18,10.39-5.87,27.67-12.47,31.92,3.65-.15,63.24.49,126.92-.83,189.81-.16,7.72.18,15.47.04,23.18Z"/>
        <path d="M257.09,378.68c3.38.58,6.59-.64,9.77-.82,16.02-.89,37.36-.84,53.41,0,1.65.09,11.68,1.17,12.02,1.71.53,5.73-.33,11.83.12,17.53.3,3.8,2,7.74,2.37,10.97,2.03,17.81.47,41.26.73,59.67.17,12-.09,23.99,0,36.08.17,24.2,3.1,53.75.72,77.53-2.9,29-27.8,45.96-55.81,35.61-11.35-4.19-23.32-20.37-23.32-32.38v-205.91Z"/>
        <path d="M518.31,379.46l1.36,208.85c-5.29,39.33-59.67,46.25-75.24,10.54-5.66-12.98-3.11-20.02-2.96-33.05.72-61.66-.72-123.38.08-185.04l1.84-1.32,74.92.02Z"/>
        <path d="M283.56,231.79c1.59-1.7,1.1-15.02,1.02-18.27-.51-22.35-2.98-51.06-.86-72.96,1.35-13.93,21.08-14.29,24.8-1.19l.75,91.03c1.96,4.73,18.19,4.79,19.18-.39l.37-92.2c6.4-13.63,27.56-8.03,27.81,6.01.03,1.54-.74,2.99-.74,4.59.03,31.43,1.77,66.33-.76,97.29-1.57,19.17-15.01,40.52-32.15,49.05l2.79,7c2.58,17.1,2.81,34.51,2.71,51.82l-62.76-.78c.36-10.3-.46-20.72-.03-31.02.07-1.67.71-3.14.81-4.68.51-7.85-.18-15.07,3.93-22.34-15.27-6.01-26.96-23.83-30.81-39.4-2.34-9.44-1.94-26.67-2.16-37.06-.48-22.48.52-45.04.06-67.52-.14-6.85-2.67-9.58,2.7-16.07,7.19-8.7,22.65-5.09,23.96,5.88.65,5.43.63,14.53.8,20.38.67,22.93-.71,45.96.14,68.89.57,5.67,16.25,4.27,18.45,1.93Z"/>
      </g>
    </g>
  </g>
</svg>