<?xml version="1.0" encoding="UTF-8"?>
<svg id="b" data-name="Layer 2" xmlns="http://www.w3.org/2000/svg" viewBox="0 0 756.47 751.92">
  <defs>
    <style>
      .d {
        fill: #fff;
        stroke: #000;
        stroke-miterlimit: 10;
      }
    </style>
  </defs>
  <g id="c" data-name="Layer 1">
    <g>
      <path class="d" d="M637.84,652.5c-110.11,103.46-286.09,127.71-422.3,63.56C-6.25,611.61-66.73,332.86,82.39,139.55,216.38-34.16,495.24-46.32,647.73,109.87c147.41,150.98,144.39,397.67-9.89,542.63Z"/>
      <g>
        <path d="M360.3,166.34c2.55-20.24,20.07-39.92,38.64-47.36,33.9-13.57,79.14,13.82,102.55-24.45,3.29-5.38,4.42-12.9,9.47-16.53,11.52-8.26,27.57-.01,26.34,14.33-1.37,16.04-22.77,39.78-36.34,47.67-28.12,16.35-47.4,5.29-76.15,7.85-5.92.53-21.58,5.32-26.05,8.95-1.24,1.01-7.89,13.88-8.23,15.77-1.59,8.7.61,19.45.76,28.27,22.1,1.09,49.76-10.28,46.01,24,2.91.36,5.61-.94,8.46-1.04,32.45-1.17,74-2.05,106.08,0,65.98,4.21,124.59,63.13,121.5,130.5-2.71,45.18,3.49,94.31-.06,139.03-1.99,25.07-16.62,49.52-36.51,64.49-21.85,16.44-61.38,20.35-83.48,2.54-27.33-22.01-53.12-56.84-79.46-81.54-12.42-11.64-27.35-20.79-37.52-34.48l-48.47-.54-40,1.09c-4.54.12-28.7-.78-30.33.18-.29.17-2.58,3.95-4.2,5.29-26.7,22.08-51.87,47.41-76,72-11.36,11.57-29.31,35.75-43.33,41.67-55.55,23.47-104.01-15.4-111.72-70.64,5.01-94.67-28.96-225.4,89.03-263.05,34-10.85,102.13-7.71,139.56-6.54,1.92.06,3.6.78,5.45,1.05v-16.5c0-1.66,8.11-7.06,10.56-7.44,2.83-.44,33.44.61,33.44-1.06.96-10.55-1.29-23.23,0-33.5ZM532.08,257.12c-43.24,5.17-30.62,68.36,10.63,62.63,11.8-1.64,24.52-15,26.35-26.65,3.68-23.44-14.4-38.68-36.98-35.98ZM238.3,321.84c-2.13,0-.61-38.77-.96-42.54-.77-8.19-6.62-13.38-14.65-14.35-4.98-.6-17.41.15-22.12,1.66-10.75,3.45-8.09,17-8.28,25.72-.04,1.93-1.06,3.91-1.08,6.01-.06,7.03,3.44,16.9-.41,23.5h-49c-3.41,0-8.88,6.97-9.44,10.56-.71,4.56-.64,18.24-.09,22.96.53,4.51,7.29,11.74,11.58,12.42s13.91.91,18.9,1.1c9.5.35,19.04-.81,28.55-.05-.98,6.14,1.01,12.66,1.04,18.45.05,11.9-6.53,37.43,11.43,39.58,5.12.61,23.53.59,27.44-1.6.79-.45,6.08-5.49,6.08-5.92v-50.5h47.5c2.05,0,8.29-5.63,9.51-7.49,2.73-4.19,2.83-24.53,1.52-29.54-.8-3.06-7.2-9.97-10.03-9.97h-47.5ZM471.08,311.12c-39.49,4.74-33.9,60.58,1.98,65.46,26.98,3.67,46.72-29.54,31.07-51.07-8.11-11.16-19.25-16.05-33.05-14.39ZM621.95,321.19c-13.84-13.62-38.97-12.8-51.06,2.73-19.98,25.67,11.99,64.87,41.46,49.46,18.46-9.66,25.16-36.89,9.6-52.19ZM344.05,322.07c-3.35.53-9.87,4.43-11.75,7.26-8,12,9.41,31.15,23.94,20.94,14.36-10.1,3.63-30.72-12.18-28.2ZM400.04,323.07c-2.51.43-9.7,4.77-11.3,6.71-8.6,10.42,6.52,32.06,21.49,21.49,14.37-10.15,6.25-31.04-10.19-28.2ZM532.06,369.1c-43.98,5.96-32.19,70.53,12.5,63.5,39.31-6.18,30.92-69.39-12.5-63.5Z"/>
        <path d="M475.12,327.07c9.07-.5,18.09,7.83,17.24,17.27-.4,4.37-6.29,13.28-10.76,14.29-25.55,5.76-28.39-30.37-6.48-31.56Z"/>
        <path d="M534.04,386.08c12.14-1.97,21.01,7.69,17.79,19.79s-19.92,14.03-26.53,5.46c-7.14-9.26-3.06-23.34,8.73-25.25Z"/>
        <path d="M598.05,327.08c11.2-.63,20.34,13.02,14.08,23.09-9.9,15.94-31.52,10.36-30.92-7.84.27-8.27,9.05-14.81,16.84-15.25Z"/>
        <path d="M536.1,273.06c17.26-1.73,22.15,21.67,8.1,28.18-22.75,10.54-31.61-25.82-8.1-28.18Z"/>
      </g>
    </g>
  </g>
</svg>