<?xml version="1.0" encoding="UTF-8"?>
<svg id="b" data-name="Layer 2" xmlns="http://www.w3.org/2000/svg" viewBox="0 0 756.47 751.92">
  <defs>
    <style>
      .d {
        fill: #fff;
        stroke: #000;
        stroke-miterlimit: 10;
      }
    </style>
  </defs>
  <g id="c" data-name="Layer 1">
    <g>
      <path class="d" d="M637.84,652.5c-110.11,103.46-286.09,127.71-422.3,63.56C-6.25,611.61-66.73,332.86,82.39,139.55,216.38-34.16,495.24-46.32,647.73,109.87c147.41,150.98,144.39,397.67-9.89,542.63Z"/>
      <g>
        <path d="M481.22,450.19v-114.01s-148.02,34.48-148.02,34.48c-1.87,1.4-.78,11-.99,14.01-2.29,33.3-1.72,71.62-1.03,105.05.52,25.21,12.44,41,5.53,67.45-19.71,75.42-129.51,59.17-121.48-23.48,3.39-34.88,42.79-55.62,74.99-49.51-.24-50.17.31-100.37.05-150.55-.07-13.21-3.5-24.08,8.93-33.98,6.68-5.32,29.89-10.15,39.39-12.61,50.63-13.11,101.85-24.16,152.41-37.59,14.58-2.98,29.41,4.73,31.26,20.18-.11,56.68-.46,113.46,1,170,.27,10.59-1.04,22.82-.08,33.08,1.65,17.8,8.86,24.09,4.74,45.66-14.08,73.89-129.07,63.59-119.6-21.6,3.59-32.31,43.14-51.99,72.89-46.6Z"/>
        <path d="M599.21,311.19c-9.73-5.83-21.21-3.99-31.99-3.44-27.43-65.51-84.85-114.72-155.67-126.4-30.45-5.02-56.75-3.7-86.55,4.12-59.56,15.62-113.53,63.94-132.8,122.71-11.43-4.36-21.66-.25-33,1.49,8.36-34.92,28.42-66.29,52.99-92.01,73.59-77.04,191.38-94.04,283.7-39.65,48.53,28.59,89.62,78.01,103.32,133.17Z"/>
        <path d="M175.95,325.42c14.8-2.7,28.14,4.97,30.31,20.23-1.89,43.13,2.37,88.18,0,131.08-.37,6.77-1,14.87-4.22,20.78-10.17,18.69-38.89,14.22-40.86-7.78-3.05-34.07.5-75.95.08-111.08-.16-13.64-4.87-34.43,3.96-45.95,2.24-2.93,7.05-6.6,10.73-7.27Z"/>
        <path d="M573.99,325.44c11.83-1.47,23.23,8.53,24.27,20.2,1.39,15.57-.37,34.34-1.09,49.99-3.07,29.58,4.26,65.23.94,93.94-2.36,20.38-25.91,28.16-39.4,11.62-9.79-12-5.61-22.01-5.45-35.47.48-39.31-.52-78.65.04-117.96,1.71-9.83,10.33-21.04,20.68-22.33Z"/>
        <path d="M141.22,495.19c-19.18-8.11-36.39-29.47-43.76-48.74-15.54-40.64,2.64-89.75,41.72-108.83l2.04,1.07v156.5Z"/>
        <path d="M616.22,494.19v-155.5c0-.28-2.54-1.93.5-1.51,14.86,2.06,35.68,30.52,41.26,43.75,17.12,40.64-.02,95.8-41.76,113.26Z"/>
      </g>
    </g>
  </g>
</svg>