<?xml version="1.0" encoding="UTF-8"?>
<svg id="b" data-name="Layer 2" xmlns="http://www.w3.org/2000/svg" viewBox="0 0 756.47 751.92">
  <defs>
    <style>
      .d {
        fill: #fff;
        stroke: #000;
        stroke-miterlimit: 10;
      }
    </style>
  </defs>
  <g id="c" data-name="Layer 1">
    <g>
      <path class="d" d="M637.84,652.5c-110.11,103.46-286.09,127.71-422.3,63.56C-6.25,611.61-66.73,332.86,82.39,139.55,216.38-34.16,495.24-46.32,647.73,109.87c147.41,150.98,144.39,397.67-9.89,542.63Z"/>
      <g>
        <path d="M381.35,167.7c3.61,26.42,24.81,48.37,52.18,49.01,1.76,1.31.16,12.1-.25,14.79-4.51,29.45-27.41,57.87-39.85,84.57-1.03,2.21-4.53,9.75-3.95,11.58.96,3.02,48.58,26.05,55.57,30.32,53.58,32.74,20.71,67.37-1.45,106.7-9.28,16.47-18.23,35.51-28.37,51.17-25.98,40.14-75.07,9.45-58.26-31.49l42.66-73.48c-7.98-2.49-15.01-7.32-22.55-10.92-33.15-15.85-78.84-25.29-77.47-71.34.44-14.71,27.56-57.79,36.39-72.33,4.46-7.35,12.34-17.19,15.75-24.41.34-.71.92-1.07.63-2.11l-48.07-3.51c-2.54,2.67-5.34,5.13-7.81,7.86-12.65,13.95-32.17,46.61-50.22,50.57-28.25,6.19-48.59-24.46-32.8-47.77,12.22-18.04,31.5-40.65,46.38-56.78,23.72-25.72,45.06-17.57,76.36-15.71,5.46.32,11.1-.38,16.56-.02,9.52.62,19.12,2.19,28.58,3.3Z"/>
        <path d="M288.59,359.69c5.3,12.44,14.05,22.21,25.98,28.76,9.63,5.28,20.79,8.23,29.9,14.26.47,1.65-13.63,21.76-15.85,24.95-31.61,45.44-71.21,84.77-107.81,126.07-26.68,20.22-57.9-10.55-51.71-39.11,2.24-10.33,13.5-21.89,20.3-30.1,22.21-26.83,47.2-51.31,67.56-79.7,10.7-14.92,19.09-31.61,31.64-45.13Z"/>
        <path d="M449.24,217.16c1.59-.15,2.82,1.03,3.95,1.95,5.51,4.52,11.85,13.2,17.68,18.54,3.5,3.21,7.38,6.19,11.04,9.23,1.78.15,17.99-17.23,20.87-19.89,7.6-7.03,20.92-20.17,30.37-23.17,30.85-9.81,50.84,25.52,32.25,48.79-9.98,12.49-37.01,33.72-50.43,44.07-16.57,12.78-32.49,20.5-52.87,9.61-12.4-6.63-24.65-16.16-34-26.63-.26-1.32,12.06-19.62,13.7-23.08,5.52-11.68,7.53-26.58,7.45-39.41Z"/>
        <path d="M435.69,103.2c52.47-5.4,78.34,61.7,35.85,91.76-40.77,28.84-91.29-12.05-77.2-58.3,5.22-17.14,23.64-31.64,41.35-33.46Z"/>
        <path d="M582.32,604.57c-5.25,2.35-9.07,6.5-15.32,6.34-87.43-.45-174.87.48-262.29,0-20.91-.11-42.04-1.16-62.93-.79-20.87.36-41.78,1.81-62.6-.46-8-4.13-6.79-15.02,2.69-15.35,101.58-.07,203.38.27,304.75,0,20.68-.06,43.43-1.13,63.86,0,7.65.42,24.33,3.71,30.57,8.02.93.64,1.56.92,1.28,2.24Z"/>
      </g>
    </g>
  </g>
</svg>