<?xml version="1.0" encoding="UTF-8"?>
<svg id="b" data-name="Layer 2" xmlns="http://www.w3.org/2000/svg" viewBox="0 0 756.47 751.92">
  <defs>
    <style>
      .d {
        fill: #fff;
        stroke: #000;
        stroke-miterlimit: 10;
      }
    </style>
  </defs>
  <g id="c" data-name="Layer 1">
    <g>
      <path class="d" d="M637.68,652.65c-110.17,103.39-286.17,127.53-422.34,63.3C-6.39,611.38-66.71,332.59,82.53,139.37,216.63-34.26,495.49-46.25,647.9,110.03c147.32,151.07,144.14,397.76-10.22,542.62Z"/>
      <g>
        <path d="M545.15,405.52l-.04,61c-11.06-.58-18.49-.23-26.03,8.46-11.98,13.81-8.46,25.34-8.96,42.06-.36,11.98-2.96,22.66,1.16,34.74,4.95,14.49,18.63,22.38,33.77,20.74l-.07,109.5c0,.3,1.27.77,1,1.5l-200.5-.12c-.33,0-2.13,1.99-2.51.49l-.83-278.5,203.01.13ZM377.83,449.62c-3.21.96-10.01,11.19-11.49,14.51-2.73,6.13-8.93,33.03-6.72,38.26,1.58,3.73,13.86,8.48,17.94,10.05,7.93,3.06,27.74,10.43,35.25,11.75,13.57,2.38,17.44-13.63,20.54-23.98,2.88-9.6,5.8-20.76,4.26-30.77-1.54-3.19-31.82-13.02-37.29-14.73s-17.66-6.54-22.51-5.09Z"/>
        <path d="M168.21,296.29c-6.23,4.05-24.5,15.76-25.97,2.38-.87-7.98,6.33-13.29,9.99-19.38-1.85.05-3.45-.63-5.05-1.47-14.01-7.34-27.88-18.57-42.43-25.58-10.22-7.7,3.25-20.02,11.99-20.07,10.91-.06,31.94,6.13,44.18,7.94,5.48.81,11.07,1.96,16.61,1.99,13.18-12.52,25.19-26.14,38.22-38.82,5.94-5.78,17.07-13.95,21.55-20.45.58-.85,1.4-.99.98-2.51-3.12.21-6.03-.62-8.95-1.56-29.31-9.44-57.94-24.82-86.35-36.68-13.33-9.06-1.08-28.63,12.8-27.85,45.48,5.91,90.92,11.71,135.99,20.14l42.56-40.51c14.36-11.57,40.42-33.14,60-25.92s5.87,37.76-2.19,49.78c-15.55,23.15-39.59,39.51-59.69,58.35-.1,1.99.86,3.77.89,5.76.48,38.97.27,77,.84,116.08.11,7.66,1.83,15.87,1.07,24-1.01,10.71-11.45,17.34-19.26,8.17-6.76-18.25-14.87-36.19-21.51-54.47-6.17-17-10.48-34.67-17.7-51.25l-70.02,53.95c-.67,17.45-.92,35.05-.59,52.52.06,3.02,1.37,5.65,1.09,8.95-.54,6.32-6.44,8.63-11.75,10.3-1.72.02-2.86-1.69-3.74-2.88-6.06-8.17-15.05-29.99-19.72-40.26-1.54-3.39-2.46-7.21-3.82-10.68Z"/>
        <path d="M313.98,684.37l-26.06-1.45c-1.87-1.3-.64-14.6-.94-18.05-2.18-25.29-26.74-45.68-51.96-43.54.16-34.84-.11-69.7.02-104.55.03-7.29.04-14.62.02-21.91-.03-10.85.13-21.71.06-32.55,14.9,2.65,24.97.68,36.48-9,15.24-12.82,19.6-30.85,14.56-49.95,9.06-1.81,20.11-.09,27.99-4.99l-.17,286Z"/>
        <path d="M637.52,622.57c-14.43,1.93-32.48,19.81-36.46,33.54-2.89,9.95-1.51,18.4-.07,28.44-8.9-.95-17.43-.88-26.34.03l-1.39-2.76-.21-109.28c17.9,2.09,31.45-11.21,33.01-28.49,1.2-13.26.5-36.6-.95-49.99s-16.23-30.34-30.98-25.51l-1.03-70.39,17.58-4.56c3.15,4.89,1.54,10.74,9.44,10-.05,12.39-1.07,22.74,4.17,34.32,8.85,19.57,29.22,27.39,49.85,25.67l-1.6,159c-4.75.45-10.41-.62-15,0Z"/>
        <path d="M505.16,391.49h-18.5s-1.5-1.51-1.5-1.51l.02-27c0-.24-1.97-3.25-2.42-3.57-3.42-2.48-32.26.11-39.12.1-10.11-.01-22.74-2.45-33-1.12-2.98.39-7.45,5.26-7.45,7.55l-.02,25.5h-19c.83-17.97-6.3-41.72,13.33-52.21,10.61-5.67,15.74-2.86,26.17-2.74,15.64.19,54.95-2.73,67.06,2.98,5.03,2.37,14.47,11.94,14.47,17.53l-.02,34.5Z"/>
        <path d="M551.9,478.82c16.25-1.28,35.47-1.53,37.23,19.19.94,11.08,2.1,34.41.83,44.92s-8.94,16.41-19.37,16.66c-6.99.17-17.11.19-24.06-.02-11.85-.35-19.45-5.26-20.5-17.53-.7-8.25-1.22-41.92.53-48.57,3.13-11.88,15.01-13.84,25.34-14.66ZM573.07,541.53l.03-44.5c-.88-1.43-1.99-1.38-3.45-1.55-3.07-.36-24.47-.02-25.49,1.09-1.5,14.95-3.16,29.92-1.04,44.9,4.02,1.18,28.78,1.9,29.95.06Z"/>
        <path d="M233.01,637.33c25.89.94,40.3,22.13,37.97,47.03-12.53-.25-23.44-2.88-30.83-13.69-2.48-3.64-7.16-14.7-7.15-18.84v-14.5Z"/>
        <path d="M655.13,444.08c-.06.39-1.09,2.49-1.65,2.57-16.03-1.56-29.27-4.34-34.39-21.54-.87-2.91-3.81-19.72-.48-20.3,6.78,1.15,13.28,1.02,19.59,4.2,5.37,2.7,16.94,12.8,16.94,19.06,0,4.66.66,11.78,0,16Z"/>
        <path d="M233.14,429.83c2.26-14.41,22.31-28.77,37.02-25.48,1.1,11.11-1.29,20.73-7.79,29.73-8.16,11.29-16.79,8.71-29.24,10.25.49-4.51-.67-10.18,0-14.5Z"/>
        <path d="M413,508.36c-1.3.95-27.68-7.88-30.9-9.45-14.73-7.19-2.93-21.75,1.16-32.35,2.53-1.6,35.71,9.95,37.34,12.88,2.95,5.32-5.3,23.11-7.6,28.92Z"/>
      </g>
    </g>
  </g>
</svg>