<?xml version="1.0" encoding="UTF-8"?>
<svg id="b" data-name="Layer 2" xmlns="http://www.w3.org/2000/svg" viewBox="0 0 550.9 690.23">
  <defs>
    <style>
      .d {
        fill: #fff;
      }
    </style>
  </defs>
  <g id="c" data-name="Layer 1">
    <g>
      <polygon class="d" points="221.12 14.44 149.87 52.08 97.77 93.05 44.27 135.1 44.27 187.24 7.34 222.07 51.85 292.84 70.96 345.19 132.27 373.54 183.42 373.54 208.75 397.84 341.96 397.84 356.01 374.89 435.89 373.54 503.76 324.22 520.33 266.39 531.47 205.76 503.76 122.53 461.22 108.31 445.07 61.08 396.97 43.13 367.2 43.13 333.15 14.44 290.07 37.14 221.12 14.44"/>
      <path d="M201.07,338.14c.54,5.78,2.53,40.88-.21,42.8-10.23,1.08-14.12,9.86-23.43,14.06-30.94,13.95-67.55.88-79.3-31.38-40.24,4.24-70.47-39.1-65.17-76.37C11.97,281.7,1.23,255.47.09,235.63c-1.12-19.41,8.74-46.88,27.98-54.53-11.79-37.54,11.76-85.45,54-86.98,1.27-20.57,14.41-41.02,31.48-52.01,15.41-9.92,32.65-11.31,50.44-8.03,21.49-43.37,84.59-44.76,112.59-6.96,21.03-28.17,64.9-37.02,92.97-13.95,7.29,5.99,13.87,14.12,19.18,21.88,38.64-11.65,77.59,19.73,79.35,59.09,26.11,1.22,49.74,22.21,56.27,47.23,3.54,13.56,1.22,25.66-1.33,39.07,12.73,8.97,23.68,24.98,26.8,40.46,5.23,25.92-8.81,56.98-34.34,66.21,5.38,26.34-6.33,54.83-30.1,67.84-9.7,5.31-23.28,10.05-34.3,7.18-4.79,20.22-25.39,34.95-45.64,36.88-12.73,1.21-34.61-1.39-43.91-10.83-3.43-3.49-6.27-12.12-12.45-9.04-.4-6.17-2.79-37.88.92-40.57l29.41.52c8.36,17.65,30.87,16.51,39.87-.25,14.52-27.05-25.84-49.89-39.41-25.41-1.16,2.1-1.37,6.87-3.43,7.56l-40.48.71c-2.02,9.62-5.19,19.05-5.87,28.93-.63,9.08-1.93,32.79-.89,40.88.12.91.8,4.64,1.4,4.63l6.69-4.34,8.8-2.18-2.5,258.5h-18c-.36,0-1.62-1.02-2.34-1.17l-.23-1.3-1.92-348.53,22.45,2.04c8.53-1.03,19.22,2.33,26.54-2.54v-43.5c11.14,1.43,22.29,2.14,33.54,2.04,2.36-.02,4.55-1.05,6.92-1.08,11.16-.15,38.71,3.7,44.02-7.98l-.48-78.98c3,.2,4.92,2.68,7.7,3.79,22.59,9,42.73-22.67,23.79-39.79-15.53-14.04-35.16-4.94-38.39,14.6-1.01,6.14,2.05,8.16-4.17,12.83-2.9,2.17-6.7,1.94-7.72,6.28l1.78,71.29c-2.91.36-5.6-.94-8.46-1.04-13.49-.5-27.25,1.32-41.08,1.08-5.75-.1-19.47-2.78-24.44-.52-.65.3-8.33,7.98-9.02,8.98-5.07,7.33.3,26.28-3,35.5h-29v-38.5l20.69-24.3c11.61.84,23.21.84,34.86.85,3.11,0,5.85-1.1,8.95-1.13,6.86-.07,15.12,2.92,22.39-.02l-1.96-49.23c18.02-7.79,17.24-32.25.56-41.65-30.23-17.02-47.25,31.87-17.61,43.55-1.11,9.48.93,19.6.11,29.43-1.5-.74-2.73-1.02-4.43-1.06-16.61-.41-33.38-.16-49.9,1.22l-30.42,34.58c-2.12,34.52-1.07,69.19-1.2,103.8-.08,19.84.01,40.08,0,59.91-.03,82.63-.11,165.26,0,247.88-7.41,2.72-22.75,7.08-21.09-5.79.14-154.1.16-308.29,0-462-.02-22.68-.28-45.41,0-68.09.17-14.46,2.9-30.52,1.1-45-.13-1.07.03-2.31-.98-3.02-3.3-.05-17.07-.4-17.07,4.07v580c-5.67,3.46-14.22-1.02-21.01.51l.85-409.27c-9.14-13.43-22.62-23.04-30.84-37.25-18.7-1.8-37.28-1.22-56.01-.49v-31c21.44-5.68,19.9-34.86.69-43.19-26.82-11.63-43.07,32.19-18.01,43.62-1.27,11.61-.64,23.43-.63,35.1,0,7.61-3.78,12.58,7.41,13.5,9.96.82,23.78.88,33.99,1.01,8.38.1,16.53-.91,24.86-.86l20.25,21.86c.83,1.04-.57,2.08-.57,2.45v38.5h-30c-1.79-15.86,6.39-33.66-10.26-43.24l-73.74-1.76v-66.5c0-5.86-9.42-9.23-11.24-13.76-2.43-6.01.5-10.49-4.34-18.66-11.95-20.2-38.47-11.89-41.17,10.68-1.74,14.51,11.42,28.16,26.17,26.14,5.02-.69,8.59-4.6,13.58-4.91l-.55,78.05c1.09,3.49,7.5,6.54,11.03,6.97l73.53.98c-1.11,5.43-2.02,41.07.1,42.89l47.89,1.11-3.17,348.83c-3.56.64-18.75,2.58-20.39.23l-.47-259.59,2.2-6.3,11.78-.23c.75-19.67,7.04-42.96-7.19-59.21-8.21-1.21-16.93-.89-25.3-.78-2.38.03-4.52,1.08-6.91,1.08-7.25,0-5.88-4.42-9.11-8.97-17.51-24.66-56.23-.34-39.64,27.64,9.12,15.38,34.79,15.55,40.21-2.71h31ZM225.12,73.19c5.06.37,10.8-6.65,12.42-11.07,9.63-26.14-23.97-47.33-39.31-24.31-9.08,13.63-4.65,27.64,7.65,37.02l.94,21.06,23.78,26.73c-1.53,8.98-.26,17.76,1.46,26.53-1.17-.4-2.17-1.07-3.5-1.07-2.12,0-23.78,7.52-26.2,8.86-5.28,2.92-5.44,12.12-3.84,17.26,1.84,5.94,13.5,5.93,18.4,4.3s4.29-7.13,7.18-8.82c8.19-4.79,23.04,1.87,24.73-11.26l-.96-41.56c-6.47-9.04-13.65-19.31-22.58-25.91l-.17-17.75ZM342.23,73.3c18.99-6.83,17.66-34.5.21-43.03-23.2-11.35-42.23,21.34-26.37,38.37,2.91,3.12,6.14,3.28,8.83,6.17l.18,16.63c-9,5.99-15.42,14.8-21.8,23.42.67,10.18.17,20.61.79,30.78.15,2.4.72,10.25,1.18,11.82.9,3.09,13.24,6.52,16.75,9.25s3.52,7.18,7.78,9.22c3.81,1.83,18.89,3.67,21.87,1.32,2.72-6.06,2.79-16.6-3.9-20.3-7.16-3.96-17.84-2.97-24.19-10.81-1.61-2.66.12-13.31-.56-17.44-.43-2.62-2.65-4.18-2.82-5.23-.29-1.83,19.08-21.94,21.67-25.02l.37-25.14ZM406.87,60.4c-29.93,2.66-26.33,52.21,6.61,47.65,11.81-1.63,20.02-14.93,18.49-26.33-1.45-10.82-13.94-22.32-25.11-21.33ZM136.81,61.38c-5.14.88-11.23,5.62-14.17,9.82-15.31,21.91,9.21,49.26,32.37,32.37,19.85-14.48,3.36-45.89-18.2-42.19ZM194.87,108.35c-3.41.29-5.69,1.73-7.79,4.3-12.29,15.07,9.58,31.61,19.45,16.45,6.07-9.32-1.09-21.65-11.66-20.74ZM350.8,109.38c-15.78,3.28-8.24,28.44,5.51,26.59,16.58-2.23,13.83-30.61-5.51-26.59ZM92.31,276.9c-.88-.84-3.46-6.92-5.27-9.23-2.38-3.04-18.67-18.8-18.91-20.16,8.67-10.36,10.71-21.76,1.91-32.84-16.69-21-48.02-1.35-40.69,22.7,3.69,12.11,11.93,16.14,23.65,18.35,3.36,6.69,21.31,19.17,22.95,25.12.9,3.29-4.49,3.81-6.73,6.96-8.79,12.35-4.09,31.8,10.3,37.4,26.47,10.29,45.53-25.51,23.03-43.03-2.95-2.3-9.22-4.31-10.23-5.27ZM512.72,213.5c-7.7-7.31-20.62-8.91-29.58-2.79-11.86,8.11-15.66,28.67-2.07,36.45v1.46c-6.54,7.46-15.15,14.04-21.5,21.52-6.86,8.07-3.55,5.82-12.83,12.17-21.9,15-8.22,50.27,19.39,44.39,13.42-2.86,22.11-22.99,15.16-35.27-1.69-2.99-7.83-6.83-7.1-9.59.29-1.1,12.98-13.72,15.31-16.79,1.44-1.89,5.25-9.46,5.74-9.76,1.03-.62,4.24.11,6.12-.39,18.76-4.96,25.64-27.87,11.38-41.41Z"/>
      <path d="M230.87,663.44c28.49-.04,57.22,1.5,85.69-.37,48.6,5.04,101.83-3.05,150.05,1.04,18.58,1.58,18.01,22.44-3,24.07-6.13.48-13.78.09-20.08,0-108.29-1.52-217.38-1.35-326-.08-12.9.15-26.99,2.6-39.98,1.06-12.53-1.48-14.31-22.91,2.14-24.91,50.36.5,100.93-.75,151.18-.82Z"/>
      <path d="M403.71,429.5c16.82,16.83-8.76,42.36-24.68,26.18-15.69-15.94,6.96-43.91,24.68-26.18Z"/>
      <path d="M157.74,424.51c3.69-.03,7.5,1.91,10.35,4.12,17.77,13.7-2.96,40.27-19.95,28.95-15.28-10.17-7.3-32.92,9.6-33.07Z"/>
      <path d="M451.81,424.37c17.93-3.09,29.06,23.34,11.97,32.99-13.98,7.89-28.56-4.66-25.48-19.49,1.06-5.07,8.2-12.59,13.5-13.5Z"/>
      <path d="M92.85,424.38c5.02-.56,8.58.91,12.24,4.25,15.85,14.47-2.96,39.34-19.95,27.95-13.62-9.13-8.46-30.4,7.71-32.19Z"/>
      <path d="M389.84,492.34c8.13-1.14,15.72,6.45,16.27,14.27,1.93,27.28-35.15,21.77-30.8-1.73,1.05-5.66,8.97-11.76,14.53-12.54Z"/>
      <path d="M510.78,664.35c3.38-.76,16.08-.68,19.81-.23,11.71,1.41,15.86,15.98,5.43,22.48-3.49,2.17-16.93,2.11-21.48,1.57-11.61-1.37-15.31-21.22-3.77-23.81Z"/>
      <path d="M157.82,492.39c14.18-.77,22.45,18.66,11.28,28.28-14.8,12.75-33.61-5.88-23.04-21.04,2.46-3.52,7.38-7.01,11.76-7.25Z"/>
      <path d="M23.87,664.45c7.15-.63,14.25-1.02,18.65,5.74,4.82,7.41-1.03,17.68-9.01,18.9-2.96.45-11.01,1.2-13.93,1.14-10.03-.18-15.69-10.41-9.94-19.01,3.74-5.6,7.93-6.22,14.23-6.77Z"/>
      <path d="M143.39,332.83c-6.95-7.59,2.46-18.99,11.05-14.55,12.37,6.39-2.39,24.02-11.05,14.55Z"/>
      <path d="M395.79,317.35c8.02-1.83,15.11,4.93,10.7,12.71-5.45,9.61-17.54,4.21-16.39-5.32.36-2.97,2.64-6.69,5.69-7.38Z"/>
      <path d="M148.78,138.35c13.7-4.17,14.4,15.92,3.58,17.62-9.48,1.49-13.06-14.74-3.58-17.62Z"/>
      <path d="M466.79,139.35c15.12-3.39,13.88,18.3,1.87,16.77-7.93-1.02-10.94-14.73-1.87-16.77Z"/>
      <path d="M77.8,139.32c12.24-2.54,12.14,17.76.77,17.75-9.56,0-10.45-15.74-.77-17.75Z"/>
      <path d="M394.8,138.34c12.51-2.72,12.93,14.71,4.55,16.6-10.33,2.33-14.99-14.33-4.55-16.6Z"/>
      <path d="M214.8,43.32c10.66-2.2,14.74,16,2.54,17.63-10.59,1.42-12.85-15.51-2.54-17.63Z"/>
      <path d="M329.78,43.35c13.11-3.97,16.12,15.47,4.34,17.38-10.82,1.75-12.12-15.03-4.34-17.38Z"/>
      <path d="M456.78,293.36c17.03-3.89,15.41,19.37,2.81,18.85-10.11-.42-11.87-16.78-2.81-18.85Z"/>
      <path d="M493.78,222.36c9.04-2.08,14.55,7.65,8.75,14.75-10.18,12.44-23.79-11.29-8.75-14.75Z"/>
      <path d="M83.77,293.35c8.52-2.52,17.38,4.55,12.71,12.71-7.26,12.69-21.35.86-17.65-7.66.58-1.33,3.59-4.64,4.95-5.04Z"/>
      <path d="M48.78,221.36c16.47-3.79,15.65,21.59.03,17.53-7.86-2.04-8.01-15.69-.03-17.53Z"/>
      <path d="M414.75,77.46c5.7,6.23.05,17.65-7.72,15.27-1.35-.41-5.92-4.44-6.46-5.61-3.37-7.34,7.54-16.92,14.18-9.66Z"/>
      <path d="M134.39,90.83c-7.87-8.59,8.18-22.29,14.55-10.06,4.47,8.58-8.18,17.01-14.55,10.06Z"/>
    </g>
  </g>
</svg>