<?xml version="1.0" encoding="UTF-8"?>
<svg id="b" data-name="Layer 2" xmlns="http://www.w3.org/2000/svg" viewBox="0 0 613.2 566.08">
  <defs>
    <style>
      .d {
        fill: #fff;
      }
    </style>
  </defs>
  <g id="c" data-name="Layer 1">
    <g>
      <polygon class="d" points="33.81 122.96 33.81 393.19 82.29 459.58 325.3 563.58 611.19 431.47 611.3 122.08 334.26 7.61 33.81 122.96"/>
      <path d="M325.3,424.58c1.39-6.43,26.06-17.22,32.64-20.36,30.83-14.68,63.04-26.61,93.95-41.16,3.43-.52,5.71,6.01,6.17,8.75.84,5.03.14,11.47.25,16.75.61,30.64-.47,62.08-.05,93.05.1,7.23,3.47,15.17-1.93,21.98-4.58,5.77-25,11.71-32.7,15.3-28.46,13.26-58,30.26-86.65,42.35-2.99,1.26-9.36,4.76-11.67,2.33v-139Z"/>
      <path d="M76.71,304.53c-6.35,6.51-26.71,27.6-30.22,34.25-10.88,20.66,10.63,43.26,28.13,51.48,13.82,6.49,18.13,9.27,32.35,2,12.89-6.6,58.98-48.5,65.15-60.85,1.74-3.47,1.91-8.18,4.16-10.84,1.95-2.31,11.5-7.96,15.04-10.96,3.08-2.61,17.21-16.98,18.5-17.51,1.55-.64,3.15,4.05,3.67,5.31,13.33,32.36-11.85,68.87-35.17,89.19-11.6,10.11-25.58,21.78-37.54,31.46-48.85,39.52-111.15,17.6-133.94-38-22.05-53.82,13.49-75.48,46.98-109.95,18.05-18.58,29.18-35.09,55.7-43.3,24.63-7.62,44.89-.69,66.76,10.78-11.35,5.43-26.27,11.89-35.51,20.47-2.12,1.96-4.69,6.58-6.52,7.48-3.25,1.61-10.01,1.51-14.18,2.82-11.04,3.47-34.41,26.99-43.36,36.17Z"/>
      <path d="M458.29,195.09l-.57,137.92c-1.79,1.6-3.93,2.84-6.05,3.95-23.38,12.3-51.69,22.67-76.05,33.95-12.61,5.83-24.74,13.16-37.65,18.35-2.67,1.07-8.32,4.1-10.74,2.4l-1.77-138.41,132.83-58.15Z"/>
      <path d="M611.06,294.33l.13,137.15c-8.19,8.42-19.5,10.67-29.57,15.43-15.19,7.18-30.53,14.1-45.69,21.31-12.5,5.95-33.36,19.32-44.91,23.09-2.69.88-4.95.96-7.74.77l.13-140.38c1.92-3.71,24.22-13.98,29.51-16.49,27.36-12.97,55.53-25.43,83.15-37.85,3.56-1.6,11.75-6.26,14.97-3.04Z"/>
      <path d="M611.01,264.8c-32.52,16.31-66.25,30.09-99.38,45.11-5.87,2.66-15.95,9.29-21.29,10.7-2.06.54-4.05.97-6.1.04l-1.5-133.55,127.63-58.59c1.57,2.76,1.77,5.96,1.98,9.04,2.74,39.55-2.17,82.2,0,122.09l-1.33,5.18Z"/>
      <path d="M301.29,566.08c-27.55-12.27-53.84-27.08-80.63-40.86-12.06-6.2-27.15-11.72-38.39-18.6-6.85-4.2-7.37-5.61-8-14-1.81-24.19,1.82-50.31-.45-74.67,8.8-10.48,20.63-17.78,30-27.86,5.19-5.58,4.09-10.47,13.93-8.94,8.61,1.34,42.62,19.2,52.77,24.22,10.17,5.03,20.17,10.58,30.3,15.7l.48,145.01Z"/>
      <path d="M578.3,114.09c2.36,3.07-63.07,31.16-67.36,33.13-11.42,5.25-27.68,15.73-38.92,19.08-7.08,2.11-10.43-.41-16.69-2.75-28.78-10.73-63.64-26.28-91.7-39.3-5.99-2.78-12.6-6.39-18.35-9.69-1.03-.59-2.51.05-1.98-1.98.37-1.41,23-11.21,26.33-12.68,23.7-10.47,54.15-24.89,78.15-32.85,17.22-5.71,24.54.31,40.2,6.85,30.38,12.68,60.14,27.08,90.32,40.19Z"/>
      <path d="M430.29,178.1c1.34,1.4-4.66,4.28-5.68,4.81-29.04,15.19-66.05,31.27-96.65,43.35-3.43,1.35-10.97,4.9-14.19,4.87s-27.13-11.55-32.16-13.87c-8.32-3.83-16.27-8.65-24.65-12.35-21.09-9.32-43.46-16.01-63.68-27.33l114.74-49.26c11.7-2.19,38.69,13.75,50.6,18.93,15.37,6.69,31.08,12.75,46.35,19.65,8.4,3.79,16.19,9.17,25.32,11.19Z"/>
      <path d="M282.3,112.09c.5,2.34-.33,1.6-1.29,2.23-3.58,2.33-9.92,4.97-14.04,6.94-33.1,15.82-68.37,27.3-101.18,43.89l-116.48-52.56c.05-1.94,22.64-9.56,25.97-11.01,29.72-13.03,58.85-27.63,89.59-38.42,13.13,2.36,24.67,9.96,36.75,15.11,25.7,10.94,51.83,20.87,76.99,33.04,1.15.56,2.41.81,3.68.8Z"/>
      <path d="M194.3,47.09c11.08-3.82,22.14-8.03,32.97-12.54,24.61-10.27,51.06-23.41,76.05-31.95C306.29,1.58,309.63,0,312.8,0c4.53,0,16.57,5.58,21.47,7.61,14.2,5.9,28.64,12.07,42.72,18.28,15.99,7.05,32.19,13.96,47.32,22.71.59,2.56-6.46,5.73-8.33,6.65-27.24,13.27-57.94,26.25-86,38-3.61,1.51-12.87,5.81-16.16,5.83-3.47.03-8.15-2.33-11.48-3.54-24.79-8.99-53.39-22.32-77.71-33.29-8.21-3.7-19.81-8.51-27.37-12.63-1.11-.6-2.71-1.12-2.95-2.54Z"/>
      <path d="M152.25,185.12l-.96,21.95c-8.62-2.12-18.51-3.39-27.48-2.99-40.04,1.78-74.7,36.1-95.49,67.57l-14.51-6.59c-1.26-40.16-.09-80.36-.47-120.53-.05-5.31-2.38-7.35.46-13.46,1.71-3.69,2.34-4.31,6.29-3.34,5.36,1.32,16.16,6.69,21.89,9.17,32.43,14.02,64.59,31.73,97.34,44.66,4.04,1.59,8.58,3.21,12.93,3.56Z"/>
      <path d="M301.18,251.19l-1.4,142.92c-6.41-1.28-11.56-5.87-17.27-8.74-18.04-9.08-37.29-18.06-56.25-24.86,8.63-23.83,16.43-52.83,2.06-75.94.06-2.3,30.99-17.27,35.3-20.68,11.23-8.86-.1-19.52-4.32-28.81l41.88,16.1Z"/>
      <path d="M219.1,234.37c4.91-.35,8.61.35,13.19,2.22,3.34,1.37,14.43,8.15,14.06,11.94-.53,5.45-24.67,14.39-30.36,17.75-14.88,8.77-41.41,30.47-52.21,43.79-2.3,2.83-7.7,13.99-8.52,14.48-7.48,4.46-24.62-.04-30.48-6.45-8.24-9-4.26-22.61,3.62-30.41s30.58-22.59,40.58-29.42c13.51-9.24,33.61-22.72,50.12-23.9Z"/>
      <path d="M131.29,347.09c1.53,2.04-7.13,5.9-8.5,6.99-9.42,7.52-18.88,22.07-32.53,18.53-6.07-1.57-26.11-17.99-25.93-24.03s30.71-33.69,35.47-40.49c2.82,4.06,2.59,9.15,4.31,13.68,4.68,12.36,13.97,22.21,27.18,25.32Z"/>
      <path d="M150.3,437.08v53c-10.09-5.48-21-9.26-31.36-14.14-12.09-5.7-23.43-13.83-36.65-16.36,16.68-.29,33.08-4.49,47.89-12.12,6.61-3.41,12.76-9.79,20.12-10.38Z"/>
      <path d="M191.29,204.09l-16.99,5.98c.31-2.16-1.06-12.73,1.48-12.95l15.51,6.97Z"/>
      <path d="M254.29,232.09c.2,1.88-2.03.83-3.01.51-4.67-1.54-11.29-3.49-15.56-5.4-.86-.38-3.16-2.08-3.42-3.12l21.99,8Z"/>
    </g>
  </g>
</svg>