<?xml version="1.0" encoding="UTF-8"?>
<svg id="b" data-name="Layer 2" xmlns="http://www.w3.org/2000/svg" viewBox="0 0 592.84 393.5">
  <defs>
    <style>
      .d {
        fill: #fff;
      }
    </style>
  </defs>
  <g id="c" data-name="Layer 1">
    <g>
      <path class="d" d="M184.61,113.83L48.61,223.83l68,108.9,277,27.1s136-48,139-58-31-134-47-142-85-92-85-92c0,0-159,26-162,30s-54,16-54,16Z"/>
      <path d="M498.62,141.82c40.46,5.74,76.8,38.01,88.49,77.01,26.22,87.5-41.13,168.86-128.96,173.04-108.87,5.18-221.8-4.01-331.09,0-85.5-4.25-145.8-90.63-121.72-172.81,10.41-35.51,43.1-69.36,80.17-76.33.94-48.05,40.07-89.46,88.55-90.94,11.32-.35,28.04,3.8,38.22,8.86,2.06,1.02,12.5,8.8,13.31,8.17,2.45-5.86,8.09-12.18,12.5-17.01C275.32,10.98,334.53-9.31,388.82,4.12c60.04,14.85,110.56,74.8,109.8,137.7ZM173.51,183.73c-7.36-.19-14.8,1.97-21.41,5.09-3.16,1.49-13.08,7.58-15.05,9.95-1.55,1.87-1.52,4.04-2.55,5.45-12.77,17.35-16.56,30.93-14.92,53.15,2.37,32.14,33.28,64.56,65.55,67.45,28.19,2.52,61.07-.28,90.03-.03,39.09.34,79.87,3.58,119,1.08,25.63-1.63,52.84-16.54,66.87-38.13,28.69-44.18,3.38-102.82-47.98-111.84.17-54.02-56.07-94.69-107.65-80.78-11.94,3.22-32.53,13.07-40.23,22.77-1.5,1.88-1.45,4.58-2.69,6.31-2.53,3.54-5.95,6.93-8.43,10.63-16.43-8.69-38.48-8.66-55.11-.17-8.88,4.53-20.64,18.51-22.86,28.14-1.62,7.07-.98,13.97-2.56,20.93Z"/>
    </g>
  </g>
</svg>