<?xml version="1.0" encoding="UTF-8"?>
<svg id="b" data-name="Layer 2" xmlns="http://www.w3.org/2000/svg" viewBox="0 0 914.5 637.36">
  <defs>
    <style>
      .d {
        fill: #fff;
      }
    </style>
  </defs>
  <g id="c" data-name="Layer 1">
    <g>
      <path class="d" d="M160,108.44s16.71,339.99,162.81,447.2,134.64,60.23,134.64,60.23c0,0,299.54-82.94,294.5-492.48-73.04-9.54-294.57-90.59-294.57-90.59,0,0-184.29,108.23-297.38,75.64Z"/>
      <path d="M453.69.08c6.43-.69,14.21,2.95,20.19,5.3,45.74,17.97,88.69,41.95,135.82,57.18,37.54,12.13,74.17,18.3,112.4,26.6,25.2,5.47,30.49,6.57,29.85,34.23-1.99,86.78-2.74,159.55-31.02,242.98-37.11,109.48-119.23,208.43-225.34,256.66-7.13,3.24-32.99,14.61-39.2,14.33-4.48-.2-29.58-9.71-35.46-12.02-70.28-27.66-144.95-95.72-184.43-159.57-53.25-86.11-72.65-181.13-75.54-281.46-.63-21.95-3.81-54.82-.95-75.87,1.28-9.39,8.8-12.97,16.9-15.1,43.47-11.41,85.4-17.5,128.78-32.22S391.4,23.83,434.95,6.39c5.02-2.01,13.66-5.76,18.75-6.3ZM720.7,121.07c-27.61-6.86-55.69-12.02-83.21-19.29-59.79-15.81-107.78-39.93-163.9-63.1-4.15-1.71-12.13-5.74-16.21-5.87-5.15-.17-19.82,6.34-25.44,8.58-26.82,10.71-52.85,23.65-79.78,34.22-52.39,20.56-106.83,35.1-162.24,45.26-2.63,106.21,8.91,214.16,59.82,308.67,37.03,68.74,111.98,143.38,186.65,169.35,21.35,7.42,26.32,5.1,46.49-3.55,70.84-30.4,136.29-94.37,174.2-160.8,55.09-96.53,64.82-195.8,64.91-305.18,0-2.82-.78-5.55-1.28-8.27Z"/>
      <path d="M837.88,507.88l-161.98-.54c1.78-4.49,5.88-7.7,8.2-11.8s3.16-11.51,7.53-12.47c48.61.02,97.36,1.39,145.81,1.36,5.49-6.96,8.13-13.58,16.15-18.4,43.4-26.08,84.86,32.76,43.8,64.8-21.93,17.11-53.99,3.31-59.51-22.95ZM870.64,482.08c-5.76,1.19-11.46,8.46-11.77,14.31-.94,17.68,20.75,27.98,30.26,11.18,7.76-13.72-2.88-28.69-18.48-25.48Z"/>
      <path d="M74.07,483.69c6.09.56,12.28-.14,18.38.12,37.86,1.65,76.09,1.29,114,.08,3.31-.11,9.48-2.63,11.99-.07l14.46,25.03-156.54-1.74c-3.33,8.49-5.73,15.61-12.97,21.72-30.56,25.79-70.69-4.81-62.03-41.03,8.14-34.02,61.8-37.58,72.71-4.12ZM50.56,487.2c-15.31-16.69-39.06,7.86-22.69,24.19,15.17,15.12,35.6-10.11,22.69-24.19Z"/>
      <path d="M838.8,399.97l-104.88-1.61c5.57-6.86,7.56-15.88,9.09-24.4,18.79.05,37.64-.41,56.44-.14,2.36.03,4.55,1.04,6.92,1.08,7.81.13,24.33,1.23,31.05-.04,2.48-.47,5.7-8.25,7.98-11.02,20.48-24.78,64.35-14.04,68.4,18.62,5.87,47.34-61.51,64.59-75,17.51ZM872.65,372.09c-25.64,4.16-11.2,45.18,10.97,31.97,15.84-9.44,5.98-34.72-10.97-31.97Z"/>
      <path d="M74.06,373.7l93.85,1.16c-.16,9.13,5.36,16.66,8,24.99l-100.34-1.04c-8.65,30.62-47.81,40.19-67.48,13.37-8.89-12.12-9.96-30.28-2.71-43.36,14.18-25.59,59.48-24.39,68.68,4.88ZM35.64,372.08c-22.64,4.71-12.84,42.58,9.68,32.68,17.01-7.48,8.1-36.38-9.68-32.68Z"/>
      <path d="M838.91,290.85h-72c2.46-8.49,3.52-17.15,2.99-26.01l68.35.85c4.61-7.14,7.29-12.5,14.74-17.26,45.19-28.86,84.02,33.34,46.25,62.25-22.51,17.23-52.42,6.55-60.33-19.83ZM870.64,264.08c-16.45,3.41-13.41,31.01,2.75,32.79,26.34,2.9,23.72-38.28-2.75-32.79Z"/>
      <path d="M74.07,265.69l68.85,1.16c-.75,8.53,1.31,16.74,2.99,25l-71.96-.95c-.64,11.71-13.42,23.05-24.09,26.41-33.54,10.57-61.29-25.48-45.13-56.13,14.67-27.82,59.08-25.79,69.34,4.52ZM35.67,264.07c-16.28,2.33-18.81,29.74-.82,33.34,24.9,4.98,25.61-36.89.82-33.34Z"/>
      <path d="M616.91,571.84c8.1-8.15,15.76-17.8,24.74-24.75,25.19-1.69,50.32-2.63,75.59-2.41,3.81-4.29,5.73-8.85,10.2-12.8,34.12-30.19,77.16,22.39,40.94,50.94-14.41,11.36-35.43,9.45-46.49-5.46-1.42-1.92-1.67-4.54-2.48-5.52-2.29-2.79-14.22-.05-17.97.05-13.26.36-26.87.81-40,1-5.65.08-42.9.56-44.54-1.05ZM739.26,547.2c-12.04,13.03,9.6,30.85,20.1,14.61,8-12.37-9.73-25.84-20.1-14.61Z"/>
      <path d="M839.87,183.9l-61.32-.18c-1.3-.33-1.42-1.22-1.64-2.36-1.06-5.67,1.12-15.26.05-21.45,5.58-2.07,10.35-.1,15.4,0,15.28.27,30.59-.31,45.87,0,10.8-31.2,54.22-36.51,70.5-6.36,17.66,32.71-18.33,68.91-50.86,52.86-7.26-3.58-17.72-13.98-18-22.49ZM872.67,155.07c-18.4,2.7-17.64,31.07,2.09,32.2,23.91,1.37,18.58-35.23-2.09-32.2Z"/>
      <path d="M72.91,159.85h62c-2.76,7.89,1.02,15.83-.11,23.89l-60.88.1c-8.97,31.9-52.69,36.17-68.53,7.02-17.99-33.12,15.66-69.22,49.51-53.51,7.18,3.33,17.76,14.19,18,22.5ZM35.65,156.08c-18.43,3.17-16.72,33.19,3.62,32.42,21.33-.81,17.66-36.09-3.62-32.42Z"/>
      <path d="M200.07,545.69c19.77.06,39.6.46,59.38.21,7.08-.09,6.18-2.9,12.49,3.43,5.32,5.34,13.97,13.92,18.5,19.5.52.64,2.8,3.8,2.48,4.01-9.47,1.12-18.97,1.19-28.54,1.05-2.36-.03-4.55-1.06-6.92-1.08-19.68-.22-39.39.82-58.92-1.89-11.54,22.23-35.74,26.32-54.11,8.92-13.49-12.78-13.53-36.85,1.58-48.4,18.96-14.51,45.31-7.87,54.07,14.25ZM164.64,543.09c-19.71,4.05-4.86,33.84,8.78,24.77,14.83-9.86,6.34-27.88-8.78-24.77Z"/>
      <path d="M707.91,454.85l10.96-23.54,17.38-.62c5.65-9.54,12.38-19.82,24.42-21.58,34.33-5.02,51.82,35.64,24.72,56.72-16.59,12.9-37.08,7.58-45.98-10.98h-31.5ZM766.59,427.17c-2.77.06-6.74,2.2-8.71,4.14-12.1,11.94,9.74,30.6,19.45,13.45,4.09-7.22-2.46-17.77-10.74-17.6Z"/>
      <path d="M199.91,455.85h-26c-7.23,20.33-33.42,23.84-48.49,8.99-27.11-26.7,6.14-73.35,39.43-49.43,4.46,3.21,10.26,14.06,12.06,14.94,3.26,1.59,8.51-.53,12.02.98,3.07,8.55,6.41,16.66,10.98,24.52ZM144.66,428.07c-17.9,3.45-4.85,34.93,9.8,21.83,9.96-8.91.39-23.79-9.8-21.83Z"/>
      <path d="M750.91,350.84l8.66-29.03c4.33-.82,8.81,1.02,12.8,1.08,10.54.17,31.62-5.53,34.14,9.94,2.51,15.43-15.59,15.99-26.11,17.01-9.75.95-19.7,1.09-29.49,1Z"/>
      <path d="M152.86,322.91l6.05,28.94c-10.46-1-35.39,2.54-43.52-3.97-8.59-6.88-4.7-23.99,6.98-25.07,9.65-.89,20.7.71,30.5.1Z"/>
      <path d="M773.92,239.85l1.99-25.01c8.18,1.88,27.38-1.17,32.23,6.28,3.17,4.87,2.63,15.74-3.25,18.21-2.9,1.22-18.28.74-22.52.57-3.08-.13-5.53-1.93-8.45-.05Z"/>
      <path d="M134.91,216.85l3,21.99c-7.15-1.01-23.29,5.13-28.48-1.01-2.71-3.21-2.33-12.02-.76-15.73.41-.96,4.39-5.25,4.75-5.25h21.5Z"/>
      <path d="M581.49,490.43c-28.41,30.35-77.53,68.4-117.34,81.16-5,1.6-6.5,2.91-12.06,1.57-25.27-6.09-58.43-27.08-79.08-42.92-98.76-75.76-146.71-195.46-154.14-317.86l-.96-68.54c84.09-12.17,162.05-47.12,239.51-79.86,20.51,7.11,39.62,17.68,59.53,26.34,55.93,24.31,114.41,44.06,175.03,52.97,1.05.71.85,1.94.99,3.01,1.84,14.76.58,42.4,0,58.09-3.72,99.85-42.8,212.7-111.46,286.04ZM540.91,257.86l1.05-35.54c.48-32.64-9.07-61.15-36.13-80.88-55.57-40.5-129.33-1.4-133.95,64.88-1.15,16.5.3,35.03,1.04,51.54-17.61-.28-30.42,14.49-31.99,31.51-4.62,50.28,4.84,106.95,1,157.97.87,18.45,22.6,39.55,40.48,41.52,35.58,3.91,77.73-5.48,113.96.04,36.96.29,66.96-.21,75.52-43.56v-158.97c-1.24-14.72-16.57-28.25-30.99-28.51Z"/>
      <path d="M512.91,256.85l-113,1c2.48-23.27-4.28-43.02,6.13-65.38,18.64-40.07,75.59-47.44,99.07-7.31,2.44,4.17,7.81,17.83,7.81,22.19v49.5Z"/>
      <path d="M490.41,420.85c.56.1,3.6,1.54,4.05,1.95,2.74,2.42,1.15,17.75,1.46,22.54.27,4.2,4.34,13.68.75,17.27-2.53,2.53-19.61,1.73-24.03,2.47-5.02.84-10.21,4.7-16.28,4.79-3.45.05-11.97-1.7-11.99-5.94l-.4-92.48c-30.39-8.7-40.13-56.89-11.76-73.8,14.29-8.51,38.68-8.39,51.7,2.68,23.69,20.15,15.66,63.6-15.02,70.52l1.01,49.99c6.21.75,14.61-1.02,20.5,0ZM443.26,319.2c-18.59,17.33,14.42,44.47,27.85,23.34s-12.62-37.54-27.85-23.34Z"/>
    </g>
  </g>
</svg>