<?xml version="1.0" encoding="UTF-8"?>
<svg id="b" data-name="Layer 2" xmlns="http://www.w3.org/2000/svg" viewBox="0 0 755.47 750.92">
  <defs>
    <style>
      .d {
        fill: #fff;
      }
    </style>
  </defs>
  <g id="c" data-name="Layer 1">
    <g>
      <path class="d" d="M645.96,296.9l-3.24,267.48-286,7,2-54-174-20V205.73c0-24.49,19.86-44.35,44.35-44.35h216.85c23.31,0,41.89,19.48,40.79,42.76l-2.98,63.24,4,92,49-2,.2-57.95c.07-19.02,15.13-34.6,34.13-35.3l38.15-1.42c19.6-.73,36.07,14.59,36.75,34.19Z"/>
      <path d="M637.34,652c-110.11,103.46-286.09,127.71-422.3,63.56C-6.75,611.11-67.23,332.36,81.89,139.05,215.88-34.66,494.74-46.82,647.23,109.37c147.41,150.98,144.39,397.67-9.89,542.63ZM136.07,126.73C17.37,242.6.94,428.69,90.3,567.3c127.69,198.05,430.91,205.2,567.23,12.4,96.14-135.97,83.34-320.55-29.3-442.33C501.66.52,269.09-3.12,136.07,126.73Z"/>
      <path d="M481.73,168.38c4.24-3.08,5.92,15.69,6.03,17.46.93,15.5,1.35,40.87,0,56.08-2.07,23.26-41.23,32.57-60.03,36.97-61.02,14.29-138.73,14.94-199.83.8-20.66-4.78-59.55-13.16-62.92-38.08-1.75-12.94-1.46-57.56,2.03-69.45.62-2.13,1.63-4.2,3.22-5.78,6.34,16.16,22.58,24.83,38.5,29.49,65.35,19.12,181.26,20.2,245.24-3.75,12.1-4.53,23.65-10.47,27.77-23.74Z"/>
      <path d="M477.73,285.38c6.19,1.39,9.23,11.97,9.89,17.61,2.03,17.41-.93,38.67-.33,56.46-10.47,1.7-24.41,6.24-31.42,14.58-2.25,2.67-4.82,10.75-5.82,11.43-4.48,3.03-23.98,7.04-30.31,8.44-59.48,13.13-134.58,13.1-193.83-1.19-19-4.58-57.38-14.06-60.94-37.06-1.63-10.51-1.21-48.1,1.72-57.8.59-1.96,5.41-13.44,6.54-13.44,3.8,2.79,4.83,7.77,7.97,11.02,18.81,19.5,100.47,25.92,127.99,27.01,45.83,1.82,103.86.73,146.51-17.57,8.67-3.72,21.58-8.67,22.04-19.46Z"/>
      <path d="M597.51,277.67c7.17-.31,27-3.09,28.25,6.16l-.81,297.29c-1.88,3.58-4.83,4.82-8.74,5.26-14.27,1.61-30.29-2.06-44.77-1.23-4.96-1.6-8.52-4.74-8.73-10.27-.72-93.44,1.29-186.63,1.05-280.04-.02-5.78-2.51-11.44,4.9-15.01,9.63-.26,19.25-1.74,28.85-2.15Z"/>
      <path d="M358.72,517.88l-1.63,1.43c-10.93-2.09-21.86.19-32.91.12-39.38-.25-109.84-3.92-143.38-25.62-23.25-15.05-12.84-36.21-16.07-59.91.89-5.37,2-30.71,6.1-33.4,2.99-1.97,6.21,6.79,8.06,9.22,8.21,10.71,29.5,14.74,42.62,17.38,48.46,9.73,103.43,12.09,152.69,8.29,25.69-1.98,51.15-8.09,75.51-15.99v44c-3.96.74-7.76-.91-11.46-1.04-14.8-.52-56.25-1.16-67.88,6.2-5.47,3.47-11.66,11.7-11.66,18.34v31Z"/>
      <path d="M476.03,394.69c4.41-3.9,8.42-1.28,13.14-1.26,12.11.05,25.31-2.08,37.03-1.03,4.38.39,9.37.79,10.08,5.92,0,51.48-1.5,103.11-.61,154.61.16,9.3,5.76,29.01-6.88,32.02-13.31,3.17-31.37-2.44-45.12-.01-4.43-.67-8.28-2.76-9.74-7.27-1.23-54.24.9-108.59-.17-162.83-.12-6.21-3.58-14.98,2.27-20.15Z"/>
      <path d="M304.51,139.67c36.47-1.66,108.94.65,142.19,14.22,9.94,4.06,15.31,9.54,3.93,16.9-24.97,16.15-113.43,20.8-144.46,19.63-22.22-.84-85.63-7.04-103.15-17.85-15.49-9.56-3.59-17.59,8.49-20.9,25.87-7.09,65.91-10.77,93-12Z"/>
      <path d="M444.43,581.1c-1.11,1.36-5.24,3.07-7.18,3.31-6.21.75-42.92.89-47.57-.48-.81-.24-5.11-2.99-5.45-3.55-.38-.62-1.52-12.56-1.54-14.45-.13-9.12,1.21-18.58,1.08-28.09-.18-14.06-2.34-28.8-1.09-42.99.48-5.46,1.49-9.77,7.52-10.48,11.33-1.33,36.01-1.15,47.87-.62,5.13.23,8.33,4.03,8.48,9.11.04,1.46-.89,3.21-.88,4.99.22,24.25,2.1,54.52.08,78.08-.16,1.83-.09,3.65-1.33,5.18Z"/>
    </g>
  </g>
</svg>