<?xml version="1.0" encoding="UTF-8"?>
<svg id="b" data-name="Layer 2" xmlns="http://www.w3.org/2000/svg" viewBox="0 0 663.29 540.52">
  <defs>
    <style>
      .d {
        fill: #fff;
      }
    </style>
  </defs>
  <g id="c" data-name="Layer 1">
    <g>
      <path class="d" d="M277.42,217.72l79.51-.72s127-58,130-59,63.5,33.52,63.5,33.52l41.95,67.52,32.75,66.72-35.57,100.04-86.63,17.2,9.18,76.4s-183.18,12.6-188.78,13.5-114.4-21.9-114.4-21.9l12-56s-109,9-120,4-24-59-30-61-4-102-2.9-107.39,29.55-56.01,29.55-56.01l37.45-50.89,66.5,7.82,75.89,26.2Z"/>
      <path d="M44.28,491.65c-54.87-58.2-60.56-146.6-6.86-207.67,10.99-12.49,23.38-23.66,39.02-29.98,1.82-33.2,20.97-66.35,49.82-83.18,34.46-20.11,80.95-21.48,113.98,2.04l47.68-33.87c-.09,7.27-.87,13.62.66,20.84,11.35,53.62,95.51,46.27,90.33-14.33l-2.01-12.04c3.45-2.02,17.01,3.67,21.78,4.27,20.54,2.57,40.6-12.99,34.25-34.73,82.69,8.11,153.68,71.06,159.45,156.04,74.18,39.07,90.59,138.32,47.18,207.09-32.4,51.33-83.1,74.26-143.17,73.91-60.76-.36-121.95-.93-182.91-1.09-55.85-.14-118.06,3.59-173.04.04-35.87-2.32-71.83-21.53-96.16-47.34ZM177.43,272h52.5v29c-34.45.84-69.1-1.11-103.54-.04-2.32.07-5.01,1.38-6.93,1.1-3.01-.44-3.41-4.78-5.09-6.99-8.58-11.3-23.49-13.26-33.93-3.05-7.28,7.12-9.08,16.35-4.54,25.52,9.01,18.2,32.02,18.85,40.53.47h113.5v30l-88.3-.8c-9.88,8.82-18.94,18.49-27.24,28.8-17.19-15.7-46.47.55-37.65,23.68,9.51,24.96,46.33,17.32,44.7-9.67l26.2-26.83,82.28.82v14.5c0,2.42,2.41,8.89,3.61,11.39,4.61,9.51,18.3,21.09,29.39,20.11l-.96,46.35c-31.15,9.49-16.68,58.83,15.23,45.43,15.08-6.33,18.1-26.1,7.17-37.71-3.15-3.35-6.44-2.19-6.44-8.56v-44.5c15.96,2.78,31.94,1.19,48.01.99l-.94,46.4c-21.39,8.21-19.92,42.33,4.52,45.52,27.39,3.58,36.63-34.83,11.42-44.41v-47.5h17v15c5.23-.12,10.7,3.18,15-1.5v-14.5c5.09,1.25,11.05,1.87,15.99,0l.03,47.29c-21.04,8.49-17.44,42.95,6.44,44.75,22.43,1.69,33.93-24.09,19.52-40.51-2.89-3.3-5.26-5.11-9.97-4.53v-48c11.42,1.22,22.45-8.62,27.44-18.06.65-1.22,3.56-7.82,3.56-8.44v-19.5c26.37,2.26,52.84-.29,79.24-.78,2.64,1.66,5.34,3.3,7.77,5.27,6.39,5.19,11.66,12.72,17.54,18.49,1.07,1.05,2.96.82,3.29,1.16.63.66-.78,10.17,2.33,15.19,7.07,11.39,22.72,14.82,33.77,7.1,15.14-10.57,12.01-34.69-5.72-40.15-10.23-3.16-14.92.57-23.51,4.61l-28.41-26.69c-28.73-3.63-57.54,1.65-86.29-1.21v-30l111.3.98c12.6,25.26,48.74,7.42,40.42-18.2-6.65-20.49-38.82-19.83-41.72,2.22l-109.99-2.01v-29c1.85.28,3.53.99,5.45,1.05,9.48.3,40.83,1.4,47.84-1.26,4.27-1.62,14.9-13.26,18.74-17.26,3.23-3.38,9.27-12.42,12.46-14.54,6.28-4.16,12.49-1.04,18.94-10.06,15.25-21.31-10.9-48.92-32.35-32.35-11.9,9.2-9.47,24.04-1.26,34.92l-21.6,23.46c-15.92,1.83-32.29,1.37-48.24.03,2.47-14.83-11.07-33.28-25.58-35.92-7.06-1.29-13.78.22-19.87-.05-31.87-1.42-64.18-1.36-96.01-1.08-11.98.11-27.22-1.26-38.58,1.5-15.7,3.82-29.05,20.02-24.96,36.53-14.57-1.1-31.25,1.49-45.56.07-1.75-.17-2.32-.04-3.99-1.01-.85-.49-11.48-10.48-12.99-12.01-2.98-3.03-5.71-7.62-9.22-10.53,18.14-18.04-2.32-48.46-25.14-37.91-14.82,6.85-15.34,23.47-6.94,35.73,5.12,7.48,10.28,6.82,18.39,8.61l31.94,33.06Z"/>
      <path d="M323.73.29c42.16-2.64,90.71,12.72,124.1,38.31,5.05,3.87,15.86,12.64,17.42,18.57,3.51,13.32-7.69,26.78-21.61,23.6-4.67-1.07-15.47-13-20.23-16.76-49.55-39.02-126.1-38.66-176.8-1.86-6.05,4.39-11.47,10.48-17.19,14.81-16.02,12.12-31.79-1.64-27.01-20.01,2.17-8.31,30.59-27.43,38.86-32.14,23.77-13.55,55.09-22.82,82.47-24.53Z"/>
      <path d="M322.73,61.3c29.42-2.63,75.01,10.48,93.2,35.21,8.93,12.14-1.8,29.15-16.4,27.41-7.51-.89-16.49-11.5-23.27-15.74-23.62-14.79-55.45-17.08-80-3.35-11.92,6.67-20.3,20.89-34.86,19.19-11.58-1.35-15.47-18.27-9.31-27.36,12.25-18.06,49.4-33.47,70.64-35.36Z"/>
      <path d="M327.69,122.26c45.38-6.59,45.66,52.49,11.48,57.48-41.57,6.07-49.03-52.02-11.48-57.48Z"/>
      <path d="M264.69,235.26c32.22.76,64.53,1.1,96.79.79,13.41-.13,27.45-2.3,40.99-1.09,11.31,1.01,15.65,7.85,16.5,18.5,3.15,39.86-2.46,83.78,0,124.07-.41,7.88-7.52,16.05-15.49,16.51-45.01-3.25-95.75,4.15-140.09-.01-7.85-.74-14.75-7.64-15.51-15.49,2.85-40.24-3.65-85.38.07-125.03,1.05-11.22,5.83-15.89,16.74-18.26ZM322.69,255.25c-26.05,3.28-48.89,27.41-51.63,53.37-6.37,60.4,70.79,92.46,109.85,46.85,38.21-44.64-1.17-107.39-58.21-100.21Z"/>
      <path d="M266.72,471.21c8.58-.75,14.92,8.36,7.26,15.34-12.71,11.59-24.7-13.82-7.26-15.34Z"/>
      <path d="M564.7,382.17c12.29-1.58,14.47,16.62,2.64,17.82-13.68,1.38-15.2-16.21-2.64-17.82Z"/>
      <path d="M395.66,471.23c9.4-1.92,15.68,4.23,9.7,12.7-9.95,14.08-26.84-9.19-9.7-12.7Z"/>
      <path d="M329.64,472.21c7.14-1.63,15.38,2.88,11.77,10.77-.38.84-5.26,5.53-6.18,5.81-12.26,3.72-16.57-14.07-5.59-16.58Z"/>
      <path d="M94.64,383.21c12.94-2.99,16.52,13.09,6.34,16.34-11.34,3.62-18.56-13.51-6.34-16.34Z"/>
      <path d="M516.63,206.21c13.75-4.08,18.92,12.97,6.3,16.36-9.48,2.55-15.4-13.66-6.3-16.36Z"/>
      <path d="M141.65,206.19c14.82-3.27,14.43,20.99-.46,16.03-9.08-3.03-7.45-14.29.46-16.03Z"/>
      <path d="M561.63,298.21c16.28-4.8,16.19,20.34.24,15.34-6.7-2.1-6.62-13.46-.24-15.34Z"/>
      <path d="M95.67,298.21c11.61-1.14,12.3,21.95-3.31,15.86-8.17-3.19-4.19-15.13,3.31-15.86Z"/>
      <path d="M329.72,271.29c60.06-5.18,66.35,83.77,7.69,88.69-61.38,5.14-66.55-83.61-7.69-88.69ZM325.67,291.24c-9.1,1.43-23.34,13.46-25.23,22.79l8.99,7.92c10.17-10.32,19.93-19.35,35.18-12.14,3.8,1.8,12.81,10.73,14.03,11.04,2.22.58,6.96-3.07,7.8-4.89,1.58-3.42-3.32-8.79-5.54-11.44-9.56-11.41-20.18-15.66-35.23-13.29ZM328.68,326.25c-7.58,1.93-9.02,13.71-2.66,19.17,4.86,4.18,7.49,4.61,12.85,1.01,11.18-7.5,3.5-23.67-10.19-20.18Z"/>
    </g>
  </g>
</svg>