<?xml version="1.0" encoding="UTF-8"?>
<svg id="b" data-name="Layer 2" xmlns="http://www.w3.org/2000/svg" viewBox="0 0 562.3 559.86">
  <defs>
    <style>
      .d {
        fill: #fff;
      }
    </style>
  </defs>
  <g id="c" data-name="Layer 1">
    <g>
      <circle class="d" cx="281.81" cy="274.17" r="204.5"/>
      <path d="M398.3,187.67c-5.92-5.32-15.16-9.64-20.91-14.58-6.27-5.38-10-28.94-12.82-38.18-1.05-3.44-6.71-21.81-8.25-22.75-1.39-.85-2.79-.58-4.27-.28-8.21,1.66-27.34,9.76-35.42,13.62-2.17,1.04-11.57,4.56-9.85,7.2,10.89,6.4,21.83,12.59,32.25,19.76,24.27,16.68,50.12,40.01,71.81,60.19,14.51,13.5,27.65,28.44,41.11,42.95,1.12.2,7-6.9,8.34-8.45,28.7-33.28,71.57-112.62,12.7-137.66-29.6-12.59-62.81-12.44-93.68-4.82-.49-5.3,1.79-12.9-1.92-17.38-1.19-1.43-3.83.6-3.08-2.61,42.35-11.1,110.12-10.48,137.41,30.08,13.24,19.68,11.26,47.8,6.28,70.1-7.49,33.54-30.59,60.63-50.53,87.49,7.54,13.29,18.15,24.51,26.26,37.41,33.05,52.55,48.35,122.92-24.17,148.66-24,8.52-43.12,10.23-68.48,5.98-7.61-1.28-16.52-3.8-23.14-7.65-2.67.46-13.76,27.45-16.11,31.94-12.48,23.92-44,68.55-73.04,70.96-27.42,2.28-45.43-14.85-62-33.97s-24.58-43.71-37.49-65.52c-2.46-1.51-15.28,3.68-19.61,4.38-35.85,5.82-90.41-1.01-113.21-32.55-38.54-53.31,8.3-116.36,39.63-159.98.3-3.04-4.95-6.54-6.77-8.88-34.89-44.86-80.89-131.12-13.05-169.99,36.25-20.77,78.95-16.11,118.31-8.62l2.58-2.5C212.64,39.85,247.6-10.63,299.52,1.96c28.08,6.81,46.52,35.79,59.31,59.69,14.91,27.85,23.38,52.48,30.8,83.2,3.41,14.13,6.01,28.54,8.67,42.82ZM216.3,92.67c22.47,4.12,45.52,13.98,64.3,26.81,15.77-8,31.89-15.28,48.46-21.55,3.55-1.34,18.11-4.16,18.22-7.69.15-5.2-14.59-31.15-18.34-36.7-29.13-43-60.05-46.46-91.45-3.18-9.19,12.66-17.17,27.18-21.19,42.31ZM187.31,104.68c-31.59-4.97-61.98-9.41-92.53,2.97-38.79,15.72-37.53,57.47-22.66,90.7,9.16,20.47,24.08,40.06,38.34,57.18,2.92,1.6,16.15-15.6,18.82-18.39,24.89-25.99,55.72-52.63,84.11-74.89,13.94-10.93,29.34-20.71,43.91-30.6l-.61-2.05c-5.36-2.25-10.71-4.59-16.13-6.68-7.22-2.79-20.23-8.29-27.19-9.82-1.69-.37-3.41-.97-5.07.05-5.44,3.34-14.19,47.1-16.24,55.27-8.92,3.15-15.25,9.94-22.74,15.25,2.23-27.04,10.67-53.04,17.99-78.99ZM396.31,230.66c-10.27-9.54-20.52-20.28-30.99-29.5-18.08-15.93-36.32-29.36-56.49-42.51-6.47-4.21-14.5-7.83-20.47-12.53-2.12-1.67-2.32-4.95-5.5-4.5-9.51,6.41-19.78,11.51-29.46,17.64-33.26,21.05-67.43,50.1-95.61,77.39-4.63,4.48-33.06,32.56-32.32,36.38,6.54,7.14,12.83,14.45,19.83,21.16,17.1,16.37,39.11,35.54,57.56,50.44,24.2,19.55,50.95,37.13,78.96,50.67,27.65-12.53,53.17-29.86,76.96-48.67,14.48-11.45,27.5-24.73,42.56-35.44l37.53-38.5c.6-1.33-1.27-3.07-2.02-4.04-6.88-8.89-18.75-17.85-25.99-27l-12.52-8.97c.17,2.3,1.9,3.53,2.55,5.94,2.78,10.22.39,32.63.4,44.6,0,4.37,1.66,8.83-.14,13.77-.74,1.98-8.03,4.33-10.73,6.28-4.03,2.91-6.83,7.7-11.07,10.41l1.03-38.55-4.03-55.45c2.38,1.34,3.16,5.38,5.68,6.8,3.37,1.91,10.39,2,14.31,4.18ZM259.31,404.68c-41.91-16.24-73.12-50.47-108.01-77.5l-40.49-38.5c-38.15,41.35-85.2,127.53-3.72,151.7,24.25,7.19,51.23,7.68,75.22-.74l-15.99-82.97,24.51,13.98c.84,5.03.82,10.35,1.62,15.38,1.05,6.51,7.67,45.15,12.51,46.55,20.25-5.53,40.39-11.17,54.34-27.89ZM454.22,288.73c-1.1-.77-3.92,1.64-4.93,2.42-6.88,5.31-14.27,14.78-20.97,21.03-27.5,25.66-58.03,52.85-89.29,73.71-11.25,7.51-23.45,13.75-34.71,21.27,16.58,12.43,36.77,19.52,56.96,23.49l13.6-56.91,24.41-21.07-15.99,88c11.9.77,23.6,4.34,35.51,4.99,24.45,1.32,58.19-7.08,73.91-27.07,21.72-27.62-2.88-77.68-19.78-103.05-6.03-9.05-14.1-16.88-18.72-26.81ZM286.17,418.76c-2.26-1.62-30.43,15.85-35.19,18.08-12.03,5.64-25.8,9.26-38.56,12.94-1.28,1.82,3.71,17.38,4.87,20.41,3.6,9.46,20.42,38.42,28.09,43.91,9.87,7.06,39.16,6.66,51.42,5.55,4.39-.4,18.15-1.95,21.46-3.54,4.39-2.11,17.15-22.89,19.88-28.12,3-5.76,14.19-29.09,14.99-34.07.14-.88.42-1.71.11-2.61l-.91-1.15c-17.54-6.85-36.6-13.06-53.37-21.63-4.43-2.26-10.96-5.02-12.78-9.77Z"/>
      <path d="M23.3,382.66l-11.01-26.47c-15.07-43.07-15.83-96.63-4.69-140.74,3.61-14.28,9.35-29.82,17.7-41.78l10.79,28.33c-17.63,39.62-17.52,92.79-7.29,134.68.89,3.63,5.27,13.85,5.3,15.67.02,1.17-3.71,6.75-4.55,9.06-2.48,6.87-4.38,14.19-6.25,21.25Z"/>
      <path d="M540.3,172.67c4.29,11.57,9.46,22.82,12.72,34.79,13.79,50.57,13.78,119.54-10.69,166.73-.48.93-.55,2.38-2.01,2.48-.94-9.36-6.38-15.64-11.76-22.66,15.58-47.73,16.89-103.72-1.31-150.84,4.77-8.36,6.41-20.73,10.3-28.76.66-1.36,1.08-2.05,2.75-1.74Z"/>
      <path d="M462.31,66.66l-39.29-1.2c-20.2-13.87-42.96-24.66-67.05-29.71-2.54-4.84-5.06-9.69-7.84-14.41-2-3.4-6.26-5.23-4.73-10.59,2.58-3.04,20.56,2.4,24.67,3.65,33.49,10.14,68.04,29.41,94.24,52.25Z"/>
      <path d="M118.81,474.67c.51,0,2.02-1.09,3.94-1.08,5.85.04,20.71,11.72,26.89,15.25,18.29,10.42,37.27,20.05,56.61,28.39,3.27,3.5,4.97,8.4,7.63,12.37,1.98,2.96,7.69,5.64,5.92,10.08-19.62-2.24-39.63-10.87-57.16-19.84-22.09-11.31-46.2-25.81-63.84-43.17l1.01-2c6.33-.07,12.67.09,19,0Z"/>
      <path d="M464.81,474.67c.46-.02,1.73-2.57,1.49.49-33.92,31.4-77,54.35-121.98,65.51-1.76-2.32,8.57-13.26,10.18-16.31.99-1.87.88-5.19,2.06-6.46,1.71-1.83,36.18-17.58,42.43-21.07,8.24-4.59,33.57-22.17,40.83-22.17,8.27,0,16.77.38,25,0Z"/>
      <path d="M222.3,8.68c-1,9.84-7.01,17.98-13.06,25.43-16.77,4.18-34.29,10.39-49.62,18.38-3.76,1.96-17.22,11.56-19.08,12-2.65.64-8.42-1.98-12.7-1.83-9.1.31-17.47,5.04-26.53,5.01-1.13-.95,2.75-4.32,3.52-4.97,11.44-9.81,27.64-20.1,41.12-26.88,24.11-12.14,50.11-20.94,76.36-27.13Z"/>
      <path d="M496.3,134.66c-2.22,2.26-18.57-16.47-19.99-18.98,3.97,1.66,8.76,4.71,12.01,7.48s7.67,6.87,7.98,11.51Z"/>
      <path d="M275.08,229.95c44.44-5,69.95,40.71,42.2,76.2-17.24,22.05-51.6,23.87-69.39,1.44-22.18-27.96-10.79-73.36,27.19-77.64Z"/>
      <path d="M185.31,314.67l-19.8-16.7c-.91-12.26-1.71-24.52-1.25-36.84.19-5.24.45-14.06,1.14-18.86,1.16-8.01,14.08-10.7,19.9-15.6v88Z"/>
      <polygon points="271.31 26.67 284.81 24.61 295.31 26.67 271.31 26.67"/>
    </g>
  </g>
</svg>