<?xml version="1.0" encoding="UTF-8"?>
<svg id="b" data-name="Layer 2" xmlns="http://www.w3.org/2000/svg" viewBox="0 0 730.08 727.15">
  <defs>
    <style>
      .d {
        fill: #fff;
      }
    </style>
  </defs>
  <g id="c" data-name="Layer 1">
    <g>
      <circle class="d" cx="371.08" cy="359.34" r="337"/>
      <path d="M353.69.34l20.81-.34c214.75,5.23,369.69,182.81,354.56,395.77-12.5,175.92-152.59,312.32-326.52,329.53C178.39,747.48-14.04,567.63.81,341.62,13.34,150.74,162.67,7.18,353.69.34ZM612.12,129.03C468.45-24.41,205.82-4,86.25,168.25,10.98,276.66,2.98,423.92,71.6,537.63c131.41,217.77,457.07,221.12,587.06.39,77.71-131.96,57.41-298-46.53-409Z"/>
      <circle cx="378.58" cy="371.84" r="192.5"/>
      <circle cx="185.58" cy="368.84" r="64.5"/>
      <circle cx="577.58" cy="369.84" r="64.5"/>
      <path class="d" d="M194.25,416.42c-14.47-2.32-32-5.87-40.39-19.05-7.46-11.71-8.18-28.56-4.9-41.73,5.42-21.74,24.34-30.68,45.29-32.13v92.91ZM315.93,359.77c-12.07,31.01-55.74,18.16-51.63-16.67,1.14-9.68,10.93-20.7,20.61-22.35,22.16-3.78,38.94,18.69,31.03,39.02ZM442.51,432.42c-5.4,5.03-7.86,12.33-12.83,17.65-12.95,13.87-40.58,19.8-58.65,15.9-14.86-3.21-37.53-19.31-43.12-33.8-2.37-6.14,1.16-10.83,5.19-15.23,12.76-13.93,15.6,4,23,12.01,12.77,13.8,40.4,13.29,55.28,3.33,7.47-5,7.63-14.41,11.08-16.89,8.17-5.88,23.45,9.74,20.05,17.04ZM443.57,365.41c-17.37-30.01,15.71-60.72,39.05-38.55.9.86,3.48,4.18,4.19,5.3,20.84,33.14-26.34,62.44-43.24,33.24ZM559.9,415.41l.51-93.92c23.5,5.74,44.88,14.14,47.42,41.49,3.07,33.03-18.2,47.5-47.93,52.43Z"/>
      <path class="d" d="M194.25,323.51v92.91c-14.47-2.32-32-5.87-40.39-19.05-7.46-11.71-8.18-28.56-4.9-41.73,5.42-21.74,24.34-30.68,45.29-32.13Z"/>
      <path class="d" d="M559.9,415.41l.51-93.92c23.5,5.74,44.88,14.14,47.42,41.49,3.07,33.03-18.2,47.5-47.93,52.43Z"/>
      <path class="d" d="M482.62,326.86c.9.86,3.48,4.18,4.19,5.3,20.84,33.14-26.34,62.44-43.24,33.24-17.37-30.01,15.71-60.72,39.05-38.55Z"/>
      <path class="d" d="M284.9,320.75c22.16-3.78,38.94,18.69,31.03,39.02-12.07,31.01-55.74,18.16-51.63-16.67,1.14-9.68,10.93-20.7,20.61-22.35Z"/>
      <path d="M360.76,211.8c1.16,10.32,10.39,17.83,20.74,16.93,19.85-1.72,45.6-7.55,40.58-26.39-8-30-39-37-24-71,8.7-19.71,5.63-39.35,1.52-52.38-1.56-4.93-8.49-4.99-10.1-.08-2.58,7.87-6.98,18.17-14.41,29.46-16.32,24.8-41.8,50.19-25.4,74.09,7.28,10.61,10.15,21.04,11.08,29.37Z"/>
    </g>
  </g>
</svg>