<?xml version="1.0" encoding="UTF-8"?>
<svg id="b" data-name="Layer 2" xmlns="http://www.w3.org/2000/svg" viewBox="0 0 986.17 1018.03">
  <defs>
    <style>
      .d {
        fill: #fff;
      }
    </style>
  </defs>
  <g id="c" data-name="Layer 1">
    <g>
      <circle class="d" cx="491" cy="491" r="491"/>
      <path d="M479.69,40l28.01-.45c288.98,7.03,497.47,245.99,477.1,532.56-16.82,236.72-205.33,420.26-439.37,443.43C243.8,1045.39-15.13,803.37,4.84,499.24,21.7,242.38,222.65,49.21,479.69,40ZM827.44,213.17C634.11,6.71,280.72,34.16,119.81,265.95,18.53,411.83,7.77,609.99,100.1,763.01c176.83,293.04,615.05,297.55,789.96.53,104.57-177.57,77.25-401-62.62-550.37Z"/>
      <path d="M613,564c-51.5-7.32-98.76-52.14-109.51-102.99-24.98-118.18,107.8-208.55,207.82-138.82,92.56,64.53,70.14,202.49-35.8,237.83-3.74,1.25-13.61,2.79-15.86,4.14-1.03.61-1.66.98-1.67,2.33v57.52s59.55-1.04,59.55-1.04c3.38.29,8.23,1.13,10.48,3.8s2.83,12.66,3.03,16.69c.46,9.35,1.87,24.58-10.6,26.47-4.23.64-7.19-.9-10.9-.97-16.83-.34-33.72.34-50.54.04v62.5c0,1.96-4.71,7.14-6.98,8.02-6.28,2.44-28.08,2.72-33.54-1.49-1.59-1.22-5.48-7.96-5.48-9.52v-58c0-.23,1.9-1.33.5-1.5l-61.78.8c-12.5-4.82-9.02-17.03-8.68-27.25.4-11.91-3.85-18.41,12.42-19.59,18.74-1.36,38.61,2.51,57.54,1.04v-60ZM621.78,334.28c-59.82,6.74-101.79,74.57-79.8,131.25,30.62,78.92,137.01,88.05,179.19,14.15,40.46-70.88-20.49-154.29-99.39-145.39Z"/>
      <path d="M354.98,508.99c6.36-13.03,25.99-25.05,40.52-25.05,17.02,0,40.66,14.7,45.8,31.26,13.54,43.65-30.29,82.81-62.39,104.21-3.74,2.49-23.51,14.88-26.35,14.6-1.76-.17-21.83-13.05-24.89-15.18-25.91-18.02-57.58-43.58-62.53-76.47-7.18-47.62,40.68-76.25,77.34-45.34,3.85,3.25,6.9,8.27,10,11,.87.76,1.11,1.29,2.51.97ZM282,549v14l42.83.83,9.66-26.82c2.63,4.24,4,9.96,5.21,14.79,3.12,12.42,4.6,34.25,9.23,44.77,2.86,6.48,12.76,7.03,15.57.45l13.97-49.03c1.11-1.59,1.7-.63,2.34.71,2.1,4.41,1.28,11.41,5.69,15.31h35.5c.56-2.91,2.32-13.99.06-15.56l-30.1.11c-3.67-4.38-5.75-27.04-9.62-28.38-2.4-.83-6.45-.5-8.39,1.28-5.17,4.73-12.19,41.14-15.67,50.33-.48,1.27-.59,2.94-2.27,3.22l-13.25-60.76c-1.86-1.86-12.47-2.5-13.63,1.4l-11.16,33.35c-12.02-2.24-23.86.93-35.98.01Z"/>
      <path d="M458,514.5c-.05-.72-1.6-2-.99-3.5,2.82,2.47,6.72,6.56,8.82,9.67,12.2,18.05,12.44,65.99,11.21,87.87-1.76,31.37-12.28,45.43-32.53,67.47-9.44,10.28-30.71,33.53-41.02,40.97-6.52,4.7-4.91-1.61-8.11-2.74-3.56-1.25-8.84.81-9.43,5.2-1.65,12.16,2.52,13.69-8.43,23.57-14.73,13.31-45.02,15.48-57.52-1.53-5.67-7.71-5.97-13.54-2.19-22.19,5.16-11.82,31.55-30.06,42.21-39.79,22.06-20.13,42.85-41.91,64.42-62.58,3.84-4.68,2.12-11.63,4.12-16.88,1.23-3.21,7.36-8.88,9.68-12.32,6.9-10.24,19.77-34.17,19.77-46.23,0-8.69.62-18.49,0-27Z"/>
      <path d="M337.99,675.98c-15.59,9.98-28.08,23.28-34.9,40.64-.41,1.04.53,1.71-1.59,1.38-14.22-16.39-31.32-29.98-46.03-45.98-12.38-13.47-22.28-24.95-26.61-43.39-4.69-19.94-4.62-66.87.64-86.62,3.65-13.71,11.08-23.23,20.99-33.01.55,4.17-1.3,8.31-1.54,12.46-1.01,17.03,2.02,36.16,9.5,51.58,3.83,7.9,14.25,18.65,16.6,25.4,1.82,5.24.89,12.73,2.7,17.3s21.71,23.56,26.72,28.28c8.77,8.26,26.24,20.28,32.55,29.45.58.84,1.37,1.04.97,2.5Z"/>
      <path d="M418,376.5l-2.07,1.12c-15.8-2.86-31.55-4.14-44.85-14.21-3.5-2.65-14.8-16.08-17.59-16.08-7.42,5.39-12.42,12.93-20.59,18.08-13.62,8.58-29.12,8.24-44.34,11.63-3.41-.3.08-23.25.72-26.25,9.79-45.8,65.15-69.38,103.18-38.78,10.86,8.74,25.52,31.36,25.52,45.48v19ZM358.01,310.99h-10.01s1,9,1,9l-9-1,1.14,9.86,7.86-.86v7s10.01,0,10.01,0v-6c.38-.45,6.65,2.99,7.85-.65l.15-9.36-9,1v-9Z"/>
      <path d="M355.87,367.14c.17.1,1,2.44,2.06,3.41,14.65,13.6,32.06,19.64,52.07,19.94-5.9,14.1-11.29,25.69-23.52,35.48-36.45,29.21-80.45,3.49-90.47-36.97,15.26.51,33.23-2.71,45.91-11.59,2.67-1.87,11.6-11.65,13.96-10.28Z"/>
      <path d="M378.84,450.14c.35.21.74,2.16,1.59,2.9,10.13,8.83,30.47,7.6,39.58,19.95-22.75-6.21-49.81-2.36-65.59,16.08-2.06.34-13.84-9.69-17.39-11.59-16.65-8.9-35.05-8.58-53.02-4.49,2.51-4.1,6.65-6.54,10.79-8.7,5.9-3.07,33.03-12.46,38.66-12.32,8.84.23,16.96,2.86,27.09,2.06,3.36-.27,17.49-4.37,18.3-3.9Z"/>
      <path d="M429.01,373c20.66,7.1,26.25,32.3,28.87,51.62.57,4.23,2.31,13.4,2.21,16.88-.04,1.45-.09,2.81-1.73,3.37-2.39.81-18.06-2.28-21.56-3.17-6.59-1.68-27.37-10.06-29.27-16.7,1.46-4.78,6.37-8.23,9.31-12.68,7.12-10.8,12.75-26.31,12.18-39.32Z"/>
      <path d="M274.99,374c1.79,12.62,5.64,27.15,12.59,37.92,2.88,4.47,7.2,7.49,9.31,12.44-5.87,6.7-14.33,11.38-22.63,14.4-4.46,1.63-24.66,7.55-27.67,5.34-.8-24.55.42-61.07,28.4-70.11Z"/>
      <path d="M369.99,645.02c.14,1.7-.24,3.33-1.3,4.69-.83,1.06-18.93,14.23-20.16,14.27-1.59.05-2.86-1.06-3.95-2.07-1.85-1.73-16.23-19.17-16.59-20.43-.08-.27,3.5-.97,2.01-4.49,1.08-1.93,19.63,8.58,22.58,8.97,3.34.45,16.1-2.8,17.41-.94Z"/>
      <path class="d" d="M282,549c12.13.91,23.96-2.25,35.98-.01l11.16-33.35c1.15-3.9,11.77-3.26,13.63-1.4l13.25,60.76c1.68-.28,1.79-1.95,2.27-3.22,3.48-9.19,10.49-45.6,15.67-50.33,1.95-1.78,5.99-2.11,8.39-1.28,3.87,1.34,5.95,24,9.62,28.38l30.1-.11c2.26,1.57.5,12.65-.06,15.56h-35.5c-4.41-3.9-3.59-10.9-5.69-15.31-.64-1.34-1.22-2.3-2.34-.71l-13.97,49.03c-2.81,6.58-12.71,6.03-15.57-.45-4.63-10.51-6.11-32.34-9.23-44.77-1.21-4.83-2.58-10.54-5.21-14.79l-9.66,26.82-42.83-.83v-14Z"/>
      <path class="d" d="M358.01,310.99v9s9-1,9-1l-.15,9.36c-1.2,3.64-7.47.2-7.85.65v6s-10.01,0-10.01,0v-7s-7.86.86-7.86.86l-1.14-9.86,9,1-1-8.99h10.01Z"/>
      <path d="M635.99,393c3.96-9.81,16.88-18.9,27.52-19.99,33.64-3.44,51.53,31.75,38.67,60.67-6.82,15.34-28.55,34.51-41.71,45.29-4.4,3.6-22.18,18.18-26.81,17.8-9.93-4.76-18.4-12.11-26.68-19.26-12.17-10.52-34.67-31.19-40.02-45.98-17.63-48.68,40.97-83,69.03-38.54Z"/>
    </g>
  </g>
</svg>