<?xml version="1.0" encoding="UTF-8"?>
<svg id="b" data-name="Layer 2" xmlns="http://www.w3.org/2000/svg" viewBox="0 0 1004.25 988.45">
  <defs>
    <style>
      .d {
        fill: #fff;
      }
    </style>
  </defs>
  <g id="c" data-name="Layer 1">
    <g>
      <circle class="d" cx="513.25" cy="497.45" r="491"/>
      <path d="M475.94.45l28.01-.45c288.98,7.03,497.47,245.99,477.1,532.56-16.82,236.72-205.33,420.26-439.37,443.43C240.04,1005.84-18.89,763.82,1.08,459.69,17.95,202.84,218.9,9.66,475.94.45ZM823.69,173.62C630.36-32.84,276.96-5.38,116.05,226.4,14.78,372.29,4.01,570.44,96.35,723.46c176.83,293.04,615.05,297.55,789.96.53,104.57-177.57,77.25-401-62.62-550.37Z"/>
      <path d="M727.83,368.89c79.91-3.98,143.06,38.72,179.55,107.58,37.27,70.31,18.63,152.71-32.98,209.83-83.18,92.07-239.4,68.85-299.74-36.96-69.77-122.34,13.47-273.5,153.16-280.45ZM784.98,509.46v-76.43c0-4.04-8.24-10-12.47-10.51-13.4-1.61-48.27-1.35-61.95.03-7.53.76-15.54,5.33-16.52,13.45-1.89,15.65-.58,43.45-.02,60.01.14,3.97,1.84,8.18,1.04,12.45-9.89-.22-19.53-.87-29.47-.99-13.6-.17-29.33-1.11-43-.05-8.8.68-15.36,3.97-16.45,13.52-1.81,15.84-1.26,49.62-.04,65.98.74,9.96,4.66,14.27,14.65,15.32l74.31-.88c1.9,21.86-3.14,45.9-.99,67.43.71,7.13,3.79,12.6,11.45,13.52,16.37,1.97,41.67.1,59-.07,2.05-.02,3.93,1.01,5.86.96,2.99-.09,14.58-4.36,14.58-7.41v-73.43c1.83-.46,3.52-.9,5.45-1.05,21.69-1.71,50.47,3.14,70.91-.02,6.26-.97,10.03-6.43,10.6-12.37,2.08-21.42-1.65-46.19-.05-67.98-.64-7.15-6.66-12.3-13.46-13.51l-73.45,2.02Z"/>
      <path d="M209.52,409.56c4.69,13.21,14.18,25.67,22.18,37.28,20.61,29.93,43.36,61.16,76.07,78.78,6.62,3.56,47.98,19.4,49.17,21.82l-1.54,102.9c-4.48-.11-9,.15-13.48-.02-61.17-2.22-121.71-10.01-181.34-23.46-20.87-4.71-42.65-8.91-61.72-18.7-2.85-4.92,7.02-53.2,9.27-61.74,14.76-55.93,49.7-109.45,101.39-136.86Z"/>
      <path d="M538.21,775.19c-6.77,1.38-10.86,8.74-14.17,14.31-1.66,2.8-2.1,8.24-5.34,8.72-10.12,1.49-49.66-22.81-59.33-29.6-34.68-24.37-80.03-71.39-83.99-115.82-2.73-30.62-.26-70.53.03-101.84.04-4.32.78-19.07-.17-21.89-.27-.81-.69-1.28-1.55-1.44-79.68-12.45-126.68-88.35-162.33-153.36-12.02-21.92-37.24-66.47-38.78-90.1-2.28-35.12,21.04-64.8,57.87-59.45,5.44-11.63,10.83-19.15,25.08-16.51,23.38,4.33,25.86,39.39,2.94,47.99-12.65,4.74-20.51-.33-25.87-11.85l-2.07-.63c-.45,5.86-9.32,6.92-13.89,9.6-26.46,15.52-10.68,42.8-.28,63,17.39,33.78,37.84,70.27,59.3,101.54,15.91,23.2,38.54,53.13,63.73,66.14,127.06,65.61,189.28-109.19,238.97-191.65,10-25.22-.9-39.19-25.51-45.47-4.76,4.48-8.14,9.75-15.22,10.74-18.89,2.64-30.04-12.76-28.43-30.42.63-6.89,5.53-18.99,12.78-21.19,17.5-5.33,26.6,6.18,32.72,20.71,11.66-6.82,31.84-.12,41.47,8.5,34.63,31,7.7,74.25-8.52,105.39-36.56,70.21-86.43,170.26-171.92,186.73-1.92.37-6.75-.68-7.14,1.56.52,1.62.95,3.3.85,5.04-1.97,33.95-3.33,77.07-1.09,110.89,3.43,51.79,61.14,94.63,103.53,116.25,1.82.93,28.48,11.29,26.33,14.12Z"/>
      <path d="M493.26,215.76c-8.73,18.96-2.44,39.5,15.29,50.13,3.34,2,7.17,2.96,10.42,4.59.69.35,1.94.09,1.25,1.7-.78,1.84-8.09,8.04-9.84,11.15-5.33,9.46-8,21.32-14.71,32.25-56.78,92.53-163.96,87.28-214.38-7.24-6.71-12.58-8.15-26.52-19.8-36.14,26.42-6.42,39.24-32.4,27.97-57.43,11.47-1.21,22.99-2.92,34.47-4,55.97-5.25,114.01-4.88,169.33,5Z"/>
      <path d="M530.18,191.73c-7.53-1.5-12.57,5.7-16.97,7.49-4.09,1.66-32.19-5.39-39.55-6.32-51.14-6.45-119.76-6.91-170.54,1.04-6.67,1.04-28.21,7.09-32.6,5.29-1.33-.55-3.7-3.25-5.71-4.27-4.68-2.37-10.11-2.9-15.3-2.18l.45-89.96c4.01-22.02,36.42-29.15,55.07-33.85,55.95-14.1,131.89-13.76,187.01,3.66,15.33,4.84,33.87,10.42,37.74,28.19l.41,90.91ZM407.34,81.88h-29.97v31.97l-29.51-.05c-1.91,3.11.39,12.68.44,16.42.05,4.05-3.01,10.86.6,14.59h28.47v27.97h29.97v-27.97h26.47l1.5-1.5v-28.97c-3.04-3.31-7.7-.58-11.45-.46-5.82.19-11.71-.21-17.52-.05-.49-.36,1-1.27,1-1.49v-30.47Z"/>
      <path d="M586.16,419.53c-1.19.07-2.18.65-3.01,1.46-17.81,17.34-32.02,44.01-40.69,67.24-17.36,46.53-14.88,97.78,1.74,144.1-38.49,6.36-76.76,15.36-115.89,16.99-.28-34.66,1.14-69.39-2-103.91,12.59.43,25.74-7.02,36.85-12.6,34.06-17.12,54.71-40.75,76.46-71.4,11.86-16.71,23.15-34.97,33.08-52.87.74-.16,11.28,7.42,12.4,8.56.81.82,1.44.88,1.06,2.41Z"/>
      <path d="M593.96,763.51c57.5-4.47,102.76,58.33,72.55,110.51-30.84,53.27-102.43,52.29-133.46-.25-28.46-48.19,7.54-106.11,60.91-110.26ZM566.54,808.52c-20.73,21.18-13.84,58.88,13.65,70.06,37.58,15.29,73.24-15.16,60.2-54.21-9.88-29.58-52.87-37.29-73.86-15.85Z"/>
      <path d="M420.19,401.71c3.02,12.71-.92,26.11-5.09,38.08-1.17,3.34-4.19,7.03-4.7,10.29-1.38,8.78.89,19.63,1.93,28.41l-40.96,1.01c-.93-.95,2.55-22.1,2.02-26.51s-4.64-10.21-6.05-14.92c-1.35-4.52-4.31-33.01-2.53-35.56l55.37-.79Z"/>
      <path d="M298.44,354.61c6.07,20.31,17.6,38.51,25.13,58.3l27.82,54.59c-4.61-3.15-11.46-4.72-15.93-7.53-14.17-8.89-32.87-35.02-42.81-49.1-8.47-11.99-16.2-24.44-24.11-36.8l29.9-19.46Z"/>
      <path d="M432.33,467.5l52.43-113.88,29.47,19.47c-10.73,11.61-17.46,26.44-26.55,39.37-10.83,15.4-31.83,43.16-48.03,51.87-2.33,1.25-5.04,1.74-7.31,3.17Z"/>
      <path class="d" d="M784.98,509.46l73.45-2.02c6.8,1.21,12.82,6.36,13.46,13.51-1.6,21.79,2.13,46.56.05,67.98-.58,5.94-4.35,11.41-10.6,12.37-20.44,3.16-49.22-1.69-70.91.02-1.92.15-3.62.59-5.45,1.05v73.43c0,3.04-11.59,7.32-14.58,7.41-1.93.06-3.82-.98-5.86-.96-17.33.17-42.64,2.04-59,.07-7.66-.92-10.74-6.4-11.45-13.52-2.15-21.53,2.89-45.57.99-67.43l-74.31.88c-9.99-1.05-13.91-5.36-14.65-15.32-1.22-16.36-1.77-50.13.04-65.98,1.09-9.55,7.65-12.84,16.45-13.52,13.67-1.06,29.41-.12,43,.05,9.93.12,19.58.78,29.47.99.8-4.27-.91-8.48-1.04-12.45-.56-16.56-1.87-44.35.02-60.01.98-8.12,8.99-12.69,16.52-13.45,13.68-1.39,48.55-1.65,61.95-.03,4.22.51,12.47,6.47,12.47,10.51v76.43Z"/>
      <path class="d" d="M407.34,81.88v30.47c0,.21-1.49,1.13-1,1.49,5.82-.16,11.7.24,17.52.05,3.75-.12,8.41-2.85,11.45.46v28.97l-1.5,1.5h-26.47v27.97h-29.97v-27.97h-28.47c-3.61-3.73-.55-10.55-.6-14.59-.05-3.74-2.35-13.32-.44-16.42l29.51.05v-31.97h29.97Z"/>
      <path class="d" d="M566.54,808.52c20.99-21.44,63.98-13.73,73.86,15.85,13.04,39.05-22.63,69.5-60.2,54.21-27.49-11.19-34.39-48.88-13.65-70.06ZM596.89,825.31c-4.93.88-10.43,8.88-9.68,14.25,2.15,15.43,26.63,12.66,25.68-2.66-.41-6.65-9.85-12.68-16-11.58Z"/>
      <path d="M596.89,825.31c6.15-1.09,15.59,4.93,16,11.58.95,15.32-23.53,18.09-25.68,2.66-.75-5.37,4.75-13.37,9.68-14.25Z"/>
    </g>
  </g>
</svg>