<?xml version="1.0" encoding="UTF-8"?>
<svg id="b" data-name="Layer 2" xmlns="http://www.w3.org/2000/svg" viewBox="0 0 1095.85 1091.12">
  <defs>
    <style>
      .d {
        fill: #fff;
      }
    </style>
  </defs>
  <g id="c" data-name="Layer 1">
    <g>
      <g>
        <circle class="d" cx="544.39" cy="544.39" r="544.39"/>
        <path d="M485.28,712.85c-6.29-.83-16.58-7.61-25.44-7.03-10.15-67.73-50.21-86.34-116.1-75.38-45.76,7.61-45.37,76.46-54.2,83-28.71,21.26-58.83-13.32-61.67-44.64-7.01-77.42,3.01-159.57,6.44-236.47,2.57-57.64-22.92-155.92,55.63-163.07,88.45-8.05,247.7-6.36,337.4.05,14.54,1.04,28.71,4.63,42.89,7.32,31.08,74.08,1.05,146.79,7.16,223.44h150.73c1.66,0,4.57,8.19,8.87,3.11,8.12-5.88,5.42-7.59,3.34-15.18-3.82-13.96-52.04-94.38-62.23-103.41-19.62-17.39-57.56-5.23-83-8.62l.85-34.66c29.27-8.33,86.95-16.09,108.23,5.38,41.91,42.28,74.95,130.04,120.03,175.52,3.45,38.89.66,78.04,1.17,117.01.72,54.32,23.38,81.72-58.86,73.68,5.04-90.56-73.96-132.92-151.95-89.94-41.23,22.72-49.01,42.69-43.08,89.91-58.36-5.51-129.5,7.44-186.19,0ZM482.36,328.61l-64.99-5.88-6.2,88.5c-26.98,8.59-50.97-41.43-67.74-41.42-17.32,6.28-52.82,41.45-41.62,59.26,7.75,12.32,72.6,32.44,62.27,47.23l-70.84,44.36,50.19,56.12c15.99-28.5,40.71-41.75,73.86-41.27l-5.88,70.89,70.89,5.95.07-76.79,79.63,47.3,44.34-62.11-76.68-47.36c-2.33-11.78,2.53-7.21,7.49-10.08,12.99-7.52,66.88-32.12,68.84-43.8l-42.88-60.74c-14.62,5.87-60.69,56.34-74.81,46.7l-5.94-76.85Z"/>
        <path d="M720.76,752.23c-64.33-67.5,44.73-152.36,101.71-92.84,69.93,73.05-44.17,153.22-101.71,92.84ZM770.32,678.25c-39.36,10.81-16.69,68.43,19.8,37.97,23.41-19.54,4.22-44.57-19.8-37.97Z"/>
        <path d="M318.74,752.34c-44.69-52.76,32.05-128.11,92.42-89.5,71.62,45.81-30.4,162.71-92.42,89.5ZM399.59,695.18c-50.65-20.71-45.01,36.24-15.86,28.81l15.86-28.81Z"/>
        <path d="M652.93,222.99c.68.44,5.7,13.29,5.77,15.13.91,23.89-39.68,6.75-49.72-3.69l-14.29,11.44,2.97-23.7c14.48,12.18,44.86-5.85,55.27.83Z"/>
        <path class="d" d="M482.36,328.61l5.94,76.85c14.13,9.65,60.19-40.83,74.81-46.7l42.88,60.74c-1.96,11.68-55.86,36.28-68.84,43.8-4.96,2.87-9.82-1.69-7.49,10.08l76.68,47.36-44.34,62.11-79.63-47.3-.07,76.79-70.89-5.95,5.88-70.89c-33.15-.48-57.86,12.78-73.86,41.27l-50.19-56.12,70.84-44.36c10.32-14.79-54.52-34.92-62.27-47.23-11.21-17.81,24.3-52.98,41.62-59.26,16.78,0,40.77,50.01,67.74,41.42l6.2-88.5,64.99,5.88Z"/>
        <path class="d" d="M770.32,678.25c24.02-6.6,43.21,18.43,19.8,37.97-36.49,30.47-59.16-27.15-19.8-37.97Z"/>
        <path class="d" d="M399.59,695.18l-15.86,28.81c-29.15,7.43-34.79-49.53,15.86-28.81Z"/>
      </g>
      <path d="M531.38,1.11l31.21-.5c322.06,7.84,554.43,274.16,531.73,593.53-18.75,263.82-228.84,468.38-489.68,494.2C268.47,1121.62-20.11,851.89,2.15,512.94,20.95,226.67,244.9,11.38,531.38,1.11ZM918.95,194.11C703.48-35.99,309.62-5.39,130.29,252.94,17.41,415.52,5.41,636.37,108.32,806.9c197.08,326.59,685.47,331.62,880.41.59,116.55-197.9,86.1-446.91-69.79-613.38Z"/>
    </g>
  </g>
</svg>