<?xml version="1.0" encoding="UTF-8"?>
<svg id="b" data-name="Layer 2" xmlns="http://www.w3.org/2000/svg" viewBox="0 0 1011.17 983.45">
  <defs>
    <style>
      .d {
        fill: #fff;
      }
    </style>
  </defs>
  <g id="c" data-name="Layer 1">
    <g>
      <circle class="d" cx="491" cy="492.45" r="491"/>
      <path d="M504.69.45l28.01-.45c288.98,7.03,497.47,245.99,477.1,532.56-16.82,236.72-205.33,420.26-439.37,443.43C268.8,1005.84,9.87,763.82,29.84,459.69,46.7,202.84,247.65,9.66,504.69.45ZM852.44,173.62C659.11-32.84,305.72-5.38,144.81,226.4c-101.27,145.88-112.04,344.04-19.71,497.06,176.83,293.04,615.05,297.55,789.96.53,104.57-177.57,77.25-401-62.62-550.37Z"/>
      <path d="M396.99,354.45c-17.17,4.28-35.5,1.65-52.73,6.26-10.34,17.97-18.24,38.15-28.46,56.05-8.67,15.18-16.08,29.06-35.27,30.73-26.77,2.33-48.48-11.53-45.41-40.41,1.48-13.99,36.33-80.49,45.46-95.54,10.74-17.7,22.42-26.65,43.05-29.95,32.39-5.18,65.47-6.82,97.86-12.2,16.07,6.52,22.89,14.37,41.94,11.99,4.35-.54,10.18-4.5,13.85-3.75,4.51.92,18.37,14.3,21.76,18.31,14.33,16.95,16.36,35.57,16.02,57.07-.66,40.82-3.25,83.11-1.09,124.01.24,4.48,1.27,8.99,1.5,13.5,19.79,9.7,39.2,20.6,58.22,31.78,15,8.82,49.4,27.46,59.31,39.69,16.71,20.64,11.15,47.71,10.97,71.93-.28,38.65-.42,77.44,0,116.09.15,13.71,3.18,22.49-2.48,36.44-18.74,46.2-87.59,38.05-91.52-14.44l.61-149.54c-18.26-12.16-37.17-23.23-56.55-33.52-38.71-20.56-88.11-33.71-95.74-84.26-2.72-49.95-.61-100.17-1.29-150.22Z"/>
      <path d="M465.95,606.39c-.85.16-1.77.45-2.34,1.12-11.53,13.52-24.32,26.34-36.26,39.29-41.41,44.9-82.12,91.01-124.83,134.67-9.68,9.9-20.83,22.79-35.27,24.73-47.12,6.31-73.49-46.47-43.75-81.75,24.03-28.51,52.91-55.93,78.03-83.97,23.13-25.83,51.39-55.77,71.9-83.1,4.56-6.08,10.41-14.2,10.6-21.91l11.76,21.73c13.88,20.74,34.35,25.44,54.54,36.46,2.36,1.29,17.38,10.25,15.64,12.75Z"/>
      <path d="M456.78,121.73c55.57-5.94,96.73,55.17,68.03,104.03-26.72,45.49-95.3,45.96-122.61,1-27.07-44.57,4.17-99.64,54.58-105.03Z"/>
      <path d="M829.79,184.75c9.47-.25,15.06.12,21.03,8.38,5.34,7.37,5.56,27.57,3.73,36.38-1.2,5.78-7.23,14.48-13.29,15.71-8.38,1.71-24.37.02-33.81.19-51.74.94-104.03-1.04-156,0-3.66.07-6.82,1.55-10.98,1.06-6.37-.74-14.17-9.45-15.24-15.76-1.17-6.88-1.9-24.04.04-30.48,4-13.25,12.93-15.18,25.26-14.82,59.74,1.76,119.51.93,179.25-.66Z"/>
      <path d="M654.65,350.1c-16.52,15.32-35.41,33.89-52.64,47.86-21.34,17.31-49.18,15.11-65.81-7.22-.74-33.35,4.02-65.77-6.2-98.29l40.49,32.96,44.49-43.48c20.24-21.63,61.16-16.5,68.56,14.47,6.29,26.3-12.19,38.2-28.9,53.7Z"/>
      <path d="M641.76,419.71l195.5-.02c6.81,1.62,13.08,5.54,15.93,12.07s2.88,27.74,0,34.37c-7.18,16.55-26.88,10.47-40.65,10.27-52.18-.75-106.48,2.75-158,0-5.06-.27-10.91.69-15.8-.2-3.98-.72-10.6-7.09-12.24-10.76s-2.9-20.82-2.48-25.5c.95-10.66,7.15-18.21,17.75-20.24Z"/>
      <path d="M760,254.45v151h-38c.55-1.28-1-2.96-1-3.5v-147.5h39Z"/>
      <path d="M690.8,483.75c16.21-1.49,32.63.62,48.66.74,20.53.15,41.1-.56,61.61.39,9.06,1.92,7.55,15.69,6.97,23.1-.89,11.24-7.42,20.84-19.58,21.48-3.58.19-6.45-1.04-9.91-1.06-29.86-.25-59.78.01-89.6.6-14.78-5.08-16.63-20.2-14.97-34.08,1.16-9.66,8.83-10.44,16.82-11.18Z"/>
      <path d="M687.73,135.68c5.95-1.21,11.19.74,16.73.82,29.27.44,58.57-.26,87.81-.81,15.23,3.63,21.79,25.08,12.73,37.25-6.68,8.98-15.54,4.62-24.45,4.47-32.59-.57-65.24.69-97.83-.17-16.04-6.84-11.57-38.19,5.02-41.56Z"/>
    </g>
  </g>
</svg>