<?xml version="1.0" encoding="UTF-8"?>
<svg id="b" data-name="Layer 2" xmlns="http://www.w3.org/2000/svg" viewBox="0 0 985.1 983.19">
  <defs>
    <style>
      .d {
        fill: #fff;
      }
    </style>
  </defs>
  <g id="c" data-name="Layer 1">
    <g>
      <circle class="d" cx="494.1" cy="491" r="491"/>
      <path d="M475.8,5.45l28-.45c288.89,7.03,497.32,245.92,476.96,532.4-16.82,236.65-205.27,420.14-439.24,443.3C239.97,1010.55-18.88,768.6,1.08,464.56,17.94,207.78,218.83,14.66,475.8,5.45ZM823.45,178.57C630.17-27.83,276.88-.38,116.02,231.34,14.78,377.18,4.01,575.28,96.32,728.25c176.78,292.95,614.87,297.46,789.73.53,104.54-177.52,77.23-400.88-62.6-550.21Z"/>
      <path d="M789.36,700.91c.48.12,4.27,3.39,5.82,4.17,22.19,11.15,45.63,20.23,68.22,30.68,8.55,3.95,30.16,9.26,31.37,19.58.68,5.75.89,30.8-.23,35.78-.98,4.35-7.64,8.42-11.72,9.26-161.3-.49-322.94-.74-484.04-.6-54.3.04-108.65-.5-162.94,0-16.26.15-33.62,2.68-49.95,1.1-5.13-.5-11.5-4.07-12.38-9.6-1.03-6.45-.71-25.03-.1-31.95.74-8.41,5.05-12.1,12.04-15.93,28.71-15.7,66-23.49,93.6-42.26l142.15-.2c-1.56,7.04-2,15.07,1.23,21.74,1.67,1.62,15.06,3.02,18.27,3.21,85.31,5.16,176.16-3.78,261.69-.03,15.85-.97,33.39,1.42,49.03.08s17.21-11.01,14.45-25.01c6.34,1.08,17.87-1.47,23.48,0Z"/>
      <path d="M220.41,441.67c-.09-.54-.99-1.56-1.17-2.34l-30.35.1-1.31,1.39.86,167.2c4.17-2.45,8.27-.11,12.44.04,32.55,1.16,65.35-.97,97.93-.02,6.68,0,4.85,20.89,3.37,21.82-27.71,1.21-55.53,1.57-83.32,1.18-2.36-.03-4.55-1.04-6.91-1.08-8.22-.13-16.4-.11-24.51,1.05.04,3.9.42,8.14-1.97,11.52l-14.46.5-2.66-12.93c-8.3-.87-22.63,3.41-23.91-8.58-2-18.76,13.91-11.24,25.07-15.08l-1.05-167.26c-11.82-.49-27.66,5.13-24.74-13.24,2.09-13.15,15.76-7.09,24.22-8.75,2.03-.4,2.7-2.15,4.28-2.72,3.45-1.24,10.75-2.15,14.03-.6,1.93.91.83,2.73,1.3,3.17.27.26,6.22,1.05,7.4,1.15,8.66.73,16.95-1.47,25.52-.41,2.78-2.03-1.47-20.32-.07-24.55l-9.33-1.92c-2.32-1.78-1.89-19.48,2.84-20.06l79.51.44c4.05,1.02,3.6,14.8,2.71,17.84-1.41,4.8-8.31.92-10.79,4.2v22.98l1.5,1.5h17.48v20.98c-5.9,1.99-12.01.79-17.98,0-.24,8.81.29,17.7.04,26.52-.41,13.94-1.23,27.87-1.08,41.96.04,3.94,1.41,7.29,1.03,11.94-3.01,36.48-54.58,42.72-64.24,8.32-.32-1.15-1.68-6.75-1.68-7.31v-78.92ZM268.36,391.22l-30.97.99,1.01,25.98c.36.49,1.27-1,1.49-1h28.47v-25.97ZM268.36,439.17h-29.47l-1.55,3.45,1.06,50.49,30.96,1.01v-51.45c0-.54-1.54-2.22-1-3.5ZM249.11,505.3c-2.09.46-7.37,6.04-8.2,7.81-3.75,8.06,8.74,18.56,18.4,11.41,9.68-7.16-.23-21.39-10.2-19.22Z"/>
      <path d="M447.18,259.34c.29,93.74-.34,187.52-.04,281.28.02,6.75,1.47,8.95-.25,16.64-15.02,67.12-108.5,62.97-119.48-3.8l-1.05-293.53c-21.95-2.5-24.94-33.61-10.57-46.55,10.85-9.77,15.34-7.07,27.95-6.92,31.35.37,62.72-.32,93.91-1.09,14.9-.36,25.14,5.24,30.29,19.74,5.5,15.49-3.24,34.43-20.76,34.24ZM338.1,223.67c-1.78.06-7.82.53-9.11.9-5.2,1.51-6.57,16.6,3.79,17.82,26.81,3.14,59.53-2.42,86.98.02,9.44-3.47,30.77,6.81,31.5-9.55.66-14.8-27.5-8.54-36.49-8.42-25.43.32-51.41-1.58-76.67-.76ZM431.21,258.34h-88.92c.05,30.47-.03,60.97-.04,91.46,0,37.02.74,74.68,1.08,111.81.24,25.37-1.64,53.01-.08,78.01,3.78,60.8,74.61,69.89,88.84,10.84-.07-71.27.7-142.72.16-213.63-.2-26.21.33-52.4-1.04-78.48Z"/>
      <path d="M747.9,706.91h-305.2c-.33,0-1.52-1.32-2.5-1v-37.46c0-.36,1.02-1.62,1.17-2.34l1.3-.23,302.74-.92,2.07.93.43,41.03Z"/>
      <path d="M869.9,414.08c13.15-1.72,32.87-7.15,42.86,4.58,11.42,13.4-4.58,33.79-10.86,46.17,8.04,12.86,24.21,31.9,10.36,46.3-10.83,11.26-27.93,7.37-41.52,5.37-3.61,10.44-16.57,28.01-28.42,28.64-14.71.79-24.75-16.87-29.44-28.62-10.57,1.65-32.39,4.47-40.56-3.38-14.12-13.56,2.11-35.29,10.57-47.53-4.92-13.57-26.6-44.68-3.25-52.13,11.71-3.74,23.3-.64,35.1.62,11.17-40.38,42.28-37.9,55.16-.02ZM854.67,417.07c1.96-3.1-9.91-19.52-14.38-20.67-1.49.13-11.19,14.82-11.45,17.38-.57,5.53,2.49,3.6,5.68,5.2,2.04,1.02,3.29,2.85,5.87,3.19,5.24.69,9.4-3.84,14.28-5.1ZM808.83,428.19c-8.72-2.94-17.05-1.98-25.97-1,1.05,9.03,6.88,16.37,9,24.96,2.13-3.28,9.39-5.24,11.03-7.44,2.26-3.03,2.67-12.81,5.94-16.53ZM900.6,427.32c-7.66-2.67-15.98-.47-23.83-.14,1.9,4.3,2.01,10.62,3.92,14.55,2.08,4.25,8.79,6.15,11.56,10.42,2.69-8.2,9.52-15.7,8.34-24.83ZM818.83,438.16c.86.7,9.05-3.83,9.97-5.48,0-1.2-6.74-3.22-7.89-2.42l-2.08,7.91ZM864.69,430.27c-2.53-.66-4.41.4-5.88,2.4,1.78,2.08,4.08,3.79,6.97,3.49l-1.08-5.9ZM841.45,436.48c-4.34.24-21.96,9.72-24.64,13.15-3.72,4.76-2.17,29.64,2.05,33.97,1.07,1.1,12.87,7.2,14.98,8,7.86,2.97,11.32,3.08,19.24.29,8.59-3.03,18.95-9.86,18.75-20.2-.07-3.63-2.45-19.59-4.04-22.04-3.44-5.3-20.27-13.51-26.34-13.17ZM880.78,470.14c5.5-2.82,4.87-7.31.48-10.98l-.48,10.98ZM804.84,460.15c-1.48-1.74-10.79,8.95-1.49,9.98,1.8.2,1.53.09,1.46-1.51-.13-2.88-.42-5.56.03-8.47ZM806.83,503.1c-.9-4.78-1.35-10.4-3.78-14.69-.93-1.64-9.63-12.46-11.19-11.28-1.33,5.46-13.07,18.68-9.54,24.02,2.38,3.59,20.09,1.86,24.51,1.95ZM902.66,501c.79-3.92-7.65-23.41-11.27-22.8-6.04,6.84-14.54,13.6-13.5,23.79,1.17,1.86,21.66,1.91,24.77-.99ZM856.78,512.1c-6.52,2.44-11.49-4.49-16.38-3.99-.72.07-10.85,3.72-11.85,4.22-1.17.59-1.79.68-1.77,2.24.03,2.36,10.7,16.17,14.51,16.46,2.5.09,5.88-3.63,7.48-5.48,1.13-1.3,8.71-12.85,8.01-13.46Z"/>
      <path d="M659.99,377.22c.55-2.48,5.12.56,6.71.79,25.03,3.62,47.08-9.73,52.72-34.73,12.24,15.67,20.84,33.41,24.99,52.93,11.45,53.9.56,102.96-34.96,144.88-4.07,4.81-22.82,24.53-28.06,24.99-.95.08-1.59-.07-2.43-.49-1.51-.76-13.48-24.56-17-28.98-3.8-4.77-8.99-8.58-13.96-12.02l20.49-18.46c30.21-38.82,29.2-83.86-.08-122.83-2.01-2.67-5.18-5.15-8.42-6.07Z"/>
      <path d="M693.94,655.96c-6.37-2-13.75-.71-20.51-.96-34.22-1.24-69.55-2.4-103.9-1.09-2.25.09-4.22,1.02-6.44,1.04,4.34-15.1,9.36-30.07,14.53-44.9,4.8-13.79,10.47-31.71,16.27-44.68,7.81-17.48,20.19-28.57,40.53-26.19,20.36,2.38,25.82,21.06,32.34,37.59,10.23,25.9,16.64,53.38,27.2,79.19ZM615.83,561.78c-.54.22-1.92-.71-2.8-.28-8.6,4.16-7.14,9.89-3.85,17.89,10.19,24.77,42.6,17.25,46.56-6.08,2.17-12.81-5.49-7-11.73-9.77-1.26-.56-3.42-3.66-5.1-4.89-5.7-4.19-10.16-5-16.91-2.1-2.71,1.16-5.79,5.08-6.18,5.24Z"/>
      <path d="M628.35,245.02c3.93,3.45,11.11,7.77,15.73,10.75,15.9,10.25,33.02,18.96,48.95,29.19l-3.14,7.35c-22.29-7.59-43.27-2.78-54.69,18.69-7.55,14.19-8,29.66-.37,43.95,2.77,5.19,7.14,7.8,10,12.61-1.32,4.31-12.74,23.57-16.29,23.65l-73.53-44.53,67.02-108.3c1.02-.77,5.54,5.97,6.32,6.65ZM632.58,258.38c-2.8.62-18.69,28.66-21.72,33.25-6.23,9.45-12.63,18.61-18.78,28.18-2.36,3.67-11.36,14.04-11.87,17.17-.2,1.21-.32,2.04.82,2.82,4.73,1.32,8.02.72,11.57-2.49s14.79-20.99,17.25-25.71c3.07-5.88,4.01-12.27,7-17.97,3.75-7.13,20.85-23.11,19.65-30.39-.21-1.25-2.27-5.22-3.92-4.86Z"/>
      <path d="M459.86,508l240.29-1.19c-1.39,7.96-.72,34.03-5.7,39.36-5.27,5.64-28.07,5.94-36.43,6.4-31.69,1.73-67.31.84-99.4.92-31,.08-62.46.38-93.27-1.19-6.09-14.04-3.62-29.57-5.49-44.3Z"/>
      <path d="M232.58,254.29c54.62-7.88,53.79,74.44,2,67.41-38.54-5.22-36.92-62.37-2-67.41ZM223.11,285.7c6.51,5.25,19.25-3.06,16.24-12.74-3.85-12.36-26.56,4.42-16.24,12.74Z"/>
      <path d="M718.92,256.35l-10.82-4.85-12.63,18.63-37.94-25.72c-2.12-7.15,9.51-9.14,10.35-11.7,1.32-4.03-3.68-6.86-6.92-4.86-1.69,1.04-3.06,8.16-4.23,9.25-.86.79-5.11,1.18-6.41,3.12l-9.89-4.8c-2.34-3.29,9.21-15.46,10.17-19.01.66-2.46-1.72-3.66-1.13-5.02.34-.79,9.31-13.55,10-14.08l1-.66c15.85,10.8,33.46,18.86,49.77,28.93,3.36,2.08,17.6,9.83,16.54,14.04s-8.14,11.31-7.86,16.73Z"/>
      <path d="M670.73,305.56c14.45-1.87,29.32,5.15,32.09,20.34,3.12,17.11-5.16,33-23.46,35.23-38.18,4.65-42.54-51.18-8.63-55.57Z"/>
      <path d="M544.1,239.36h25.48c.56,0,3.71,3.87,4.05,4.94,2.2,6.87-1.96,13.04-9.05,13.04h-20.48v24.48c0,5.24-14.38,8.48-17.46,1.48-.21-.48-1.52-6.14-1.52-6.48v-19.48l-27.27-1.21c-5.07-2.42-6.26-9.88-2.76-14.07s24.31-2.32,30.02-2.71v-23.48c0-9.25,12.34-12.26,18.01-6.02,3.42,3.77.98,4.83.98,7.02v22.48Z"/>
      <path d="M605.03,396.23c-5.72,12.5-40.05,65.1-48.63,75.85-3.5,1.03-25.6-11.13-29.98-13.71-3.66-2.16-15.92-8.65-16.34-12.7l47.49-77.31,47.47,27.88Z"/>
      <path d="M286.39,318.35c1.94,1.61,11.4,10.47,11.4,12.1-1.13,2.46-7.46,9.34-9.58,9.54-3.53.35-14.96-13.73-18.28-16.68,6.25-10.72,6.41-13.31,16.45-4.96Z"/>
      <path d="M200.55,313.08c2.73-.71,9.67,8.35,9.19,10.18-.52,2-14.72,17.13-17.13,16.54-4.44-2.27-7.39-5.9-9.5-10.36l17.45-16.37Z"/>
      <path d="M196.87,266.01c-2.78-5.67-9.96-10.64-15-14l8.66-13.03c4.65-1,16.49,12.02,18.36,16.59l-10.54,10.45h-1.47Z"/>
      <path d="M287.48,241.18c3.63-1.02,11.98,7.96,11.15,11.16-3.46,1.96-14.39,15.49-17.24,14.62l-9.55-11.29c.18-1.05,14.6-14.19,15.63-14.48Z"/>
      <path d="M248.8,350.93h-14.99v-21.98c4.67,2.82,11.35-.85,14.99,1.5v20.48Z"/>
      <polygon points="307.75 297.99 285.76 296.99 286.2 283.94 306.81 283.44 307.75 297.99"/>
      <path d="M193.86,284.01c-2.5,4.59.18,9.2,0,13.97l-20.93-1.05-.94-12.83c6.98-1.61,14.93-1.78,21.87-.1Z"/>
      <polygon points="233.81 246.04 233.82 226.07 247.85 226.51 247.34 246.08 233.81 246.04"/>
      <path class="d" d="M268.36,439.17c-.55,1.28,1,2.96,1,3.5v51.45l-30.96-1.01-1.06-50.49,1.55-3.45h29.47Z"/>
      <path class="d" d="M268.36,391.22v25.97h-28.47c-.21,0-1.13,1.49-1.49,1l-1.01-25.98,30.97-.99Z"/>
      <path class="d" d="M249.11,505.3c9.97-2.17,19.88,12.06,10.2,19.22-9.66,7.15-22.15-3.35-18.4-11.41.83-1.77,6.11-7.36,8.2-7.81Z"/>
      <path class="d" d="M431.21,258.34c1.37,26.08.84,52.27,1.04,78.48.55,70.91-.23,142.36-.16,213.63-14.23,59.05-85.06,49.97-88.84-10.84-1.55-25,.32-52.63.08-78.01-.35-37.13-1.09-74.79-1.08-111.81,0-30.48.09-60.99.04-91.46h88.92ZM356.27,342.26c.2,69.74,1.53,139.39,1.09,209.22,12.72,39.47,57.66,31.6,60.84-9.92,2.67-34.77-3.6-71.15.05-105.84l-.98-93.03-61.01-.42Z"/>
      <path class="d" d="M338.1,223.67c25.26-.82,51.24,1.09,76.67.76,8.99-.11,37.15-6.38,36.49,8.42-.73,16.36-22.06,6.08-31.5,9.55-27.45-2.44-60.17,3.12-86.98-.02-10.36-1.21-8.99-16.31-3.79-17.82,1.28-.37,7.33-.84,9.11-.9Z"/>
      <path class="d" d="M841.45,436.48c6.07-.34,22.9,7.87,26.34,13.17,1.59,2.45,3.96,18.41,4.04,22.04.2,10.34-10.16,17.17-18.75,20.2-7.92,2.8-11.39,2.68-19.24-.29-2.11-.8-13.91-6.9-14.98-8-4.21-4.33-5.76-29.22-2.05-33.97,2.68-3.43,20.3-12.9,24.64-13.15ZM839.53,450.39c-18.53,3.84-11.33,37.08,8.99,28.95,15.76-6.31,10.59-33.01-8.99-28.95Z"/>
      <path class="d" d="M806.83,503.1c-4.42-.09-22.13,1.64-24.51-1.95-3.53-5.33,8.21-18.55,9.54-24.02,1.56-1.18,10.26,9.64,11.19,11.28,2.43,4.29,2.88,9.92,3.78,14.69Z"/>
      <path class="d" d="M854.67,417.07c-4.87,1.26-9.04,5.79-14.28,5.1-2.58-.34-3.84-2.17-5.87-3.19-3.19-1.59-6.25.33-5.68-5.2.26-2.57,9.96-17.25,11.45-17.38,4.46,1.15,16.34,17.57,14.38,20.67Z"/>
      <path class="d" d="M902.66,501c-3.11,2.9-23.6,2.84-24.77.99-1.04-10.19,7.47-16.95,13.5-23.79,3.62-.62,12.06,18.88,11.27,22.8Z"/>
      <path class="d" d="M808.83,428.19c-3.27,3.71-3.67,13.5-5.94,16.53-1.64,2.2-8.9,4.16-11.03,7.44-2.12-8.6-7.95-15.93-9-24.96,8.92-.98,17.26-1.94,25.97,1Z"/>
      <path class="d" d="M856.78,512.1c.7.6-6.89,12.16-8.01,13.46-1.6,1.84-4.98,5.56-7.48,5.48-3.82-.3-14.48-14.11-14.51-16.46-.02-1.56.6-1.66,1.77-2.24,1-.5,11.13-4.15,11.85-4.22,4.89-.5,9.87,6.43,16.38,3.99Z"/>
      <path class="d" d="M900.6,427.32c1.18,9.13-5.65,16.63-8.34,24.83-2.77-4.27-9.49-6.16-11.56-10.42-1.91-3.92-2.03-10.25-3.92-14.55,7.85-.34,16.17-2.54,23.83.14Z"/>
      <path class="d" d="M818.83,438.16l2.08-7.91c1.15-.8,7.88,1.22,7.89,2.42-.92,1.65-9.11,6.19-9.97,5.48Z"/>
      <path class="d" d="M804.84,460.15c-.45,2.91-.16,5.59-.03,8.47.07,1.6.35,1.71-1.46,1.51-9.31-1.03,0-11.72,1.49-9.98Z"/>
      <path class="d" d="M864.69,430.27l1.08,5.9c-2.89.3-5.19-1.41-6.97-3.49,1.47-2,3.35-3.07,5.88-2.4Z"/>
      <path class="d" d="M880.78,470.14l.48-10.98c4.39,3.67,5.01,8.17-.48,10.98Z"/>
      <path class="d" d="M615.83,561.78c.38-.16,3.47-4.07,6.18-5.24,6.74-2.9,11.2-2.09,16.91,2.1,1.68,1.23,3.83,4.33,5.1,4.89,6.25,2.77,13.91-3.04,11.73,9.77-3.96,23.33-36.38,30.85-46.56,6.08-3.29-8-4.75-13.73,3.85-17.89.89-.43,2.27.5,2.8.28Z"/>
      <path class="d" d="M632.58,258.38c1.64-.36,3.71,3.61,3.92,4.86,1.2,7.28-15.9,23.25-19.65,30.39-3,5.7-3.93,12.09-7,17.97-2.46,4.71-13.86,22.63-17.25,25.71s-6.83,3.82-11.57,2.49c-1.14-.78-1.02-1.61-.82-2.82.52-3.13,9.52-13.5,11.87-17.17,6.15-9.57,12.55-18.73,18.78-28.18,3.03-4.59,18.92-32.64,21.72-33.25Z"/>
      <path class="d" d="M223.11,285.7c-10.33-8.32,12.39-25.1,16.24-12.74,3.01,9.68-9.73,17.99-16.24,12.74Z"/>
      <path d="M356.27,342.26l61.01.42.98,93.03c-3.66,34.69,2.62,71.07-.05,105.84-3.19,41.51-48.12,49.38-60.84,9.92.44-69.82-.89-139.47-1.09-209.22ZM383.98,375.47c-9.99,2.08-11.08,16.74-2.43,20.96,21.29,10.38,23-25.24,2.43-20.96ZM383.96,428.39c-8.34,1.89-10.83,17.49,1.03,19.52,7.87,1.35,12.44.21,13.16-8.39.82-9.77-4.9-13.25-14.19-11.14ZM382.96,478.35c-8.07,1.83-9.41,15.48-1.94,18.5,6.72,2.73,14.93,2.15,16.16-6.3,1.44-9.94-4.72-14.36-14.22-12.21ZM394.9,544.73c9.62-9.58-3.23-26-15.15-17.65-13.18,9.23,4.35,28.4,15.15,17.65Z"/>
      <path d="M839.53,450.39c19.58-4.06,24.75,22.65,8.99,28.95-20.32,8.13-27.52-25.11-8.99-28.95Z"/>
      <path class="d" d="M383.98,375.47c20.56-4.28,18.86,31.34-2.43,20.96-8.64-4.21-7.56-18.88,2.43-20.96Z"/>
      <path class="d" d="M394.9,544.73c-10.8,10.75-28.33-8.42-15.15-17.65,11.92-8.35,24.77,8.07,15.15,17.65Z"/>
      <path class="d" d="M383.96,428.39c9.29-2.11,15,1.37,14.19,11.14-.72,8.59-5.29,9.73-13.16,8.39-11.86-2.03-9.36-17.63-1.03-19.52Z"/>
      <path class="d" d="M382.96,478.35c9.5-2.16,15.66,2.27,14.22,12.21-1.23,8.45-9.44,9.03-16.16,6.3-7.47-3.03-6.12-16.67,1.94-18.5Z"/>
    </g>
  </g>
</svg>