<?xml version="1.0" encoding="UTF-8"?>
<svg id="b" data-name="Layer 2" xmlns="http://www.w3.org/2000/svg" viewBox="0 0 982.42 1001.45">
  <defs>
    <style>
      .d {
        fill: #fff;
      }
    </style>
  </defs>
  <g id="c" data-name="Layer 1">
    <g>
      <circle class="d" cx="491.25" cy="510.45" r="491"/>
      <path d="M475.94.45l28.01-.45c288.98,7.03,497.47,245.99,477.1,532.56-16.82,236.72-205.33,420.26-439.37,443.43C240.04,1005.84-18.89,763.82,1.08,459.69,17.95,202.84,218.9,9.66,475.94.45ZM823.69,173.62C630.36-32.84,276.96-5.38,116.05,226.4,14.78,372.29,4.01,570.44,96.35,723.46c176.83,293.04,615.05,297.55,789.96.53,104.57-177.57,77.25-401-62.62-550.37Z"/>
      <path d="M221.51,415.6c.15,34.22-3.35,67.77,13.47,98.92,39.98,74.06,156.8,74.53,196.85,0,14.47-26.92,12.49-46.29,12.43-75.4-.02-7.84.09-15.69.05-23.51,4.75.5,7.46,4.4,12.46,5.01,8.05.99,14.37-.72,21.5-4.02-1.13,21.21,2.09,44.29-1.26,65.16-2.46,15.32-8.27,32.73-15.54,46.4-21.75,40.91-66.33,67.59-112.08,71.83,1.54,27.33-2.01,56.76.03,83.83,5.5,73.13,119.11,77.12,126.74.89,2.57-25.66-2.89-42.83,8.26-68.67,15.32-35.51,45-58.27,83.77-62.58,1.33,1.87-3.72,17.53-3.97,21.49-.32,5.14,1.28,9.43.97,14.46-23.44,1.8-39.27,16.37-48.12,37.29-17.09,40.38,1.64,80.37-30.28,116.58-31.94,36.23-114.24,38.44-145.77.89-34.41-40.99-20.84-94.44-23.63-143.71-54.75-5.31-100.63-39.95-119.85-91.44-11.49-30.8-8.91-61.08-8.96-93.43,10.36,8.1,22.09,5.2,32.95,0Z"/>
      <path d="M515.22,347.71c-6.72-37.11,1.4-76.34,34.44-97.93,17.79-11.62,36.91-15.38,58.02-14.01s38.62,12.69,55.9,22.12c9.25-4.67,17.89-10.55,27.51-14.55,66.43-27.66,124.96,22.09,117.84,91.87-.22,2.19-1.24,12.21-2.65,12.54l-69.33.45c-5.88-7.85-11.37-35.95-20.86-39.01-13.23-4.26-19.22,14.9-22.8,24.27-7.2,18.89-11.79,40.39-20.12,58.8-.41.9-.37,3-2.08,1.4-.63-.59-4.83-13.77-5.51-15.98-4.82-15.64-7.21-31.99-12.41-47.53-5.52-14.19-5.84-33.67-10.58-47.37-3.74-10.81-15.43-12.36-20.66-1.69-5.55,11.33-11.91,30.83-16.56,43.38-2.81,7.6-4.8,15.52-7.23,23.24h-82.92Z"/>
      <path d="M749.15,369.85l48.79-1.16c.34,1.5-.55,2.19-1.18,3.3-20.36,35.74-71.39,85.07-104.23,110.56-4.18,3.25-28.71,21.18-31.85,21.02-3.61-.19-15.98-8.98-19.47-11.61-29.74-22.38-61.9-53.32-86.53-81.3-11.4-12.95-21.68-26.75-31.46-40.96h60.93c-2.59,14.48,15.91,22.85,24.98,11.48,5.89-7.39,13.01-34.93,17.24-45.7.86-2.18,1.57-5.6,3.73-6.75,7.01,27.9,14.6,55.67,21.91,83.49,2.13,8.09,5.05,30.56,11,34.95,6.16,4.55,13.86-.14,16.93-6.18,4.77-9.38,8.14-25.96,12.09-36.86,5.36-14.77,11.32-32.25,17.52-46.42.98-2.24,2.05-4.53,3.48-6.52,1.05-.92,1.85,1.08,2.22,1.8,3.02,5.99,7.23,25.27,13.01,27.95,8.27,3.83,18.97-2.52,20.9-11.09Z"/>
      <path d="M653.88,503.81c61.21-6.29,105.43,64.07,74.33,117.29-39.09,66.87-140.83,42.1-144.09-36.11-1.65-39.51,30.39-77.12,69.76-81.17ZM659.88,537.78c-55.99,3.51-53.61,83.21-8.18,88.5,74.42,8.68,68.38-92.28,8.18-88.5Z"/>
      <path d="M202.29,355.92c33.77-4.84,34.26,44.97,2.7,45.72-28.54.68-32.51-41.45-2.7-45.72Z"/>
      <path d="M477.91,395.27c-3.19,2.8-9.84,5.09-14.1,5.38-26.01,1.8-32.76-34.32-9.81-42.78,24.09-8.88,42.88,20.74,23.91,37.39Z"/>
      <path class="d" d="M659.88,537.78c60.2-3.77,66.24,97.18-8.18,88.5-45.43-5.3-47.8-84.99,8.18-88.5ZM655.81,568.68c-14.54,2.98-15.7,31.07.83,33.67,33.01,5.19,27.1-39.39-.83-33.67Z"/>
      <path d="M655.81,568.68c27.94-5.72,33.85,38.86.83,33.67-16.53-2.6-15.37-30.69-.83-33.67Z"/>
    </g>
  </g>
</svg>