<?xml version="1.0" encoding="UTF-8"?>
<svg id="b" data-name="Layer 2" xmlns="http://www.w3.org/2000/svg" viewBox="0 0 985.17 1001.03">
  <defs>
    <style>
      .d {
        fill: #fff;
      }
    </style>
  </defs>
  <g id="c" data-name="Layer 1">
    <g>
      <circle class="d" cx="491" cy="491" r="491"/>
      <path d="M478.69,23l28.01-.45c288.98,7.03,497.47,245.99,477.1,532.56-16.82,236.72-205.33,420.26-439.37,443.43C242.8,1028.39-16.13,786.37,3.84,482.24,20.7,225.38,221.65,32.21,478.69,23ZM826.44,196.17C633.11-10.29,279.72,17.16,118.81,248.95,17.53,394.83,6.77,592.99,99.1,746.01c176.83,293.04,615.05,297.55,789.96.53,104.57-177.57,77.25-401-62.62-550.37Z"/>
      <path d="M380.77,411.7c-.14-7.1-1.44-12.59,2.15-19.24,6.63-12.25,20.2-10.02,32.06-9.98,7.17.03,15.71,1.01,22.89,1.08s27.87,1.3,33.01-2.03c15.28-9.9-4.93-25.28-6.41-36.55-3.44-26.15,25.91-50.2,50.66-42.68,19.48,5.92,41.67,30.99,30.38,51.96-3.91,7.26-16.71,15.87-8.22,24.79,1.98,2.08,5.7,3.16,8.51,3.48,20.97,2.35,48.7-3.09,68.87.06,5.34.83,13.58,7.99,14.5,13.48,2.69,16.1-1.24,40.51.01,57.93,1.84,25.69,14.49,11.98,27.79,7.73,25.38-8.12,49.99,13.49,50.26,39.19.25,23.69-24.18,47.47-48.26,40.18-6.5-1.97-17.56-11.54-23.02-10.56-4.93.89-7.32,6.88-7.71,11.34-1.01,11.62,2.11,27.6,2.02,39.99-.04,6.09-.35,18.13-1.13,23.85-1.01,7.46-9.27,13.76-16.39,14.58-15.8,1.81-40.35.32-56.99.04-5.48-.09-9.43-2.75-15.36.54-14.41,7.99,4.14,24.44,6.81,34.99,6.01,23.78-20.25,45.16-42.36,45.43-28.15.35-49.05-27.88-37.31-54.39,3.07-6.94,9.57-11.47,7.63-19.91-.76-3.33-4.9-6.3-8.23-6.75-21.94-2.99-49.47,2.67-71.92.99-7.49-2.67-12.82-8.37-13.58-16.39-1.48-15.77-1.35-47.14,0-63.01.81-9.45,6.2-16.79,16.56-15.5,4.82.6,8.25,5.56,12.11,7.88,19.18,11.49,37.91-3.22,43.59-22.01,5.91-19.55-7.62-47.94-29.92-48.68-11.69-.39-16.59,10.96-24.8,11.94-11.04,1.32-16.56-5.15-17.49-15.52-1.3-14.54-.42-33.16-.72-48.23Z"/>
    </g>
  </g>
</svg>