<?xml version="1.0" encoding="UTF-8"?>
<svg id="b" data-name="Layer 2" xmlns="http://www.w3.org/2000/svg" viewBox="0 0 721.75 718.86">
  <defs>
    <style>
      .d {
        fill: #fff;
      }
    </style>
  </defs>
  <g id="c" data-name="Layer 1">
    <g>
      <circle cx="364.92" cy="353.19" r="337"/>
      <path d="M349.66.33l20.57-.33c212.3,5.17,365.47,180.72,350.51,391.25-12.36,173.91-150.85,308.75-322.79,325.77C176.35,738.96-13.88,561.16.8,337.72,13.19,149.02,160.82,7.1,349.66.33ZM605.14,127.55C463.1-24.13,203.48-3.96,85.26,166.33,10.86,273.51,2.95,419.09,70.78,531.5c129.91,215.29,451.86,218.6,580.36.39,76.83-130.46,56.76-294.6-46-404.34Z"/>
      <path class="d" d="M180.92,423.19l298.54-.05c2.75,1.48,16.47.13,16.44,2.54-26.21,32.49-40.9,73.5-31.45,115.56-12.12,6.74-24.81,13.03-38.32,16.65-55.8,14.95-108.18,5.32-157.88-22.53-43.74-24.51-75.33-62.91-87.32-112.17Z"/>
      <path class="d" d="M485.91,256.18c-28.53-10.43-57.71,3.55-69.51,31l-7.96-10.02c-25.81-24.5-60.47-19.36-80.52,9.03-5.46-14.15-20.3-26.33-35.02-30.49-15.16-4.28-34.23-4.42-45.98,7.49-4.55-30.18,2.22-62.91,28.68-80.81,18.09-12.24,36.73-11.22,56.58-3.95,17.1,6.26,21.71,16.09,41.98,9.51,24.65-8,34.34-21.31,63.74-13.23,35.36,9.71,49.65,47.73,48.01,81.48ZM281.91,240.18c.16-18.61,9.29-29.6,25.75-36.75,5.17-2.25,12.31-1,10.6-8.03-1.47-6.04-3.85-6.66-9.58-5.96-23.95,2.94-42.79,25.94-42.75,49.74l15.99,1Z"/>
      <path class="d" d="M574.92,393.19c-17.06-2.44-31.55,6.71-46.74,11.76-12.04,4-13.92.71-24.73.2-24.79-1.18-50.43.17-74.99.09-83.33-.29-166.66.09-249.98,0-1.32-8.34-8.41-35.38,1.45-39.52,39.69-1.08,79.7-.38,119.52-.48,72.89-.19,146.83-.38,219.92,0,14.48.07,35.6-1.87,49.09-.09,10.49,1.38,5.2,20.59,6.45,28.06Z"/>
      <path class="d" d="M569.71,415.49c77.76-6.12,133.71,63.8,107.22,138.22-25.07,70.42-120.09,87.35-168.99,30.95-51.93-59.9-20.35-162.71,61.77-169.17ZM572.71,437.49c-35.08,3.29-63.47,35.13-67.68,69.32-8.75,71.18,71.92,119.34,127.35,72.35,59.97-50.84,21.82-149.32-59.67-141.67Z"/>
      <path class="d" d="M103.71,497.4c4.24-.43,10.88,1.87,14.89,3.61,4.99,2.16,16.92,11.97,19.89,12.17s11.98-7.25,15.76-9.17c10.93-5.56,19.04-8.51,30.37-2.01,21.46,12.31,24.62,43.6,17.77,65.15-20.07,63.16-120.07,55.96-133.02-8.9-4.58-22.93,7.73-58.15,34.35-60.84ZM103.27,525.54c2.47-2.46,12.65-6.82,12.4-9.88-14.8-18.74-30.75,10.53-32.5,24.28-.38,2.98-1.03,15.25.73,16.75,2.11,1.8,11.05,2.65,12.56-.52.33-.69-.76-11.83-.29-15.23.67-4.86,3.61-11.93,7.1-15.4Z"/>
      <path class="d" d="M143.68,134.45c13.26-1.92,25.71,1.84,32.65,13.82s2.73,23.47,5.88,35.12c3.77,13.96,16.73,24.88,18.43,39.57,1.94,16.72-6.73,32.86-21.03,41.41-13.11,7.85-45.35,6.91-58.71-.68-14.14-8.03-22.77-24.57-20.88-40.91s17.26-31.06,18.88-47.12c.39-3.85-.28-7.91.13-11.87,1.37-12.99,11-27.39,24.64-29.36Z"/>
      <path d="M278.92,563.69c.07-.48.97-4.27,2.39-3.41,58.63,31.39,131.69,27.53,190.6-1.09,2.92,13.27,6.42,26.78,5.07,40.56-.36,3.68-.42,4.95-4.51,5.49-7.4.97-19.1-.01-27.09,0-21.43.02-43.32-.23-65,0-30.96-4.61-67.52,2.59-98.01-.99-1.46-.17-2.57-.12-3.45-1.55,1.21-12.12-1.63-27.28,0-39Z"/>
      <path class="d" d="M269.66,270.43c48.78-7.59,65.35,58.44,20.53,74.53-31.65,11.37-64.97-25.35-47.09-55.09,4.96-8.26,16.88-17.93,26.56-19.44ZM283.77,283.33c-9.17-3.64-13.64,1.51-11.72,10.72l9.79,2.06,1.94-12.78ZM265.69,301.4c-3.34-2.68-11.7-4.22-12.76,1.33-1.73,9.04,5.5,6.28,11.84,6.33l.92-7.65ZM297.69,304.45c-4.14.51-6.71,1.61-6.82,6.22,4.4,7.52,13.69,2.75,12.62-5.52-1.2-1.65-4.06-.92-5.8-.71ZM259.92,325.18c3.85,1.45,9.19-7.48,5.48-8.98-1.27-.52-3.63,3.86-4.13,4.85-.69,1.36-1.81,2.26-1.35,4.14ZM273.91,321.18l1,9.52c8.03,4.1,15.44-.51,10.05-9.05l-11.04-.47Z"/>
      <path class="d" d="M463.69,269.47c39.25-4.49,60.15,48.76,24.14,71.14-35.04,21.78-77.03-23.17-47.89-57.89,6.27-7.47,13.87-12.12,23.75-13.25ZM472.77,296.05l.71-13.92c-16.16-6.43-17.48,18.27-.71,13.92ZM445.15,310.96c1.39,1.41,9.03,3.08,10.82,1.79,2.01-1.45,1.58-8.19.01-10.14-5.13-6.37-17.53,1.55-10.84,8.35ZM482.02,305.29c.3,5.2-2.58,11.05,4.4,11,5.85-.05,8.76-5.89,7.05-11.17-1.57-2.23-8.94-.41-11.45.17ZM473.91,320.19h-11c.1,3.95-.61,8.15,1.15,11.85l7.75.03,2.1-11.88Z"/>
      <path class="d" d="M84.27,369.83c-18.48-18.18-9.44-38.85,2.83-56.96,2.32-3.42,14.19-20.21,16.24-21.75,3.99-3,6.21,1.2,8.2,3.94,7.05,9.7,24.16,35.63,25.38,46.62,3.25,29.31-30.42,50.03-52.65,28.15ZM93.63,326.32c-4.8,1.32-8.96,16.93-8.31,21.88,1.25,9.57,14.9,22.74,23.14,14.03,7.21-7.63-7.4-9.11-9.8-14.28-3.71-7.98,4.35-13.67,3.13-18.06-1.04-2.47-5.76-4.23-8.16-3.57Z"/>
      <path class="d" d="M367.67,277.45c39.64-4.64,55.16,52.01,16.24,66.23-16.07,5.87-32.32-1.81-41.02-15.95-11.94-19.4,1.99-47.61,24.79-50.28ZM378.77,291.33c-.74-1.18-9.75-2.04-11.37-.17-3.28,3.24.23,10.27,1.67,13.87l8.36-1.83,1.35-11.87ZM391.67,302.42l-2.26-.85c-9.35,1.31-9.43,19.39-1.77,20.49s5.93-15.45,4.02-19.64ZM352.91,310.19c2.16-.19,9.2,1.19,8.88-2.34-1.03-2.76-3.21-5.16-6.27-5.58-2.62,1.74-2.78,5.09-2.61,7.92ZM361.91,315.19c-1.63-1.69-9.34,4.96-6.51,7.99,5.58,5.89,7.24-3.12,6.51-7.99ZM371.54,319.47c-4.22.49-5.61,6.68-4.46,10.05.88,2.56,6.41,3.02,8.89,3.14,2.84-1.22,4.83-14.27-4.44-13.19Z"/>
      <path class="d" d="M371.92,149.19c11.24,8.81,14.41-.94,21.53-6.97,3.96-3.35,19.11-12.01,20.52-14.47,1.93-3.38,1.36-10.94-3.29-10.4-9.75,1.13-25.78,10.44-31.76,18.35-1.34,1.78-6.98,11.96-7,13.5-14.03-10.99,5.86-34.11,16.68-40.82,12.33-7.65,32.53-9.74,46.71-8.07,10.25,1.21,11.73,5.67,9.11,14.89-7.23,25.45-32.85,46.63-60.04,44.04-5-.48-12.54-4.41-12.46-10.04Z"/>
      <path class="d" d="M544.63,116.49c7.93.33,6.68,11.52,6.27,17.18-2.6,35.28-19.8,58.82-57.81,44.84-10.01-3.68-2.01-7.63-2.18-11.71-.13-3.14-2.91-7.83-2.88-12,.11-15.72,12.77-27.44,26.61-32.38,5.38-1.92,24.81-6.14,29.99-5.92ZM526.66,133.41c-6.75,1.09-13.98,7.69-18.26,12.76-2.56,3.03-10.9,14.89-12.02,18.07-.87,2.49,2.21,4.26,4.24,4.72,5.09,1.17,8.26-.29,11.83-3.74,2.89-2.8,18.08-19.97,19.35-22.64,2.9-6.08,2.92-10.48-5.14-9.17Z"/>
      <path class="d" d="M650.92,176.18c-2.58-2.67,15.26-33.18,10.55-40.04-.87-1.26-2.52-1.17-3.85-.79-5.25,1.5-18.77,30.33-23.3,35.77-15.14-8.33-11.77-25.96-3.42-38.45,5.77-8.65,26.85-24.56,37.3-22.28,12.17,2.65,13.76,31.32,12.28,40.86-2.7,17.36-12.6,23.89-29.55,24.94Z"/>
      <path class="d" d="M681.71,185.48c8.91-.91,18.24-1.21,15.77,10.76-3.73,18.09-30.34,29.84-47.11,29.97-19.9.16-20.6-21.36-7.39-30.46,5.92-4.08,30.94-9.48,38.73-10.27Z"/>
      <path class="d" d="M595.71,286.48c8.17-.88,28.85-.73,36.22,2.19,15.28,6.05-5.39,23.06-13.76,26.28-10.86,4.17-44.78,8.89-47.21-7.33-.71-4.75,3.96-10.22,7.42-13.47,5.44-5.12,9.88-6.87,17.33-7.67Z"/>
      <path class="d" d="M641.71,238.48c5.19-.16,15.84,0,20.65.76,4.14.65,8.82,6.34,8.55,10.37-.18,2.81-4.82,8.18-6.99,10.08-10.68,9.35-51.91,22.25-57.55,3.53-2.85-9.47,12.62-20.12,20.59-22.5,4.43-1.32,10.17-2.11,14.75-2.25Z"/>
      <path class="d" d="M532.56,218.35c2.75-.53,6.64,5.57,7.89,7.8,3.11,5.57,15.36,34.32,16.22,39.77s-2.01,21.4-7.45,23.07c-12.71,3.91-24.29-18.68-25.86-28.76-1.18-7.59-.65-39.98,9.2-41.89Z"/>
      <path class="d" d="M584.62,155.34c8.15-1.91,25.33,18.22,28.32,25.32,3.42,8.14,2.81,22.73-1.47,30.57-3.44,6.3-5.21,5.48-11.22,3.12-11.32-4.45-21.1-18.76-22.32-30.68-.57-5.63-.35-26.69,6.69-28.33Z"/>
      <path class="d" d="M688.66,331.43c4.4-.72,8.31-.04,9.83,4.71,2.85,8.95-9.63,11.19-12.34,16.77-2.4,4.94-2.41,14.66-4.93,21.07-5.49,13.94-18.77,21.12-33.53,18.95-9.83-1.44-16.26-5.27-6.68-13.16,5.58-4.59,10.07-6.73,15.43-12.57,8.59-9.37,15.08-25.42,24.16-31.84,2.37-1.68,5.15-3.46,8.07-3.93Z"/>
      <path class="d" d="M582.78,256.05c-22.67.17-36.38-36.02-24.61-53.22,6.57-2.74,19.78,10.16,23.18,15.42,7.85,12.15,6.97,24.89,1.43,37.8Z"/>
      <path class="d" d="M369.92,178.19c-3.13-.33-11.22,1.08-13.07-1.69s-3.73-13.02-5.45-17.3c-3.61-9.01-10.4-20.89-16.96-28.04-3.57-3.9-12.55-7.48-9.32-14.2,1.24-2.59,6.49-6.69,9.3-6.7,5.35-.01,16.01,16.34,18.91,21.01,8.45,13.61,17.51,30.55,16.59,46.92Z"/>
      <path class="d" d="M668.75,340.04c-.39.64-11.7,4.46-13.88,5.61-11.98,6.33-10.88,11.23-17.52,20.48-4.83,6.72-7.35,9.28-11.95,17.09-.76,1.29.18,2.52-2.48,1.97-.53-3.29,1.79-6.65,1.94-9.63.14-2.82-1.12-5.63-1.03-8.88.63-21.16,10.83-39.24,34.47-36.37,4.2.51,13.84,4.23,10.45,9.74Z"/>
      <path class="d" d="M164.92,127.18c2.93-9.55,16.1-13.2,16-23.99-9.78-1.65-15.74,3.73-22.99,8.99-6.21-17.56,20.69-24.82,33.49-25.08,17.11-.34,7.09,18.63,1.01,26.09-6.4,7.87-17.21,14.33-27.51,13.98Z"/>
      <path class="d" d="M584.91,268.19c-.51,7.3-9.19,10.95-12.66,15.33-4.11,5.2-7.02,16.05-11.33,22.16-8.9,12.6-27.34,20.12-32.97,35.04-1.89,1.49-10.02-6.77-12.59-7.51.4-4.73,4.3-8.47,7.54-11.54,13.41-12.72,31.73-24.48,45.03-36.97,5.41-5.08,7.91-15.96,16.98-16.51Z"/>
      <path class="d" d="M137.63,458.39c12.79-3.78,5.75,20.93,11.81,27.77,1.46,1.64,4.13,1.7,5.48,3.55.72,3.07-11.85,9.5-14.68,10.24-2.83-1.2-14.39-6.68-14.38-9.24,0-1.32,4.45-5.82,5.39-8.69,1.86-5.65.58-21.91,6.39-23.62Z"/>
      <path class="d" d="M154.78,127.05c-14.47,4.05-11.46-.51-15.68-9.54-3.81-8.13-7.94-11.9-15.74-16.3-1.31-2.04,5.95-10.37,9.01-10.07,5.36.52,26.01,27.95,22.41,35.92Z"/>
      <path class="d" d="M217.91,319.19c1.23,7.77,7.23,13.49,11.01,19.99-7.28,1.23-29.54,4.62-34.47-1.01-2.19-2.5-2.25-8.38.52-10.43,2.46-1.82,11.41-3.31,15.21-4.79,2.89-1.13,4.9-3.06,7.73-3.76Z"/>
      <path class="d" d="M229.68,142.38c13.24-1.81,20.86,21.64,6.5,24.58-16.22,3.32-23.98-22.19-6.5-24.58Z"/>
      <path class="d" d="M227.64,566.42c15.95-3.27,21.61,17.82,8.3,21.3-19.13,5-22.83-18.32-8.3-21.3Z"/>
      <path class="d" d="M673.64,288.42c16.63-3.4,23.55,20.58,6.75,21.79-15.56,1.13-20.65-18.95-6.75-21.79Z"/>
      <path class="d" d="M80.62,406.4c17.08-4.05,22.91,18.09,7.55,20.55s-17.76-18.12-7.55-20.55Z"/>
      <path class="d" d="M682.62,399.4c12.59-3.75,21.96,13.48,9.57,19.55-8.04,3.94-18.23-4.39-15.52-12.49.67-1.98,3.96-6.48,5.95-7.07Z"/>
      <path class="d" d="M117.63,406.4c13.29-3.02,16.37,15.25,6.34,18.34-16.52,5.1-18.41-15.6-6.34-18.34Z"/>
      <path class="d" d="M243.63,108.4c13.05-2.93,18.43,16.53,4.53,18.57-14.02,2.06-14.3-16.38-4.53-18.57Z"/>
      <path class="d" d="M217.91,307.19c-2.88.47-2.9-3.81-4.56-5.94-3.71-4.78-9.75-5.2-15.44-5.06-.84-12.9,17.73-11.89,25.56-7.03l-5.56,18.04Z"/>
      <path class="d" d="M256.19,133.44c7.66-8.08,20.32,9.64,14.76,15.27-7.49,6.65-20.03-9.71-14.76-15.27Z"/>
      <path class="d" d="M337.92,347.18c-5.38-.9-11.14-1.99-16.54-.13l-1.38-2.25,7.38-9.59,10.53,11.97Z"/>
      <path class="d" d="M428.92,346.18c-5.92-1.75-10.9-.79-16.75-.23-.93.09-3.15.88-2.24-1.24.54-1.26,6.86-9.7,8.35-9.44l10.64,10.91Z"/>
      <path d="M281.91,240.18l-15.99-1c-.04-23.8,18.8-46.8,42.75-49.74,5.73-.7,8.11-.09,9.58,5.96,1.71,7.02-5.43,5.78-10.6,8.03-16.46,7.15-25.59,18.15-25.75,36.75Z"/>
      <path d="M572.71,437.49c81.49-7.64,119.64,90.83,59.67,141.67-55.43,46.99-136.09-1.16-127.35-72.35,4.2-34.19,32.59-66.03,67.68-69.32ZM580.62,454.4c-2.26.68-5.27,4.97-5.65,7.34-.66,4.17-.78,23.98-.03,27.92,1.42,7.52,17.15,7.91,17.97-1.07.21-2.25-1-4.49-1.04-6.87-.14-8.83,3.86-31.83-11.25-27.33ZM556.45,509.69l-31.84.69c-4.58,1.37-7.17,14.67,2.78,15.83,4.55.53,28.15.65,31.58-.46,6.21-2.01,5.14-15.51-2.53-16.06ZM605.62,510.39c-3.87,1.14-4.47,13.81.25,15.35,5.77,1.89,25.25,2.22,31.57,1.47,10.91-1.29,8.42-15.17,2.77-16.81-2.26-.66-32.35-.67-34.59,0ZM578.62,536.39c-3.04.89-3.45,9.05-3.69,12.31-.37,5.05-.83,18.53.01,22.97,1.45,7.6,15.44,9.04,16.95,1,.81-4.3.68-26.36-.04-30.91-.94-5.97-8.28-6.81-13.24-5.36Z"/>
      <path d="M103.27,525.54c-3.49,3.47-6.43,10.54-7.1,15.4-.47,3.41.62,14.54.29,15.23-1.51,3.16-10.45,2.32-12.56.52-1.76-1.5-1.11-13.77-.73-16.75,1.75-13.74,17.7-43.02,32.5-24.28.25,3.06-9.92,7.41-12.4,9.88Z"/>
      <path d="M283.77,283.33l-1.94,12.78-9.79-2.06c-1.92-9.22,2.55-14.36,11.72-10.72Z"/>
      <path d="M273.91,321.18l11.04.47c5.4,8.53-2.02,13.15-10.05,9.05l-1-9.52Z"/>
      <path d="M265.69,301.4l-.92,7.65c-6.33-.05-13.56,2.72-11.84-6.33,1.06-5.55,9.42-4.01,12.76-1.33Z"/>
      <path d="M297.69,304.45c1.75-.21,4.6-.94,5.8.71,1.07,8.26-8.22,13.04-12.62,5.52.11-4.61,2.68-5.72,6.82-6.22Z"/>
      <path d="M259.92,325.18c-.46-1.88.66-2.77,1.35-4.14.5-.99,2.86-5.36,4.13-4.85,3.71,1.51-1.63,10.43-5.48,8.98Z"/>
      <path d="M472.77,296.05c-16.77,4.35-15.45-20.35.71-13.92l-.71,13.92Z"/>
      <path d="M445.15,310.96c-6.7-6.79,5.71-14.71,10.84-8.35,1.57,1.95,2,8.69-.01,10.14-1.79,1.29-9.43-.38-10.82-1.79Z"/>
      <path d="M482.02,305.29c2.51-.59,9.88-2.4,11.45-.17,1.71,5.28-1.2,11.12-7.05,11.17-6.99.06-4.1-5.79-4.4-11Z"/>
      <path d="M473.91,320.19l-2.1,11.88-7.75-.03c-1.76-3.71-1.05-7.91-1.15-11.87h11Z"/>
      <path d="M93.63,326.32c2.4-.66,7.12,1.1,8.16,3.57,1.22,4.39-6.84,10.07-3.13,18.06,2.4,5.17,17.01,6.65,9.8,14.28-8.24,8.72-21.89-4.45-23.14-14.03-.65-4.95,3.51-20.56,8.31-21.88Z"/>
      <path d="M391.67,302.42c1.91,4.19,3.31,20.69-4.02,19.64s-7.58-19.18,1.77-20.49l2.26.85Z"/>
      <path d="M378.77,291.33l-1.35,11.87-8.36,1.83c-1.44-3.6-4.95-10.63-1.67-13.87,1.62-1.87,10.64-1.01,11.37.17Z"/>
      <path d="M371.54,319.47c9.27-1.08,7.27,11.97,4.44,13.19-2.48-.13-8.02-.58-8.89-3.14-1.15-3.37.24-9.56,4.46-10.05Z"/>
      <path d="M352.91,310.19c-.17-2.83-.01-6.18,2.61-7.92,3.06.42,5.24,2.82,6.27,5.58.32,3.54-6.72,2.15-8.88,2.34Z"/>
      <path d="M361.91,315.19c.73,4.87-.93,13.88-6.51,7.99-2.83-3.02,4.88-9.68,6.51-7.99Z"/>
      <path d="M526.66,133.41c8.07-1.31,8.04,3.09,5.14,9.17-1.27,2.67-16.46,19.85-19.35,22.64-3.57,3.45-6.74,4.91-11.83,3.74-2.02-.46-5.11-2.24-4.24-4.72,1.12-3.18,9.46-15.04,12.02-18.07,4.28-5.08,11.51-11.67,18.26-12.76Z"/>
      <path class="d" d="M605.62,510.39c2.24-.66,32.33-.65,34.59,0,5.66,1.65,8.14,15.52-2.77,16.81-6.33.75-25.8.42-31.57-1.47-4.72-1.54-4.11-14.22-.25-15.35Z"/>
      <path class="d" d="M578.62,536.39c4.96-1.46,12.29-.61,13.24,5.36.72,4.55.85,26.61.04,30.91-1.51,8.04-15.5,6.61-16.95-1-.84-4.43-.38-17.92-.01-22.97.24-3.25.65-11.41,3.69-12.31Z"/>
      <path class="d" d="M580.62,454.4c15.11-4.51,11.11,18.49,11.25,27.33.04,2.38,1.24,4.61,1.04,6.87-.82,8.97-16.55,8.59-17.97,1.07-.74-3.94-.63-23.75.03-27.92.38-2.38,3.38-6.67,5.65-7.34Z"/>
      <path class="d" d="M556.45,509.69c7.67.55,8.73,14.05,2.53,16.06-3.43,1.11-27.04.99-31.58.46-9.96-1.16-7.36-14.45-2.78-15.83l31.84-.69Z"/>
    </g>
  </g>
</svg>