<?xml version="1.0" encoding="UTF-8"?>
<svg id="b" data-name="Layer 2" xmlns="http://www.w3.org/2000/svg" viewBox="0 0 995.17 1000.03">
  <defs>
    <style>
      .d {
        fill: #fff;
      }
    </style>
  </defs>
  <g id="c" data-name="Layer 1">
    <g>
      <circle class="d" cx="491" cy="491" r="491"/>
      <path d="M488.69,22l28.01-.45c288.98,7.03,497.47,245.99,477.1,532.56-16.82,236.72-205.33,420.26-439.37,443.43C252.8,1027.39-6.13,785.37,13.84,481.24,30.7,224.38,231.65,31.21,488.69,22ZM836.44,195.17C643.11-11.29,289.72,16.16,128.81,247.95c-101.27,145.88-112.04,344.04-19.71,497.06,176.83,293.04,615.05,297.55,789.96.53,104.57-177.57,77.25-401-62.62-550.37Z"/>
      <path d="M547,646c3.21-27.18-103.77-46.05-99-73l-193.76,1.95,1.11-227.67,219.43-.78c.31-.51.63-1.02.93-1.54,5.06-8.63-2.24,174.91,5.29,169.03,8.34-6.51,65.65,17.35,76,14,11.12-3.6-11.09-223.27.22-221.12-4.47-22.66-18.65-45.6-41.1-53.75l-.08-14.38-240.82-.47.57,13.98c-12.99,6.46-23.26,14.85-30.39,27.63-15.09,27.04-10.59,58.37-11.09,87.81-1.24,73.16-3.87,150.78-1.09,223.78,1.48,38.9,9.06,71.39,47.33,88.54,18.11,8.12,32.57,8.28,52.08,8.86,2.43.07,201.94.09,204.37.12.9-11.24,8.68-31.8,10-43Z"/>
      <path d="M255.6,150.72c16.6-16.99,58.78-10.12,81.11-10.3,55.58-.43,116.64-4.34,171.83-1.1,14.98.88,30.56,6.87,35.47,22.47,2.66,8.43,3.2,38.83,1.7,47.77-1.39,8.29-10.96,16.83-19.24,17.72-17.4,1.88-38.36-.03-55.91.04-69.39.29-138.2-1.96-207.61-.28-7.51-2.57-15.8-10.02-16.72-18.25-.97-8.64-.94-30.25.11-38.85.72-5.9,5.11-15.01,9.23-19.24ZM500.51,155.8c-3.15-.03-8.11,3.43-9.05,6.5-1.1,3.62-.99,31-.02,35.09,2.24,9.4,14.99,10.24,17.35,2.22.52-1.77,1.1-11,1.25-13.74.44-8.15,2.68-29.97-9.53-30.07ZM290.94,156.54c-1.99.42-6.24,4.16-7.15,5.9-3.05,5.85-.61,10.04-.54,15.37.08,5.83-.99,15.67.17,20.81,1.83,8.12,15.31,7.58,17.57,0,1-3.34.68-27.11.25-31.81-.46-5.03-4.62-11.46-10.31-10.27ZM342.92,156.53c-3.8.64-7.76,4.81-8.52,8.55-.71,3.51-.69,33.06.29,35.22s6.47,5.02,8.96,5.05c14.57.16,8.41-19.07,8.42-27.51,0-3.11,1.21-5.88,1.17-8.98-.07-5.54-3.72-13.44-10.31-12.33ZM388.43,202.01c4.65,5.26,15.33,3.72,16.65-3.21.94-4.93.67-27.46-.07-32.86-1.88-13.86-16.66-11.8-18.65.15-1,5.98-.96,23.54-.27,29.75.21,1.87,1.12,4.79,2.34,6.16ZM440.38,160.67c-4.57,5-1.38,13.61-1.41,19.28-.03,6.71-3.36,16.74,2.57,22.4,5.33,5.08,14.19,2.38,15.46-4.57.77-4.23.73-30.7-.16-34.7-1.72-7.71-11.66-7.66-16.46-2.4Z"/>
      <path d="M370.75,406.82l27.27-.57c2.58,1.2,4.88,3.89,4.94,6.79.03,1.3-.66,2.58-.59,4.05.26,5.65,1.47,13.15.61,18.74-.27,1.76-3.54,6.2-4.95,6.2h-27.28v24.35c0,2.04-3.91,5.43-6.15,5.47-6.3.12-12.97-.61-19.4-.51-2.84.04-3.47,1.56-6.43-.56-.59-.43-2.64-2.74-2.64-3.23v-25.52h-27.28c-1.79,0-4.74-3.56-5.01-5.55-.62-4.55-.55-19.44.01-24.1s4.2-6.72,8.53-6.78c1.67-.02,3.1.64,4.66.66,6.4.07,12.72.3,19.1.57-.11-5.57.13-11.17.02-16.75-.07-3.68-1.91-6.95.56-10.54,3.47-5.02,5.96-2.47,10.26-2.59,6.15-.18,13.15-1.58,19.33-.6,1.8.28,4.43,2.64,4.43,4.37v26.11Z"/>
      <path d="M665.87,288.27c3.31-2.46,23.89,8.05,28.33,10.12,18.9,8.8,40.06,19.52,58.26,29.66,3.61,2.01,21.51,12.22,22.57,14.4.91,1.87.9,2.75.22,4.69-1.96,5.57-8.65,12.82-11.65,18.37-5.3,9.84-11.37,22.38-16.35,32.6-1.73,3.54-6.02,17.37-8.45,18.53-20.43,2.56-40.43-4.19-60.45-6.49-11.27-1.3-23.77-.61-34.84-2.13-9.18-1.26-17.44-6-26.18-8.82-.81-1.19,3.79-12.23,4.72-14.39,13.52-31.54,31.35-61.29,45.43-92.55l-1.61-3.99Z"/>
      <path d="M792.66,321.16c-2.3,1.64-33.24-18.38-38.21-21.08-14.53-7.9-31.35-16.61-46.25-23.68-9.41-4.47-19.06-9.14-29.35-11.12,14.03-26.32,23.32-63.5,55.19-73.18,53-16.11,99.13,32.87,80.44,84.44-3.85,10.61-10.87,24.75-16.01,34.94-1.61,3.19-5.22,5.72-5.81,9.68ZM743.59,211.54c-6.83.58-21.01,8.86-18.61,17.06.73,2.48,6.4,6.78,9.22,6.68,3.22-.12,16.8-9.21,18.06-11.97,2.43-5.33-2.82-12.27-8.67-11.77Z"/>
      <path d="M299.01,746.05c33.41.91,68.44-2.1,101.68-.3,3.01.16,9.33.56,11.95,1.03,1.28.23,1.87.31,2.32,1.67,1.52,4.58,4.62,21.56-3.28,21.36-38.03-.18-75.97-.46-113.85,1.86-17.96-4.2-15.87-22.21,1.18-25.62Z"/>
      <path class="d" d="M388.43,202.01c-1.22-1.38-2.13-4.3-2.34-6.16-.7-6.21-.73-23.78.27-29.75,2-11.95,16.78-14.01,18.65-.15.73,5.4,1,27.93.07,32.86-1.32,6.93-12,8.47-16.65,3.21Z"/>
      <path class="d" d="M500.51,155.8c12.21.1,9.97,21.92,9.53,30.07-.15,2.74-.73,11.97-1.25,13.74-2.35,8.02-15.1,7.18-17.35-2.22-.97-4.09-1.09-31.47.02-35.09.94-3.07,5.89-6.53,9.05-6.5Z"/>
      <path class="d" d="M342.92,156.53c6.6-1.11,10.24,6.79,10.31,12.33.04,3.1-1.17,5.87-1.17,8.98-.01,8.44,6.15,27.67-8.42,27.51-2.49-.03-7.98-2.87-8.96-5.05s-1-31.71-.29-35.22c.76-3.74,4.72-7.91,8.52-8.55Z"/>
      <path class="d" d="M440.38,160.67c4.8-5.26,14.74-5.3,16.46,2.4.89,4.01.93,30.47.16,34.7-1.27,6.95-10.13,9.65-15.46,4.57-5.94-5.65-2.6-15.69-2.57-22.4.03-5.67-3.16-14.28,1.41-19.28Z"/>
      <path class="d" d="M743.59,211.54c5.86-.5,11.1,6.44,8.67,11.77-1.26,2.76-14.83,11.85-18.06,11.97-2.82.11-8.5-4.19-9.22-6.68-2.4-8.2,11.77-16.48,18.61-17.06Z"/>
      <path d="M835.64,398.79l-430.86,9.2c-15.2.32-26.66,13.95-24.33,28.97,8.72,56.21,38.47,179.88,134.1,221.65-.71,12.01-5.99,67.94-43.06,64.18-41.52-4.21-43.57,43.99-43.57,43.99l165.98,2.43.03-.09c39.27.69,143.61,1.53,162.08-.13.59-.32,51.97-.98,52.22-5.01,1.89-30.86-13.32-60.27-39.45-76.8l-68.69-17.39c7.19-2.73,14.55-6.37,22.31-11.1,23.3-9.18,44.18-23.99,54.91-35.78,17.35-19.08,33.9-42.77,46.17-68.21,25.98-47.04,34.79-97.84,37.76-128.4,1.46-14.98-10.54-27.85-25.58-27.52Z"/>
    </g>
  </g>
</svg>