<?xml version="1.0" encoding="UTF-8"?>
<svg id="b" data-name="Layer 2" xmlns="http://www.w3.org/2000/svg" viewBox="0 0 214.78 207">
  <defs>
    <style>
      .d {
        fill: #dd7219;
      }

      .e {
        fill: #1762ce;
      }
    </style>
  </defs>
  <g id="c" data-name="Layer 2">
    <g>
      <path class="e" d="M122.85,8.54l22.24,32.5c.75,1.1,1.86,1.91,3.14,2.28l37.78,11.1c10.86,3.19,15.12,16.3,8.21,25.27l-24.04,31.19c-.81,1.06-1.24,2.36-1.2,3.69l1.11,39.36c.32,11.32-10.83,19.42-21.5,15.62l-37.09-13.22c-1.25-.45-2.63-.45-3.88,0l-37.09,13.22c-10.66,3.8-21.82-4.3-21.5-15.62l1.11-39.36c.04-1.33-.39-2.64-1.2-3.69l-24.04-31.19c-6.91-8.97-2.65-22.08,8.21-25.27l37.78-11.1c1.28-.38,2.39-1.18,3.14-2.28l22.24-32.5c6.39-9.34,20.18-9.34,26.57,0Z"/>
      <circle class="d" cx="51.74" cy="16.84" r="16.84"/>
      <circle class="d" cx="166.99" cy="16.84" r="16.84"/>
      <circle class="d" cx="111.72" cy="190.16" r="16.84"/>
      <circle class="d" cx="16.84" cy="121.48" r="16.84"/>
      <circle class="d" cx="197.93" cy="123.88" r="16.84"/>
    </g>
  </g>
</svg>