<?xml version="1.0" encoding="UTF-8"?>
<svg id="b" data-name="Layer 2" xmlns="http://www.w3.org/2000/svg" viewBox="0 0 1095.31 1090.92">
  <defs>
    <style>
      .d {
        fill: #fff;
      }
    </style>
  </defs>
  <g id="c" data-name="Layer 1">
    <g>
      <circle class="d" cx="549.31" cy="513.67" r="491"/>
      <g>
        <path d="M502.11,182.97c138.35-10.84,250.21,132.98,191.37,263.37-58.32,129.26-226.73,160.58-322.69,53.34-109.39-122.26-26.73-304.33,131.31-316.71ZM502.11,220.97c-149.11,12.5-203.63,200.2-73.72,282.12,90.44,57.02,202.02,19.26,237.66-81.17,37.95-106.94-54.91-210.09-163.95-200.95Z"/>
        <path d="M295.1,542.97c26.5-1.44,65.4,8.22,88.88,20.54,7.94,4.17,15.89,10.17,23.95,14.05,41.28,19.87,106.17,35.14,151.2,25.44,39.03-8.41,70.31-29.51,105.83-44.17,64.98-26.83,134.35-19.73,191.29,21.43,10.49,7.59,21.22,21.42,13.89,34.75-3.34,6.06-10.66,12.35-18.06,11.5-6.87-.8-30.12-20.21-39.09-24.99-32.47-17.3-86.45-19.29-120.92-7.58-28.38,9.64-55.31,26.7-83.08,37.92-63.67,25.71-110.12,24.86-174.63,2.29-36.56-12.79-61.78-42.64-102.55-45.45-45.03-3.1-77.36,2.27-115.8,25.18-12.69,7.56-24.68,23.06-39.23,8.85-11.49-11.22-4.75-28.9,6.07-38.01,24.48-20.6,80.53-40.01,112.27-41.74Z"/>
        <path d="M749.1,650.97c13.44-.98,46.27,7.94,59.97,12.44,10.64,3.49,24.04,9.05,34.22,13.78,12.18,5.66,27.95,17.32,29.05,32,.95,12.78-12.26,23.43-24.75,19.7-7.49-2.23-22.06-16.15-31.23-20.77-36.36-18.31-83.1-14.01-121.25-4.16-30.72,7.93-57.05,28.3-86.12,40.88-52.58,22.77-102.64,26.92-157.19,6.84-26.47-9.75-48.61-27.51-73.81-39.19-43.57-20.21-125.31-21.41-166.01,6.34-10.68,7.29-18.88,19.53-33.17,8.83-13.81-10.34-6.8-30.86,4.49-40.51,5.35-4.58,15.43-9.07,22.04-11.96,66.91-29.2,127.83-24.55,193.64,4.29,22.83,10,44.45,23.38,68.56,30.44,28.35,8.3,74.47,10.97,102.98,3.45,38.63-10.19,72.85-35.14,111.27-47.73,17.19-5.64,49.59-13.39,67.31-14.69Z"/>
        <path d="M279.11,758.97c25.73-2.18,53.75,5.19,77.97,13.43,61.63,20.96,107.83,70.85,178.6,62.15,51.95-6.39,91.68-39.66,139.36-57.64,26.65-10.05,60.13-20.48,88.75-18.22,21.79,1.72,78.45,23.63,95.04,37.96,11.94,10.31,21.64,27.08,6.48,39.53-8.2,6.74-13,5.61-21.32.31-16-10.19-22.72-20.1-42.44-27.56-87.94-33.25-144.67,31.19-220.73,57.77-45.94,16.05-80.77,16.4-126.5-1.54-40.38-15.84-73.06-48.61-114.8-59.2-35.19-8.93-80.92-8.18-113.14,10.3-9.71,5.57-27.04,23.26-36.58,23.5-19.56.49-21.82-27.13-11.91-39.99,13.56-17.6,78.91-38.9,101.21-40.79Z"/>
        <path class="d" d="M502.11,220.97c109.03-9.14,201.9,94,163.95,200.95-35.64,100.43-147.23,138.19-237.66,81.17-129.91-81.91-75.4-269.62,73.72-282.12ZM430.97,284.01c-9.54-9.62-22.86.89-23.28,13.33-1.31,39.14,53.64,58.11,78.03,26.24,7.05-9.21,13.45-31.05,1.55-38.37-20.79-12.79-18.3,28.05-41.53,19.53-9.79-3.59-9.87-15.8-14.77-20.74ZM606.01,281.89c-11.84,2.74-9,27.71-29.77,23.34-14.86-3.13-13.82-31.16-31.27-20.38s-1.84,37.97,10.42,47.25c26.23,19.84,67.37-.3,68.96-32.89.53-10.83-6.91-19.95-18.34-17.31ZM420.11,361.93c-18.61,1.63-26.95,23.09-15.32,37.76,54.17,68.29,168.21,72.56,221.92,1.9,13.39-17.61,3.72-39.22-17.97-39.94-18.37-.61-18.29,18.05-25.62,28.35-10.56,14.86-39.61,25.53-57.34,26.66-21.95,1.41-61.24-8.67-75.47-26.51-8.83-11.08-10.82-29.92-30.22-28.22Z"/>
        <path d="M420.11,361.93c19.4-1.7,21.39,17.14,30.22,28.22,14.22,17.85,53.51,27.92,75.47,26.51,17.73-1.14,46.78-11.81,57.34-26.66,7.32-10.3,7.25-28.96,25.62-28.35,21.69.72,31.35,22.33,17.97,39.94-53.71,70.66-167.75,66.38-221.92-1.9-11.64-14.67-3.3-36.13,15.32-37.76Z"/>
        <path d="M430.97,284.01c4.9,4.94,4.97,17.15,14.77,20.74,23.22,8.51,20.74-32.32,41.53-19.53,11.9,7.32,5.5,29.17-1.55,38.37-24.39,31.87-79.34,12.9-78.03-26.24.42-12.44,13.74-22.95,23.28-13.33Z"/>
        <path d="M606.01,281.89c11.43-2.64,18.87,6.48,18.34,17.31-1.59,32.58-42.73,52.73-68.96,32.89-12.26-9.28-27.96-36.42-10.42-47.25s16.41,17.25,31.27,20.38c20.76,4.37,17.93-20.6,29.77-23.34Z"/>
        <path d="M530.63.5l31.22-.5c322.18,7.84,554.63,274.26,531.92,593.75-18.76,263.92-228.93,468.56-489.86,494.38C267.63,1121.42-21.06,851.6,1.21,512.52,20.01,226.14,244.05,10.77,530.63.5ZM918.34,193.57C702.79-36.62,308.79-6,129.39,252.42,16.48,415.07,4.47,635.99,107.42,806.59c197.15,326.71,685.72,331.74,880.74.59,116.59-197.98,86.13-447.08-69.81-613.61Z"/>
      </g>
    </g>
  </g>
</svg>