<?xml version="1.0" encoding="UTF-8"?>
<svg id="b" data-name="Layer 2" xmlns="http://www.w3.org/2000/svg" viewBox="0 0 1152.19 1147.57">
  <defs>
    <style>
      .d {
        fill: #fff;
      }
    </style>
  </defs>
  <g id="c" data-name="Layer 1">
    <g>
      <path d="M559.75,532l1.05,53.55c-.5,35.3-2.61,54.83-30.03,78.97-21.52,18.95-48.5,26.14-77.02,24.48-.75,4.96.91,9.71,1.05,14.46,1.87,61.11-1.12,123.45-.49,184.6l-5.98,6.02-232.12.97c-6.87.02-14.59-2.98-15.48-10.52l.06-267.06c-2.49-45.23-23.59-58.99-43.21-94.79-56.31-102.72-19.97-230.33,79.25-290.09,145.72-87.75,324.51,6.69,336.91,174.93.38,5.2-.95,13.21.25,17.75.79,2.98,8.54,14.76,10.62,19.38,6.38,14.18,11.71,31.58,14.01,46.99,1.13,7.6,3.08,22.73.85,29.58-1.81,5.58-7.03,10.78-13.22,10.78h-26.5ZM268.75,482.01c-11.94,15.03-25.07,29.88-35.23,46.26-4.72,7.61-9.92,14.36-6.26,23.72,1.88,4.79,5.74,7.89,11.02,8.06,16.31.52,9.6-12.05,11.68-21.33,1.13-5.05,21.87-27.19,26.76-32.24,14.28-14.72,30.9-27.18,44.03-43,3.38-2.12,9.61,3.84,13.56,4.46,31.73,4.97,63.89-22.64,65.47-54.4.28-5.65-5.25-18.97,2.92-16,6.27,2.29,10.62,6.41,18.66,7.36,28.84,3.38,65.13-20.47,68.27-50.52,1.67-15.96.02-35.97-11.84-47.91-2.74-2.76-8.78-5.71-10.47-8.53-1.82-3.04-2.7-9.61-4.39-13.61-5.59-13.27-12.91-17.29-27.19-18.81-13.01-27.99-47.03-45.09-76.37-30.38-4.63,2.32-13.2,11.12-17.05,10.87-2.32-.15-10.89-7.04-14.36-8.7-27.15-12.99-50.52-7.16-65.22,19.26-34.71-7.77-59.9,26.34-59.1,58.34-32.86,9.07-42.36,49.51-25.12,76.84,1.44,2.28,6.59,7.18,7.08,9,.67,2.49-1.8,7.42-1.91,10.76-.53,15.57,7.88,32.84,21.74,40.33,3.4,1.84,9.17,2.84,11.85,5.15,1.83,1.58,3.09,4.99,4.96,7.04,11.54,12.58,29.73,17.54,46.51,18ZM525.4,410.35c-7.04-7.53-20.9-9.79-29.59-3.78-18.5,12.81-2.24,44.22,21.93,35.93,13.33-4.57,17.15-22,7.66-32.15ZM469.46,530.21c-4.66,1.07-8.51,7.52-8.36,12.13.2,6.45,11.8,21.53,16.61,26.2,15.86,15.42,45.38,18.67,66.31,15.21,14.22-2.35,14.42-18.26,1.24-19.76-21.61-2.45-36.94,5.89-54.01-13.99-7.39-8.6-7.9-22.99-21.78-19.8Z"/>
      <path d="M712.1,212.35c40.08-40.42,105.55-29.75,130.18,21.62,30.28,63.15-33.07,123.55-96.54,104.54-52.46-15.72-73.03-86.44-33.64-126.16ZM809.76,308c10.8-7.75,19.7-28.6,20.02-41.56.62-24.76-25.44-52.03-49.54-54.43-21.84-2.18-49.65,2.24-61.01,22.97-22.94,41.88,8.45,88.58,55.76,81.76,23.33-3.36,30.3-50.35,4.81-55.28-5.53-1.07-10.11-1.45-13.54,3.53-9.05-6.05-3.94-29.69,6.23-31.75,18.95-3.85,36.17,13.43,41.3,30.24,3.3,10.82,3.17,21.58.5,32.57-1.02,4.21-3.4,7.84-4.52,11.97Z"/>
      <path d="M671.75,514c6.97-1.65,14.04-1.18,21,0-11.87,25.83,12.35,51.75,39.05,47.54,10.53-1.66,22.65-10.65,29.46-18.54,2.29-2.65,9.69-15.06,10.48-15.56,1.78-1.13,7.45.62,9.37,1.68,2.4,1.33,18.67,19.21,22.15,22.85,11.73,12.29,22.73,25.26,34.46,37.54,8.89,9.31,19.14,17.89,26.96,27.91-1.56,9.62-6.69,18.63-17.99,15.12-4.83-1.5-22.01-23.02-26.92-28.08s-21.02-21.59-27.62-22.44c-6.11-.79-12.19,7.87-9.48,12.5,9.65,9.36,19.02,19.01,28.55,28.49,6.93,6.89,16.1,14.14,22.54,21.46,7.05,8.01-3.01,19.07-11.6,19.46-6.94.31-23.77-16.18-29.43-21.43-13.25-12.28-24.35-30.78-44.99-28.51,1.09-13.65-12.3-27.78-25.5-28.99-25.47-2.33-35.34,20.79-50.49,35.98v-107Z"/>
      <path d="M891.75,515v104.5c0,2.3-1.65,8.93-2.52,11.48-4.88,14.17-23.67,19.61-35.47,26.02l1.17-7.83c22.69-2.15,35.57-26.31,20.34-45.18-14.95-18.52-35.03-35.89-51.03-53.97-16.79-18.98-26.84-44.02-55.97-41-17.3,1.79-23.18,30.65-40.25,33.75-13.28,2.42-24.49-13.07-18.66-25.66,6.61-14.27,35.82-36.66,51.91-38.09,32.99-2.93,57.05-1.46,82.5,20.47,3.31,2.85,14.13,15.51,17.49,15.51h30.5Z"/>
      <path d="M911.89,646.86c-.87-1.66-1.05-3.47-1.19-5.32-3.58-49.27,2.58-103.07.28-152.8,1.37-5.22,2.21-7.24,7.71-8.29,4.8-.92,24.96-1.3,29.53-.42,2.96.57,7.7,6.24,7.54,9.46l-.24,149.81c-.77,3.44-5.02,6.15-8.35,6.65s-9.33.9-12.9,1.1c-7.4.41-15-.26-22.4-.18Z"/>
      <path d="M653.64,643.89l-35.33,2.05c-3.64-.58-7.1-4.28-8.35-7.65.17-25.57-.94-51.27-.25-76.83.41-15.24,2.39-30.7,3.08-45.92.26-5.58-1.22-30.89,1.2-33.3,4.11-1.87,9.71-1.41,14.3-1.28,4.05.12,14.09.66,17.53,1.47,4.03.95,5.98,3.47,6.49,7.51-.18,45.9-1.03,91.77.4,137.6.16,5.13,2.06,10.87.93,16.35Z"/>
      <path d="M876.49,351.25c3.41,3.69.15,20.23,1.27,25.75,4.55-1.87,12.84-13.12,16.01-14.48,6.79-2.91,12.29,3.12,10.79,9.76-.64,2.86-10.81,12.86-9.8,13.72,8.35-.24,19.93-1.67,18.78,10.28-1.16,12.06-20.14,4.48-27.78,4.74,1.32,1.98,4.35,2.32,6.49,3.99,5.1,4,19.91,17.67,7.55,21.56-8.12,2.56-12.39-9.13-17.23-13.88-.88-.86-.84-2.19-2.81-1.68-2.64,8.21,2.78,26.02-10.49,25.06-12.2-.89-7.07-16.21-9.52-24.06-9.15.32-9.91,17.31-19.73,13.24-14.7-6.09,14.9-17.22,15.74-24.23-2.42-1.77-22.93,8.88-27.48-2.03-5.31-12.75,9.48-14.93,18.48-11.99-4.2-6.37-19.01-17.35-7.55-24.05,7.68-4.49,14.13,12.15,20.05,15.04,4.63-7.58-2.25-18.6,2.45-26.28,2.31-3.77,12.05-3.41,14.79-.45Z"/>
      <path d="M687.75,376c3.66.86,3.59-2.33,5.5-4,4.05-3.55,11.32-11.85,16.47-9.49,11.3,5.17-1.97,18.17-5.97,23.48,7.94.32,18.68-2.76,18.91,8.62.3,14.7-18.49,5.07-26.91,6.4-.57,2.3.43,1.64,1.26,2.29,5.12,3.95,22.82,15.74,13.46,21.93-6.73,4.46-12.54-3.9-16.16-9.28-1.5-2.22-.97-6.25-4.05-4.93-2.92,1.25-1.77,17.02-2.71,20.29-2.47,8.52-17.79,4.47-17.79-3.79v-16c0-.18-1.59-1.77-1.98-1.5-.26,1.8-1.49,3.53-2.6,4.91s-8.52,9.79-9.11,10.14c-6.02,3.59-14.52-2.69-9.78-9.04l19.47-15.01c-8.28-.29-29.08,8.84-29.09-6.51,0-10.13,9.73-8.65,17.09-8.51-1.14-6.53-10.49-11.88-7.47-18.97,5.05-11.88,16.98,7.57,21.98,10.97.29.13,1.5-2.35,1.5-2.5v-20c0-.29,2.49-4.5,3.03-4.97,3.88-3.3,14.97-.33,14.97,2.97v22.5Z"/>
      <path d="M636.75,276c1.41,4.23,4.56,7.02,6.05,11.45,4.59,13.61,2.85,28.58-13.96,16.96-11-7.61-27.58-20.56-37.57-29.43-11.9-10.56-2.95-16.52,6.47-24.49s25.02-21.05,35.08-27.92c3.82-2.61,7.85-3.13,11.49.38,6.3,6.08-2.97,22.24-5.55,29.04l30.57,1.94c6.72,3.97,2.66,22.07-3.07,22.07h-29.5Z"/>
      <path d="M903.75,252c.44-1.76-.74-2-1.5-3-4.61-6.11-22.65-21.13-13.76-29.04,7.77-6.91,17.74,7.15,23.79,12.01,8.76,7.05,19.23,14.02,27.48,21.52,10.79,9.8,13.71,13.81.9,23.92-6.37,5.03-13.86,9.46-20.37,14.63-6.48,5.14-22.25,24.78-30.02,13.93-6.56-9.16,6.7-22.54,12.48-28.97-2.13-2.1-22.67-.33-27.44-1.07-8.55-1.33-11.21-17.88-4.13-22.01.75-.44,6.48-1.93,7.07-1.93h25.5Z"/>
      <path d="M691.39,830.36c9.34-.43,19.85,6.3,23.92,14.58,9.28,18.89-14.86,44.33-34.06,30.06s-11.71-43.63,10.14-44.64Z"/>
      <path d="M767.48,832.24c9.45-1.62,20.01,3.43,25.1,11.42,12.97,20.36-15.41,48.69-35.33,29.33-13.37-13-9.27-37.4,10.22-40.75Z"/>
      <path d="M611.53,832.23c7.83-.85,19.01,4.39,23.65,10.83,14.55,20.2-18.48,52.25-37.43,27.43-10.65-13.94-4.12-36.32,13.78-38.27Z"/>
      <path d="M845.48,833.24c22.72-3.87,36.38,20.87,20.69,38.68-20.95,23.79-52.08-10.48-33.85-30.85,2.78-3.11,9.05-7.13,13.16-7.83Z"/>
      <path d="M689.52,753.25c8-.97,18.96,3.26,23.67,9.81,14.78,20.57-15.71,49.69-35.43,29.43-13.1-13.47-7.39-36.92,11.76-39.24Z"/>
      <path d="M766.49,754.24c20.95-3.59,38.06,16.21,23.79,34.79-8.88,11.56-22.08,14.55-33.53,4.49-14.12-12.39-8.91-36.07,9.75-39.27Z"/>
      <path d="M611.52,753.25c25.56-3.14,38.13,28.82,14.92,42.94-30.4,18.5-49.97-38.64-14.92-42.94Z"/>
      <path d="M834.1,793.65c-22-23.15,10.07-54.26,32.19-32.69,20.49,19.98-12.93,52.95-32.19,32.69Z"/>
      <path d="M533.49,834.24c18.54-3.19,35.99,14.61,25.1,32.1-9.4,15.11-27.18,17.56-38.27,2.59-9.69-13.08-2.36-32.02,13.17-34.69Z"/>
      <path d="M532.49,754.24c25.17-4.28,40.48,23.71,18.59,39.59-15.05,10.92-34.02-.4-36.13-17.6-1.17-9.48,8.51-20.46,17.54-21.99Z"/>
      <path d="M719.4,630.65c-.75.84-2.27,1.24-3.19,2.29-4.04,4.61-17.75,22.21-22.43,23.65-5.42,1.67-12.27-5.72-13.56-10.56-3.31-12.41,7.64-18.06,15.04-26.02,8.05-8.65,12.59-21.14,26.89-14.92,13.99,6.08,3.48,18.52-2.75,25.56Z"/>
      <path d="M653.48,919.23c10.47-1.92,23.79,1.81,28.44,12.1,10.8,23.89-28.42,39.72-39.06,15.06-4.34-10.04-1.79-24.88,10.62-27.16Z"/>
      <path d="M743.39,925.36c5.86,5.9,7.48,15.56,2.79,22.57-9.03,13.52-29.8,14.68-36.93-.93-10.52-23.06,18.17-37.71,34.14-21.64Z"/>
      <path d="M744.46,630.21c7.4-1.68,17.97,5.3,14.53,13.54-1.87,4.49-15.97,17.81-20.22,22.77-3.17,3.7-8.5,13.63-12.96,15.03-9.54,2.99-19.06-7.07-15.54-16.53l27.46-29.54c2.04-1.81,3.9-4.62,6.74-5.27Z"/>
      <path d="M414.47,920.23c21.19-4.33,35.07,19.61,19.77,33.77-14.07,13.02-37.54.98-34.43-18.44,1-6.22,8.51-14.08,14.66-15.33Z"/>
      <path d="M474.48,920.23c9.98-1.83,22.07,1.38,25.76,11.78,7.73,21.82-22.54,37.41-36.01,19.02-7.04-9.61-2.5-28.45,10.26-30.79Z"/>
      <path d="M788.49,919.24c7.9-1.26,19.65,2.71,23.01,10.52,9.16,21.29-20.64,41.65-35.58,19.58-7.58-11.2-.8-27.96,12.57-30.1Z"/>
      <path d="M541.56,919.23c15.63-.89,25.55,11.91,20.68,26.76-7.25,22.11-43.78,14.7-38.05-12.05,1.58-7.39,9.97-14.29,17.37-14.71Z"/>
      <path d="M350.46,920.21c20.43-4.56,35.82,17.44,20.33,33.33-13.25,13.59-36.57,2.47-33.95-16.96.82-6.1,7.54-15.02,13.62-16.37Z"/>
      <path d="M290.49,920.24c17.25-3,31.71,16.35,20.67,30.67-5.95,7.72-13.87,10.73-23.22,7.4-17.47-6.22-16.2-34.81,2.55-38.07Z"/>
      <path d="M598.51,920.27c15.89-2.53,24.09,9.35,22.26,24.26-1.25,10.17-12.2,14.63-21.44,13.38-18.03-2.45-18.51-34.83-.82-37.64Z"/>
      <path d="M766.49,660.25c7.97-2.07,13.06,2.01,12.3,10.25-.43,4.75-6.68,11.44-10.02,15.02-5.48,5.89-15.29,16.16-23.95,10.89-2.51-1.53-5.57-6.16-4.36-9.11.54-1.32,12.47-15.99,14.25-17.83s9.78-8.7,11.77-9.22Z"/>
      <path d="M793.89,678.85l1.91-10.82c12.33,1.71,11.26,15.09-1.91,10.82Z"/>
      <path class="d" d="M469.46,530.21c13.88-3.19,14.39,11.19,21.78,19.8,17.07,19.87,32.41,11.54,54.01,13.99,13.18,1.5,12.98,17.41-1.24,19.76-20.93,3.46-50.45.21-66.31-15.21-4.81-4.67-16.41-19.76-16.61-26.2-.14-4.61,3.7-11.06,8.36-12.13Z"/>
      <path class="d" d="M525.4,410.35c9.49,10.15,5.67,27.58-7.66,32.15-24.17,8.29-40.43-23.12-21.93-35.93,8.69-6.01,22.54-3.75,29.59,3.78Z"/>
      <path class="d" d="M809.76,308c1.12-4.13,3.5-7.75,4.52-11.97,2.67-10.99,2.8-21.74-.5-32.57-5.13-16.81-22.35-34.08-41.3-30.24-10.17,2.06-15.28,25.7-6.23,31.75,3.44-4.98,8.01-4.6,13.54-3.53,25.49,4.93,18.52,51.92-4.81,55.28-47.31,6.82-78.7-39.88-55.76-81.76,11.36-20.73,39.16-25.15,61.01-22.97,24.1,2.41,50.16,29.67,49.54,54.43-.32,12.96-9.23,33.81-20.02,41.56ZM751.75,227c-26.82-.79-30.78,33.23-20.44,51.95,7.69,13.94,29.1,26.28,44.34,18.46,5.71-2.93,8.39-7.09,6.88-13.69-1.91-8.37-13.05-4.97-19.2-5.8-15.15-2.05-18.58-18.17-16.14-30.97,1.28-6.74,5.44-12.86,4.56-19.95Z"/>
      <path d="M751.75,227c.88,7.09-3.28,13.2-4.56,19.95-2.44,12.79.99,28.92,16.14,30.97,6.14.83,17.28-2.57,19.2,5.8,1.51,6.6-1.17,10.76-6.88,13.69-15.24,7.82-36.65-4.52-44.34-18.46-10.33-18.72-6.37-52.73,20.44-51.95Z"/>
      <path d="M558.19.53l32.84-.53c338.92,8.25,583.44,288.5,559.55,624.59-19.73,277.63-240.82,492.89-515.3,520.06C281.53,1179.66-22.15,895.82,1.27,539.13,21.05,237.89,256.72,11.33,558.19.53ZM966.04,203.63C739.29-38.52,324.83-6.31,136.11,265.53,17.33,436.62,4.71,669.02,113,848.48c207.39,343.68,721.33,348.97,926.48.62,122.65-208.26,90.6-470.29-73.44-645.48Z"/>
    </g>
  </g>
</svg>