<?xml version="1.0" encoding="UTF-8"?>
<svg id="b" data-name="Layer 2" xmlns="http://www.w3.org/2000/svg" viewBox="0 0 997.56 982.03">
  <defs>
    <style>
      .d {
        fill: #fff;
      }
    </style>
  </defs>
  <g id="c" data-name="Layer 1">
    <g>
      <circle class="d" cx="491" cy="491" r="491"/>
      <g>
        <g>
          <path d="M524.89,690.44c21.59-1.45,43.58-7.41,63.29-16.3,21.03-9.49,39.05-21.51,55.97-37.14,35.73-33.01,60-80.62,65.17-129.17,11.55,2.43,23.68.67,35.44,1.2-4.33,46.63-23.7,91.96-52.89,128.23-31.65,39.33-77.16,68.63-126,81.85-13.08,3.54-27.47,6.6-40.98,7.38v-36.04Z"/>
          <path d="M475.03,727.09c-13.77-1.93-27.56-4.3-40.98-7.98-94.54-25.96-169-112.33-177.08-210.68h35.44c6.34,76.73,64.56,147.59,136.84,172.23,14.82,5.05,30.34,8.12,45.78,10.38v36.04Z"/>
          <path d="M709.61,459.17c-.25.03-.82.83-1.5.6-5.61-46.41-28.65-89.64-61.55-122.29-32.12-31.89-76.83-54.1-122.28-57.92l1.23-16.49-.63-18.35c37.97,2.28,75.94,16.36,107.84,36.63,61.26,38.93,101.4,106.29,112.02,177.82h-35.14Z"/>
          <path d="M256.37,459.17c8.23-56.8,34.74-110.38,76.28-149.89,24.43-23.23,57.67-42.62,89.66-53.31,16.96-5.67,34.72-10.55,52.73-10.65l-.03,34.81c-24.6,2.02-48.86,9.61-70.65,20.95-59.94,31.19-103.69,90.93-111.33,158.69-.66.23-1.32-.6-1.5-.6h-35.14Z"/>
          <path d="M327.56,716.27c7.53,1.06,12.74,10.04,12.95,17.1.28,9.52-8.71,17.09-17.73,17.77s-19.66-.58-28.84-.65c-13.65-.11-39.95,3.25-49.9-5.97-9.19-8.52-8.21-18.01-8.67-29.17-.72-17.33-.8-34.98-.67-52.25.09-11.68,8.17-20.29,20.17-18.91,2.14.25,5.97,1.79,7.51,3.3,1.17,1.15,5.4,9.52,5.4,10.82v57.07l.9.9h58.87Z"/>
          <path d="M267.79,271.14v59.77c0,1.96-3.74,8.11-5.39,9.62-11.48,10.53-26.45,1.54-27.67-12.61,1.08-20.85-1.39-43.03.05-63.73.86-12.33,9.33-25.39,22.5-26.7,19.32-1.92,44.25.2,64.3.02,2.66-.02,3.56-1.01,6.77-.21,7.01,1.74,12.54,10.21,12.14,17.28s-7.5,16.54-14.73,16.54h-57.97Z"/>
          <path d="M733.34,271.74l-59.83-1.09c-17.65-4.96-17.97-31.18,1.86-33.14,21.58-2.13,46.53,1.58,68.47,0,12.68,1.73,21.34,13.94,22.53,26.13,2.03,20.84-1.67,44.64.21,65.78-2.41,11.95-15.89,20.88-26.65,12.32-2.81-2.23-6.59-8.5-6.59-12.03v-57.97Z"/>
          <path d="M733.34,716.27v-56.77c0-.56,1.87-5.8,2.29-6.72,3.63-8.01,10.9-9.2,19-7.96,7.46,1.15,11.25,11.06,11.77,17.66,1.59,20.07-1.23,42.2-.03,62.49-1.16,11.9-11.51,24.5-23.76,25.46-15.89,1.24-33.32.25-49.2.06-8.54-.11-18.51,1.85-25.76-3.08-5.94-4.04-8.03-12.42-6.1-19.12,4.46-15.49,21.45-11.31,34.26-11.39,3.54-.02,7.25.04,10.76,0,8.98-.1,17.8-.54,26.76-.63Z"/>
          <path class="d" d="M499.54,369.84c56.68-3.98,109.41,34.91,124.17,89.33,31.89,117.64-109.04,201.09-198.85,117.75-74.66-69.27-25.26-200.07,74.68-207.08ZM599.19,498.05c.52-1.11.31-10.75.19-12.75-4.44-72.94-82.81-116.89-144.36-71.09-55.24,41.1-47.27,127.1,15,156.6,54.29,25.71,119.3-9.38,128.44-68.31.38-2.43-.6-1.58.74-4.45Z"/>
          <path d="M599.19,498.05c-1.34,2.87-.36,2.02-.74,4.45-9.13,58.93-74.15,94.02-128.44,68.31-62.27-29.5-70.24-115.5-15-156.6,61.56-45.8,139.93-1.85,144.36,71.09.12,2,.33,11.64-.19,12.75ZM500.53,424.05c-30.41,3.61-58.3,38.49-55.53,69.05,5.25,57.85,78.2,81.31,113.52,33.63,33.12-44.71-3.69-109.13-57.99-102.68Z"/>
          <path class="d" d="M500.53,424.05c54.29-6.45,91.11,57.97,57.99,102.68-35.32,47.68-108.27,24.22-113.52-33.63-2.77-30.56,25.12-65.44,55.53-69.05ZM503.54,443.92c-36.22,3.99-52.25,50.39-25.74,76.46,23.58,23.2,68.86,10.19,73.59-23.03,4.19-29.48-16.35-56.9-47.85-53.43Z"/>
          <path d="M503.54,443.92c31.5-3.47,52.04,23.95,47.85,53.43-4.73,33.22-50.01,46.23-73.59,23.03-26.51-26.07-10.48-72.47,25.74-76.46ZM521.67,501.6c5.13-5.12,6.13-14.62,3.14-21.03-8.96-19.25-41.71-8.8-33.09,15.07,4.46,12.34,20.83,15.08,29.94,5.97Z"/>
          <path class="d" d="M521.67,501.6c-9.12,9.11-25.49,6.37-29.94-5.97-8.62-23.87,24.13-34.32,33.09-15.07,2.99,6.42,1.99,15.91-3.14,21.03Z"/>
        </g>
        <path d="M491.08,4l28.01-.45c288.98,7.03,497.47,245.99,477.1,532.56-16.82,236.72-205.33,420.26-439.37,443.43C255.18,1009.39-3.75,767.37,16.22,463.24,33.09,206.38,234.03,13.21,491.08,4ZM838.83,177.17C645.49-29.29,292.1-1.84,131.19,229.95c-101.27,145.88-112.04,344.04-19.71,497.06,176.83,293.04,615.05,297.55,789.96.53,104.57-177.57,77.25-401-62.62-550.37Z"/>
      </g>
    </g>
  </g>
</svg>