<?xml version="1.0" encoding="UTF-8"?>
<svg id="b" data-name="Layer 2" xmlns="http://www.w3.org/2000/svg" viewBox="0 0 998.56 987.45">
  <defs>
    <style>
      .d {
        fill: #fff;
      }
    </style>
  </defs>
  <g id="c" data-name="Layer 1">
    <g>
      <circle class="d" cx="491" cy="496.45" r="491"/>
      <g>
        <path d="M599.01,244.45c14.34-3.8,30.67-8.06,45.51-8.98,12.79-.79,20.41.91,19.35,15.36-1.16,15.86-7.89,33.91-12.79,48.97.53,1.83,15.75,7.48,18.94,9.14,5.88,3.05,23.65,12.53,27.38,16.62,3.99,4.38,4.96,9.24,1.61,14.41-2.21,3.41-18.43,17.28-22.53,20.47-17.38,13.54-39.65,22.13-61.97,21.01-3.86-.19-14.55-1.65-17.79-3.21-7.19-3.48-6.59-25.11-12.72-31.77,7.12,2.02,12.78,7.39,19.77,9.72,16.93,5.64,35.73.74,50.9-7.56,3.63-1.98,13.02-7.75,15.36-10.65,1.33-1.65.43-1.82-1.09-2.95-11.61-8.63-29.87-15.29-44.47-14.6s-31.49,10.21-43.96,16.71c-2.55,0-16.53-12.99-16.53-15.17,0-4.56,21.63-14.32,26.05-15.99,12.02-4.54,23.97-6.32,36.57-8.43,7.39-11.61,11.25-25.36,12.41-39.08-17.06,2.55-34.02,5.55-49.01,14.48-14.89,8.87-25.57,26.19-36.98,39.01-4.91,1.91-9.48-1.05-13.92-2.59,3.91-13.33,5.9-25.37,14.94-36.38,6.1-7.42,14.15-12.87,22-18.23l-1.03-36.3c-15.83,6.14-27.15,19.05-37.49,31.98-8.05-8.52-14.13-14.93-24.82-20.16-3.21-1.57-7.22-1.88-10.19-3.81-3.66-2.37-13.38-16.64-15.13-16.93-5.52,1.15-12.05,16.81-14.4,18.38-1.91,1.28-8.02,1.81-11.49,3.51-7.54,3.7-15.39,12.73-22.11,17.96-7.56-4.67-12-13.22-18.88-18.91-6.35-5.24-14.39-8.89-21.47-13.02-2.05,12.24-2.21,24.49-.35,36.76,10.43,7.97,23.14,15.41,29.76,27.31,2.17,3.9,6.11,17.18,7.11,21.88.35,1.64.8,3.29.38,4.97l-14.72,2.87c-2.8-3.94-5.21-8.5-8.22-12.27-9-11.28-21.23-24.7-34.72-30.28-12.64-5.23-27.73-7.55-41.26-9.23,1.42,13.62,5.73,26.3,12.66,38.07,9.54,1.65,18.69,2.13,28.1,4.66,6.71,1.8,27.77,8.18,32.95,11.05,1.71.95,4.33,3.1,3.85,5.3-.55,2.48-13.67,13.46-16.1,13.91-5.55,1.03-30.35-8.93-38.41-10.55-16.77-3.36-34.92,1.64-48.97,11.14-1.12.76-4.43,2.18-4.05,3.84,20.57,23.05,54.96,30.13,81.96,13.57-1.11,4.95-5.08,25.77-8.65,27.84-22.97,6.45-48.2,3.07-68.65-9.04-6.97-4.13-33.99-25.73-35.5-32.53-1.17-5.26,2.07-9.56,5.9-12.69,6.09-4.98,26.71-16.46,34.23-19.77,2.29-1.01,9.41-2.05,9.68-3.35-5.22-10.04-8.42-20.19-10.68-31.29-1.97-9.66-8.14-31.21,5.41-33.96,9.8-1.99,32.77,3.77,43.28,6.26,3.75.88,7.6,1.55,10.98,3.51-.2-10.57,1.36-44.01,8-51.51,7.67-8.66,25.41,2.51,33.68,7.34,7.93,4.63,18.8,12.27,25.79,18.2,1.53,1.3,3.77,5.36,5.02,4.98,4.87-9.92,11.67-19.74,19-28.02,5.63-6.36,15.67-18.11,24.77-15.74,4.37,1.14,22.4,23.81,26.15,28.84,1.73,2.32,8.85,14.59,10.2,14.86,8.43-7.46,16.96-14.39,26.72-20.12,5.71-3.36,26.44-14.78,31.93-13.66,5.03,1.02,7.25,5.29,8.29,9.78,3.3,14.34,4.92,29.34,4.46,44.05Z"/>
        <path d="M310.79,566.75c75.6-.41,93.63,54.93,154.17,68.24,72.95,16.03,93.54-24,149.01-54.06,52.34-28.36,118.93-15.11,162.03,24.01,6.65,6.03,14.75,17.51,5.35,25.38s-17.06-3.54-23.89-8.83c-34.12-26.43-65.84-38.48-109.48-27.54-28.91,7.25-44.07,21.18-66.53,38.47-41.03,31.57-101.95,36.55-148.82,15.9-41.98-18.49-69.25-55-117.15-57.85-31.58-1.88-57.04,3.69-82.82,22.16-5.84,4.19-20.1,19.98-26.06,19.79-10.78-.34-9.49-15.62-4.6-22.45,21.14-29.52,74.47-43.02,108.79-43.21Z"/>
        <path d="M673.82,489.72c27.15-.48,53.97,3.6,77.85,16.56,5.89,3.19,25.68,14.6,29.17,18.83,6.26,7.58,6.42,25.2-6.34,25.21-6.26,0-18.47-12.63-24.18-16.68-43.55-30.79-91.32-24.26-136.67-2.04-59.44,29.11-91.87,74.04-165.62,45.34-72.51-28.22-124.46-95.14-209.69-47.65-10.66,5.94-16.01,13.03-24.83,19.17-11.71,8.16-18.7-6.76-13.73-17.73,2.03-4.48,16.2-14.17,20.93-17.07,33.37-20.49,69.91-26.54,108.53-19.92,23.72,4.07,43.19,20.88,65.1,30.9,5.19,2.37,10.87,3.64,16.03,5.97,28.6,12.87,41.16,28.06,76.16,30.84,41.22,3.28,51.14-13.33,82.81-30.16,11.27-5.99,23.75-9.46,34.69-15.31,27.78-14.85,34.28-25.63,69.8-26.26Z"/>
        <path d="M456.01,467.46c-5.15-.13-10.34.17-15.5-.02-13.28-.47-26.65-3.17-40.05-2.03-24.87,2.13-20,23.6-.85,25.93,17.72,2.15,41.35-.34,59.93.07,17.65.39,29.3,2.38,47.22.31,23.63-2.73,52.69,3.3,74.05-1.95,12.58-3.09,15.43-15.41,4.14-22.77-12.95-8.44-47.14,2.28-62.87-.63l-1.05-86.4c1.51-8.01,20.58-7.41,21.95,0,1.48,8,1.75,21.4,2.07,29.93.39,10.48-.37,21.07-.05,31.55,15.86-.57,29.21-2.71,44.77,1.73,47.13,13.44,30.66,64.65-13.28,70.25-24.75,3.16-51.86.67-77.03.97-29.51.35-89.74,6.06-115.44-4.48-23.81-9.76-34.07-34.16-16.43-55.4s41.53-13,64.42-12.08l1.21-63.29c1.72-7.49,21.57-8.2,22.72.85-1.54,22.35-.51,44.66.1,66.9.19,6.83-.23,13.72-.04,20.55Z"/>
        <path d="M454.8,324.75c12.22-1.09,22.3,1.66,33.59,1.6,22.13-.11,37.04-6.27,58.93,5.27,28.71,15.14,24.86,50.74,42.65,65.35,5.44,4.46,27.53,11.53,35.26,13.74,9.11,2.6,27.88,4.01,33.76,10.24,10.72,11.37-1.56,25.9-14.6,27.38-13.82,1.58-27.17-9.76-39.72-15.07-8.31-3.51-22.51-6.1-29.03-9.97-13.65-8.11-22.03-55.17-36.63-68.37-11.29-10.21-20.48-6.57-33.48-6.44-10.01.11-20.08.09-30.09,0-15.01-.12-30.54-4.32-42.44,8.46-10.27,11.03-18.37,43.57-26.62,58.38-1.15,2.06-2.52,4.13-4.44,5.56-6.36,4.71-26.71,9.42-35.62,13.38-14.29,6.37-30.38,20.7-46.68,11.03-11.69-6.94-10.48-22.78,3.12-26.59,4.52-1.27,8-.14,11.46-.53,10.91-1.25,41.26-14.12,50.1-20.91,10.68-8.2,15.96-32.45,23.16-44.84,10.97-18.91,25.86-25.77,47.32-27.68Z"/>
        <path d="M534,723.45c-4.53-4.7,16.58-19.45,19.53-22.97,2.62-3.13,3.81-6.92,6.93-10.07,13.52-13.68,63.49-40.19,82.34-44.66,47.18-11.18,96.53,6.45,132.68,36.73,6.6,5.52,15.02,17.93,6.6,25.55-10.1,9.14-23.88-8.66-31.74-14.41-47.16-34.48-98.39-34.51-147.86-4.2-21.6,13.24-40.94,35.28-68.48,34.03Z"/>
        <path d="M437.86,713.32c-27.68.59-50.43-20.48-73.81-32.41-40.5-20.68-87.02-17.7-124.96,7.13-10.38,6.8-18.69,16.07-28.8,23.2-13.82,3.22-13.73-13.8-7.27-22.26,15.63-20.48,59.41-41.75,84.59-45.41,61.34-8.91,98.03,21.43,146.91,50.86,4.77,4.41,2.32,7.09,2.67,11.3.2,2.37,2.82,4.68.66,7.6Z"/>
        <path d="M485.79,241.75c50.8-4.21,55.93,71.39,3.72,72.77-54.24,1.43-51.5-68.8-3.72-72.77ZM482.71,264.66c-10.16,2.29-15.09,17.7-6.21,24.79,14.71,11.74,36.36-3.91,24.02-19.02-4.49-5.49-10.89-7.33-17.81-5.77Z"/>
        <path d="M744.62,400.84c4.1,3.23,12.02,10,13.87,14.62,10.78,26.91-24.59,59.03-47.47,29.47-12.1-15.64-2.94-40.69,13.71-48.24,8.66-3.93,13.31-1.03,19.89,4.15ZM726.29,434.15c4.33,3.5,12.79.84,14.3-4.66,1.06-3.87-3.96-10.1-7.5-11.59-6.29.99-12.42,11.71-6.8,16.26Z"/>
        <path d="M241.74,395.7c11.88-3.17,28.69,16.75,30.17,27.34,3.13,22.44-21.18,44.22-41.39,27.39-9.58-7.98-14.97-21.43-9.36-33.31,1.66-3.51,17.4-20.57,20.58-21.42ZM245.71,419.59c-2.28.58-6.6,8.24-6.73,10.45-.45,7.73,13.5,6.49,14.85.71.82-3.52-3.68-12.29-8.13-11.16Z"/>
        <path d="M241.71,210.67c11.58-2.66,21.64,11.6,25.83,20.75,15.99,34.91-43.08,46.03-45.48,12.4-.59-8.23,11.7-31.32,19.65-33.14ZM246.98,230.45c-6.43,3.85-8.65,18.69,2.02,13.5,6.68-3.25-.14-9.73-2.02-13.5Z"/>
        <path d="M727.71,212.67c11.18-2.56,15.37,5.39,19.81,13.76,5.78,10.9,10.12,24.41-2.19,32.85-16.58,11.38-38.74-.8-36.07-21.08,1.03-7.82,10.49-23.72,18.44-25.54ZM728.14,244.32c10.32,1.25,9.16-5.2,3.36-10.85-2.5,2.99-5.53,6.91-3.36,10.85Z"/>
        <path d="M521.82,703.29c-3.09,5.06-46.8,4.69-54.31,4.15-5.78-.41-19.03-.75-17.46-8.43.94-4.6,7.6-5.8,11.55-6.46,8.92-1.48,45.14-3.19,52.56-.77,4.2,1.37,10.52,6.81,7.66,11.5Z"/>
        <path d="M730.73,314.69c4.74-.98,14.07.55,16.51,5.03,5.08,9.31-1.25,22.72-12.73,22.73-16.28.02-18.72-24.67-3.78-27.76Z"/>
        <path d="M240.77,313.64c13.84-1.56,22.86,18.82,8.6,26.68-20.18,11.12-29.05-24.38-8.6-26.68Z"/>
        <path class="d" d="M482.71,264.66c6.93-1.56,13.32.28,17.81,5.77,12.34,15.11-9.31,30.76-24.02,19.02-8.88-7.09-3.95-22.5,6.21-24.79Z"/>
        <path class="d" d="M726.29,434.15c-5.62-4.55.51-15.26,6.8-16.26,3.53,1.49,8.56,7.73,7.5,11.59-1.51,5.51-9.97,8.17-14.3,4.66Z"/>
        <path class="d" d="M245.71,419.59c4.45-1.13,8.95,7.64,8.13,11.16-1.35,5.78-15.3,7.02-14.85-.71.13-2.21,4.45-9.88,6.73-10.45Z"/>
        <path class="d" d="M246.98,230.45c1.88,3.77,8.7,10.25,2.02,13.5-10.67,5.19-8.45-9.65-2.02-13.5Z"/>
        <path class="d" d="M728.14,244.32c-2.17-3.94.86-7.86,3.36-10.85,5.8,5.65,6.95,12.1-3.36,10.85Z"/>
        <path d="M492.08.45l28.01-.45c288.98,7.03,497.47,245.99,477.1,532.56-16.82,236.72-205.33,420.26-439.37,443.43C256.18,1005.84-2.75,763.82,17.22,459.69,34.09,202.84,235.03,9.66,492.08.45ZM839.83,173.62C646.49-32.84,293.1-5.38,132.19,226.4c-101.27,145.88-112.04,344.04-19.71,497.06,176.83,293.04,615.05,297.55,789.96.53,104.57-177.57,77.25-401-62.62-550.37Z"/>
      </g>
    </g>
  </g>
</svg>