<?xml version="1.0" encoding="UTF-8"?>
<svg id="b" data-name="Layer 2" xmlns="http://www.w3.org/2000/svg" viewBox="0 0 733.84 730.9">
  <defs>
    <style>
      .d {
        fill: #fff;
      }

      .e {
        fill: #231f20;
        stroke: #fff;
        stroke-miterlimit: 10;
      }
    </style>
  </defs>
  <g id="c" data-name="Layer 1">
    <g>
      <circle class="d" cx="368.81" cy="363.5" r="335"/>
      <g>
        <path d="M581.34,315.01c.06,17.79.22,35.62.12,53.42-.06,11.56-.81,23.32-.71,35.01.12,14.23,1.76,23.81-10.08,34.59-10.62,9.66-20.31,7.32-32.97,7.17-77.08-.91-154.53,2.03-231.47.72-17.1-.29-29.52-11.02-30.81-28.22-1.55-20.63-.49-46.27-.65-67.42-.09-12.02-.08-24.03.68-36.01,5.62,1.24,11.98.56,17.85.62,16.3.18,32.83.11,49.27.05,74.37-.27,149.53.97,224.25-.71,2.16-.05,13.84-.33,14.53.77ZM321.34,329.31c-2.97-.77-4.89-1.12-7.83.01-8.67,3.32-5.1,13.24-4.96,20.31.04,2.23-.9,4.03-.65,6.38.4,3.79,3.74,6.46,7.41,6.88,11.57,1.32,25.09-1.31,36.85.42,3.32-.15,6.53-3.26,6.92-6.56.54-4.59-.11-10.76-.04-15.6.05-3.22,1.89-5.94-.83-9.17-3.28-3.9-9.39-3.32-13.59-1.49-.55.24.12,1.24-2.06,1.34-3.32.16-1.96-1.11-3.2-2.04-1.01-.76-10.11-1.29-11.27-.47-2.7,4.09,1.75,22.01-.95,24.33l-2.68.67c-4.99-.91.08-21.14-3.13-25.01ZM404.97,353.35c-5.8.16-18.55-.38-23.25.74-5.39,1.29-8.38,8.79-2.21,11.37,8.95-1.07,21.85,1.57,30.3-.13,7.39-1.49,4.96-11.84-2.47-12.2-.89-.04-1.63.19-2.37.21ZM527.48,353.35c-2.12.21-5.81,1.12-7.81,1.91-1.68.66-4.57,3.03-5.36,3.11-1.93.2-7.75-3.9-11.17-4.39-14.84-2.14-27.94,6.54-30.98,21.2-4.33,20.92,12.35,39.09,33.55,34.19,2.09-.48,8.06-3.61,8.52-3.57.84.08,5.27,3.01,7.42,3.57,25.22,6.56,43.5-20.88,30.49-42.16-5.36-8.77-13.98-14.91-24.67-13.87ZM308.08,384.51c-2.98,2.69-2.9,5.64-.25,8.55,2.8,3.07,3.13,1.54,6.15,1.57,6.72.07,13.45-.13,20.16,0,5.1.1,14.09,2.52,12.57-6.74-1.21-7.37-8.59-4.97-13.23-4.87-7.26.15-14.61.07-21.85-.33-1.22.37-2.62.98-3.56,1.83ZM359.94,384.51c-3.31,3.16-2.78,9.99,2.09,10.76,6.18.98,15.81-.72,22.68-.64,4.89.06,15.07,2.67,13.11-6.63-1.72-8.14-9.63-5.09-15.06-4.98-6.01.12-13.83-.75-19.5-.05-1.25.15-2.42.69-3.32,1.55Z"/>
        <path d="M580.78,279.91h-305.34v-11.34c0-4.38,6.33-14.48,9.72-17.51,10.49-9.38,20.29-6.9,32.71-6.77,41.76.45,83.49-1.52,125.18,0,35.7.86,75.46-3.46,110.85-.7,18.48,1.44,30.33,18.43,26.88,36.33Z"/>
        <path d="M175.61,472.13c.06.5.79,3.09,1,3.53,3.07,6.28,33.53,11.51,40.76,13.05l4.9,10.66c.18.74-13.94.41-15.22.31-13.11-1.01-41.19-7.53-43.61-23.16-.68-4.39-.63-18.41.62-22.4.31-1,1.55-2.22,1.59-2.73.03-.44-2.16-6.3-2.36-8.44-.32-3.53-.51-17.6.49-20.23.41-1.09,2.47-3.01,2.51-3.75.02-.37-2.22-5.26-2.6-6.9-1.22-5.34-1.64-14.17-1-19.6.28-2.41,2.43-6.14,2.47-7.19.05-1.22-1.47-4.25-1.73-6.02-.72-4.97-1.43-12.46-.83-17.35.36-2.94,2.68-4.72,2.67-7.77,0-2.81-2.36-8.45-2.65-12.32-.57-7.63-.14-27.84,2.47-34.47,7.39-18.79,35.72-27.46,54.24-26.13,18.28,1.31,42.81,14.61,43.12,35.32.02,1.37-.73,2.81-.68,4.51.4,12.08,2.83,25.76-3.21,36.64,4.82,1.19,4.02,8.64,3.92,12.69-.07,2.7-.38,8.39-.83,10.84-.39,2.14-3.12,5.62-3.08,7.3.02,1.15,1.55,1.97,2.07,3.09,1.38,3.02,1.79,13.71,1.17,16.99-.51,2.67-8.15,1.92-10.37,3.56l-1.31-13.61c-17.44,7.9-39.26,11.98-57.85,5.67-5.87-2-10.19-4.94-15.34-8.01-.75-.45-.89-1.37-1.7-.27-.51,4.49-.66,13.57,2.6,16.87,5.04,5.1,24.51,9.3,31.78,9.71,8.61.49,16.44-2.2,24.95-1.93-5.49,5.59-12.11,10.35-15.07,17.98-15.08,3.12-31.02-2.46-43.92-10.21-.6.83.62,14.33,1.37,15.8,3.46,6.73,28.59,10.78,35.94,12.04l.29,15.6c-9.02-.05-18.86-2.13-27.22-5.52-3.53-1.43-6.85-3.86-10.38-4.85.3,3.4-.42,7.39,0,10.7ZM206.58,293.7c-9.25,1.04-30.67,9.72-27.43,21.88,2.76,10.33,16.41,14.58,25.62,16.52,11.43,2.41,26.73-.59,35.67-8.43,6.91-6.06,8.32-11.17,2.27-18.49-8.06-9.75-24.12-12.84-36.13-11.48ZM174.31,331.77v13.29c0,.75,2.51,3.22,3.29,3.84,15.07,12.12,52.8,11.72,68.87,1.54,1.13-.72,4.34-2.75,4.34-4.08v-13.94c-19.9,15.81-48.37,16.75-70.22,4.42l-6.27-5.07ZM250.16,366.13c-3.47.35-6.49,2.94-9.74,4.2-17.25,6.73-38.7,7.21-55.53-.85-1.9-.91-8.26-5.18-8.95-5.31-1.3-.25-.87.17-.98.97-.37,2.63.13,10.16.94,12.69,1.44,4.47,11.7,8.18,15.92,9.36,18.55,5.18,42.79,4.73,58.34-7.78v-13.29Z"/>
        <path d="M265.57,419.47c34.04-3.83,60.91,27.06,50.53,60.25-16.81,53.74-96.39,37.99-91.21-19.9,1.74-19.49,21.49-38.19,40.69-40.35ZM269.48,432.44c-11.59.49-24.45,8.12-28.95,19.03-12.53,30.36,18.79,60.36,47.66,44.42,30.81-17,17.74-64.98-18.71-63.45Z"/>
        <path class="d" d="M527.48,353.35c10.69-1.04,19.31,5.1,24.67,13.87,13.01,21.28-5.27,48.72-30.49,42.16-2.15-.56-6.59-3.49-7.42-3.57-.46-.04-6.43,3.09-8.52,3.57-21.19,4.9-37.88-13.27-33.55-34.19,3.03-14.66,16.13-23.34,30.98-21.2,3.42.49,9.24,4.59,11.17,4.39.78-.08,3.67-2.45,5.36-3.11,2-.79,5.69-1.7,7.81-1.91ZM506.88,366.79c-14.61-7.12-27.07,7.43-22.06,21.73,3.4,9.72,14.03,14.32,22.72,7.74-7.4-8.21-4.97-20.3-.65-29.47ZM521.8,399.2c8.92,1.11,19.29-1.18,21.59-11.14,3.48-15.03-6.44-26.52-21.6-21.92,1.13,5.48,3.46,10.14,3.27,15.91-.2,6.09-3.45,11.21-3.26,17.15Z"/>
        <path class="d" d="M321.34,329.31c3.21,3.87-1.86,24.1,3.13,25.01l2.68-.67c2.7-2.33-1.74-20.24.95-24.33,1.16-.82,10.26-.3,11.27.47,1.24.93-.13,2.2,3.2,2.04,2.18-.1,1.51-1.1,2.06-1.34,4.21-1.83,10.32-2.41,13.59,1.49,2.72,3.23.88,5.95.83,9.17-.07,4.84.58,11.01.04,15.6-.39,3.3-3.6,6.41-6.92,6.56-11.76-1.73-25.28.9-36.85-.42-3.67-.42-7.01-3.09-7.41-6.88-.25-2.35.69-4.16.65-6.38-.14-7.07-3.71-16.98,4.96-20.31,2.94-1.13,4.86-.78,7.83-.01ZM343.33,339.09c-.22-.34-2.75-1.83-3.05-1.48,0,4.59-1.34,9.17-.49,13.78s4.35,4.15,4.98.12c.3-1.93-.52-11.02-1.44-12.42Z"/>
        <path class="d" d="M359.94,384.51c.9-.85,2.07-1.4,3.32-1.55,5.67-.69,13.49.18,19.5.05,5.43-.11,13.34-3.16,15.06,4.98,1.96,9.3-8.22,6.69-13.11,6.63-6.87-.08-16.5,1.61-22.68.64-4.86-.77-5.4-7.59-2.09-10.76Z"/>
        <path class="d" d="M308.08,384.51c.95-.86,2.34-1.46,3.56-1.83,7.24.41,14.59.48,21.85.33,4.64-.09,12.02-2.5,13.23,4.87,1.51,9.26-7.47,6.84-12.57,6.74-6.71-.13-13.44.07-20.16,0-3.03-.03-3.36,1.5-6.15-1.57-2.65-2.91-2.72-5.86.25-8.55Z"/>
        <path class="d" d="M404.97,353.35c.74-.02,1.48-.26,2.37-.21,7.43.36,9.86,10.71,2.47,12.2-8.45,1.7-21.35-.94-30.3.13-6.18-2.58-3.19-10.08,2.21-11.37,4.7-1.12,17.45-.58,23.25-.74Z"/>
        <path class="d" d="M206.58,293.7c12.01-1.35,28.08,1.73,36.13,11.48,6.05,7.32,4.64,12.44-2.27,18.49-8.94,7.84-24.24,10.84-35.67,8.43-9.21-1.94-22.86-6.19-25.62-16.52-3.24-12.15,18.18-20.84,27.43-21.88ZM211.26,307.79c.67-.7,17.05,2.89,12.33-5.52-5.24-2.21-7.44-7.84-13.58-3.2-1.02.77-2.09,2.82-2.44,2.9-3.15.72-6.32-1.24-7.67,3.86-2.27,8.56,7.63,12.33,14.51,11.79l1.4,3.45c.02,2.24-18.55-6.59-15.08,1.45.96,2.23,10.53,7.13,12.69,7.1,3.54-.04,3.86-2.28,5.94-3.69,2.18-1.48,5.23-1.51,6.03-4.99,2.11-9.22-7.42-9.79-14.08-10.61l-.05-2.54Z"/>
        <path class="d" d="M250.16,366.13v13.29c-15.55,12.5-39.79,12.96-58.34,7.78-4.22-1.18-14.49-4.89-15.92-9.36-.81-2.53-1.31-10.06-.94-12.69.11-.8-.32-1.22.98-.97.69.13,7.05,4.4,8.95,5.31,16.83,8.05,38.28,7.58,55.53.85,3.25-1.27,6.27-3.86,9.74-4.2Z"/>
        <path class="d" d="M174.31,331.77l6.27,5.07c21.86,12.33,50.32,11.39,70.22-4.42v13.94c0,1.34-3.21,3.37-4.34,4.08-16.07,10.19-53.8,10.58-68.87-1.54-.78-.63-3.29-3.1-3.29-3.84v-13.29Z"/>
        <path class="d" d="M269.48,432.44c36.45-1.53,49.52,46.45,18.71,63.45-28.87,15.94-60.19-14.06-47.66-44.42,4.5-10.92,17.36-18.55,28.95-19.03ZM275.28,441.5c-3.96-3.71-10.41,1.61-8.26,6.96-13.93-1.06-14,15.91-1.93,20.4,4.13,1.54,10.86.53,9.71,6.5-.89,4.6-9.49-1.18-11.98-1.3-8.16-.39-8.35,9.11-1.01,11.69,1.25.44,2.93.05,3.92.62,1.54.89.9,5.02,3.55,5.52,1.28.24,4.31.19,5.5-.34,2.82-1.24,1.44-5.15,2.56-5.86,1.4-.89,3.82.21,6.55-2.53,7.43-7.45,3.36-16.21-5.28-20.05-2.47-1.1-11.93-2.01-9.35-6.24,5.38-4.43,9.31,4.57,15.24.32,6.08-4.36-2.15-11.98-7.76-9.39.19-1.68-.23-5.15-1.47-6.31Z"/>
        <path d="M343.33,339.09c.92,1.4,1.74,10.49,1.44,12.42-.63,4.03-4.16,4.33-4.98-.12s.49-9.19.49-13.78c.3-.35,2.83,1.14,3.05,1.48Z"/>
        <path d="M211.26,307.79l.05,2.54c6.66.82,16.19,1.39,14.08,10.61-.8,3.48-3.84,3.51-6.03,4.99s-2.4,3.64-5.94,3.69c-2.16.03-11.73-4.87-12.69-7.1-3.47-8.04,15.11.79,15.08-1.45l-1.4-3.45c-6.88.55-16.78-3.23-14.51-11.79,1.35-5.1,4.52-3.15,7.67-3.86.35-.08,1.42-2.13,2.44-2.9,6.14-4.64,8.34.98,13.58,3.2,4.72,8.41-11.66,4.82-12.33,5.52Z"/>
        <path d="M275.28,441.5c1.24,1.16,1.66,4.63,1.47,6.31,5.61-2.6,13.85,5.02,7.76,9.39-5.93,4.25-9.86-4.75-15.24-.32-2.58,4.23,6.88,5.15,9.35,6.24,8.64,3.84,12.71,12.6,5.28,20.05-2.73,2.74-5.15,1.64-6.55,2.53-1.12.71.25,4.63-2.56,5.86-1.19.52-4.22.58-5.5.34-2.65-.5-2.02-4.63-3.55-5.52-.99-.57-2.67-.18-3.92-.62-7.34-2.58-7.15-12.08,1.01-11.69,2.49.12,11.09,5.9,11.98,1.3,1.15-5.96-5.58-4.96-9.71-6.5-12.07-4.49-12-21.47,1.93-20.4-2.15-5.36,4.3-10.68,8.26-6.96Z"/>
      </g>
      <path class="e" d="M355.53.84l20.89-.34c215.56,5.25,371.09,183.5,355.9,397.26-12.55,176.58-153.17,313.5-327.75,330.78C179.56,750.81-13.59,570.28,1.31,343.41,13.89,151.81,163.79,7.71,355.53.84ZM614.94,130.01C470.72-24,207.1-3.52,87.07,169.39,11.53,278.21,3.49,426.03,72.37,540.17c131.91,218.59,458.8,221.96,589.28.4,78.01-132.46,57.63-299.13-46.71-410.55Z"/>
    </g>
  </g>
</svg>