<?xml version="1.0" encoding="UTF-8"?>
<svg id="b" data-name="Layer 2" xmlns="http://www.w3.org/2000/svg" viewBox="0 0 733 730.06">
  <defs>
    <style>
      .d {
        fill: #fff;
      }
    </style>
  </defs>
  <g id="c" data-name="Layer 1">
    <g>
      <circle class="d" cx="362.39" cy="365" r="348"/>
      <path d="M72.38,415.71c-.51,6.02-2.23,13.2-6.52,17.67-7.14,7.44-14.14,3.06-16.68-5.64,2.49-17.36-4.98-58.91,3.48-72.69,1.22-1.98,5.37-5.42,5.57-6.46.27-1.39-3.31-8.6-3.53-11.99-.56-8.62,2.26-17.12,8.82-22.79,3.92-3.39,7.83-3.91,11.5-7.11,1.72-21-5.52-43.69,11.93-59.71,14.37-13.19,64.74-21.82,85.72-27.8,35.45-10.11,70.87-21.51,106.05-32.58,9.71-3.06,21.42-9.69,31.4-8.62,61.87,20.76,125.9,34.85,187.96,54.88,5.85,1.89,34.57,10.97,36.78,14.62,4.63,7.64-6.32,9.02-11.43,10.77-26,8.89-54.14,15.45-80.51,23.7-37.22,11.64-73.88,25.42-111.16,36.78-14.14,4.31-19.31,7.91-34.41,4.14-38.13-9.53-74.79-25.34-112.39-36.49-13.78-4.08-29.73-6.29-43.01-10.96-.99-.35-9.07-3.62-7.23-5.32,5.54.33,9.8-3.74,14.67-5.33,14.21-4.66,27.99-2.13,42.42-4.1,25.79-3.53,74.87-15.98,98.53-26.15,2.21-.95,3.81-3.16,6.95-4.21,13.65-4.6,27.29,9.09,15.6,20.25-8.05,7.69-17.38,2.17-26.26,7.24-.7.4-1.69-.18-1.08,1.5,4.26,11.73,24.06,13.07,33.72,6.94,26.64-16.93,11.18-59.41-22.85-49.83-9.56,2.69-10.48,6.81-16.54,9.51-8.73,3.88-29.5,7.26-39.84,9.48-23.99,5.14-47.15,7.64-71.09,11.72-9.24,1.58-18.27,4.63-27.52,5.97-14.38,2.08-22.65-.39-35.83,7.9-17.02,10.7-10.47,29.43-11.83,46.61,12.77,7.08,20.64,17.31,18.55,32.68-.36,2.64-2.74,6.47-2.65,8.48.08,1.72,5.84,9.18,6.45,14.85,2.22,20.44-1.48,44.98-.23,65.85-5.15,15.31-20.63,5.59-23.53-5.8s.67-35.45-.39-48.92c-.14-1.79-.55-3.37-.98-5.07h-16.28c-.31,0-1.41,1.23-2.33.93-.9,14.63,1.22,30.66,0,45.13ZM81.43,325.17c-3.28.72-8.82,7.17-9.12,10.52-1.23,13.55,22.33,17.09,22.81.6.21-7.1-6.93-12.59-13.68-11.12Z"/>
      <path d="M444.55,299.87c-.37,15.48,4.93,36.95-3.88,50.55-16.64,25.69-71.54,46.41-100.91,50.75-48.72,7.2-119.24-2.88-156.68-37.55-21.31-19.74-15.42-38.25-15.8-64.68,6.62,1.6,13.26,3.72,19.73,5.85,33.86,11.17,68.29,24.23,102.38,34.4,10.41,3.11,19.63,6.42,30.27,1.86l124.9-41.18Z"/>
      <path d="M607.16,191.25c14.33-2.07,31.37,1.63,43.97,8.58,16.95,9.36,35.67,33.98,28.07,54.15-2.96,7.85-32.22,40.33-39.68,47.79-3.24,3.24-6.64,2.75-7.73,8.09-3.21,15.85-5.6,14.42-13.09,26.92-5.54,9.26-12.01,20.01-17.07,29.45-10.09,18.8-23.83,61.9-42.94,70.57-31.28,14.19-80.13-8.14-91.6-40.85-14.1-40.2,27.82-55.4,52.34-75.65,3.62-2.99,22.24-20.8,22.8-23.72,1.02-5.32-.94-9.86,1.71-15.97,4.29-9.89,13.61-9.05,20.52-14.84,4.28-10.83,10.55-20.69,15.17-31.35,4.01-9.24,6.57-19.58,10.55-28.52,3.65-8.19,7.34-13.27,16.97-14.66ZM621.62,289.33c.87.75,2.28,1.54,3.43.82,6.17-10.01,14.47-18.64,21.25-28.13,9.82-13.75,17.44-21.01,3.85-36.1-8.48-9.41-24.9-16.85-37.63-14.43-4.06.77-3.54,6.13-4.72,9.24-6.07,16.09-13.81,31.39-21.83,46.55,11.78,4.69,22.06,8.7,31.64,17.22,1.71,1.52,2.88,3.86,3.99,4.83ZM615.75,325.92c1.63-9.34-5.46-20.22-12.07-26.52-8.75-8.35-28.83-19.26-40.68-13.68-2.53,1.19-4.54,4.48-7.71,4.86-1.23,1.78,10.97,2.95,12.13,3.21,17.98,4.16,31.09,11.78,43.24,25.61,1.78,2.02,3.04,4.94,5.1,6.52ZM565.5,392.91l28.51-56.29c-3.43-11.4-26.26-24.8-37.29-22.8-3.99.72-11,10.33-13.97,13.06-10.82,9.96-23.02,18.09-33.99,27.87,21.8,7.43,42.06,20.18,56.74,38.16ZM490.48,377.42c-6.47,6.81-2.43,17.07,2.49,23.38,9.93,12.75,34.4,23.85,50.24,18.65,5.06-1.66,8.56-5.13,6.71-10.47-2.5-7.22-24.4-23.91-31.56-27.98s-21.26-10.54-27.87-3.58Z"/>
      <path d="M713.13,382.07c3,3.21,4.28,7.62.58,10.89-8.2,7.24-35.41-1.66-45.87-2.44-2.13,10.68.24,22.56-3.03,33.3-6.32,20.74-19.98-8.75-23.91-14.64-7.11-10.66-24.46-32.15-27.49-43.22-2.45-8.94,6.91-11.45,12.1-15.86,6.9-5.86,11.64-11.22,14.17-20.26.95-3.39,2.13-17.17,3.95-18.38.91-.61,2.16-.65,3.17-.31,1.6.53,15.29,24.54,18.07,28.48,6.47,9.19,14.39,19.06,23.03,26.28,6.79,5.68,20.61,11.22,25.24,16.17Z"/>
      <path d="M72.38,419.9l1.5,10.9-.57,2.11c4.31,1.2,7.04-2.26,10.8-2.74,2.97-.37,5.6,1.58,7.35-.97,3.32,9.36-8.14,18.28-15.86,11.19-.87-.8-3.22-5.31-3.22-6.08v-14.42Z"/>
      <path class="d" d="M81.43,325.17c6.76-1.47,13.89,4.02,13.68,11.12-.48,16.49-24.04,12.95-22.81-.6.3-3.34,5.84-9.8,9.12-10.52Z"/>
      <path class="d" d="M565.5,392.91c-14.68-17.98-34.95-30.73-56.74-38.16,10.97-9.78,23.17-17.91,33.99-27.87,2.97-2.73,9.98-12.33,13.97-13.06,11.03-2,33.86,11.4,37.29,22.8l-28.51,56.29Z"/>
      <path class="d" d="M621.62,289.33c-1.12-.97-2.28-3.31-3.99-4.83-9.58-8.52-19.87-12.53-31.64-17.22,8.01-15.16,15.75-30.46,21.83-46.55,1.17-3.11.66-8.47,4.72-9.24,12.73-2.42,29.15,5.02,37.63,14.43,13.6,15.09,5.98,22.35-3.85,36.1-6.78,9.49-15.08,18.12-21.25,28.13-1.15.72-2.56-.07-3.43-.82Z"/>
      <path class="d" d="M490.48,377.42c6.61-6.96,20.7-.49,27.87,3.58s29.06,20.76,31.56,27.98c1.85,5.34-1.65,8.81-6.71,10.47-15.84,5.2-40.31-5.9-50.24-18.65-4.91-6.3-8.95-16.56-2.49-23.38ZM507.58,386.55c-6.79,1-6.67,14.52.77,15.69,1.23.19,8.03-.84,8.81-1.38,3.07-2.12-3.2-15.24-9.58-14.3Z"/>
      <path class="d" d="M615.75,325.92c-2.06-1.58-3.32-4.5-5.1-6.52-12.16-13.82-25.26-21.45-43.24-25.61-1.16-.27-13.35-1.43-12.13-3.21,3.17-.38,5.18-3.67,7.71-4.86,11.85-5.58,31.93,5.33,40.68,13.68,6.61,6.31,13.7,17.18,12.07,26.52Z"/>
      <path d="M507.58,386.55c6.39-.94,12.66,12.19,9.58,14.3-.79.54-7.58,1.58-8.81,1.38-7.44-1.17-7.56-14.69-.77-15.69Z"/>
      <path d="M355.11.34l20.9-.34c215.61,5.25,371.17,183.54,355.97,397.35-12.55,176.62-153.2,313.57-327.82,330.85C179.1,750.47-14.09,569.9.81,342.98,13.39,151.34,163.32,7.21,355.11.34ZM614.57,129.54C470.32-24.5,206.65-4.02,86.59,168.92,11.03,277.77,2.99,425.62,71.89,539.78c131.94,218.64,458.9,222,589.4.4,78.02-132.49,57.64-299.19-46.72-410.64Z"/>
    </g>
  </g>
</svg>