<?xml version="1.0" encoding="UTF-8"?>
<svg id="b" data-name="Layer 2" xmlns="http://www.w3.org/2000/svg" viewBox="0 0 755.79 752.76">
  <defs>
    <style>
      .d {
        fill: #fff;
      }
    </style>
  </defs>
  <g id="c" data-name="Layer 1">
    <g>
      <circle class="d" cx="388.79" cy="375.35" r="366"/>
      <path d="M555.79,236.35h37.5c2.16,0,11.61,4.64,13.82,6.18,21.9,15.31,13.81,55.01,13.63,78.27-.66,85.66,1.38,171.91,0,257.01-.49,30.56,9.86,77.58-33.41,80.59-62.83,4.36-130.68-3.35-194.04-.06-20.39-2.92-30.22-17.82-31.55-37.45l.06-352.02c.21-12.81,13.79-32.52,27.48-32.52h39l1.5-1.5v-44c0-1.19,6.48-11.53,8.06-12.94,4.2-3.75,11.79-6.16,17.4-6.6,25.89-2.03,54.62,1.4,80.8.28,7.18.32,19.74,12.79,19.74,19.26v45.5ZM450.79,236.35h82.5c4.76-9.43-.1-20.02-10.96-21.04-14.75-1.38-42.12-1.11-57.08,0-13.9,1.03-15.57,8.41-14.46,21.04ZM483.51,300.57c-8,1.62-10.85,8.59-13.9,15.1l-56.78,141.29c-.6,6.15,3.76,12.53,9.88,13.95,14.47,3.34,37.93-1.67,53.48.52,5.56.78,9.98,5.1,8.12,10.91-16.23,39.01-34.4,77.5-48.21,117.36,1.54,9.4,11.8,11.76,17.1,3.55,31.58-47.74,66.11-93.54,97.81-141.19,3.43-5.16,18.44-26.26,18.74-30.34.45-6.1-5.32-11.76-10.91-12.94-15.82-3.33-39.29,2.04-55.49-.51-10.04-1.58-3.7-11.74-1.08-16.96,14.44-28.8,33.38-56.56,47.07-85.96,1.69-8.12-4.2-14.12-12.05-15.02-8.9-1.02-45.85-1.38-53.78.23Z"/>
      <path d="M303.47,207.66c-5.84-6.97-35.2-4.05-33.28-16.35,1.61-10.33,25.19-8.68,31.66-13.4,7.54-5.49,4.89-38.12,17.75-34.9,11.18,2.8,7.42,26.13,13.62,33.41,5.01,5.88,35.16,5.03,33.41,16.21s-26.25,8.21-32.4,13.67c-6.84,6.08-4.92,32.63-15,34.08-12.08,1.74-10.23-26.12-15.77-32.71Z"/>
      <path d="M235.5,309.65c3.46,2.9,3.99,13.93,7.23,17.25,4.06,4.17,19.36,2.01,18.08,10.89-1.01,7.05-15.09,6.15-18.58,9.51-3.87,3.74-1.81,13.61-8.21,16.81-10.3,5.17-8.99-12.24-13.18-16.33-3.48-3.4-19.46-2.65-19.08-10.84.33-7.04,13.6-7.48,18.54-9.57,2.3-4.78,6.4-25.09,15.19-17.73Z"/>
      <path d="M132.55,184.11c1.8-4.49,3.34-16.72,8.18-18.33,10.52-3.5,8.88,13.97,13.06,18.06,3.52,3.44,15.61,2.29,18.27,7.77,4.48,9.23-14.89,9.4-18.26,12.26-3.69,3.12-2.76,15.49-8.73,17.27-11.41,3.4-7.91-12.08-12.75-16.83-3.56-3.5-17.76-1.19-18.54-9.56-.78-8.43,13.22-8.72,18.77-10.64Z"/>
      <path class="d" d="M483.51,300.57c7.92-1.61,44.87-1.24,53.78-.23,7.85.9,13.74,6.9,12.05,15.02-13.69,29.4-32.64,57.16-47.07,85.96-2.61,5.21-8.95,15.38,1.08,16.96,16.2,2.54,39.67-2.82,55.49.51,5.59,1.18,11.36,6.84,10.91,12.94-.3,4.08-15.31,25.18-18.74,30.34-31.69,47.65-66.22,93.45-97.81,141.19-5.3,8.21-15.56,5.84-17.1-3.55,13.82-39.86,31.99-78.35,48.21-117.36,1.86-5.81-2.56-10.13-8.12-10.91-15.55-2.19-39.01,2.82-53.48-.52-6.13-1.41-10.48-7.8-9.88-13.95l56.78-141.29c3.05-6.51,5.9-13.48,13.9-15.1Z"/>
      <path class="d" d="M450.79,236.35c-1.11-12.63.56-20.01,14.46-21.04,14.96-1.11,42.33-1.38,57.08,0,10.86,1.02,15.73,11.61,10.96,21.04h-82.5Z"/>
      <path d="M366.15.35l21.54-.35c222.31,5.41,382.71,189.25,367.04,409.7-12.94,182.11-157.96,323.31-338.01,341.13C184.67,773.8-14.53,587.62.83,353.65,13.81,156.04,168.4,7.43,366.15.35ZM633.68,133.57C484.94-25.27,213.07-4.14,89.28,174.17,11.37,286.41,3.09,438.85,74.12,556.57c136.04,225.44,473.16,228.91,607.73.41,80.45-136.61,59.43-308.49-48.17-423.4Z"/>
    </g>
  </g>
</svg>