<?xml version="1.0" encoding="UTF-8"?>
<svg id="b" data-name="Layer 2" xmlns="http://www.w3.org/2000/svg" viewBox="0 0 735.75 732.8">
  <defs>
    <style>
      .d {
        fill: #fff;
      }
    </style>
  </defs>
  <g id="c" data-name="Layer 1">
    <g>
      <circle class="d" cx="364.77" cy="359" r="349"/>
      <circle cx="542.66" cy="496.4" r="94.02"/>
      <path d="M356.44.34l20.97-.34c216.42,5.27,372.56,184.23,357.31,398.84-12.6,177.28-153.78,314.74-329.05,332.09C179.77,753.29-14.14,572.04.81,344.27,13.44,151.91,163.93,7.24,356.44.34ZM616.88,130.03C472.08-24.6,207.42-4.03,86.92,169.56,11.07,278.81,3.01,427.22,72.16,541.81c132.43,219.46,460.62,222.84,591.62.4,78.32-132.99,57.86-300.31-46.9-412.18Z"/>
      <path d="M515.36,247.72v61.16c0,3.05,7.73,7.06,10.7,7.5,3.45.5,9.38.94,13.02,1.14,15.74.84,32.24-.71,48.06-.04-3.47,25.74-1.51,51.89-2.02,77.83-9.59-3.14-18.11-7.53-28.11-9.79-15.65-3.53-29.34-1.22-43.09-3.41-8.3-1.33-11.68-2.4-21.28-2.98-17.23-1.04-35.29-1.87-52.54-2.05-11.75-.13-41.59-1.78-51.13,1.52s-3.52,17.73,3.58,17.73h90.48l-22.15,12.73-19.02,17.44-51.31-.83c-11.74,5.82-6.86,16.96,5.05,18.16,10.64,1.08,21.89-2.26,32.38-1.04,1.42.16,2.78.03,3.42,1.69l-8.04,29.7c-7.41-2.34-24.18-3.49-31.62-1.81-4.84,1.09-8.72,7.35-7.79,12.38,1.98,10.64,30.83,4.39,38.41,5.6,1.68,28.72,8.27,56.31,25.27,79.87h-87.44c-5.57,0-14.97-8.48-14.66-14.66l.76-300.49c3.23-5.72,10.69-8.31,16.98-8.38,2.42-.03,4.59,1.09,6.98,1.09,48.37-.05,96.75-.05,145.11-.04ZM390.73,331.84c-9.87,3.4-8.45,15.8,1.79,17,28.7,3.35,62.83-3.39,91.97,1.04,17.24-1.12,37.76.95,54.66-1.04,9.5-1.12,10.03-11.51,3.5-16.69l-151.91-.31Z"/>
      <path d="M529.17,526.38c11.29-9.67,23.59-26.8,34.2-38.08,5.35-5.69,17.54-15.14,21.17-20.28,8.47-11.98-5.74-21.49-16.13-13.09-9.67,7.82-22.24,22.81-31.33,32.35-5.54,5.82-10.86,12.17-16.19,18.21-4.51,1.1-26.73-40.35-38.34-22.2-6.87,10.73,7.98,18.02,14.14,24.2,7.73,7.76,20.78,28.91,32.48,18.89Z"/>
      <path d="M374.84,215.36c-1.11,1.26-12.45-9.29-14.24-10.52-28.06-19.25-65.43-19.79-93.83-1.01-5.25,3.47-9.51,8.4-14.24,12.05-1.01.78-1.29,1.96-3.03,1.5,1.59-25.59,4.91-51.68,14.98-75.48,11.25-26.57,26.62-46.17,48.33-64.96l2.39,1.45c5.13,7.57,12.79,12.89,18.72,19.7,27.86,32.02,42.88,74.65,40.93,117.27Z"/>
      <path d="M333.4,72.83c73.26,8.55,145.76,61.15,174.05,129.72,2.11,5.11,8.58,20.05-3.24,16.44-2.4-.73-15.43-12.87-19.86-15.58-28.74-17.56-63.18-16.55-88.78,5.87-1.23.03-1.98-4.65-2.24-5.83-8.42-39.1-10.05-64.14-33.23-99.2-8.15-12.33-15.83-18.24-25.21-28.36-.92-.99-1.85-1.43-1.48-3.06Z"/>
      <path d="M292.96,72.84c-5.18,5.76-11.49,10.37-16.69,16.15-18.32,20.36-31.62,51.19-37.4,77.85-3.12,14.38-3.65,29.09-6.57,43.48-26.72-23.43-65.93-25.73-94.93-4.46-3.41,2.5-12.17,12.08-14.25,13.05-12.38,5.75-3.97-14.11-2.18-18.36,16.11-38.17,45.99-73.04,81.38-94.52,26.87-16.31,59.18-30.31,90.65-33.18Z"/>
      <path d="M323.29,204.25c.19,9.26-.24,18.57-.04,27.84.51,23.4.09,46.25,0,69.67-.11,29.08,2.68,64.98.08,93.09-2.72,29.42-32.11,44.86-58.94,34.59-26.73-10.23-33.74-33.99-32.07-60.91.5-8.03,3.38-18.16,13.55-16.65,13.37,1.98,7.69,27,8.68,36.85,1.64,16.36,16.03,24.91,31.74,22.67,8.05-1.15,18.79-13.78,18.79-21.65v-183.99l1.52-1.52h16.68Z"/>
      <path d="M584.1,299.27h-49.03c-.23,0-1.35,1.92-1.52.5l1.03-48.01,49.53,47.51Z"/>
      <path class="d" d="M390.73,331.84l151.91.31c6.53,5.18,6,15.57-3.5,16.69-16.9,1.99-37.42-.09-54.66,1.04-29.13-4.42-63.27,2.32-91.97-1.04-10.23-1.2-11.66-13.6-1.79-17Z"/>
      <path class="d" d="M529.17,526.38c-11.71,10.02-24.75-11.13-32.48-18.89-6.16-6.18-21.01-13.47-14.14-24.2,11.62-18.15,33.83,23.3,38.34,22.2,5.33-6.04,10.65-12.39,16.19-18.21,9.09-9.55,21.66-24.53,31.33-32.35,10.39-8.41,24.6,1.1,16.13,13.09-3.63,5.14-15.82,14.59-21.17,20.28-10.61,11.28-22.91,28.41-34.2,38.08Z"/>
    </g>
  </g>
</svg>