<?xml version="1.0" encoding="UTF-8"?>
<svg id="b" data-name="Layer 2" xmlns="http://www.w3.org/2000/svg" viewBox="0 0 721.75 718.86">
  <defs>
    <style>
      .d {
        fill: #fff;
      }
    </style>
  </defs>
  <g id="c" data-name="Layer 1">
    <g>
      <circle class="d" cx="364.77" cy="358" r="335"/>
      <g>
        <path d="M349.66.33l20.57-.33c212.3,5.17,365.47,180.72,350.51,391.25-12.36,173.91-150.85,308.75-322.79,325.77C176.35,738.96-13.88,561.16.8,337.72,13.19,149.02,160.82,7.1,349.66.33ZM605.14,127.55C463.1-24.13,203.48-3.96,85.26,166.33,10.86,273.51,2.95,419.09,70.78,531.5c129.91,215.29,451.86,218.6,580.36.39,76.83-130.46,56.76-294.6-46-404.34Z"/>
        <path d="M517.74,146.09c53.4-2.68,96.78,27.51,115.53,76.91,21.87,57.61-12.75,118.33-42.99,166.11-13.73,21.7-31.01,48.01-47.25,67.68-8.67,10.51-17.61,19.29-29.62,6.74-10.01-10.47-21.83-27.63-30.55-39.69-28.02-38.75-70.64-106.24-72.93-154.37-2.96-62.3,44.42-120.2,107.8-123.38ZM463.19,199.76c-46.04,47.68-21.9,125.99,41.91,140.56,78.75,17.99,136.83-70.49,87.1-134.35-32.38-41.59-92.56-43.97-129.02-6.21Z"/>
        <path d="M202.47,338.72c4.91-24.78-9.99-49.15-36.08-51.07-24.8-1.83-43.24,19.75-41.8,43.72.09,1.49,1.74,6.4.66,7.06-12.4,2.17-24.21-5.91-25.59-18.52,1.77-30.08-2.89-62.15-.64-91.99,1.57-20.76,16.43-34.87,36.75-37.32,52.78-.38,105.58.46,158.36.02,19.63-.16,28.3-2.07,43.71,12.41,16.2,15.23,30.94,36.37,46.07,52.9,4.83,8.58,2.58,21.06,2.99,30.66l-.84.89c-6.2-.81-13.55-2.16-16.44,4.82-1.59,3.84-1.02,13.6,2.46,16.33,4.04,3.17,13.55-.24,14.64,1.33.86,1.24-.08,13.86-.51,16.17-2.13,11.55-16.89,14.52-26.63,11.93,1.22-13.33-.17-25.45-8.99-36.02-25.53-30.59-71.41-9.69-69.6,28.1.07,1.52,2.12,8.59.34,8.59h-78.85ZM151.26,211.22c-7.44.31-16.65-.37-20.79,7.3-2.12,3.92-1.67,14.87-1.45,19.67.13,2.94.39,7.29.74,10.12.66,5.36,4.91,11.24,10.46,11.88,7.87.9,27.26.99,35.06-.06,4.04-.54,9.91-5.22,10.55-9.24.84-5.24.64-23.12.04-28.7-.38-3.57-3.18-7.26-6.07-9.26-3.24-2.24-8.17-1.07-12.13-1.28-5.79-.32-10.45-.69-16.42-.44ZM219.58,211.22c-7.87.87-12.55,5.31-12.64,13.54-.07,6.67-.06,18.47.63,24.9.59,5.53,5.66,10.07,11.15,10.56,8.53.75,28.8,1,37.07-.01,4.43-.54,8.98-5.02,9.73-9.43.49-2.86.7-8.77.82-11.95.4-10.82,1.77-26.35-12.48-27.79-8.32-.84-25.95-.74-34.28.18ZM298.73,211.84c-.83.13-3.01.51-3.4,1.07-1.71,4.53-.31,8.87-.26,13.1.1,8.8-.82,19.58.65,28.08.51,2.95,2.77,5.75,6,5.5,15.85-1.15,33.61,1.43,49.22,0,6.44-.59,5.08-3.39,2.19-7.36-4.79-6.57-12.07-13.81-17.56-20.11s-10.9-14.8-18.62-19.05c-3.58-1.97-13.96-1.88-18.23-1.22Z"/>
        <path d="M456.8,565.16c-2.09-2.01-3.33-6.56-2.48-9.38.95-3.15,10.28-13.77,13.11-16.26,7.45-6.56,14.95-11.78,24.26-4.78-.44-4.43-2.64-8.55-2.6-13.09.17-23.2,15.08-43.78,40.31-38.34,23.92,5.15,33.25,31.82,22.66,52.73-2.83,5.59-18.57,19.05-24.43,20.26-13.93,2.87-26.8-9.2-34.97-19-3.04,1.8-1.79,4-2.37,6.56-.87,3.89-11.97,10.34-15.49,13.24-4.27,3.51-11.59,14.21-17.99,8.06ZM520.9,505.52c-11.11,1.92-15.41,12.92-6.53,20.91,10.07,9.06,26.63-2.81,18.09-16.17-2.68-4.2-6.72-5.57-11.56-4.74Z"/>
        <path d="M316.61,297.4c26.03-2.89,43.42,26.88,27.22,48.29-15.27,20.18-46.26,12.6-52.33-11.41-4.29-16.96,7.55-34.94,25.11-36.88ZM317.86,314.61c-10.5,1.79-13.25,16.33-4.12,21.69,13.64,8,26.39-11.42,14.07-19.82-3.07-2.09-6.3-2.5-9.96-1.87Z"/>
        <path d="M158.89,298.03c22.58-2.86,39.14,15.43,33.17,37.64-7.96,29.6-51.12,28.07-57.1-3.18-3.05-15.92,7.38-32.36,23.93-34.46ZM154.17,318.51c-3.85,4.16-2.91,13.31,1.47,16.92,9.56,7.89,25.08-2.14,19-14.53-3.87-7.9-14.73-8.59-20.47-2.39Z"/>
        <path d="M212.54,506.78c.77,3.91,2,14.15-2.43,16.14-2.6,1.17-11.67-.43-14.8-1.14-12.97-2.95-37.16-21.24-43.4-33.22-4.4-8.44-6.57-14.07,3.95-17.35,17.27-5.37,13.35,4.02,20.44,13.39,3.39,4.49,17.34,15.63,22.53,17.7,4.46,1.77,9.6,1.9,13.71,4.48Z"/>
        <path d="M181.23,377.18c4.12-.69,15.16,0,19.64.48,9.39.99,13.04,13.69,5.38,18.79-9.14,6.09-18.98-2.26-30.29,10.57-6.34,7.19-7.33,16.83-19.09,15.28-15.72-2.08-5.61-17.96-.26-25.69,4.84-6.98,15.98-17.98,24.62-19.44Z"/>
        <path d="M456.45,506.83c4.93-.58,22.02-.7,25.65,2.06s4.19,13.16,1.59,16.88c-3.74,5.36-11.21,2.78-16.55,2.55-3.31-.14-6.92.35-10.17-.04-8.96-1.08-13.05-9.81-7.95-17.38,2.21-3.27,3.63-3.62,7.43-4.06Z"/>
        <path d="M153.77,429.53c4.51-.92,10,.25,12.6,4.35s2,21.43.84,26.33c-2.04,8.55-17.77,10.4-20.12.62-1.06-4.42-1.89-20.48-.64-24.58.73-2.39,4.84-6.21,7.33-6.71Z"/>
        <path d="M361.9,506.14c3.39-.77,16.33-.47,20.32-.16s6.31.84,8.49,4.28c4.31,6.78,2.33,16.5-6.6,17.46-4.76.51-19.92.27-23.76-1.79-8.21-4.4-5.85-18.12,1.54-19.79Z"/>
        <path d="M409.79,506.78c3.33-.75,17.69-.53,21.6-.16,10.31.97,11.31,17.65,3.97,20.61-3.63,1.46-18.26,1.6-22.51,1.12-7.38-.83-10.86-6.54-9.83-13.67.39-2.71,4.18-7.32,6.78-7.9Z"/>
        <path d="M315.93,377.81c2.97-.66,15.62-.5,19.02-.14,5.78.63,9.99,5.33,9.95,11.18-.03,3.81-3.89,10.05-8.02,10.54s-15.63.5-19.82,0c-11.06-1.33-10.09-19.59-1.13-21.59Z"/>
        <path d="M363.19,377.82c5.79.26,12.69-.07,18.36.5,6.89.7,10.94,6.18,9.86,13.04-.44,2.84-4.49,7.53-7.33,7.98-3.72.59-16.53.52-20.41.05-10.13-1.22-11.31-19.58-.48-21.57Z"/>
        <path d="M273.02,506.36c4.67-.22,14-.23,18.51.28,9.6,1.09,10.78,17.31,2.7,19.94-2.88.94-18.94.94-22.51.51-7.58-.93-10.12-8.53-7.34-15.03,1.88-4.4,3.99-5.47,8.63-5.69Z"/>
        <path d="M315.31,506.16c6.95.53,15.47-.26,22.2.48,11.39,1.27,10.47,18.4,1.88,19.76-4.19.66-15.92.44-20.42.06-7.12-.6-10.55-4.66-9.88-11.84.31-3.24,2.61-7.98,6.22-8.46Z"/>
        <path d="M225.94,506.17c4.09-.64,14.55.04,18.98.48,12.91,1.28,12.75,19.14,1.94,20.44-4.86.58-17.38.09-22.32-.69-8.47-1.34-7.6-18.82,1.41-20.23Z"/>
        <path d="M223.76,379.17c.93-.85,1.99-1.38,3.26-1.53,4.59-.56,18.16-.43,22.09,1.58,6.96,3.57,6.83,14.45.57,18.52-3.43,2.23-16.91,2.11-21.36,1.63-10.15-1.09-11.18-14.13-4.56-20.21Z"/>
        <path d="M271.24,377.81c3.51-.79,15.84-.24,19.59.57,11.37,2.45,9.73,18.16,2.27,20.66-2.29.77-17.68.72-20.73.36-10.5-1.24-9.89-19.61-1.13-21.59Z"/>
        <path d="M411.08,377.82c7.51-1.37,22.03-.3,23.64,9.26.96,5.74-2.3,12.24-8.46,12.94-3.08.35-15.61.4-18.02-.5-9.03-3.38-7.29-19.85,2.84-21.7Z"/>
        <path d="M486.51,500.2c-1.92,1.2-16.7-1-19.29-2.6-1.36-.84-8.93-9-9.88-10.55-.82-1.33-3.44-6.62-2.61-7.8,4.55-1.46,10.24.97,14.43,3,4.72,2.29,8.49,5.2,12.01,9.06.74.81,5.57,6.6,5.75,7.02.15.36-.26,1.77-.4,1.87Z"/>
        <path class="d" d="M463.19,199.76c36.45-37.76,96.63-35.38,129.02,6.21,49.72,63.86-8.35,152.34-87.1,134.35-63.82-14.58-87.95-92.88-41.91-140.56ZM517.23,246.15h-34.16c-4.96-3.6-9.26-16.53-15.31-17.25-8.15-.97-14.32,1.41-12.03,10.75,1.56,6.36,7.61,13.86,9.28,19.45,3,10.01-13.67,20.35-6.53,28.88,2.86,3.41,10.39,3.05,13.7.28,1.07-2.09,10.06-15.03,11.02-15.3,2.31-.64,5.34.62,7.46.59.96-.02,2.05-.59,3.24-.61,7.6-.12,15.12.17,22.69-.6-4.66,11.62-11.4,22.5-15.96,34.16-1.95,4.98-3.95,9.16-.91,14.32,2.42,4.11,8.33,3.81,12.68,3.2,4.73-.66,8.46-9.62,11.33-13.57,3.43-4.72,7.55-9.11,10.75-13.84l1.32.38c.22.81.21,1.71,1.06,2.17,1.62.88,12.99,1.59,15.03,1.14,4.26-.95,4.87-6.55,4.01-10.13-1.68-6.99-12.25-2.77-13.77-4.43.87-4.93,4.88-8.41,7.14-12.68.59-.34,2.85.56,4.01.58,8.74.2,25.18,1.21,32.7-1.83,18.32-7.41,9.72-24.28-6.48-25.68-4.81-.41-28.4.9-30.36-.29-.55-2.07-8.18-11.96-7.01-13.09,4.26.63,12.56,2.31,13.91-3.65,2-8.87-3.68-10.1-11.07-9.78-3.21.14-7.34.33-8.27,3.84-1.35-1.13-2.59-1.85-3.78-3.23-5.87-6.78-10.52-17.55-16.35-24.52-4.05-4.84-11.38-6.06-15.97-1.32-5.75,5.94-.89,14.93,1.83,21.21,4.52,10.44,10.27,20.42,14.8,30.85Z"/>
        <path class="d" d="M219.58,211.22c8.33-.92,25.96-1.03,34.28-.18,14.25,1.44,12.88,16.97,12.48,27.79-.12,3.18-.33,9.09-.82,11.95-.75,4.4-5.3,8.89-9.73,9.43-8.27,1.01-28.54.77-37.07.01-5.49-.48-10.56-5.02-11.15-10.56-.69-6.43-.71-18.23-.63-24.9.09-8.23,4.77-12.67,12.64-13.54ZM237.4,224.57c-1.99.45-7,6.03-8.77,7.83s-11.28,11.79-11.77,13.13c-1.93,5.31,5.02,10.85,9.56,7.01l19.38-20.85c2.9-4.83-4.48-8.02-8.4-7.13Z"/>
        <path class="d" d="M151.26,211.22c5.97-.25,10.63.13,16.42.44,3.96.22,8.89-.96,12.13,1.28,2.88,2,5.68,5.68,6.07,9.26.6,5.58.8,23.45-.04,28.7-.65,4.02-6.51,8.7-10.55,9.24-7.79,1.04-27.19.96-35.06.06-5.56-.64-9.8-6.52-10.46-11.88-.35-2.83-.6-7.18-.74-10.12-.22-4.8-.66-15.75,1.45-19.67,4.14-7.67,13.35-7,20.79-7.3ZM162.07,222.63c-1.76.36-5.15,4.15-6.54,5.63-4.31,4.56-10.95,11.79-14.62,16.66-2.25,2.98-3.19,4.55.04,7.51,6.79,6.23,11.9-4.15,16.17-8.54,4.53-4.66,9.4-8.91,13.99-13.5,2.26-3.74-5.97-8.4-9.03-7.77Z"/>
        <path class="d" d="M298.73,211.84c4.27-.66,14.64-.75,18.23,1.22,7.73,4.25,13.04,12.64,18.62,19.05s12.77,13.55,17.56,20.11c2.89,3.97,4.25,6.77-2.19,7.36-15.62,1.43-33.37-1.15-49.22,0-3.23.26-5.49-2.55-6-5.5-1.47-8.51-.55-19.28-.65-28.08-.05-4.23-1.45-8.57.26-13.1.38-.56,2.57-.94,3.4-1.07Z"/>
        <path class="d" d="M520.9,505.52c4.84-.84,8.88.54,11.56,4.74,8.54,13.36-8.02,25.23-18.09,16.17-8.88-7.99-4.58-18.99,6.53-20.91Z"/>
        <path class="d" d="M317.86,314.61c3.66-.62,6.89-.22,9.96,1.87,12.31,8.39-.43,27.81-14.07,19.82-9.14-5.36-6.38-19.9,4.12-21.69Z"/>
        <path class="d" d="M154.17,318.51c5.73-6.19,16.59-5.5,20.47,2.39,6.08,12.39-9.44,22.42-19,14.53-4.37-3.61-5.32-12.76-1.47-16.92Z"/>
        <path d="M517.23,246.15c-4.53-10.43-10.28-20.42-14.8-30.85-2.72-6.28-7.58-15.27-1.83-21.21,4.59-4.74,11.92-3.52,15.97,1.32,5.83,6.97,10.47,17.74,16.35,24.52,1.19,1.37,2.44,2.09,3.78,3.23.93-3.51,5.06-3.7,8.27-3.84,7.38-.31,13.07.91,11.07,9.78-1.34,5.96-9.65,4.28-13.91,3.65-1.17,1.13,6.46,11.03,7.01,13.09,1.96,1.19,25.55-.13,30.36.29,16.19,1.39,24.8,18.27,6.48,25.68-7.52,3.04-23.96,2.03-32.7,1.83-1.16-.03-3.43-.92-4.01-.58-2.26,4.27-6.26,7.75-7.14,12.68,1.52,1.66,12.09-2.56,13.77,4.43.86,3.58.25,9.17-4.01,10.13-2.04.46-13.42-.25-15.03-1.14-.86-.47-.85-1.37-1.06-2.17l-1.32-.38c-3.19,4.73-7.32,9.12-10.75,13.84-2.87,3.95-6.6,12.91-11.33,13.57-4.35.61-10.26.91-12.68-3.2-3.04-5.16-1.04-9.33.91-14.32,4.56-11.65,11.3-22.53,15.96-34.16-7.56.78-15.09.48-22.69.6-1.19.02-2.28.59-3.24.61-2.12.04-5.15-1.22-7.46-.59-.96.27-9.95,13.21-11.02,15.3-3.31,2.77-10.84,3.14-13.7-.28-7.14-8.53,9.53-18.87,6.53-28.88-1.67-5.58-7.72-13.09-9.28-19.45-2.3-9.34,3.88-11.72,12.03-10.75,6.05.72,10.35,13.66,15.31,17.25h34.16Z"/>
        <path d="M237.4,224.57c3.92-.89,11.3,2.3,8.4,7.13l-19.38,20.85c-4.54,3.84-11.5-1.7-9.56-7.01.49-1.34,9.96-11.3,11.77-13.13s6.79-7.38,8.77-7.83Z"/>
        <path d="M162.07,222.63c3.07-.63,11.29,4.03,9.03,7.77-4.59,4.58-9.46,8.84-13.99,13.5-4.27,4.4-9.39,14.77-16.17,8.54-3.22-2.96-2.29-4.53-.04-7.51,3.68-4.88,10.31-12.11,14.62-16.66,1.4-1.48,4.78-5.26,6.54-5.63Z"/>
      </g>
    </g>
  </g>
</svg>