{
	"asset":{
		"version":"2.0",
		"generator":"Maxon Cinema 4D 2025.1.3 (#200000219)"
	},
	"scenes":[{
		"nodes":[0,
		1]
	}],
	"nodes":[{
		"name":"Cylinder",
		"mesh":0,
		"translation":[0.0,
		0.00769922835752368,
		0.0],
		"rotation":[0.0,
		0.0,
		0.0,
		-1.0],
		"scale":[1.0,
		1.0,
		1.0]
	},
	{
		"name":"Cylinder.1",
		"mesh":1,
		"translation":[0.0,
		0.024786967784166337,
		0.0],
		"rotation":[0.0,
		0.0,
		0.0,
		-1.0],
		"scale":[1.0,
		1.0,
		1.0]
	}],
	"meshes":[{
		"name":"Cylinder",
		"primitives":[{
			"attributes":{
				"POSITION":1,
				"NORMAL":2,
				"TEXCOORD_0":3
			},
			"indices":0
		}]
	},
	{
		"name":"Cylinder.1",
		"primitives":[{
			"attributes":{
				"POSITION":5,
				"NORMAL":6,
				"TEXCOORD_0":7
			},
			"indices":4
		}]
	}],
	"accessors":[{
		"bufferView":0,
		"type":"SCALAR",
		"componentType":5123,
		"count":4770,
		"byteOffset":0,
		"min":[0],
		"max":[4769]
	},
	{
		"bufferView":1,
		"type":"VEC3",
		"componentType":5126,
		"count":4770,
		"byteOffset":0,
		"min":[-0.1392834186553955,
		-0.01986541785299778,
		-0.13946719467639924],
		"max":[0.13952846825122834,
		0.01986541785299778,
		0.13946719467639924]
	},
	{
		"bufferView":1,
		"type":"VEC3",
		"componentType":5126,
		"count":4770,
		"byteOffset":12,
		"min":[-0.9982449412345886,
		-1.0,
		-0.999561071395874],
		"max":[1.0,
		1.0,
		0.999561071395874]
	},
	{
		"bufferView":1,
		"type":"VEC2",
		"componentType":5126,
		"count":4770,
		"byteOffset":24,
		"min":[0.0,
		0.0],
		"max":[1.0,
		1.0]
	},
	{
		"bufferView":2,
		"type":"SCALAR",
		"componentType":5123,
		"count":3498,
		"byteOffset":0,
		"min":[0],
		"max":[3497]
	},
	{
		"bufferView":3,
		"type":"VEC3",
		"componentType":5126,
		"count":3498,
		"byteOffset":0,
		"min":[-0.12543901801109315,
		-0.01986541785299778,
		-0.1256045252084732],
		"max":[0.12565971910953523,
		0.01986541785299778,
		0.1256045252084732]
	},
	{
		"bufferView":3,
		"type":"VEC3",
		"componentType":5126,
		"count":3498,
		"byteOffset":12,
		"min":[-0.9982449412345886,
		-1.0,
		-0.999561071395874],
		"max":[1.0,
		1.0,
		0.999561071395874]
	},
	{
		"bufferView":3,
		"type":"VEC2",
		"componentType":5126,
		"count":3498,
		"byteOffset":24,
		"min":[0.0,
		0.0],
		"max":[1.0,
		1.0]
	}],
	"bufferViews":[{
		"buffer":0,
		"target":34963,
		"byteOffset":0,
		"byteLength":9540
	},
	{
		"buffer":0,
		"target":34962,
		"byteOffset":9540,
		"byteLength":152640,
		"byteStride":32
	},
	{
		"buffer":1,
		"target":34963,
		"byteOffset":0,
		"byteLength":6996
	},
	{
		"buffer":1,
		"target":34962,
		"byteOffset":6996,
		"byteLength":111936,
		"byteStride":32
	}],
	"buffers":[{
		"uri":"data:application/octet-stream;base64,",
		"byteLength":162180
	},
	{
		"uri":"data:application/octet-stream;base64,",
		"byteLength":118932
	}]
}