<?xml version="1.0" encoding="UTF-8"?>
<svg id="b" data-name="Layer 2" xmlns="http://www.w3.org/2000/svg" viewBox="0 0 994.15 980.61">
  <defs>
    <style>
      .d {
        fill: #fff;
      }
    </style>
  </defs>
  <g id="c" data-name="Layer 1">
    <g>
      <path class="d" d="M467.8.64c188.15-8.87,363.78,75.24,458.28,239.73,162.28,282.45,22.07,632.37-290.09,721.07-216.19,61.43-453.95-27.91-567.62-222.25C-118.55,419.63,98.56,18.04,467.8.64Z"/>
      <path d="M572.86,319.48c21.38-3.68,42.86-1.18,64.31.45.77,2.75,1.96,10.69-1.39,11.64-3.64,1.03-4.41-1.66-4.85,4.32,1.91,34.72-2.41,71.92,0,106.35.1,1.48.46,2.77.81,4.17,1.76-.75,6.06-.4,7.85.16s3.26,3.66,5.34,4.6c6.41,2.9,14.28.63,20.79.55,28.13-.31,56.11.5,84.1,1.59,8.84.35,24.06.69,32.18-2.29,4.81-1.76,8.32-6,14.01-6.26l.1-351.99.74-1.56c3.32-1.07,13.96-2.38,15.72,1.17l-.32,695.47c-1.5,1.9-12.61.99-15.78,1.04-152.77,2.21-306.76.14-459.45,0-69.18-.06-138.37.2-207.53-.05-1.57-1.36.56-14.95.71-17.84-2.05-99.32,2.6-198.98,0-298.26-.2-7.58-2.19-16.17-.89-23.6,1.57-2.24,32.19,2.38,37.14,2.64,18.82,1.02,35.17-1.35,53.56-3.09,6.81-.64,22.26-2.97,27.67-.16,2.07,1.08,4.13,3.66,6.15,4.56,5.76,2.58,17.19.25,23.49.15,16.92-.26,33.6.13,50.46-.76,5.99-.32,12.76,1.23,17.99-2.26l2.27,324.59,448.08-1.17v-10.7h-74.16v-14.14c0-1.96,7.17-2.54,8.23-7.82,1.96-9.68-9.38-22.36,7.1-24.35-.19-5.85.1-11.71-.01-17.56-.83-42.96,2.46-88.9,0-131.51-.06-1.1-.38-5.1-.94-5.56-.44-.36-1.98-.07-2.86-.55-4.89-2.68-.93-10.52-1.15-14.89-8.36-4.31-12.68-11.91-11.15-21.4h-6.11c-.59,4.85-.51,8.41-2.92,12.76-1.72,3.12-6.38,9.8-10.09,10.19,1.43,6.56,4.86,13.57-3.86,15.78l.03,151.27.73,1.56c5.9.35,7.19,2.54,6.84,8.26-.4,6.59-4.31,8.18-2.03,15.98,1.17,4,7.46,4.26,7.46,7.07v14.91h-77.99v-14.14c.97-2.64,3.99-2.84,5.7-5,5.99-7.57-.59-13.98.47-21.71.76-5.56,5.19-5.49,9.89-5.79l-.72-152.47c-9.85-1.32-6.22-8.88-5.52-15.96-7.92-6.82-13.34-10.97-11.39-22.67l-4.15-.82c-.67,3.86-.05,7.47-1.89,11.13-1.77,3.52-11.01,11.69-11.4,13.14s.68,3.41.69,5.15c.04,5.53.56,9.62-6.17,10.02l.74,152.02c.25.91,4.15.84,5.37,1.65,4.94,3.27-2.93,21.16,1.47,27.43.26.37,7.74,1.3,7.74,3.88v14.14h-77.99v-13.38c0-1.68,7-5.44,8.07-11.81.97-5.78-1.56-6.57-1.96-11.14-.53-6.11,1.26-9.65,7.69-9.9l.76-26.83c-1.97-34.85.28-69.85-.83-104.68-.12-3.87.79-19.32-.67-21.33-.45-.61-2.14-.76-3.16-1.59-5.55-4.56.16-10.62-.85-14.41-.41-1.54-4.23-3.6-5.64-5.12-4.84-5.24-6.59-10.39-5.72-17.61l-2.94.12c-1.25,2.38-.62,5.08-1.21,7.58-1.47,6.17-6.7,10.92-11.78,14.22-1.46,4.43,2.62,11.88-1.24,14.84-.79.6-2.31.55-2.56.85-1.35,1.57-.11,7.47-.1,9.4.17,47.8.23,95.31-.04,143.01l.72,1.57,5.23.84c3.67,1.5.37,13.32.18,16.71-.11,1.99-.4,8.23.94,9.37.52.44,2.16.45,3.14,1.05,4.63,2.84,3.14,13.29,2.79,18.25h-73.02c-.75-.48-.99-1.06-1.15-1.91-.23-1.29-.94-12-.75-12.98.68-3.58,5.52-4.22,6.8-6.21.57-.9,1.54-5.78,1.5-6.86-.09-2.23-3.04-4.52-3.55-7.01-1.52-7.4-.43-12.62,8.24-11.67l.04-151.05c.55-3.56-6.13-2.94-6.84-5.43l2.13-11.22c-8.95-5.39-10.43-12.77-10.63-22.69h-99.4l-.37-16.07h436.95s0-11.46,0-11.46l-436.96-1.53v-14.54s436.96,0,436.96,0v-13.38l-437.35-1.14-.75-18.35c9.1,2.29,20.71,3.9,29.58.15,4.08-1.73,5.2-5.49,10.94-3.97v-113.93s-6.71-.94-6.71-.94c-3.4-7.16.22-14.64,1.35-21.98-7.57-1.7-11.81,2.04-13.7-7.34-.28-1.37-1.13-8.73.32-8.73h18.73c2.65-35.08,18.8-66.99,47.62-87.33,59.89-42.28,142.8-19.59,173.24,46.54,5.96,12.95,8.38,26.6,10.16,40.69,1.47.92,14.55-.5,17.86.11.93.17,1.47.24,1.8,1.25,1.04,3.17-1.41,14.16-4.86,14.81l-71.36-2.17c-.11.55-.89,1.51-.89,1.79v11.09ZM416.12,291.96h21.41c1.69-15.53,7.39-30.46,17.61-42.41,18.69-21.87,44.33-30.86,72.91-27.07,35.4,4.69,61.97,34.92,63.93,70.26l20.65-.77c-.55-17.82-8.19-35.62-18.5-49.94-38.96-54.16-123.15-55.01-161.05.76-9.93,14.61-15.55,31.55-16.96,49.18ZM454.35,292.72h11.85c4.84,0,1.3,10.21-.38,12.62-3.26,4.66-6.12,1.98-10.29,1.88-18.72-.43-37.52.39-56.23.03.47,2.33-1.18,10.57,1.26,11.37,12.23.41,24.38-1.23,36.63-.69,7.83.34,15.93,2.6,24.06,1.56.02,2.33-.48,9.13-2.32,10.3-2.38,1.51-3.98-.48-4.57,4.6-1.17,10.06.08,21.3.05,31.32-.07,26.92-.47,53.8-.8,80.7l122.34-.77v-112.01c0-.21-.68-4-.82-4.15-.53-.55-2.98,1.08-4.91-3.12-2.62-5.7-3.36-11.41-1.91-17.58-7.91.63-7.65-10.45-7.65-16.06h11.85c.4,0,1.72-.97,2.57-.86-6.01-55.3-79.75-73.03-110.62-26.14-5.26,7.99-8.85,17.48-10.09,27ZM437.53,332.48h-21.41v112.78l1.15,1.15h17.59c.21,0,2.63-.91,2.72-1.24l-.04-112.68ZM614.15,333.24h-19.88l-.76,113.16h18.73c.21,0,2.63-.91,2.72-1.24l-.81-111.92ZM302.2,701.77h14.91l2.06,70.58c.88,2.35,9.01,1.2,11.37.96l.75-55.13c-2.71-35.82-1.28-71.87-1.53-107.81-.23-33.1,2.48-58.42-14.93-88.29-32.12-55.12-107.12-61.38-145.98-9.86-24.12,31.97-19.47,58.83-19.59,96.69-.16,48.35-.65,97.51.83,145.97.2,6.49-.21,13.04-.03,19.53h12.23l.76-72.64h14.53s1.53,72.64,1.53,72.64h11.47v-72.64h14.14c1.91,3.32,1.3,9.39,1.18,13.41-.06,2.02-.78,3.87-.83,6.05-.39,17.77.4,35.49.8,53.18h11.47l.76-72.64h14.53v72.64h11.47l.76-72.64h16.82l.76,72.64h11.47l.76-72.64c5.03.24,9.49,1.54,14.53,0,.69,24.11-1.6,48.7,1.64,72.52,3.67,1.03,7.24-1.71,10.59.11l.77-72.64ZM523.16,525.15h-46.64v11.47h44.73l1-1.29.91-10.18ZM609.56,525.15h-47.02c-2.21,0,.47,9.58-.38,11.47h44.73c2.69-2.99,2.79-7.59,2.68-11.47ZM697.49,525.15h-48.93c1.52,3.58.48,7.67.76,11.47h47.4l.76-11.47ZM785.41,525.92h-46.64s.76,10.7.76,10.7h45.88v-10.7ZM482.63,551.92l31.63-1.64c2.15-.71,1.13-5.92,1.14-7.81l-1.45-.94-30.06,1.32c-2.33.76-.88,6.99-1.26,9.07ZM601.91,541.98l-33.64.76v8.42s32.37-.74,32.37-.74c1.68-.39,1.27-6.98,1.27-8.44ZM656.96,542.74l-.66,7.16c.94,2.81,8.59.53,10.95.46,7.35-.23,14.75.33,22.1-.08l1.14-1.14-.67-7.17c-.52-.03-.95.77-1.14.77h-31.73ZM778.53,541.97h-31.73c-2.24,2.22-.75,6.23-1.15,9.18h27.91c.34,0,4.46-1.22,4.64-1.47l.33-7.7ZM796.11,746.88l.76-202.61-6.14,4.33c.11,7.34,4.27,14.31-6.09,15.18l.78,150.61.71,1.58,6.96,1.6c1.58,9.67-5.95,22.11,3.02,29.31ZM507.11,714.01c.6-43.94-.79-87.98-.03-131.92.07-3.91.92-9.08.87-12.97-.01-.93.07-1.88-.43-2.72-.77-1.15-1.35.04-1.55.04h-14.91v147.56h16.06ZM575.92,714.77h15.67v-149.1c-5.1,1.38-10.45.58-15.68.77v148.33ZM679.52,566.44c-4.7.18-9.45-.13-14.14,0l-.76,147.56h17.59l-.76-147.94c-.29-1.14-1.64.37-1.92.38ZM766.68,566.44c-3.59.42-8.45,0-12.23,0-.28,0-.81-1.42-1.91.39l.76,147.17h16.06c-1.12-40.75-1.02-81.86-.8-122.75.02-4.16.91-8.4.83-12.99-.07-3.88-1.53-8.4-.8-12.58-.85-.29-1.58.72-1.91.76ZM605.74,735.41h-40.91c-.23,0-1.09-1.05-1.91-.76v13h42.05l.76-12.23ZM692.9,748.41v-12.62c0-.33-1.2-1.29-1.84-1.11l-41.76,1.12.77,11.84,42.82.76ZM782.36,735.41l-42.82-.76v13h41.67l1.15-1.15v-11.09ZM478.05,747.65h42.82c-1.24-3.66-1.24-8.59,0-12.23-14.58-.67-29.11,1.18-43.58-.01l.77,12.24Z"/>
      <path d="M664.23,259.08c-21.12-2.83-31.7-27.58-27.53-46.65,7.49-34.23,37.5-34.42,65.73-34.37,17.82.03,42.61-2.74,58.27,5.95,35.43,19.66,27.41,73.27-14.27,75.83l-.77,125.38h14.14c1.69,1.85,1.68,10.17.75,12.22-1.16,2.57-5.44,3.51-8.02,3.07v16.82l11.56,1.21c1.62,3.71-.03,8.51.69,12.16.33,1.7,1.94,2.15,2.27,3.84.58,2.95-.39,7.17.01,10.31l-113.93.76v-11.09c0-.17,1.54-1.53,1.79-2.8.6-2.99.77-9.84,2.75-11.78,2.21-2.18,7.05-1.17,9.48-1.99,3.43-1.17,2.05-14.17,1.2-17.37-.76-.65-8.33,1.31-8.33-2.76v-12.62h15.29v-126.16c-3.51-.33-7.69.46-11.09,0ZM730.2,215.69c-4.49-4.29-9.53,6.79-8.84,11.46,1.95,13.16,20.95,21.15,32.74,15.52,22.92-10.96,12.95-44.74-10.53-48.4-13.49-2.1-34.09-.61-47.95-.15-16.03.53-31.3-2.51-40.79,14.26-14.88,26.29,19.07,49.54,36.87,27.69,8.13-9.98,1.84-18.1,1.21-28.99,4.95.23,10-.29,14.94-.03,6.01.32,12.26,2.12,18.35,1.59,8.26-.72,13.24-6.58,22.55-2.74,10.1,4.17,11.68,21.2,1.77,27.06-4.25,2.52-10.41,2.21-14.42-.64-6.73-4.79-4.85-15.63-5.89-16.63ZM729.6,386l-.76-128.85-.77-1.53c-9.48-1.93-11.37-13.3-21.74-11.8-3.93.57-6.11,4.1-8.91,6.39-3.13,2.55-5.55,1.59-6.05,6.17-1.23,11.21.68,23.25.8,34.39.27,25.49-.52,51.14,0,76.46.13,6.25-.16,12.53-.04,18.77h37.47ZM741.07,401.29h-60.02l-1.15,1.15v13.38h61.17v-14.53Z"/>
      <path d="M355.72,384.47c2.7.04,14.33-.52,15.19,2.01,1.53,4.49-1.23,17.04-8.3,13.28l1.48,17.25c5.74,1.55,11.52-.64,12.28,6.84.69,6.74.26,14.14,1.54,21.03l-114.74-.34c-2.58-1.8,2.39-20.73.92-24.79l14.46-2.91-.81-17.08c-1.73,1.01-8.4,1.26-8.4-1.14v-13.38c5.52-1.78,10.48.38,16.06,0v-126.16c-42.24,2.84-50.82-57.9-15.81-75.06,16.16-7.92,66.64-8.62,84.91-5.89,47.7,7.11,52.42,73.53,8.29,80.75-2.51.41-5.42-.54-7.05,1.36v124.24ZM335.84,207.09c1.13,4.55-1.48,7.16-2.52,10.86-6.93,24.45,28.94,36.27,40.88,15.65,9.22-15.93-2.36-36.14-19.81-39.32-21.21-.24-46.09-2.26-67.09-.18-27.44,2.72-34.14,43.52-6.24,49.8,9.43,2.12,20.54-3.37,25.09-11.84,4.84-9.01.55-16.19-.9-25.34.36-1.17,1.71.37,1.92.37h28.67ZM303.34,385.24c9.28-1.27,24.41,0,34.41,0,.1,0,1.77,1.47,1.89-.37.01-.18-.78-1.76-.79-3.02-.27-28.06.03-56.26.08-84.12.03-14.24-.11-28.49,0-42.73-1.86-1.14-3.79-1.63-5.65-2.92-2.1-1.46-4.44-4.99-6.58-5.65-2.03-.63-12.85-.72-14.55.06s-3.99,4.69-5.73,5.74c-1.33.81-4.81,1.1-5.03,2.01l.81,131.77c.28.39.92-.73,1.14-.76ZM349.6,400.53h-59.26l-1.15,1.15v14.14c11.63-.76,23.23.85,34.82.8,1.8,0,3.48-.79,5.29-.83,6.74-.14,13.74.73,20.29-.73v-14.53Z"/>
      <path d="M697.48,148.22l-22.51,2.32c-108.69-3.16-219.64,4.07-328.08,0-4.34-.16-8.82-1.42-13.34-.81,2.63-2.66,7.84-2.48,11.47-3.43,56.58-14.79,112.95-30.69,169.35-46.16,60.51,17.94,122.08,32.07,183.11,48.08ZM513.03,115.5c-14.6,2.4-2.81,25.91,7.49,15.16,6.3-6.58,1.39-16.62-7.49-15.16Z"/>
      <path d="M786.94,152.8c-7.18-.12-14.63-.18-21.78-.77-27.18-2.24-59.02-14.72-85.86-21.95-54.4-14.65-109.27-27.51-163.42-43.07-53.75,13.7-107.61,27.51-161.09,42.31-31.43,8.69-63.03,21.64-95.8,23.48-3.17.18-6.38-.11-9.55,0v-11.47c36.78-8.14,72.85-19.03,109.17-28.84,52.23-14.11,104.46-28.02,156.52-42.65,79.8,19.33,158.39,45.39,238.3,64.09,11.06,2.59,22.98,3.56,33.51,7.78v11.09Z"/>
      <path d="M785.25,162.9c1.29.93,1.45,11.64.22,12.51-27.09.78-54.35.12-81.51.3-120.12.8-239.86.31-360.12,0-25.37-.07-50.93.24-76.39-.76-2.94-.12-16.69.72-17.66-.68-.82-2.09-.19-10.78,1.68-11.42,3.41-1.16,19.27.11,24.4-.07,39.59-1.41,78.97-.17,118.44,0,117.09.52,234.02-1.25,350.95-.77,5.77.02,37.57-.85,40,.89Z"/>
      <path d="M360.3,690.3c2.48.34,4.81-.63,7.23-.8,21.94-1.52,48.26-.02,70.34.83,4.92.19,11.55-.72,16.11-.04,1.18.18,1.17-.46,1.15,1.16-.05,4.58-1.57,10-.79,14.91h-94.05v-16.06Z"/>
      <path d="M359.54,540.83c-.03-.22-1.15-.86-.76-1.14,14.93-.31,29.81-.88,44.76-.81,13.7.07,34.47-.65,47.4.76,1.06.12,2.07.02,2.55,1.24l-.67,14.85h-93.28c-.46-4.68.62-10.38,0-14.91Z"/>
      <path d="M453.58,659.72v14.91c0,.23.97.59.76,1.15h-94.81v-14.91c.48-.74,2.75-1.15,3.44-1.15h90.6Z"/>
      <path d="M453.58,629.14v16.06h-92.13c-.23,0-1.09,1.05-1.91.76v-16.06l94.04-.76Z"/>
      <path d="M360.3,722.8c-.04-.33-1.05-1.05-.76-1.91,4.5.66,9.11-.63,13.35-.8,27.12-1.08,54.4,1.01,81.46.79l-.76,16.06-93.28-.77c-.36-4.27.49-9.2,0-13.38Z"/>
      <polygon points="453.58 599.32 453.58 614.61 359.54 615.38 359.54 600.08 453.58 599.32"/>
      <path d="M453.58,584.79h-92.9c-.23,0-.59.97-1.15.76v-16.06l94.04,1.15v14.14Z"/>
      <path d="M359.54,752.62c0-.18-1.45-1.02-.38-1.15l94.43.76-.77,14.53h-92.13l-1.15-1.15c-.07-4.33.1-8.67,0-13Z"/>
      <path class="d" d="M302.2,701.77l-.77,72.64c-3.35-1.82-6.92.92-10.59-.11-3.24-23.82-.96-48.41-1.64-72.52-5.04,1.53-9.49.23-14.53,0l-.76,72.64h-11.47l-.76-72.64h-16.82l-.76,72.64h-11.47v-72.64h-14.53s-.76,72.64-.76,72.64h-11.47c-.4-17.69-1.19-35.4-.8-53.18.05-2.18.77-4.03.83-6.05.12-4.03.73-10.09-1.18-13.41h-14.14v72.64h-11.47l-1.53-72.64h-14.53s-.76,72.64-.76,72.64h-12.23c-.18-6.49.23-13.04.03-19.53-1.48-48.46-.99-97.62-.83-145.97.13-37.85-4.52-64.71,19.59-96.69,38.87-51.52,113.86-45.26,145.98,9.86,17.41,29.87,14.7,55.19,14.93,88.29.25,35.94-1.18,71.99,1.53,107.81l-.75,55.13c-2.36.24-10.5,1.39-11.37-.96l-2.06-70.58h-14.91ZM232.61,489.22c-3.82.07-28.85,7.32-29.02,9.55l21.75,34.58,8.03-2.08-.76-42.04ZM244.85,531.27l7.66,1.94c2.85-5.61,22.41-29.86,21.9-34.45-.24-2.16-7.05-4.45-9.08-5.17-6.39-2.27-13.73-3.86-20.48-4.37v42.05ZM193.53,506.15c-.94-.54-1.83.1-2.62.62-1.84,1.22-14.36,14.63-14.11,15.7l33.87,20.96c1.98-1.74,5.38-3.69,4.03-6.83l-21.18-30.45ZM261.78,538.82c.13.23,4.14,2.73,4.39,2.8,2.17.52,16.33-7.54,19.14-9.26l14.52-10.52c-3.02-4.79-7.85-11.84-12.52-15.05-.64-.44-.8-1.04-1.91-.74-3.16,7.85-9.72,13.45-14.86,19.94-1.55,1.96-2.75,4.38-4.29,6.42-1.18,1.56-5.61,4.41-4.46,6.42ZM205.09,552.7l-34.73-19.09c-1.97.42-8.06,25.29-7.32,29.01h39.77c-.43-3.82.21-6.75,2.29-9.93ZM307.54,534.33l-34.82,17.56c.64,3.33,2.68,6.84,1.95,10.74l40.53.76c-.33-10.2-3.65-19.85-7.66-29.06ZM236.28,542.96c-3.04.32-7.68,1.62-9.34,4.43-1.15,1.95-2.91,11.69-2.7,13.99.41,4.51,5.72,13.08,10.46,14.06,13.15,2.73,21.19-12.54,19.28-23.86-1.13-6.69-12.04-9.21-17.71-8.62ZM163.04,574.85v41.29h68.81l-.89-28.55c-2.33-2.3-5.38-2.47-8.31-4.69-2.74-2.08-5.22-5.39-6.22-8.69-17.82-.57-35.57,2.75-53.4.64ZM244.85,587.09v29.82c.56.2.91-.76,1.15-.76h69.96v-40.53c-8.77-.27-17.64.36-26.41.04-4.76-.18-25.69-3.12-28.27-.81-.74.66-1.42,3.32-2.33,4.55-2.65,3.56-9.59,7.62-14.1,7.7ZM163.04,628.37v15.29c10.08,1.61,20.41-.48,30.6-.39l-1.54-14.14-29.06-.76ZM231.09,628.37l-26,.76c-.14,4.75-.45,9.98-1.53,14.53h27.53v-15.29ZM315.96,629.14h-71.87v14.53l28.67.77,1.91,1.15v17.97h41.29v-34.41ZM231.09,656.66h-68.05v32.88h68.81c.2-.56-.76-.91-.76-1.15v-31.73ZM262.44,689.54l-.77-30.97-1.15-1.91h-15.29l-1.15,1.15v31.73h18.35ZM315.96,677.31h-41.29c2.05,3.96-.56,8.08,0,12.23h42.05c.2-.56-.76-.91-.76-1.15v-11.09Z"/>
      <path class="d" d="M454.35,292.72c1.23-9.52,4.82-19,10.09-27,30.86-46.9,104.6-29.16,110.62,26.14-.85-.11-2.17.86-2.57.86h-11.85c0,5.61-.26,16.69,7.65,16.06-1.45,6.17-.71,11.88,1.91,17.58,1.93,4.2,4.38,2.57,4.91,3.12.15.15.82,3.94.82,4.15v112.01l-122.34.77c.33-26.9.73-53.78.8-80.7.03-10.02-1.22-21.27-.05-31.32.59-5.08,2.19-3.09,4.57-4.6,1.85-1.17,2.34-7.97,2.32-10.3-8.13,1.04-16.22-1.22-24.06-1.56-12.24-.54-24.4,1.1-36.63.69-2.44-.8-.78-9.03-1.26-11.37,18.72.36,37.51-.46,56.23-.03,4.17.1,7.03,2.78,10.29-1.88,1.68-2.4,5.22-12.62.38-12.62h-11.85Z"/>
      <path class="d" d="M416.12,291.96c1.42-17.63,7.04-34.57,16.96-49.18,37.9-55.78,122.09-54.92,161.05-.76,10.3,14.32,17.95,32.12,18.5,49.94l-20.65.77c-1.96-35.34-28.52-65.57-63.93-70.26-28.58-3.79-54.21,5.2-72.91,27.07-10.21,11.95-15.91,26.88-17.61,42.41h-21.41Z"/>
      <path class="d" d="M437.53,332.48l.04,112.68c-.09.33-2.51,1.24-2.72,1.24h-17.59l-1.15-1.15v-112.78h21.41Z"/>
      <path class="d" d="M507.11,714.01h-16.06v-147.56h14.91c.2,0,.79-1.2,1.55-.04.49.84.41,1.79.43,2.72.05,3.88-.8,9.05-.87,12.97-.75,43.94.64,87.98.03,131.92Z"/>
      <path class="d" d="M575.92,714.77v-148.33c5.22-.19,10.57.61,15.68-.77v149.1h-15.68Z"/>
      <path class="d" d="M679.52,566.44c.27-.01,1.63-1.52,1.92-.38l.76,147.94h-17.59l.76-147.56c4.69-.13,9.44.18,14.14,0Z"/>
      <path class="d" d="M614.15,333.24l.81,111.92c-.09.33-2.51,1.24-2.72,1.24h-18.73l.76-113.16h19.88Z"/>
      <path class="d" d="M766.68,566.44c.33-.04,1.05-1.05,1.91-.76-.73,4.19.73,8.7.8,12.58.08,4.59-.81,8.83-.83,12.99-.22,40.89-.32,82,.8,122.75h-16.06l-.76-147.17c1.1-1.81,1.63-.39,1.91-.39,3.79,0,8.64.42,12.23,0Z"/>
      <path class="d" d="M796.11,746.88c-8.97-7.2-1.44-19.64-3.02-29.31l-6.96-1.6-.71-1.58-.78-150.61c10.36-.86,6.2-7.84,6.09-15.18l6.14-4.33-.76,202.61Z"/>
      <path class="d" d="M697.49,525.15l-.76,11.47h-47.4c-.28-3.8.75-7.88-.76-11.47h48.93Z"/>
      <path class="d" d="M609.56,525.15c.12,3.88.01,8.48-2.68,11.47h-44.73c.85-1.89-1.83-11.47.38-11.47h47.02Z"/>
      <polygon class="d" points="523.16 525.15 522.25 535.33 521.25 536.62 476.52 536.62 476.52 525.15 523.16 525.15"/>
      <polygon class="d" points="782.36 735.41 782.36 746.5 781.21 747.65 739.54 747.65 739.54 734.65 782.36 735.41"/>
      <path class="d" d="M692.9,748.41l-42.82-.76-.77-11.84,41.76-1.12c.64-.17,1.84.78,1.84,1.11v12.62Z"/>
      <polygon class="d" points="785.41 525.92 785.41 536.62 739.54 536.62 738.78 525.92 785.41 525.92"/>
      <path class="d" d="M605.74,735.41l-.76,12.23h-42.05v-13c.82-.28,1.68.76,1.91.76h40.91Z"/>
      <path class="d" d="M478.05,747.65l-.77-12.24c14.47,1.19,29-.66,43.58.01-1.24,3.64-1.24,8.56,0,12.23h-42.82Z"/>
      <path class="d" d="M778.53,541.97l-.33,7.7c-.18.25-4.3,1.47-4.64,1.47h-27.91c.4-2.95-1.1-6.96,1.15-9.18h31.73Z"/>
      <path class="d" d="M482.63,551.92c.38-2.08-1.07-8.31,1.26-9.07l30.06-1.32,1.45.94c-.01,1.89,1.01,7.11-1.14,7.81l-31.63,1.64Z"/>
      <path class="d" d="M601.91,541.98c0,1.46.41,8.05-1.27,8.44l-32.37.74v-8.42s33.64-.76,33.64-.76Z"/>
      <path class="d" d="M656.96,542.74h31.73c.19,0,.61-.8,1.14-.77l.67,7.17-1.14,1.14c-7.35.4-14.75-.15-22.1.08-2.36.07-10.01,2.35-10.95-.46l.66-7.16Z"/>
      <path class="d" d="M729.6,386h-37.47c-.12-6.24.16-12.52.04-18.77-.52-25.32.27-50.97,0-76.46-.12-11.14-2.02-23.17-.8-34.39.5-4.58,2.91-3.62,6.05-6.17,2.81-2.28,4.98-5.82,8.91-6.39,10.37-1.5,12.27,9.87,21.74,11.8l.77,1.53.76,128.85Z"/>
      <path class="d" d="M730.2,215.69c1.05,1-.83,11.84,5.89,16.63,4.01,2.85,10.16,3.16,14.42.64,9.91-5.86,8.33-22.88-1.77-27.06-9.31-3.85-14.29,2.01-22.55,2.74-6.09.53-12.34-1.27-18.35-1.59-4.95-.27-10,.26-14.94.03.63,10.89,6.92,19.01-1.21,28.99-17.79,21.85-51.74-1.4-36.87-27.69,9.49-16.77,24.76-13.74,40.79-14.26,13.87-.45,34.46-1.95,47.95.15,23.48,3.66,33.46,37.44,10.53,48.4-11.79,5.64-30.79-2.36-32.74-15.52-.69-4.67,4.35-15.75,8.84-11.46ZM672.05,204.21c-6.46,1.36-12.36,11.22-11.86,17.57,1.48,18.89,28.83,16.25,25.79-2.79-.23-1.45-5.83-13.13-6.77-13.87-1.95-1.55-4.77-1.41-7.15-.91Z"/>
      <polygon class="d" points="741.07 401.29 741.07 415.82 679.9 415.82 679.9 402.44 681.05 401.29 741.07 401.29"/>
      <path class="d" d="M303.34,385.24c-.22.03-.86,1.15-1.14.76l-.81-131.77c.22-.91,3.69-1.2,5.03-2.01,1.74-1.05,4.1-5,5.73-5.74s12.53-.68,14.55-.06c2.14.66,4.48,4.19,6.58,5.65,1.86,1.29,3.79,1.78,5.65,2.92-.12,14.24.02,28.49,0,42.73-.05,27.86-.35,56.06-.08,84.12.01,1.26.8,2.84.79,3.02-.11,1.84-1.79.37-1.89.37-10,0-25.13-1.27-34.41,0Z"/>
      <path class="d" d="M335.84,207.09h-28.67c-.2,0-1.56-1.54-1.92-.37,1.44,9.16,5.74,16.33.9,25.34-4.55,8.47-15.66,13.96-25.09,11.84-27.9-6.29-21.21-47.08,6.24-49.8,21-2.08,45.88-.06,67.09.18,17.45,3.18,29.03,23.39,19.81,39.32-11.94,20.62-47.81,8.8-40.88-15.65,1.05-3.7,3.65-6.3,2.52-10.86ZM285.18,204.21c-11.1,1.83-18.4,18.75-8.23,26.97,11.26,9.11,25.8-1.66,20.03-15.44-.65-1.55-5.24-9.49-6.21-10.61-1.42-1.63-3.68-1.24-5.59-.92ZM363.85,230.51c6.84-6.65,4.53-20.23-3.63-24.5-2.57-1.34-6.14-2.61-8.9-1.41-3.84,1.66-9.64,14.84-9.43,18.94.59,11.16,14.51,14.21,21.95,6.97Z"/>
      <path class="d" d="M349.6,400.53v14.53c-6.56,1.46-13.55.6-20.29.73-1.81.04-3.49.82-5.29.83-11.59.06-23.19-1.56-34.82-.8v-14.14l1.15-1.15h59.26Z"/>
      <path class="d" d="M513.03,115.5c8.87-1.46,13.78,8.58,7.49,15.16-10.3,10.75-22.08-12.76-7.49-15.16Z"/>
      <path d="M244.85,587.09c4.51-.07,11.44-4.14,14.1-7.7.92-1.23,1.59-3.89,2.33-4.55,2.58-2.31,23.51.63,28.27.81,8.77.33,17.64-.3,26.41-.04v40.53h-69.96c-.23,0-.59.97-1.15.76v-29.82Z"/>
      <path d="M163.04,574.85c17.83,2.11,35.58-1.21,53.4-.64,1,3.3,3.48,6.61,6.22,8.69,2.93,2.22,5.97,2.39,8.31,4.69l.89,28.55h-68.81v-41.29Z"/>
      <path d="M231.09,656.66v31.73c0,.23.97.59.76,1.15h-68.81v-32.88h68.05Z"/>
      <polygon points="315.96 629.14 315.96 663.54 274.67 663.54 274.67 645.58 272.76 644.43 244.09 643.66 244.09 629.14 315.96 629.14"/>
      <path d="M244.85,531.27v-42.05c6.75.51,14.09,2.1,20.48,4.37,2.03.72,8.84,3.02,9.08,5.17.51,4.59-19.05,28.83-21.9,34.45l-7.66-1.94Z"/>
      <path d="M307.54,534.33c4.02,9.21,7.33,18.86,7.66,29.06l-40.53-.76c.74-3.89-1.31-7.41-1.95-10.74l34.82-17.56Z"/>
      <path d="M232.61,489.22l.76,42.04-8.03,2.08-21.75-34.58c.17-2.23,25.2-9.48,29.02-9.55Z"/>
      <path d="M205.09,552.7c-2.08,3.18-2.72,6.1-2.29,9.93h-39.77c-.74-3.72,5.35-28.59,7.32-29.01l34.73,19.09Z"/>
      <path d="M236.28,542.96c5.66-.59,16.58,1.93,17.71,8.62,1.91,11.32-6.13,26.59-19.28,23.86-4.75-.98-10.06-9.55-10.46-14.06-.21-2.3,1.55-12.05,2.7-13.99,1.65-2.81,6.3-4.11,9.34-4.43Z"/>
      <path d="M193.53,506.15l21.18,30.45c1.35,3.14-2.05,5.08-4.03,6.83l-33.87-20.96c-.25-1.07,12.27-14.48,14.11-15.7.78-.52,1.68-1.16,2.62-.62Z"/>
      <polygon points="262.44 689.54 244.09 689.54 244.09 657.81 245.23 656.66 260.53 656.66 261.67 658.57 262.44 689.54"/>
      <path d="M261.78,538.82c-1.15-2,3.28-4.85,4.46-6.42,1.54-2.04,2.74-4.46,4.29-6.42,5.14-6.49,11.7-12.09,14.86-19.94,1.11-.3,1.27.3,1.91.74,4.67,3.21,9.5,10.27,12.52,15.05l-14.52,10.52c-2.81,1.71-16.97,9.77-19.14,9.26-.25-.06-4.26-2.57-4.39-2.8Z"/>
      <path d="M315.96,677.31v11.09c0,.23.97.59.76,1.15h-42.05c-.56-4.15,2.05-8.28,0-12.23h41.29Z"/>
      <path d="M163.04,628.37l29.06.76,1.54,14.14c-10.19-.09-20.51,2.01-30.6.39v-15.29Z"/>
      <path d="M231.09,628.37v15.29h-27.53c1.07-4.55,1.38-9.78,1.53-14.53l26-.76Z"/>
      <path d="M672.05,204.21c2.38-.5,5.2-.64,7.15.91.94.74,6.54,12.42,6.77,13.87,3.04,19.04-24.3,21.68-25.79,2.79-.5-6.35,5.41-16.21,11.86-17.57Z"/>
      <path d="M285.18,204.21c1.92-.32,4.17-.71,5.59.92.97,1.12,5.56,9.06,6.21,10.61,5.77,13.78-8.77,24.55-20.03,15.44-10.17-8.23-2.88-25.14,8.23-26.97Z"/>
      <path d="M363.85,230.51c-7.45,7.25-21.37,4.19-21.95-6.97-.22-4.1,5.58-17.28,9.43-18.94,2.76-1.19,6.33.07,8.9,1.41,8.16,4.27,10.46,17.84,3.63,24.5Z"/>
    </g>
  </g>
</svg>