<?xml version="1.0" encoding="UTF-8"?>
<svg id="b" data-name="Layer 2" xmlns="http://www.w3.org/2000/svg" viewBox="0 0 1018.74 1004.87">
  <defs>
    <style>
      .d {
        fill: #fff;
      }
    </style>
  </defs>
  <g id="c" data-name="Layer 1">
    <g>
      <path d="M479.37.65c192.8-9.09,372.78,77.1,469.62,245.66,166.3,289.44,22.61,648.02-297.27,738.91-221.54,62.95-465.18-28.6-581.66-227.74C-121.48,430.01,101,18.49,479.37.65ZM762.94,765.7h27.94c.46,0,2.02-1.56,3.21-1.36,2.24-3.14-15.74-27.85-18.15-32.41,4.35-.43,9.44.55,13.67-.01,1.8-.24,2.25.71,1.91-1.93l-23.38-34.46h23.39l-35.1-65.65c-15.64,19.78-25.87,42.9-37.67,65.01l22.07,2.58-24.68,32.5,11.68,3.89c-6.18,5.19-17.7,21.05-19.38,28.72-.61,2.81.39,1.38,1.86,1.76,1.07.27,4.91,1.36,5.17,1.36h29.24l-1.94,37.68c-76.73-56.63-165.19-98.66-257.5-123.29-1.25-.33-4.18.54-3.05-2.09.58-1.36,8.27-6.64,10.21-7.99,87.7-60.67,218.02-100.21,324.35-105.79,39.59-2.08,83.93-2.89,123.16,3,5.93.89,36.14,8.84,38.78,6.9,13.65-71.71,5.73-150.79-16.62-220.09C851.38,10.6,396.8-76.23,154.72,185.42,66.93,280.31,13.68,441.21,38.18,569.73c.52,2.75,1.71,11.92,4.26,12.55,42.02-12.51,83.37-21.25,127.28-24.5,99.92-7.39,227.91,5.06,319.9,46.54,6.74,3.04,23.29,9.63,28.19,13.4,1.69,1.3,2.71,3.06,3.42,5.01-30.65,6.76-55.65,28.6-81.29,45.52-103.2-26.53-214.13-31.32-319.21-12.61-10.37,1.85-47.51,8.48-54.3,13.3-1.09.77-2.67,1.7-2.11,3.25l18.43,35.1c42.64-11.14,86.99-18.26,131.09-20.92,142.51-8.59,303.67,35.07,429.12,101.19,34.81,18.35,106.63,60.37,132.52,87.75,3.41,3.61,7.59,8.64,6.97,13.84l35.75-25.96,2.01-4.49c-18.09-13.8-35.09-30.03-55.76-39.94l-1.51-53.08ZM802.57,768.29c8.35.51,17.52,0,25.99,0,.72,0,2.9,1.9,4.55,1.32-2.29,16.74-1.38,34.34-1.24,51.36.02,2.75-1.38,5.29-1.35,7.74s2.23,14.59,3.22,16.27c1.35,2.27,1.56.57,2.64.03,2.5-1.24,13.74-11.48,15.08-13.69,1.16-1.92-.16-2.11-.16-2.6v-60.43h35.09c-3.92-10.26-9.7-20.98-16.89-29.25,1.08-1.64,7.59-.59,6.37-3.76l-21.97-33.28h22.74c.5,0,1.2,2.58,3.22-.65-11.85-18.25-20.95-38.98-32.25-57.4-.77-1.25-3.36-7.49-5.39-5.63l-32.45,59.19c-.41,2.59.09,1.66,1.87,1.89,6.01.77,11.81-.82,18.26,1.27,1.5.49,2.26-.95,1.92,1.96-.63,5.36-7.35,9-10.37,13.04-1.73,2.32-11.15,15.51-11.72,16.88-1.43,3.46,7.16.6,6.31,4.96-.62,6.42-14.37,22.03-16.69,28.84-.78,2.28,1.86,1.84,3.23,1.92ZM466.64,917.74v-40.94c4.39-4.22,14.78-3.45,18.92-7.07,3.27-2.86,2.47-9.02,4.4-12.16.98-1.6,5.21-2.93,6.64-5.38,3.09-5.29.48-9.05-2.13-13.6-3.27-5.7-31.51-44.08-34.98-45.6-5.68,6.26-33.01,47.17-31.68,52.37.51,2.01,3.06,3.33,5.04,3.53l-11.69,19.46,26.99,5.52,2.75,43.12,15.74.76ZM382.17,913.84v-42.23c6.6-4.52,25.4-26.18,24.44-33.49-1-7.6-28.68-35.54-34.19-43.79l-34.18,42.4c6.5,12.63,13.86,25.58,25.74,33.86l1.43,41.82,16.75,1.44Z"/>
      <path class="d" d="M762.94,765.7l1.51,53.08c20.67,9.91,37.67,26.14,55.76,39.94l-2.01,4.49-35.75,25.96c.62-5.2-3.55-10.23-6.97-13.84-25.89-27.38-97.71-69.4-132.52-87.75-125.45-66.12-286.61-109.79-429.12-101.19-44.09,2.66-88.45,9.78-131.09,20.92l-18.43-35.1c-.55-1.55,1.03-2.48,2.11-3.25,6.79-4.82,43.93-11.45,54.3-13.3,105.08-18.71,216.01-13.92,319.21,12.61,25.63-16.92,50.63-38.76,81.29-45.52-.71-1.95-1.73-3.71-3.42-5.01-4.9-3.77-21.44-10.36-28.19-13.4-92-41.48-219.98-53.93-319.9-46.54-43.91,3.25-85.26,11.99-127.28,24.5-2.55-.63-3.74-9.8-4.26-12.55-24.49-128.53,28.75-289.42,116.54-384.32C396.8-76.23,851.38,10.6,962.14,354.02c22.35,69.3,30.27,148.38,16.62,220.09-2.64,1.94-32.85-6.01-38.78-6.9-39.23-5.89-83.57-5.08-123.16-3-106.33,5.58-236.65,45.12-324.35,105.79-1.95,1.35-9.64,6.63-10.21,7.99-1.12,2.63,1.81,1.76,3.05,2.09,92.31,24.62,180.77,66.66,257.5,123.29l1.94-37.68h-29.24c-.27,0-4.11-1.09-5.17-1.36-1.47-.37-2.47,1.05-1.86-1.76,1.67-7.68,13.2-23.54,19.38-28.72l-11.68-3.89,24.68-32.5-22.07-2.58c11.8-22.11,22.02-45.23,37.67-65.01l35.1,65.65h-23.39l23.38,34.46c.34,2.64-.11,1.69-1.91,1.93-4.22.56-9.32-.42-13.67.01,2.41,4.56,20.4,29.27,18.15,32.41-1.19-.2-2.75,1.36-3.21,1.36h-27.94ZM567.56,93.39c8.2-7.82,3.26-16.04-6.67-17.77l-143.1,1.2c-4.92,9.53-.22,18.4,10.52,19.62,26.66,3.03,58.51-5.58,85.71.05,14.66-1.2,31.22,1.4,45.62.03,3.22-.31,5.49-.82,7.92-3.14ZM636.88,270.57v293.69c21.41-5.6,42.02-13.98,63.66-18.86,8.84-2,20.08-5.73,28.59-3.23l-1.28-272.91-18.28-2.05,1.43-49.06-27.04-19.86c.43-8.15,2.13-17.84,2.34-25.79.5-18.25,2.09-47.9,0-65.09-.17-1.43.06-2.9-1.28-3.92-1.28-.89-15.33-.99-17.63-.57-5.99,1.12-2.03,7.98-1.89,12.29.55,18.01,1.74,44.99-.21,62.28-.19,1.69-.78,4.65-1.79,5.99l-13.65-6.48c.61,30.89,3.94,62.81-1.49,93.38l-11.51.18ZM580.74,118.91c-84.37,2.78-169.29-.15-253.82.89-11.47-.55-8.86,14.42-3.34,19,5.94,4.93,39.37,3.12,48.91,3.18,73.19.41,146.21-2.16,219.64-1.28,8.71-2.65,15.58-12.48,6.45-19.58-5.37-4.18-11.55-2.4-17.83-2.2ZM448.18,174.79c-55.71,5.34-57.53,89.3-1.35,99.34,72.89,13.02,81.87-107.07,1.35-99.34ZM260.01,453.81c44.03-3.34,78.64-32.88,99.46-70.14,57.44-102.77-35.19-230.24-151.13-195.32-60.92,18.35-98.09,76.93-93.86,140.03,4.16,61.96,57.02,119.12,119.55,124.13-.1-23.45-.52-46.89,2.07-70.19-1.2-4.52-21.87-22.66-26.8-27.9-15.19-16.15-37.19-37-50.02-53.95-1.68-2.22-5.87-6.92-6.56-9.05-2.12-6.46,2.88-11.87,9.17-11.9,12.83-.06,36.26,29.29,46.13,38.49,8.56,7.99,18.12,15.45,27.3,22.72,1.11-5.98-1.13-11.92-1.34-17.49-.86-23.26-1.97-56.65.08-79.3.89-9.93,4.02-16.25,13.61-20.11,9.92,2.63,11.66,12.45,12.34,21.4,1.01,13.33.07,33.8.07,48.01,0,16.32.13,32.61-1.34,48.79.35.47,8.64-5.59,9.72-6.51,15.76-13.47,29.42-33.17,44.98-45.99,6.73-5.54,16.5-14.07,24.49-6.56,9.4,8.82-9.75,26.88-15.98,33.92-14.06,15.88-29.98,30.38-44.4,45.92-6.21,6.7-12.32,13.81-18.28,20.76l.75,70.23ZM817.52,184.8h-24.69l2.6,28.58-20.8-1.3,2.61,50.69c-9.9.02-18.67,2.61-28.59,0l1.3,272.9c34.17-7.15,69.4-5.03,103.95-9.1l1.31-262.5h-23.39l1.3-50.68h-18.19l2.6-28.59ZM619.99,322.55h-96.17c2.03,19.86,1.64,40.4,1.35,60.48-.79,55.86-2.11,111.6,0,167.53.21,5.7-1.4,28.98,1.58,31.57l32.81,13.39c15.22-7.07,30.03-16.06,46.42-21.23,3.35-1.06,12.87-1.5,13.84-4.35l.17-247.39ZM873.4,368.04v157.24c26.88.85,54.13.08,80.56,5.19.31-9.72-.38-19.56-.05-29.29.12-3.44,1.33-6.58,1.42-10.28.99-41.33-.86-82.84-.07-124.17l-81.86,1.3ZM501.72,569.46l1.25-154.01-80.52-.63,1.3,131.27c11.1-4.96,75.15,26.35,77.97,23.38ZM121.02,518.84c38.34-7.36,45.2-65.55,4.11-76.35-54.08-14.21-71.45,63.58-20.33,77.51l2.06,16.79,13.54-1.04.62-16.92ZM360.14,520.17c36.25-8.01,41.49-59.85,4.13-71.19-46.01-13.97-62.19,55.22-21.22,69.95l1.45,16.77,15.59,1.29.06-16.82Z"/>
      <path class="d" d="M802.57,768.29c-1.37-.08-4,.36-3.23-1.92,2.32-6.82,16.08-22.42,16.69-28.84.85-4.35-7.74-1.5-6.31-4.96.57-1.37,9.98-14.56,11.72-16.88,3.02-4.04,9.74-7.68,10.37-13.04.34-2.91-.42-1.47-1.92-1.96-6.45-2.1-12.25-.5-18.26-1.27-1.79-.23-2.28.71-1.87-1.89l32.45-59.19c2.03-1.87,4.62,4.38,5.39,5.63,11.31,18.42,20.4,39.15,32.25,57.4-2.03,3.23-2.72.65-3.22.65h-22.74l21.97,33.28c1.21,3.16-5.29,2.11-6.37,3.76,7.19,8.26,12.97,18.98,16.89,29.25h-35.09v60.43c0,.48,1.32.68.16,2.6-1.34,2.22-12.58,12.45-15.08,13.69-1.08.54-1.29,2.24-2.64-.03-.99-1.68-3.19-13.88-3.22-16.27s1.37-4.99,1.35-7.74c-.14-17.02-1.05-34.62,1.24-51.36-1.65.58-3.83-1.32-4.55-1.32-8.47,0-17.64.51-25.99,0Z"/>
      <path class="d" d="M466.64,917.74l-15.74-.76-2.75-43.12-26.99-5.52,11.69-19.46c-1.98-.2-4.52-1.52-5.04-3.53-1.33-5.21,26-46.11,31.68-52.37,3.47,1.51,31.7,39.9,34.98,45.6,2.62,4.55,5.22,8.31,2.13,13.6-1.43,2.45-5.65,3.79-6.64,5.38-1.93,3.14-1.13,9.3-4.4,12.16-4.14,3.62-14.53,2.85-18.92,7.07v40.94Z"/>
      <path class="d" d="M382.17,913.84l-16.75-1.44-1.43-41.82c-11.89-8.28-19.25-21.23-25.74-33.86l34.18-42.4c5.51,8.25,33.19,36.19,34.19,43.79.96,7.32-17.84,28.97-24.44,33.49v42.23Z"/>
      <path d="M260.01,453.81l-.75-70.23c5.95-6.95,12.06-14.06,18.28-20.76,14.42-15.54,30.34-30.04,44.4-45.92,6.23-7.03,25.38-25.09,15.98-33.92-8-7.51-17.76,1.02-24.49,6.56-15.56,12.81-29.22,32.52-44.98,45.99-1.08.92-9.37,6.98-9.72,6.51,1.47-16.18,1.34-32.47,1.34-48.79,0-14.22.94-34.68-.07-48.01-.68-8.95-2.42-18.77-12.34-21.4-9.6,3.86-12.72,10.18-13.61,20.11-2.04,22.66-.94,56.04-.08,79.3.21,5.57,2.45,11.51,1.34,17.49-9.17-7.28-18.73-14.74-27.3-22.72-9.86-9.2-33.3-38.56-46.13-38.49-6.29.03-11.29,5.44-9.17,11.9.7,2.13,4.88,6.83,6.56,9.05,12.83,16.95,34.82,37.79,50.02,53.95,4.93,5.24,25.59,23.38,26.8,27.9-2.59,23.3-2.17,46.73-2.07,70.19-62.53-5.01-115.39-62.16-119.55-124.13-4.23-63.1,32.94-121.68,93.86-140.03,115.94-34.92,208.57,92.55,151.13,195.32-20.82,37.25-55.44,66.79-99.46,70.14Z"/>
      <path d="M636.88,270.57l11.51-.18c5.44-30.57,2.1-62.49,1.49-93.38l13.65,6.48c1.01-1.34,1.6-4.3,1.79-5.99,1.95-17.28.76-44.27.21-62.28-.13-4.31-4.1-11.17,1.89-12.29,2.29-.43,16.35-.32,17.63.57,1.34,1.02,1.11,2.49,1.28,3.92,2.08,17.19.49,46.85,0,65.09-.22,7.95-1.91,17.63-2.34,25.79l27.04,19.86-1.43,49.06,18.28,2.05,1.28,272.91c-8.51-2.5-19.75,1.24-28.59,3.23-21.64,4.89-42.25,13.26-63.66,18.86v-293.69Z"/>
      <path d="M817.52,184.8l-2.6,28.59h18.19l-1.3,50.68h23.39l-1.31,262.5c-34.55,4.07-69.78,1.95-103.95,9.1l-1.3-272.9c9.92,2.62,18.69.03,28.59,0l-2.61-50.69,20.8,1.3-2.6-28.58h24.69ZM788.92,293.96c-4.81,2.05-10.74,2.06-15.57,0,3.34,9.62-1.04,18.75-.02,28.59h16.91s-1.32-28.6-1.32-28.6ZM829.21,295.26h-15.59v28.59h15.59v-28.59ZM788.92,339.45c-5.22,3.04-10.15.05-15.58.01,2.47,4.7-2.67,24.01,1.22,26.71l15.68.57-1.32-27.3ZM829.21,366.74v-27.29c-4.85,2.35-10.39,1-15.59,1.3v25.99h15.59ZM790.23,383.63h-15.6c1.56,5.01-4.58,24.02.84,25.83,4.09,1.37,10.21-2.21,14.76-1.14v-24.69ZM829.21,383.63l-15.59,1.3v24.69l15.59,1.3v-27.29ZM774.63,426.52v25.99l13.44-.2c3.86-1.23.87-6.32.79-9.49-.15-5.85.25-11.75.05-17.59l-14.29,1.29ZM813.62,426.52v25.34c3.77,3.81,10.58,1.28,15.59,1.95v-25.34c0-.28,1.94-1.47,1.3-1.94h-16.89ZM788.92,469.41l-14.29-.02-1.3,27.3,15.75-.76c2.69-8.74.57-17.76-.16-26.52ZM829.21,469.4h-15.59v28.59h15.59v-28.59Z"/>
      <path d="M619.99,322.55l-.17,247.39c-.97,2.85-10.49,3.29-13.84,4.35-16.39,5.17-31.2,14.16-46.42,21.23l-32.81-13.39c-2.97-2.59-1.36-25.87-1.58-31.57-2.11-55.93-.79-111.68,0-167.53.28-20.09.67-40.62-1.35-60.48h96.17ZM562.81,345.95h-15.6s-1.23,21.57-1.23,21.57l2.09,2.93,14.74.2v-24.69ZM596.6,345.95h-14.29v24.69h14.29v-24.69ZM562.81,410.92v-24.69l-15.6,1.29-1.14,22.64c1.1,4.61,13.01-.66,16.74.75ZM596.6,387.53l-15.61.67c2.36,7.27,1.44,15.27.62,22.74l14.99,1.28v-24.69ZM562.81,453.81v-25.99c-4.85,2.35-10.39,1-15.59,1.3v24.69h15.59ZM596.6,429.12h-15.59v24.69l13.7.98,1.89-1.63v-24.04ZM562.81,470.7h-15.59v25.99h15.59v-25.99ZM596.6,470.7h-15.59v25.99h15.59v-25.99ZM562.81,513.59h-15.59v25.99c5.21.3,10.75-1.05,15.59,1.3v-27.29ZM596.6,513.59h-14.29v25.99l14.29,1.3v-27.29Z"/>
      <path d="M873.4,368.04l81.86-1.3c-.8,41.33,1.06,82.84.07,124.17-.09,3.7-1.3,6.84-1.42,10.28-.33,9.73.36,19.56.05,29.29-26.43-5.11-53.69-4.34-80.56-5.19v-157.24ZM905.89,387.53h-14.29v22.09h14.29v-22.09ZM922.78,388.83v20.79h15.59c-2.51-7.8-.2-14.33.01-22.1l-15.6,1.3ZM905.89,429.12h-14.29v22.09c4.64-.59,10.87,1.75,14.29-1.95v-20.14ZM938.37,429.12l-15.59,1.3v18.84c3.77,3.81,10.58,1.28,15.59,1.95v-22.09ZM905.89,470.7l-14.29,1.3v20.79h14.29v-22.09ZM938.37,470.7l-15.59,1.3v20.14c3.77,3.81,10.58,1.28,15.59,1.95v-23.39Z"/>
      <path d="M501.72,569.46c-2.82,2.97-66.87-28.34-77.97-23.38l-1.3-131.27,80.52.63-1.25,154.01ZM440.65,432.36v20.14h14.3s1.31-21.43,1.31-21.43l-12.38-.71-3.23,1.99ZM483.54,430.42h-14.29v23.39h14.29v-23.39ZM454.95,470.7h-14.29v22.09h14.29v-22.09ZM483.54,492.79v-20.14c0-.28,1.94-1.47,1.3-1.94l-14.41.61-1.19,21.47h14.3ZM456.25,510.99h-14.3s-1.3,19.48-1.3,19.48c4.9-1.21,12.01,2.21,15.6-.64v-18.84ZM469.24,531.78l13.73-1.22c.45-3.66,2.26-18.11-1.56-19.4l-12.16,1.12v19.49Z"/>
      <path d="M448.18,174.79c80.53-7.73,71.54,112.36-1.35,99.34-56.18-10.04-54.36-94,1.35-99.34Z"/>
      <path d="M580.74,118.91c6.28-.21,12.46-1.98,17.83,2.2,9.13,7.1,2.26,16.93-6.45,19.58-73.43-.88-146.45,1.69-219.64,1.28-9.55-.05-42.98,1.75-48.91-3.18-5.52-4.58-8.13-19.54,3.34-19,84.53-1.03,169.45,1.89,253.82-.89Z"/>
      <path d="M121.02,518.84l-.62,16.92-13.54,1.04-2.06-16.79c-51.12-13.94-33.74-91.72,20.33-77.51,41.09,10.79,34.23,68.99-4.11,76.35Z"/>
      <path d="M360.14,520.17l-.06,16.82-15.59-1.29-1.45-16.77c-40.97-14.72-24.79-83.91,21.22-69.95,37.36,11.34,32.13,63.18-4.13,71.19Z"/>
      <path d="M567.56,93.39c-2.43,2.32-4.69,2.83-7.92,3.14-14.4,1.36-30.95-1.23-45.62-.03-27.2-5.63-59.05,2.97-85.71-.05-10.74-1.22-15.44-10.09-10.52-19.62l143.1-1.2c9.93,1.73,14.87,9.95,6.67,17.77Z"/>
      <rect class="d" x="813.62" y="295.26" width="15.59" height="28.59"/>
      <rect class="d" x="813.62" y="469.4" width="15.59" height="28.59"/>
      <path class="d" d="M788.92,293.96l1.32,28.6h-16.91c-1.02-9.85,3.36-18.98.02-28.59,4.83,2.05,10.76,2.05,15.57,0Z"/>
      <path class="d" d="M813.62,426.52h16.89c.64.48-1.3,1.67-1.3,1.95v25.34c-5.01-.67-11.82,1.86-15.59-1.95v-25.34Z"/>
      <path class="d" d="M788.92,339.45l1.32,27.3-15.68-.57c-3.89-2.7,1.26-22.01-1.22-26.71,5.43.04,10.36,3.02,15.58-.01Z"/>
      <path class="d" d="M788.92,469.41c.72,8.76,2.85,17.78.16,26.52l-15.75.76,1.3-27.3,14.29.02Z"/>
      <path class="d" d="M790.23,383.63v24.69c-4.54-1.07-10.66,2.51-14.76,1.14-5.42-1.81.72-20.82-.84-25.84h15.6Z"/>
      <path class="d" d="M829.21,366.74h-15.59v-25.99c5.21-.3,10.75,1.05,15.59-1.3v27.29Z"/>
      <polygon class="d" points="829.21 383.63 829.21 410.92 813.62 409.62 813.62 384.93 829.21 383.63"/>
      <path class="d" d="M774.63,426.52l14.29-1.29c.19,5.84-.21,11.74-.05,17.59.08,3.18,3.07,8.26-.79,9.49l-13.44.2v-25.99Z"/>
      <path class="d" d="M562.81,513.59v27.29c-4.85-2.35-10.39-1-15.59-1.3v-25.99h15.59Z"/>
      <rect class="d" x="581" y="470.7" width="15.59" height="25.99"/>
      <rect class="d" x="547.21" y="470.7" width="15.59" height="25.99"/>
      <polygon class="d" points="562.81 345.95 562.81 370.64 548.07 370.44 545.98 367.51 547.21 345.94 562.81 345.95"/>
      <path class="d" d="M562.81,453.81h-15.59v-24.69c5.21-.3,10.75,1.05,15.59-1.3v25.99Z"/>
      <polygon class="d" points="596.6 429.12 596.6 453.16 594.7 454.79 581 453.81 581 429.12 596.6 429.12"/>
      <path class="d" d="M562.81,410.92c-3.73-1.42-15.64,3.86-16.74-.75l1.14-22.64,15.6-1.29v24.69Z"/>
      <polygon class="d" points="596.6 513.59 596.6 540.88 582.3 539.58 582.3 513.59 596.6 513.59"/>
      <path class="d" d="M596.6,387.53v24.69l-14.99-1.28c.81-7.46,1.74-15.47-.62-22.74l15.61-.67Z"/>
      <rect class="d" x="582.3" y="345.95" width="14.29" height="24.69"/>
      <path class="d" d="M938.37,470.7v23.39c-5.01-.67-11.82,1.86-15.59-1.95v-20.14l15.59-1.3Z"/>
      <path class="d" d="M938.37,429.12v22.09c-5.01-.67-11.82,1.86-15.59-1.95v-18.84l15.59-1.3Z"/>
      <path class="d" d="M922.78,388.83l15.6-1.3c-.21,7.76-2.53,14.3-.01,22.09h-15.59s0-20.79,0-20.79Z"/>
      <rect class="d" x="891.59" y="387.53" width="14.29" height="22.09"/>
      <path class="d" d="M905.89,429.12v20.14c-3.43,3.7-9.65,1.36-14.29,1.95v-22.09h14.29Z"/>
      <polygon class="d" points="905.89 470.7 905.89 492.79 891.59 492.79 891.59 472 905.89 470.7"/>
      <rect class="d" x="469.24" y="430.42" width="14.29" height="23.39"/>
      <rect class="d" x="440.65" y="470.7" width="14.29" height="22.09"/>
      <path class="d" d="M483.54,492.79h-14.3s1.19-21.47,1.19-21.47l14.41-.61c.64.47-1.3,1.66-1.3,1.94v20.14Z"/>
      <polygon class="d" points="440.65 432.36 443.89 430.37 456.26 431.08 454.95 452.51 440.65 452.51 440.65 432.36"/>
      <path class="d" d="M456.25,510.99v18.84c-3.59,2.84-10.7-.57-15.6.64l1.3-19.49h14.3Z"/>
      <path class="d" d="M469.24,531.78v-19.49l12.16-1.12c3.82,1.29,2.02,15.73,1.56,19.4l-13.73,1.22Z"/>
    </g>
  </g>
</svg>