<?xml version="1.0" encoding="UTF-8"?>
<svg id="b" data-name="Layer 2" xmlns="http://www.w3.org/2000/svg" viewBox="0 0 1000.37 986.74">
  <defs>
    <style>
      .d {
        fill: #fff;
      }
    </style>
  </defs>
  <g id="c" data-name="Layer 1">
    <g>
      <path d="M470.73.64c189.33-8.93,366.06,75.71,461.15,241.23,163.3,284.22,22.21,636.33-291.91,725.58-217.54,61.81-456.79-28.09-571.17-223.64C-119.29,422.25,99.17,18.16,470.73.64Z"/>
      <path class="d" d="M604.98,301.42c-1.75,26.59,8.8,50.2,14.69,75.28,14.95,63.62,27.72,128.45,41.06,192.46,6.67,31.98,18.46,74.7,21.74,105.87,1.29,12.28.31,16.12-11.84,20.64l-80.95-1.22-17.86-160.15c-.61-7.19,1.87-23.67-3.12-28.78-6.82-6.98-25.88-3.07-25.06,8.36l17.95,165.92c-.59,8.18,3.33,15.01-6.93,16.01-10.69,1.05-21.8-1.39-31.91-1.41-16.99-.03-34.29,1.42-51.06,1.38-7.71-.02-54.99-.07-57.81-2.91-2.34-2.35-.64-17.67-.3-22.02,3.93-49.46,12.29-98.68,16.66-148.12-1.14-11.38-21.82-17.87-25.47-2.34-3.26,13.86-4.75,38.24-6.49,53.48-1.74,15.21-2.12,30.7-3.86,45.91-2.79,24.49-6.7,48.94-9.5,73.44-.95,1.4-2.42,1.11-3.82,1.29-16.01,2.01-39.22-.39-56.26-.12-12.82.2-27.73,6.17-33.59-10.73,13.17-75.94,31.16-150.88,46.67-226.31,5.07-24.69,7.89-49.93,13.53-74.52,6.25-27.22,19.48-53.08,18.74-81.44l24.24.02c6.76,81.37,106.75,115.82,162.73,54.88,12.86-14,23.7-35.62,23.59-54.89h24.25ZM497.39,544.28c-7.76-6.97-23.44-5.02-22.64,7.83l1.35,125.75,22.97,2.57,1.33-129.58c-.21-2.1-1.48-5.2-3-6.56Z"/>
      <path class="d" d="M344.65,335.24c-.19,1.16-1.64,3.02-1.93,4.45l-2.52,1.31c-19.58.28-39.2-.42-58.78-.08-13.31.23-21.66,5.78-31-8.45-15.12-23.05,6.28-43.22,26.13-52.56,34.28-16.14,70.99-28.27,105.73-43.57,30.72-13.53,59.42-32.35,93.87-36.29,2.79-1.89-.08-17.83,2.16-23.36,3.49-8.59,22.34-14.97,23.28-24.05.86-8.32-7.91-13.47-15.67-11.74-10.72,2.38-9.84,17.57-21.95,18.91-20.08,2.23-19.2-19.29-9.59-31.3,15.81-19.73,54.21-20.44,69.46.71,8.42,11.68,8.34,32.71,0,44.5-7.2,10.19-20.32,10.75-15.74,28.03,13.32,3.54,26.31,8.67,39.01,13.94,46.75,19.39,94.36,38.96,140.38,59.97,22.15,10.12,45.68,20.3,39.4,50.07-3.94,18.68-24.5,13.29-38.41,13.91-3.02.14-5.81,1.29-8.83,1.38-15.44.47-31.02-.3-46.45-.23l-5.29-29.18c12.39,1.5,25.27.28,37.63,1.3,7.25.6,15.66,4.03,22.99,3.93,3.87-.05,8.53-.65,6.87-5.08-13.99-5.48-27.65-12.18-41.61-17.72-52.56-20.87-105.28-41.31-157.31-63.45-3.49-1.49-5.96-4.59-9.6-5.76-12.1,7.82-26.25,12.08-39.38,18.04-19.55,8.87-38.79,18.57-58.63,26.87-36.72,15.37-74.73,27.25-110.6,44.46-2.65,3.49,9.51,7.48,12.14,7.43,6.01-.1,16.8-8.73,22.94-8.73h31.26c-.79,6.85,1.08,15.8,0,22.33Z"/>
      <path class="d" d="M555.2,311.64c1.07,1.04-9.81,24.98-11.61,27.3-1.27,1.64-2.05,2.27-4.26,2.12l-104.5-.28c-7-7.83-10.91-17.7-14.9-27.23l135.28-1.9Z"/>
      <path d="M497.39,544.28c1.52,1.37,2.79,4.46,3,6.56l-1.33,129.58-22.97-2.57-1.35-125.75c-.79-12.85,14.88-14.79,22.64-7.83Z"/>
    </g>
  </g>
</svg>