<?xml version="1.0" encoding="UTF-8"?>
<svg id="b" data-name="Layer 2" xmlns="http://www.w3.org/2000/svg" viewBox="0 0 1030.88 1016.84">
  <defs>
    <style>
      .d {
        fill: #fff;
      }
    </style>
  </defs>
  <g id="c" data-name="Layer 1">
    <g>
      <path d="M485.08.66c195.1-9.2,377.22,78.02,475.22,248.58,168.28,292.89,22.88,655.74-300.81,747.71-224.17,63.7-470.72-28.94-588.59-230.46C-122.93,435.13,102.2,18.71,485.08.66Z"/>
      <path class="d" d="M304.45,564.76c.25.15,1.58,3.44,3.02,4.94,33.34,34.61,75.11,52.61,121.97,61.39,72.44,13.57,133.46,9.31,203.34-14.13,35.58-11.93,49.18-20.57,74.99-47.27,3.65-3.77,3.54-8.99,10.73-2.12,10.05,9.6,19.68,31.56,18.13,45.57-7.53,68.14-116.43,98.64-172.27,104.17-75.71,7.5-231.64.99-276.33-72.85-12.74-21.04-16.7-35.95-4.36-57.97,2.43-4.33,15.59-24.78,20.8-21.74Z"/>
      <path class="d" d="M396.3,503.43c-1.71,1.59-12.67-10.81-16.76-11.59-9.84-1.88-26.5,2.58-36.02,6.12-18.11,6.72-76.26,38.39-87.51,52.18-2.29,2.8-6.41,8.66-6.77,12.21-1.25,12.55,5.87,4.98,13.2,5.87-14.46,24.95-19.39,55.52-4.62,81.71,55.09,97.71,225.62,108.36,323.81,94.89,61.84-8.48,122.27-28.92,163.16-78.38,33.9-41,18.86-117.89-25.93-145.8-11.45-7.14-56.94-28.76-68.82-30.12-7.72-.88-13.86-.27-20.94,2.74l72.28-72.53c2.7-.22,9.38,8.52,12.21,10.61,26.49,19.52,45.23,22.6,67.41,51.9,24.62,32.53,19.42,47.81,19.73,86.48.2,24.31,3.4,35.91-6.96,59.86-31.83,73.6-118.69,108.96-193.26,119.58-90.87,12.94-184.97,11.48-271.14-22.37-78.15-30.69-116.24-76.9-119.4-162.88-1.76-48,3.15-75.59,43.23-105.3,18.93-14.04,44.34-20.54,56.65-41.11,3.03-.44,7.68,3.93,10.07,5.9,18.33,15.14,45.5,43.77,61.84,61.84,5.15,5.7,9.77,12.17,14.51,18.21Z"/>
      <path class="d" d="M587.64,325.93c.61-.07,1.97-2.01,3.63-1.45-15.5,40.51-31.15,81.67-47.33,122.17-7.22,18.08-16.21,35.74-23.21,53.9-1.22,3.15-12.65,41.3-15.28,39.26l-84.41-213.89h166.6Z"/>
      <polygon class="d" points="751.33 325.94 536 542.73 626.14 325.14 751.33 325.94"/>
      <path class="d" d="M388.83,324.67l90.4,218.06c-49.36-51.56-97.91-104.5-149.83-153.53-15.94-15.05-33.23-28.92-49.51-43.61-7.74-6.98-13.79-15.19-23.25-20.4l132.2-.52Z"/>
      <polygon class="d" points="591.28 296.83 428.31 296.83 507.61 196.46 591.28 296.83"/>
      <polygon class="d" points="474.87 187.71 399.96 282.28 341.01 187.72 474.87 187.71"/>
      <path class="d" d="M669.85,187.7l-54.58,91.68c-2.14.55-2.37-1.48-3.36-2.46-14.53-14.46-29.26-37.85-43.16-54.32-9.31-11.03-23.08-21.26-28.39-34.9h129.5Z"/>
      <path class="d" d="M375.93,296.83h-130.95c.49-3.23,3.79-6.89,5.86-9.42,18.45-22.55,38.83-43.98,56.67-67.01,3.56-4.6,7.67-9.34,8.79-15.23l59.64,91.66Z"/>
      <polygon class="d" points="770.24 296.82 640.73 296.09 696.77 206.64 770.24 296.82"/>
    </g>
  </g>
</svg>